<svg width="940" height="740" viewBox="0 0 940 740" fill="none" xmlns="http://www.w3.org/2000/svg">
<g id="v3">
<path id="Vector 1" d="M309.354 380.354C309.549 380.158 309.549 379.842 309.354 379.646L306.172 376.464C305.976 376.269 305.66 376.269 305.464 376.464C305.269 376.66 305.269 376.976 305.464 377.172L308.293 380L305.464 382.828C305.269 383.024 305.269 383.34 305.464 383.536C305.66 383.731 305.976 383.731 306.172 383.536L309.354 380.354ZM169.5 270.5V375H170.5V270.5H169.5ZM175 380.5H309V379.5H175V380.5ZM169.5 375C169.5 378.038 171.962 380.5 175 380.5V379.5C172.515 379.5 170.5 377.485 170.5 375H169.5Z" fill="#B2B2B2"/>
<path id="Vector 2" d="M590.354 610.354C590.549 610.158 590.549 609.842 590.354 609.646L587.172 606.464C586.976 606.269 586.66 606.269 586.464 606.464C586.269 606.66 586.269 606.976 586.464 607.172L589.293 610L586.464 612.828C586.269 613.024 586.269 613.34 586.464 613.536C586.66 613.731 586.976 613.731 587.172 613.536L590.354 610.354ZM450.5 499V605H451.5V499H450.5ZM456 610.5H590V609.5H456V610.5ZM450.5 605C450.5 608.038 452.962 610.5 456 610.5V609.5C453.515 609.5 451.5 607.485 451.5 605H450.5Z" fill="#B2B2B2"/>
<path id="Vector 3" d="M299.646 155.646C299.451 155.842 299.451 156.158 299.646 156.354L302.828 159.536C303.024 159.731 303.34 159.731 303.536 159.536C303.731 159.34 303.731 159.024 303.536 158.828L300.707 156L303.536 153.172C303.731 152.976 303.731 152.66 303.536 152.464C303.34 152.269 303.024 152.269 302.828 152.464L299.646 155.646ZM581.353 440.5H625V439.5H581.353V440.5ZM630.5 435V161H629.5V435H630.5ZM625 155.5H300V156.5H625V155.5ZM630.5 161C630.5 157.962 628.038 155.5 625 155.5V156.5C627.485 156.5 629.5 158.515 629.5 161H630.5ZM625 440.5C628.038 440.5 630.5 438.038 630.5 435H629.5C629.5 437.485 627.485 439.5 625 439.5V440.5Z" fill="#B2B2B2"/>
<path id="Vector 4" d="M579.646 389.646C579.451 389.842 579.451 390.158 579.646 390.354L582.828 393.536C583.024 393.731 583.34 393.731 583.536 393.536C583.731 393.34 583.731 393.024 583.536 392.828L580.707 390L583.536 387.172C583.731 386.976 583.731 386.66 583.536 386.464C583.34 386.269 583.024 386.269 582.828 386.464L579.646 389.646ZM860.5 674.5H904V673.5H860.5V674.5ZM909.5 669V395H908.5V669H909.5ZM904 389.5H580V390.5H904V389.5ZM909.5 395C909.5 391.962 907.038 389.5 904 389.5V390.5C906.485 390.5 908.5 392.515 908.5 395H909.5ZM904 674.5C907.038 674.5 909.5 672.038 909.5 669H908.5C908.5 671.485 906.485 673.5 904 673.5V674.5Z" fill="#B2B2B2"/>
<path id="SIGNS" d="M188.02 366.196C190.372 366.196 191.94 364.838 191.94 363.158C191.94 361.562 190.806 360.932 189.308 360.47L186.872 359.686C186.228 359.49 185.934 359.196 185.934 358.762C185.934 358.188 186.55 357.698 187.516 357.698C188.622 357.698 189.532 358.244 189.938 359.042L191.716 358.524C191.184 357.166 189.616 356.004 187.502 356.004C185.458 356.004 183.974 357.292 183.988 358.818C183.974 360.078 184.912 360.904 186.2 361.31L188.706 362.094C189.644 362.402 189.994 362.752 189.994 363.27C189.994 363.914 189.28 364.502 188.132 364.502C186.718 364.502 185.724 363.69 185.332 362.668L183.498 363.228C184.044 364.754 185.626 366.196 188.02 366.196ZM193.339 366H195.285V356.2H193.339V366ZM206.843 360.554H201.845V362.206H204.855C204.687 363.424 203.679 364.404 202.027 364.404C199.829 364.404 198.611 362.836 198.611 361.072C198.611 359.308 199.899 357.81 201.817 357.81C203.329 357.81 204.239 358.496 204.729 359.504L206.507 359C205.891 357.362 204.225 356.004 201.803 356.004C198.891 356.004 196.665 358.202 196.665 361.086C196.665 363.984 198.877 366.196 201.887 366.196C204.827 366.196 206.843 364.306 206.843 361.534V360.554ZM214.737 356.2V362.556L209.809 356.2H208.227V366H210.145V359.63L215.073 366H216.655V356.2H214.737ZM222.457 366.196C224.809 366.196 226.377 364.838 226.377 363.158C226.377 361.562 225.243 360.932 223.745 360.47L221.309 359.686C220.665 359.49 220.371 359.196 220.371 358.762C220.371 358.188 220.987 357.698 221.953 357.698C223.059 357.698 223.969 358.244 224.375 359.042L226.153 358.524C225.621 357.166 224.053 356.004 221.939 356.004C219.895 356.004 218.411 357.292 218.425 358.818C218.411 360.078 219.349 360.904 220.637 361.31L223.143 362.094C224.081 362.402 224.431 362.752 224.431 363.27C224.431 363.914 223.717 364.502 222.569 364.502C221.155 364.502 220.161 363.69 219.769 362.668L217.935 363.228C218.481 364.754 220.063 366.196 222.457 366.196Z" fill="black"/>
<path id="SIGNS_2" d="M465.02 600.196C467.372 600.196 468.94 598.838 468.94 597.158C468.94 595.562 467.806 594.932 466.308 594.47L463.872 593.686C463.228 593.49 462.934 593.196 462.934 592.762C462.934 592.188 463.55 591.698 464.516 591.698C465.622 591.698 466.532 592.244 466.938 593.042L468.716 592.524C468.184 591.166 466.616 590.004 464.502 590.004C462.458 590.004 460.974 591.292 460.988 592.818C460.974 594.078 461.912 594.904 463.2 595.31L465.706 596.094C466.644 596.402 466.994 596.752 466.994 597.27C466.994 597.914 466.28 598.502 465.132 598.502C463.718 598.502 462.724 597.69 462.332 596.668L460.498 597.228C461.044 598.754 462.626 600.196 465.02 600.196ZM470.339 600H472.285V590.2H470.339V600ZM483.843 594.554H478.845V596.206H481.855C481.687 597.424 480.679 598.404 479.027 598.404C476.829 598.404 475.611 596.836 475.611 595.072C475.611 593.308 476.899 591.81 478.817 591.81C480.329 591.81 481.239 592.496 481.729 593.504L483.507 593C482.891 591.362 481.225 590.004 478.803 590.004C475.891 590.004 473.665 592.202 473.665 595.086C473.665 597.984 475.877 600.196 478.887 600.196C481.827 600.196 483.843 598.306 483.843 595.534V594.554ZM491.737 590.2V596.556L486.809 590.2H485.227V600H487.145V593.63L492.073 600H493.655V590.2H491.737ZM499.457 600.196C501.809 600.196 503.377 598.838 503.377 597.158C503.377 595.562 502.243 594.932 500.745 594.47L498.309 593.686C497.665 593.49 497.371 593.196 497.371 592.762C497.371 592.188 497.987 591.698 498.953 591.698C500.059 591.698 500.969 592.244 501.375 593.042L503.153 592.524C502.621 591.166 501.053 590.004 498.939 590.004C496.895 590.004 495.411 591.292 495.425 592.818C495.411 594.078 496.349 594.904 497.637 595.31L500.143 596.094C501.081 596.402 501.431 596.752 501.431 597.27C501.431 597.914 500.717 598.502 499.569 598.502C498.155 598.502 497.161 597.69 496.769 596.668L494.935 597.228C495.481 598.754 497.063 600.196 499.457 600.196Z" fill="black"/>
<path id="VERIFIES" d="M556.854 167.2L554.054 174.564L551.254 167.2H549.14L553.004 177H555.104L558.968 167.2H556.854ZM567.142 168.936V167.2H559.918V177H567.128V175.264H561.794V172.856H566.428V171.176H561.794V168.936H567.142ZM574.87 177H577.082L574.646 173.374C576.032 172.898 576.788 171.68 576.788 170.392C576.788 168.838 575.556 167.2 573.428 167.2H568.654V177H570.558V173.57H572.644L574.87 177ZM570.558 168.922H573.372C574.282 168.922 574.926 169.608 574.926 170.392C574.926 171.204 574.296 171.89 573.302 171.89H570.558V168.922ZM578.361 177H580.307V167.2H578.361V177ZM589.218 168.95V167.2H582.092V177H584.01V173.108H588.504V171.386H584.01V168.95H589.218ZM590.322 177H592.268V167.2H590.322V177ZM601.278 168.936V167.2H594.054V177H601.264V175.264H595.93V172.856H600.564V171.176H595.93V168.936H601.278ZM606.493 177.196C608.845 177.196 610.413 175.838 610.413 174.158C610.413 172.562 609.279 171.932 607.781 171.47L605.345 170.686C604.701 170.49 604.407 170.196 604.407 169.762C604.407 169.188 605.023 168.698 605.989 168.698C607.095 168.698 608.005 169.244 608.411 170.042L610.189 169.524C609.657 168.166 608.089 167.004 605.975 167.004C603.931 167.004 602.447 168.292 602.461 169.818C602.447 171.078 603.385 171.904 604.673 172.31L607.179 173.094C608.117 173.402 608.467 173.752 608.467 174.27C608.467 174.914 607.753 175.502 606.605 175.502C605.191 175.502 604.197 174.69 603.805 173.668L601.971 174.228C602.517 175.754 604.099 177.196 606.493 177.196Z" fill="black"/>
<path id="VERIFIES_2" d="M837.854 407.2L835.054 414.564L832.254 407.2H830.14L834.004 417H836.104L839.968 407.2H837.854ZM848.142 408.936V407.2H840.918V417H848.128V415.264H842.794V412.856H847.428V411.176H842.794V408.936H848.142ZM855.87 417H858.082L855.646 413.374C857.032 412.898 857.788 411.68 857.788 410.392C857.788 408.838 856.556 407.2 854.428 407.2H849.654V417H851.558V413.57H853.644L855.87 417ZM851.558 408.922H854.372C855.282 408.922 855.926 409.608 855.926 410.392C855.926 411.204 855.296 411.89 854.302 411.89H851.558V408.922ZM859.361 417H861.307V407.2H859.361V417ZM870.218 408.95V407.2H863.092V417H865.01V413.108H869.504V411.386H865.01V408.95H870.218ZM871.322 417H873.268V407.2H871.322V417ZM882.278 408.936V407.2H875.054V417H882.264V415.264H876.93V412.856H881.564V411.176H876.93V408.936H882.278ZM887.493 417.196C889.845 417.196 891.413 415.838 891.413 414.158C891.413 412.562 890.279 411.932 888.781 411.47L886.345 410.686C885.701 410.49 885.407 410.196 885.407 409.762C885.407 409.188 886.023 408.698 886.989 408.698C888.095 408.698 889.005 409.244 889.411 410.042L891.189 409.524C890.657 408.166 889.089 407.004 886.975 407.004C884.931 407.004 883.447 408.292 883.461 409.818C883.447 411.078 884.385 411.904 885.673 412.31L888.179 413.094C889.117 413.402 889.467 413.752 889.467 414.27C889.467 414.914 888.753 415.502 887.605 415.502C886.191 415.502 885.197 414.69 884.805 413.668L882.971 414.228C883.517 415.754 885.099 417.196 887.493 417.196Z" fill="black"/>
<g id="container">
<g id="Rectangle" filter="url(#filter0_di_11_130)">
<rect x="30" y="40" width="270" height="230" rx="5" fill="#E6F7FF" fill-opacity="0.5" shape-rendering="crispEdges"/>
<rect x="30.5" y="40.5" width="269" height="229" rx="4.5" stroke="#B3B3B3" shape-rendering="crispEdges"/>
</g>
<path id="TITLE" d="M122.118 79.9778H125.91L121.734 73.7618C124.11 72.9458 125.406 70.8578 125.406 68.6498C125.406 65.9858 123.294 63.1778 119.646 63.1778H111.462V79.9778H114.726V74.0978H118.302L122.118 79.9778ZM114.726 66.1298H119.55C121.11 66.1298 122.214 67.3058 122.214 68.6498C122.214 70.0418 121.134 71.2178 119.43 71.2178H114.726V66.1298ZM136.003 80.3138C141.067 80.3138 144.811 76.5218 144.811 71.5538C144.811 66.6098 141.067 62.8418 136.003 62.8418C130.915 62.8418 127.171 66.6098 127.171 71.5538C127.171 76.5218 130.915 80.3138 136.003 80.3138ZM136.003 77.2658C132.667 77.2658 130.507 74.7698 130.507 71.5538C130.507 68.4098 132.667 65.8898 136.003 65.8898C139.315 65.8898 141.499 68.4098 141.499 71.5538C141.499 74.7698 139.315 77.2658 136.003 77.2658ZM155.314 80.3138C160.378 80.3138 164.122 76.5218 164.122 71.5538C164.122 66.6098 160.378 62.8418 155.314 62.8418C150.226 62.8418 146.482 66.6098 146.482 71.5538C146.482 76.5218 150.226 80.3138 155.314 80.3138ZM155.314 77.2658C151.978 77.2658 149.818 74.7698 149.818 71.5538C149.818 68.4098 151.978 65.8898 155.314 65.8898C158.626 65.8898 160.81 68.4098 160.81 71.5538C160.81 74.7698 158.626 77.2658 155.314 77.2658ZM178.662 63.1778H164.094V66.1538H169.734V79.9778H173.022V66.1538H178.662V63.1778ZM194.522 80.3138C198.962 80.3138 201.794 77.6018 202.562 74.9138L199.37 74.0978C198.818 75.7538 197.018 77.2178 194.474 77.2178C191.162 77.2178 189.05 74.5538 189.05 71.5298C189.05 68.5058 191.162 65.9378 194.474 65.9378C197.018 65.9378 198.818 67.4498 199.37 69.0818L202.586 68.2898C201.818 65.6258 198.986 62.8418 194.45 62.8418C189.458 62.8418 185.69 66.6098 185.69 71.5538C185.69 76.5218 189.458 80.3138 194.522 80.3138ZM216.602 79.9778H220.034L213.578 63.1778H209.306L202.874 79.9778H206.282L207.674 76.3298H215.234L216.602 79.9778ZM208.754 73.4258L211.442 66.3218L214.13 73.4258H208.754Z" fill="#343536"/>
</g>
<g id="service">
<g id="Rectangle_2" filter="url(#filter1_di_11_130)">
<rect x="60" y="130" width="210" height="50" rx="5" fill="white"/>
<rect x="60.25" y="130.25" width="209.5" height="49.5" rx="4.75" stroke="#B3B3B3" stroke-width="0.5"/>
</g>
<path id="TITLE_2" d="M125.798 152.2H121.206V162H123.11V159.004H125.714C127.968 159.004 129.2 157.254 129.2 155.602C129.2 153.978 127.954 152.2 125.798 152.2ZM125.658 157.296H123.11V153.936H125.742C126.68 153.936 127.338 154.748 127.338 155.616C127.338 156.47 126.694 157.296 125.658 157.296ZM136.582 162H138.794L136.358 158.374C137.744 157.898 138.5 156.68 138.5 155.392C138.5 153.838 137.268 152.2 135.14 152.2H130.366V162H132.27V158.57H134.356L136.582 162ZM132.27 153.922H135.084C135.994 153.922 136.638 154.608 136.638 155.392C136.638 156.204 136.008 156.89 135.014 156.89H132.27V153.922ZM140.072 162H142.018V152.2H140.072V162ZM150.678 152.2L147.878 159.564L145.078 152.2H142.964L146.828 162H148.928L152.792 152.2H150.678ZM159.803 162H161.805L158.039 152.2H155.547L151.795 162H153.783L154.595 159.872H159.005L159.803 162ZM155.225 158.178L156.793 154.034L158.361 158.178H155.225ZM169.333 152.2H160.835V153.936H164.125V162H166.043V153.936H169.333V152.2ZM177.645 153.936V152.2H170.421V162H177.631V160.264H172.297V157.856H176.931V156.176H172.297V153.936H177.645ZM189.028 162H191.366L187.194 156.484L191.058 152.2H188.622L184.492 156.946V152.2H182.574V162H184.492V159.494L185.934 157.898L189.028 162ZM199.614 153.936V152.2H192.39V162H199.6V160.264H194.266V157.856H198.9V156.176H194.266V153.936H199.614ZM207.495 152.2L204.975 156.554L202.441 152.2H200.271L203.995 158.402V162H205.941V158.402L209.651 152.2H207.495Z" fill="#343536"/>
</g>
<g id="service_2">
<g id="Rectangle_3" filter="url(#filter2_di_11_130)">
<rect x="60" y="190" width="210" height="50" rx="5" fill="white"/>
<rect x="60.25" y="190.25" width="209.5" height="49.5" rx="4.75" stroke="#B3B3B3" stroke-width="0.5"/>
</g>
<path id="TITLE_3" d="M129.024 212.2H124.432V222H126.336V219.004H128.94C131.194 219.004 132.426 217.254 132.426 215.602C132.426 213.978 131.18 212.2 129.024 212.2ZM128.884 217.296H126.336V213.936H128.968C129.906 213.936 130.564 214.748 130.564 215.616C130.564 216.47 129.92 217.296 128.884 217.296ZM140.06 212.2V217.954C140.06 219.396 139.29 220.432 137.75 220.432C136.224 220.432 135.454 219.396 135.454 217.954V212.2H133.508V217.982C133.508 220.474 135.006 222.196 137.75 222.196C140.48 222.196 141.992 220.474 141.992 217.982V212.2H140.06ZM150.387 216.862C151.143 216.456 151.605 215.756 151.605 214.818C151.591 213.264 150.289 212.2 148.371 212.2H143.695V222H148.637C150.723 222 151.969 220.908 151.969 219.228C151.969 218.122 151.353 217.296 150.387 216.862ZM148.357 213.852C149.169 213.838 149.715 214.356 149.715 215.042C149.729 215.714 149.197 216.274 148.399 216.274H145.571V213.852H148.357ZM148.623 220.334H145.571V217.786H148.637C149.547 217.786 150.065 218.346 150.065 219.046C150.065 219.76 149.533 220.334 148.623 220.334ZM155.278 220.236V212.2H153.36V222H160.164V220.236H155.278ZM161.371 222H163.317V212.2H161.371V222ZM169.849 222.196C172.439 222.196 174.091 220.614 174.539 219.046L172.677 218.57C172.355 219.536 171.305 220.39 169.821 220.39C167.889 220.39 166.657 218.836 166.657 217.072C166.657 215.308 167.889 213.81 169.821 213.81C171.305 213.81 172.355 214.692 172.677 215.644L174.553 215.182C174.105 213.628 172.453 212.004 169.807 212.004C166.895 212.004 164.697 214.202 164.697 217.086C164.697 219.984 166.895 222.196 169.849 222.196ZM185.802 222H188.14L183.968 216.484L187.832 212.2H185.396L181.266 216.946V212.2H179.348V222H181.266V219.494L182.708 217.898L185.802 222ZM196.388 213.936V212.2H189.164V222H196.374V220.264H191.04V217.856H195.674V216.176H191.04V213.936H196.388ZM204.269 212.2L201.749 216.554L199.215 212.2H197.045L200.769 218.402V222H202.715V218.402L206.425 212.2H204.269Z" fill="#343536"/>
</g>
<g id="container_2">
<g id="Rectangle_4" filter="url(#filter3_di_11_130)">
<rect x="310" y="270" width="270" height="230" rx="5" fill="#E6F7FF" fill-opacity="0.5" shape-rendering="crispEdges"/>
<rect x="310.5" y="270.5" width="269" height="229" rx="4.5" stroke="#B3B3B3" shape-rendering="crispEdges"/>
</g>
<path id="TITLE_4" d="M358.711 309.978H362.047V293.178H358.711V309.978ZM376.268 293.178V304.074L367.82 293.178H365.108V309.978H368.396V299.058L376.844 309.978H379.556V293.178H376.268ZM396.006 293.178H381.438V296.154H387.078V309.978H390.366V296.154H396.006V293.178ZM410.255 296.154V293.178H397.871V309.978H410.231V307.002H401.087V302.874H409.031V299.994H401.087V296.154H410.255ZM423.503 309.978H427.295L423.119 303.762C425.495 302.946 426.791 300.858 426.791 298.65C426.791 295.986 424.679 293.178 421.031 293.178H412.847V309.978H416.111V304.098H419.687L423.503 309.978ZM416.111 296.13H420.935C422.495 296.13 423.599 297.306 423.599 298.65C423.599 300.042 422.519 301.218 420.815 301.218H416.111V296.13ZM443.622 293.178L438.126 301.122L432.63 293.178H429.486V309.978H432.774V298.914L438.126 306.33L443.478 298.914V309.978H446.766V293.178H443.622ZM462.213 296.154V293.178H449.829V309.978H462.189V307.002H453.045V302.874H460.989V299.994H453.045V296.154H462.213ZM472.1 293.178H464.804V309.978H472.1C477.044 309.978 480.14 306.426 480.14 301.578C480.14 296.634 476.996 293.178 472.1 293.178ZM472.028 307.002H468.068V296.13H472.028C474.908 296.13 476.828 298.314 476.828 301.506C476.828 304.746 474.908 307.002 472.028 307.002ZM482.522 309.978H485.858V293.178H482.522V309.978ZM501.183 309.978H504.615L498.159 293.178H493.887L487.455 309.978H490.863L492.255 306.33H499.815L501.183 309.978ZM493.335 303.426L496.023 296.322L498.711 303.426H493.335ZM517.521 293.178H502.953V296.154H508.593V309.978H511.881V296.154H517.521V293.178ZM531.77 296.154V293.178H519.386V309.978H531.746V307.002H522.602V302.874H530.546V299.994H522.602V296.154H531.77Z" fill="#343536"/>
</g>
<g id="service_3">
<g id="Rectangle_5" filter="url(#filter4_di_11_130)">
<rect x="340" y="360" width="210" height="50" rx="5" fill="white"/>
<rect x="340.25" y="360.25" width="209.5" height="49.5" rx="4.75" stroke="#B3B3B3" stroke-width="0.5"/>
</g>
<path id="TITLE_5" d="M405.798 382.2H401.206V392H403.11V389.004H405.714C407.968 389.004 409.2 387.254 409.2 385.602C409.2 383.978 407.954 382.2 405.798 382.2ZM405.658 387.296H403.11V383.936H405.742C406.68 383.936 407.338 384.748 407.338 385.616C407.338 386.47 406.694 387.296 405.658 387.296ZM416.582 392H418.794L416.358 388.374C417.744 387.898 418.5 386.68 418.5 385.392C418.5 383.838 417.268 382.2 415.14 382.2H410.366V392H412.27V388.57H414.356L416.582 392ZM412.27 383.922H415.084C415.994 383.922 416.638 384.608 416.638 385.392C416.638 386.204 416.008 386.89 415.014 386.89H412.27V383.922ZM420.072 392H422.018V382.2H420.072V392ZM430.678 382.2L427.878 389.564L425.078 382.2H422.964L426.828 392H428.928L432.792 382.2H430.678ZM439.803 392H441.805L438.039 382.2H435.547L431.795 392H433.783L434.595 389.872H439.005L439.803 392ZM435.225 388.178L436.793 384.034L438.361 388.178H435.225ZM449.333 382.2H440.835V383.936H444.125V392H446.043V383.936H449.333V382.2ZM457.645 383.936V382.2H450.421V392H457.631V390.264H452.297V387.856H456.931V386.176H452.297V383.936H457.645ZM469.028 392H471.366L467.194 386.484L471.058 382.2H468.622L464.492 386.946V382.2H462.574V392H464.492V389.494L465.934 387.898L469.028 392ZM479.614 383.936V382.2H472.39V392H479.6V390.264H474.266V387.856H478.9V386.176H474.266V383.936H479.614ZM487.495 382.2L484.975 386.554L482.441 382.2H480.271L483.995 388.402V392H485.941V388.402L489.651 382.2H487.495Z" fill="#343536"/>
</g>
<g id="service_4">
<g id="Rectangle_6" filter="url(#filter5_di_11_130)">
<rect x="340" y="420" width="210" height="50" rx="5" fill="white"/>
<rect x="340.25" y="420.25" width="209.5" height="49.5" rx="4.75" stroke="#B3B3B3" stroke-width="0.5"/>
</g>
<path id="TITLE_6" d="M409.024 442.2H404.432V452H406.336V449.004H408.94C411.194 449.004 412.426 447.254 412.426 445.602C412.426 443.978 411.18 442.2 409.024 442.2ZM408.884 447.296H406.336V443.936H408.968C409.906 443.936 410.564 444.748 410.564 445.616C410.564 446.47 409.92 447.296 408.884 447.296ZM420.06 442.2V447.954C420.06 449.396 419.29 450.432 417.75 450.432C416.224 450.432 415.454 449.396 415.454 447.954V442.2H413.508V447.982C413.508 450.474 415.006 452.196 417.75 452.196C420.48 452.196 421.992 450.474 421.992 447.982V442.2H420.06ZM430.387 446.862C431.143 446.456 431.605 445.756 431.605 444.818C431.591 443.264 430.289 442.2 428.371 442.2H423.695V452H428.637C430.723 452 431.969 450.908 431.969 449.228C431.969 448.122 431.353 447.296 430.387 446.862ZM428.357 443.852C429.169 443.838 429.715 444.356 429.715 445.042C429.729 445.714 429.197 446.274 428.399 446.274H425.571V443.852H428.357ZM428.623 450.334H425.571V447.786H428.637C429.547 447.786 430.065 448.346 430.065 449.046C430.065 449.76 429.533 450.334 428.623 450.334ZM435.278 450.236V442.2H433.36V452H440.164V450.236H435.278ZM441.371 452H443.317V442.2H441.371V452ZM449.849 452.196C452.439 452.196 454.091 450.614 454.539 449.046L452.677 448.57C452.355 449.536 451.305 450.39 449.821 450.39C447.889 450.39 446.657 448.836 446.657 447.072C446.657 445.308 447.889 443.81 449.821 443.81C451.305 443.81 452.355 444.692 452.677 445.644L454.553 445.182C454.105 443.628 452.453 442.004 449.807 442.004C446.895 442.004 444.697 444.202 444.697 447.086C444.697 449.984 446.895 452.196 449.849 452.196ZM465.802 452H468.14L463.968 446.484L467.832 442.2H465.396L461.266 446.946V442.2H459.348V452H461.266V449.494L462.708 447.898L465.802 452ZM476.388 443.936V442.2H469.164V452H476.374V450.264H471.04V447.856H475.674V446.176H471.04V443.936H476.388ZM484.269 442.2L481.749 446.554L479.215 442.2H477.045L480.769 448.402V452H482.715V448.402L486.425 442.2H484.269Z" fill="#343536"/>
</g>
<g id="container_3">
<g id="Rectangle_7" filter="url(#filter6_di_11_130)">
<rect x="590" y="500" width="270" height="230" rx="5" fill="#E6F7FF" fill-opacity="0.5" shape-rendering="crispEdges"/>
<rect x="590.5" y="500.5" width="269" height="229" rx="4.5" stroke="#B3B3B3" shape-rendering="crispEdges"/>
</g>
<path id="TITLE_7" d="M647.565 536.954V523.178H644.277V539.978H655.941V536.954H647.565ZM670.394 526.154V523.178H658.01V539.978H670.37V537.002H661.226V532.874H669.17V529.994H661.226V526.154H670.394ZM685.249 539.978H688.681L682.225 523.178H677.953L671.521 539.978H674.929L676.321 536.33H683.881L685.249 539.978ZM677.401 533.426L680.089 526.322L682.777 533.426H677.401ZM702.474 526.178V523.178H690.258V539.978H693.546V533.306H701.25V530.354H693.546V526.178H702.474ZM717.52 523.178H710.224V539.978H717.52C722.464 539.978 725.56 536.426 725.56 531.578C725.56 526.634 722.416 523.178 717.52 523.178ZM717.448 537.002H713.488V526.13H717.448C720.328 526.13 722.248 528.314 722.248 531.506C722.248 534.746 720.328 537.002 717.448 537.002ZM736.078 540.314C741.142 540.314 744.886 536.522 744.886 531.554C744.886 526.61 741.142 522.842 736.078 522.842C730.99 522.842 727.246 526.61 727.246 531.554C727.246 536.522 730.99 540.314 736.078 540.314ZM736.078 537.266C732.742 537.266 730.582 534.77 730.582 531.554C730.582 528.41 732.742 525.89 736.078 525.89C739.39 525.89 741.574 528.41 741.574 531.554C741.574 534.77 739.39 537.266 736.078 537.266ZM761.389 523.178L755.893 531.122L750.397 523.178H747.253V539.978H750.541V528.914L755.893 536.33L761.245 528.914V539.978H764.533V523.178H761.389ZM779.86 539.978H783.292L776.836 523.178H772.564L766.132 539.978H769.54L770.932 536.33H778.492L779.86 539.978ZM772.012 533.426L774.7 526.322L777.388 533.426H772.012ZM784.868 539.978H788.204V523.178H784.868V539.978ZM802.425 523.178V534.074L793.977 523.178H791.265V539.978H794.553V529.058L803.001 539.978H805.713V523.178H802.425Z" fill="#343536"/>
</g>
<g id="service_5">
<g id="Rectangle_8" filter="url(#filter7_di_11_130)">
<rect x="620" y="590" width="210" height="50" rx="5" fill="white"/>
<rect x="620.25" y="590.25" width="209.5" height="49.5" rx="4.75" stroke="#B3B3B3" stroke-width="0.5"/>
</g>
<path id="TITLE_8" d="M685.798 612.2H681.206V622H683.11V619.004H685.714C687.968 619.004 689.2 617.254 689.2 615.602C689.2 613.978 687.954 612.2 685.798 612.2ZM685.658 617.296H683.11V613.936H685.742C686.68 613.936 687.338 614.748 687.338 615.616C687.338 616.47 686.694 617.296 685.658 617.296ZM696.582 622H698.794L696.358 618.374C697.744 617.898 698.5 616.68 698.5 615.392C698.5 613.838 697.268 612.2 695.14 612.2H690.366V622H692.27V618.57H694.356L696.582 622ZM692.27 613.922H695.084C695.994 613.922 696.638 614.608 696.638 615.392C696.638 616.204 696.008 616.89 695.014 616.89H692.27V613.922ZM700.072 622H702.018V612.2H700.072V622ZM710.678 612.2L707.878 619.564L705.078 612.2H702.964L706.828 622H708.928L712.792 612.2H710.678ZM719.803 622H721.805L718.039 612.2H715.547L711.795 622H713.783L714.595 619.872H719.005L719.803 622ZM715.225 618.178L716.793 614.034L718.361 618.178H715.225ZM729.333 612.2H720.835V613.936H724.125V622H726.043V613.936H729.333V612.2ZM737.645 613.936V612.2H730.421V622H737.631V620.264H732.297V617.856H736.931V616.176H732.297V613.936H737.645ZM749.028 622H751.366L747.194 616.484L751.058 612.2H748.622L744.492 616.946V612.2H742.574V622H744.492V619.494L745.934 617.898L749.028 622ZM759.614 613.936V612.2H752.39V622H759.6V620.264H754.266V617.856H758.9V616.176H754.266V613.936H759.614ZM767.495 612.2L764.975 616.554L762.441 612.2H760.271L763.995 618.402V622H765.941V618.402L769.651 612.2H767.495Z" fill="#343536"/>
</g>
<g id="service_6">
<g id="Rectangle_9" filter="url(#filter8_di_11_130)">
<rect x="620" y="650" width="210" height="50" rx="5" fill="white"/>
<rect x="620.25" y="650.25" width="209.5" height="49.5" rx="4.75" stroke="#B3B3B3" stroke-width="0.5"/>
</g>
<path id="TITLE_9" d="M689.024 672.2H684.432V682H686.336V679.004H688.94C691.194 679.004 692.426 677.254 692.426 675.602C692.426 673.978 691.18 672.2 689.024 672.2ZM688.884 677.296H686.336V673.936H688.968C689.906 673.936 690.564 674.748 690.564 675.616C690.564 676.47 689.92 677.296 688.884 677.296ZM700.06 672.2V677.954C700.06 679.396 699.29 680.432 697.75 680.432C696.224 680.432 695.454 679.396 695.454 677.954V672.2H693.508V677.982C693.508 680.474 695.006 682.196 697.75 682.196C700.48 682.196 701.992 680.474 701.992 677.982V672.2H700.06ZM710.387 676.862C711.143 676.456 711.605 675.756 711.605 674.818C711.591 673.264 710.289 672.2 708.371 672.2H703.695V682H708.637C710.723 682 711.969 680.908 711.969 679.228C711.969 678.122 711.353 677.296 710.387 676.862ZM708.357 673.852C709.169 673.838 709.715 674.356 709.715 675.042C709.729 675.714 709.197 676.274 708.399 676.274H705.571V673.852H708.357ZM708.623 680.334H705.571V677.786H708.637C709.547 677.786 710.065 678.346 710.065 679.046C710.065 679.76 709.533 680.334 708.623 680.334ZM715.278 680.236V672.2H713.36V682H720.164V680.236H715.278ZM721.371 682H723.317V672.2H721.371V682ZM729.849 682.196C732.439 682.196 734.091 680.614 734.539 679.046L732.677 678.57C732.355 679.536 731.305 680.39 729.821 680.39C727.889 680.39 726.657 678.836 726.657 677.072C726.657 675.308 727.889 673.81 729.821 673.81C731.305 673.81 732.355 674.692 732.677 675.644L734.553 675.182C734.105 673.628 732.453 672.004 729.807 672.004C726.895 672.004 724.697 674.202 724.697 677.086C724.697 679.984 726.895 682.196 729.849 682.196ZM745.802 682H748.14L743.968 676.484L747.832 672.2H745.396L741.266 676.946V672.2H739.348V682H741.266V679.494L742.708 677.898L745.802 682ZM756.388 673.936V672.2H749.164V682H756.374V680.264H751.04V677.856H755.674V676.176H751.04V673.936H756.388ZM764.269 672.2L761.749 676.554L759.215 672.2H757.045L760.769 678.402V682H762.715V678.402L766.425 672.2H764.269Z" fill="#343536"/>
</g>
</g>
<defs>
<filter id="filter0_di_11_130" x="28" y="38" width="280" height="240" filterUnits="userSpaceOnUse" color-interpolation-filters="sRGB">
<feFlood flood-opacity="0" result="BackgroundImageFix"/>
<feColorMatrix in="SourceAlpha" type="matrix" values="0 0 0 0 0 0 0 0 0 0 0 0 0 0 0 0 0 0 127 0" result="hardAlpha"/>
<feMorphology radius="5" operator="erode" in="SourceAlpha" result="effect1_dropShadow_11_130"/>
<feOffset dx="3" dy="3"/>
<feGaussianBlur stdDeviation="5"/>
<feComposite in2="hardAlpha" operator="out"/>
<feColorMatrix type="matrix" values="0 0 0 0 0 0 0 0 0 0 0 0 0 0 0 0 0 0 0.25 0"/>
<feBlend mode="normal" in2="BackgroundImageFix" result="effect1_dropShadow_11_130"/>
<feBlend mode="normal" in="SourceGraphic" in2="effect1_dropShadow_11_130" result="shape"/>
<feColorMatrix in="SourceAlpha" type="matrix" values="0 0 0 0 0 0 0 0 0 0 0 0 0 0 0 0 0 0 127 0" result="hardAlpha"/>
<feMorphology radius="5" operator="dilate" in="SourceAlpha" result="effect2_innerShadow_11_130"/>
<feOffset dx="3" dy="3"/>
<feGaussianBlur stdDeviation="5"/>
<feComposite in2="hardAlpha" operator="arithmetic" k2="-1" k3="1"/>
<feColorMatrix type="matrix" values="0 0 0 0 1 0 0 0 0 1 0 0 0 0 1 0 0 0 1 0"/>
<feBlend mode="normal" in2="shape" result="effect2_innerShadow_11_130"/>
</filter>
<filter id="filter1_di_11_130" x="58" y="128" width="220" height="60" filterUnits="userSpaceOnUse" color-interpolation-filters="sRGB">
<feFlood flood-opacity="0" result="BackgroundImageFix"/>
<feColorMatrix in="SourceAlpha" type="matrix" values="0 0 0 0 0 0 0 0 0 0 0 0 0 0 0 0 0 0 127 0" result="hardAlpha"/>
<feMorphology radius="5" operator="erode" in="SourceAlpha" result="effect1_dropShadow_11_130"/>
<feOffset dx="3" dy="3"/>
<feGaussianBlur stdDeviation="5"/>
<feComposite in2="hardAlpha" operator="out"/>
<feColorMatrix type="matrix" values="0 0 0 0 0 0 0 0 0 0 0 0 0 0 0 0 0 0 0.25 0"/>
<feBlend mode="normal" in2="BackgroundImageFix" result="effect1_dropShadow_11_130"/>
<feBlend mode="normal" in="SourceGraphic" in2="effect1_dropShadow_11_130" result="shape"/>
<feColorMatrix in="SourceAlpha" type="matrix" values="0 0 0 0 0 0 0 0 0 0 0 0 0 0 0 0 0 0 127 0" result="hardAlpha"/>
<feMorphology radius="5" operator="dilate" in="SourceAlpha" result="effect2_innerShadow_11_130"/>
<feOffset dx="3" dy="3"/>
<feGaussianBlur stdDeviation="5"/>
<feComposite in2="hardAlpha" operator="arithmetic" k2="-1" k3="1"/>
<feColorMatrix type="matrix" values="0 0 0 0 1 0 0 0 0 1 0 0 0 0 1 0 0 0 1 0"/>
<feBlend mode="normal" in2="shape" result="effect2_innerShadow_11_130"/>
</filter>
<filter id="filter2_di_11_130" x="58" y="188" width="220" height="60" filterUnits="userSpaceOnUse" color-interpolation-filters="sRGB">
<feFlood flood-opacity="0" result="BackgroundImageFix"/>
<feColorMatrix in="SourceAlpha" type="matrix" values="0 0 0 0 0 0 0 0 0 0 0 0 0 0 0 0 0 0 127 0" result="hardAlpha"/>
<feMorphology radius="5" operator="erode" in="SourceAlpha" result="effect1_dropShadow_11_130"/>
<feOffset dx="3" dy="3"/>
<feGaussianBlur stdDeviation="5"/>
<feComposite in2="hardAlpha" operator="out"/>
<feColorMatrix type="matrix" values="0 0 0 0 0 0 0 0 0 0 0 0 0 0 0 0 0 0 0.25 0"/>
<feBlend mode="normal" in2="BackgroundImageFix" result="effect1_dropShadow_11_130"/>
<feBlend mode="normal" in="SourceGraphic" in2="effect1_dropShadow_11_130" result="shape"/>
<feColorMatrix in="SourceAlpha" type="matrix" values="0 0 0 0 0 0 0 0 0 0 0 0 0 0 0 0 0 0 127 0" result="hardAlpha"/>
<feMorphology radius="5" operator="dilate" in="SourceAlpha" result="effect2_innerShadow_11_130"/>
<feOffset dx="3" dy="3"/>
<feGaussianBlur stdDeviation="5"/>
<feComposite in2="hardAlpha" operator="arithmetic" k2="-1" k3="1"/>
<feColorMatrix type="matrix" values="0 0 0 0 1 0 0 0 0 1 0 0 0 0 1 0 0 0 1 0"/>
<feBlend mode="normal" in2="shape" result="effect2_innerShadow_11_130"/>
</filter>
<filter id="filter3_di_11_130" x="308" y="268" width="280" height="240" filterUnits="userSpaceOnUse" color-interpolation-filters="sRGB">
<feFlood flood-opacity="0" result="BackgroundImageFix"/>
<feColorMatrix in="SourceAlpha" type="matrix" values="0 0 0 0 0 0 0 0 0 0 0 0 0 0 0 0 0 0 127 0" result="hardAlpha"/>
<feMorphology radius="5" operator="erode" in="SourceAlpha" result="effect1_dropShadow_11_130"/>
<feOffset dx="3" dy="3"/>
<feGaussianBlur stdDeviation="5"/>
<feComposite in2="hardAlpha" operator="out"/>
<feColorMatrix type="matrix" values="0 0 0 0 0 0 0 0 0 0 0 0 0 0 0 0 0 0 0.25 0"/>
<feBlend mode="normal" in2="BackgroundImageFix" result="effect1_dropShadow_11_130"/>
<feBlend mode="normal" in="SourceGraphic" in2="effect1_dropShadow_11_130" result="shape"/>
<feColorMatrix in="SourceAlpha" type="matrix" values="0 0 0 0 0 0 0 0 0 0 0 0 0 0 0 0 0 0 127 0" result="hardAlpha"/>
<feMorphology radius="5" operator="dilate" in="SourceAlpha" result="effect2_innerShadow_11_130"/>
<feOffset dx="3" dy="3"/>
<feGaussianBlur stdDeviation="5"/>
<feComposite in2="hardAlpha" operator="arithmetic" k2="-1" k3="1"/>
<feColorMatrix type="matrix" values="0 0 0 0 1 0 0 0 0 1 0 0 0 0 1 0 0 0 1 0"/>
<feBlend mode="normal" in2="shape" result="effect2_innerShadow_11_130"/>
</filter>
<filter id="filter4_di_11_130" x="338" y="358" width="220" height="60" filterUnits="userSpaceOnUse" color-interpolation-filters="sRGB">
<feFlood flood-opacity="0" result="BackgroundImageFix"/>
<feColorMatrix in="SourceAlpha" type="matrix" values="0 0 0 0 0 0 0 0 0 0 0 0 0 0 0 0 0 0 127 0" result="hardAlpha"/>
<feMorphology radius="5" operator="erode" in="SourceAlpha" result="effect1_dropShadow_11_130"/>
<feOffset dx="3" dy="3"/>
<feGaussianBlur stdDeviation="5"/>
<feComposite in2="hardAlpha" operator="out"/>
<feColorMatrix type="matrix" values="0 0 0 0 0 0 0 0 0 0 0 0 0 0 0 0 0 0 0.25 0"/>
<feBlend mode="normal" in2="BackgroundImageFix" result="effect1_dropShadow_11_130"/>
<feBlend mode="normal" in="SourceGraphic" in2="effect1_dropShadow_11_130" result="shape"/>
<feColorMatrix in="SourceAlpha" type="matrix" values="0 0 0 0 0 0 0 0 0 0 0 0 0 0 0 0 0 0 127 0" result="hardAlpha"/>
<feMorphology radius="5" operator="dilate" in="SourceAlpha" result="effect2_innerShadow_11_130"/>
<feOffset dx="3" dy="3"/>
<feGaussianBlur stdDeviation="5"/>
<feComposite in2="hardAlpha" operator="arithmetic" k2="-1" k3="1"/>
<feColorMatrix type="matrix" values="0 0 0 0 1 0 0 0 0 1 0 0 0 0 1 0 0 0 1 0"/>
<feBlend mode="normal" in2="shape" result="effect2_innerShadow_11_130"/>
</filter>
<filter id="filter5_di_11_130" x="338" y="418" width="220" height="60" filterUnits="userSpaceOnUse" color-interpolation-filters="sRGB">
<feFlood flood-opacity="0" result="BackgroundImageFix"/>
<feColorMatrix in="SourceAlpha" type="matrix" values="0 0 0 0 0 0 0 0 0 0 0 0 0 0 0 0 0 0 127 0" result="hardAlpha"/>
<feMorphology radius="5" operator="erode" in="SourceAlpha" result="effect1_dropShadow_11_130"/>
<feOffset dx="3" dy="3"/>
<feGaussianBlur stdDeviation="5"/>
<feComposite in2="hardAlpha" operator="out"/>
<feColorMatrix type="matrix" values="0 0 0 0 0 0 0 0 0 0 0 0 0 0 0 0 0 0 0.25 0"/>
<feBlend mode="normal" in2="BackgroundImageFix" result="effect1_dropShadow_11_130"/>
<feBlend mode="normal" in="SourceGraphic" in2="effect1_dropShadow_11_130" result="shape"/>
<feColorMatrix in="SourceAlpha" type="matrix" values="0 0 0 0 0 0 0 0 0 0 0 0 0 0 0 0 0 0 127 0" result="hardAlpha"/>
<feMorphology radius="5" operator="dilate" in="SourceAlpha" result="effect2_innerShadow_11_130"/>
<feOffset dx="3" dy="3"/>
<feGaussianBlur stdDeviation="5"/>
<feComposite in2="hardAlpha" operator="arithmetic" k2="-1" k3="1"/>
<feColorMatrix type="matrix" values="0 0 0 0 1 0 0 0 0 1 0 0 0 0 1 0 0 0 1 0"/>
<feBlend mode="normal" in2="shape" result="effect2_innerShadow_11_130"/>
</filter>
<filter id="filter6_di_11_130" x="588" y="498" width="280" height="240" filterUnits="userSpaceOnUse" color-interpolation-filters="sRGB">
<feFlood flood-opacity="0" result="BackgroundImageFix"/>
<feColorMatrix in="SourceAlpha" type="matrix" values="0 0 0 0 0 0 0 0 0 0 0 0 0 0 0 0 0 0 127 0" result="hardAlpha"/>
<feMorphology radius="5" operator="erode" in="SourceAlpha" result="effect1_dropShadow_11_130"/>
<feOffset dx="3" dy="3"/>
<feGaussianBlur stdDeviation="5"/>
<feComposite in2="hardAlpha" operator="out"/>
<feColorMatrix type="matrix" values="0 0 0 0 0 0 0 0 0 0 0 0 0 0 0 0 0 0 0.25 0"/>
<feBlend mode="normal" in2="BackgroundImageFix" result="effect1_dropShadow_11_130"/>
<feBlend mode="normal" in="SourceGraphic" in2="effect1_dropShadow_11_130" result="shape"/>
<feColorMatrix in="SourceAlpha" type="matrix" values="0 0 0 0 0 0 0 0 0 0 0 0 0 0 0 0 0 0 127 0" result="hardAlpha"/>
<feMorphology radius="5" operator="dilate" in="SourceAlpha" result="effect2_innerShadow_11_130"/>
<feOffset dx="3" dy="3"/>
<feGaussianBlur stdDeviation="5"/>
<feComposite in2="hardAlpha" operator="arithmetic" k2="-1" k3="1"/>
<feColorMatrix type="matrix" values="0 0 0 0 1 0 0 0 0 1 0 0 0 0 1 0 0 0 1 0"/>
<feBlend mode="normal" in2="shape" result="effect2_innerShadow_11_130"/>
</filter>
<filter id="filter7_di_11_130" x="618" y="588" width="220" height="60" filterUnits="userSpaceOnUse" color-interpolation-filters="sRGB">
<feFlood flood-opacity="0" result="BackgroundImageFix"/>
<feColorMatrix in="SourceAlpha" type="matrix" values="0 0 0 0 0 0 0 0 0 0 0 0 0 0 0 0 0 0 127 0" result="hardAlpha"/>
<feMorphology radius="5" operator="erode" in="SourceAlpha" result="effect1_dropShadow_11_130"/>
<feOffset dx="3" dy="3"/>
<feGaussianBlur stdDeviation="5"/>
<feComposite in2="hardAlpha" operator="out"/>
<feColorMatrix type="matrix" values="0 0 0 0 0 0 0 0 0 0 0 0 0 0 0 0 0 0 0.25 0"/>
<feBlend mode="normal" in2="BackgroundImageFix" result="effect1_dropShadow_11_130"/>
<feBlend mode="normal" in="SourceGraphic" in2="effect1_dropShadow_11_130" result="shape"/>
<feColorMatrix in="SourceAlpha" type="matrix" values="0 0 0 0 0 0 0 0 0 0 0 0 0 0 0 0 0 0 127 0" result="hardAlpha"/>
<feMorphology radius="5" operator="dilate" in="SourceAlpha" result="effect2_innerShadow_11_130"/>
<feOffset dx="3" dy="3"/>
<feGaussianBlur stdDeviation="5"/>
<feComposite in2="hardAlpha" operator="arithmetic" k2="-1" k3="1"/>
<feColorMatrix type="matrix" values="0 0 0 0 1 0 0 0 0 1 0 0 0 0 1 0 0 0 1 0"/>
<feBlend mode="normal" in2="shape" result="effect2_innerShadow_11_130"/>
</filter>
<filter id="filter8_di_11_130" x="618" y="648" width="220" height="60" filterUnits="userSpaceOnUse" color-interpolation-filters="sRGB">
<feFlood flood-opacity="0" result="BackgroundImageFix"/>
<feColorMatrix in="SourceAlpha" type="matrix" values="0 0 0 0 0 0 0 0 0 0 0 0 0 0 0 0 0 0 127 0" result="hardAlpha"/>
<feMorphology radius="5" operator="erode" in="SourceAlpha" result="effect1_dropShadow_11_130"/>
<feOffset dx="3" dy="3"/>
<feGaussianBlur stdDeviation="5"/>
<feComposite in2="hardAlpha" operator="out"/>
<feColorMatrix type="matrix" values="0 0 0 0 0 0 0 0 0 0 0 0 0 0 0 0 0 0 0.25 0"/>
<feBlend mode="normal" in2="BackgroundImageFix" result="effect1_dropShadow_11_130"/>
<feBlend mode="normal" in="SourceGraphic" in2="effect1_dropShadow_11_130" result="shape"/>
<feColorMatrix in="SourceAlpha" type="matrix" values="0 0 0 0 0 0 0 0 0 0 0 0 0 0 0 0 0 0 127 0" result="hardAlpha"/>
<feMorphology radius="5" operator="dilate" in="SourceAlpha" result="effect2_innerShadow_11_130"/>
<feOffset dx="3" dy="3"/>
<feGaussianBlur stdDeviation="5"/>
<feComposite in2="hardAlpha" operator="arithmetic" k2="-1" k3="1"/>
<feColorMatrix type="matrix" values="0 0 0 0 1 0 0 0 0 1 0 0 0 0 1 0 0 0 1 0"/>
<feBlend mode="normal" in2="shape" result="effect2_innerShadow_11_130"/>
</filter>
</defs>
</svg>
