<svg width="500" height="200" viewBox="0 0 500 200" fill="none" xmlns="http://www.w3.org/2000/svg">
<rect width="500" height="200" fill="white"/>
<rect x="20" y="10" width="60" height="40" rx="2" fill="#C4C4C4"/>
<rect x="120" y="10" width="60" height="40" rx="2" fill="#BFBFC0"/>
<rect x="320" y="10" width="60" height="40" rx="2" fill="#BFBFC0"/>
<rect x="420" y="10" width="60" height="40" rx="2" fill="#BFBFC0"/>
<rect x="220" y="10" width="60" height="40" rx="2" fill="#BFBFC0"/>
<line x1="49" y1="191" x2="49" y2="50" stroke="url(#paint0_linear_56_443)" stroke-width="2" stroke-dasharray="5 5"/>
<line x1="149" y1="191" x2="149" y2="50" stroke="url(#paint1_linear_56_443)" stroke-width="2" stroke-dasharray="5 5"/>
<line x1="249" y1="191" x2="249" y2="50" stroke="url(#paint2_linear_56_443)" stroke-width="2" stroke-dasharray="5 5"/>
<line x1="349" y1="191" x2="349" y2="50" stroke="url(#paint3_linear_56_443)" stroke-width="2" stroke-dasharray="5 5"/>
<line x1="449" y1="191" x2="449" y2="50" stroke="url(#paint4_linear_56_443)" stroke-width="2" stroke-dasharray="5 5"/>
<path d="M37.6025 19.8906H40.2539C40.7975 19.8906 41.2646 19.972 41.6553 20.1348C42.0492 20.2975 42.3519 20.5384 42.5635 20.8574C42.7751 21.1764 42.8809 21.5687 42.8809 22.0342C42.8809 22.415 42.8158 22.7422 42.6855 23.0156C42.5586 23.2858 42.3779 23.512 42.1436 23.6943C41.9124 23.8734 41.6406 24.0166 41.3281 24.124L40.8643 24.3682H38.5596L38.5498 23.2256H40.2637C40.5208 23.2256 40.734 23.18 40.9033 23.0889C41.0726 22.9977 41.1995 22.8708 41.2842 22.708C41.3721 22.5452 41.416 22.3564 41.416 22.1416C41.416 21.9137 41.3737 21.7168 41.2891 21.5508C41.2044 21.3848 41.0758 21.2578 40.9033 21.1699C40.7308 21.082 40.5143 21.0381 40.2539 21.0381H39.0674V27H37.6025V19.8906ZM41.5771 27L39.9561 23.8311L41.5039 23.8213L43.1445 26.9316V27H41.5771ZM49.8486 23.2793V23.6162C49.8486 24.1566 49.7754 24.6416 49.6289 25.0713C49.4824 25.501 49.2757 25.8672 49.0088 26.1699C48.7419 26.4694 48.4229 26.6989 48.0518 26.8584C47.6839 27.0179 47.2754 27.0977 46.8262 27.0977C46.3802 27.0977 45.9717 27.0179 45.6006 26.8584C45.2327 26.6989 44.9137 26.4694 44.6436 26.1699C44.3734 25.8672 44.1634 25.501 44.0137 25.0713C43.8672 24.6416 43.7939 24.1566 43.7939 23.6162V23.2793C43.7939 22.7357 43.8672 22.2507 44.0137 21.8242C44.1602 21.3945 44.3669 21.0283 44.6338 20.7256C44.904 20.4229 45.223 20.1917 45.5908 20.0322C45.9619 19.8727 46.3704 19.793 46.8164 19.793C47.2656 19.793 47.6742 19.8727 48.042 20.0322C48.4131 20.1917 48.7321 20.4229 48.999 20.7256C49.2692 21.0283 49.4775 21.3945 49.624 21.8242C49.7738 22.2507 49.8486 22.7357 49.8486 23.2793ZM48.3691 23.6162V23.2695C48.3691 22.8919 48.335 22.5599 48.2666 22.2734C48.1982 21.987 48.0973 21.7461 47.9639 21.5508C47.8304 21.3555 47.6676 21.209 47.4756 21.1113C47.2835 21.0104 47.0638 20.96 46.8164 20.96C46.569 20.96 46.3493 21.0104 46.1572 21.1113C45.9684 21.209 45.8073 21.3555 45.6738 21.5508C45.5436 21.7461 45.4443 21.987 45.376 22.2734C45.3076 22.5599 45.2734 22.8919 45.2734 23.2695V23.6162C45.2734 23.9906 45.3076 24.3226 45.376 24.6123C45.4443 24.8988 45.5452 25.1413 45.6787 25.3398C45.8122 25.5352 45.9749 25.6833 46.167 25.7842C46.359 25.8851 46.5788 25.9355 46.8262 25.9355C47.0736 25.9355 47.2933 25.8851 47.4854 25.7842C47.6774 25.6833 47.8385 25.5352 47.9688 25.3398C48.099 25.1413 48.1982 24.8988 48.2666 24.6123C48.335 24.3226 48.3691 23.9906 48.3691 23.6162ZM56.7432 23.2793V23.6162C56.7432 24.1566 56.6699 24.6416 56.5234 25.0713C56.377 25.501 56.1702 25.8672 55.9033 26.1699C55.6364 26.4694 55.3174 26.6989 54.9463 26.8584C54.5785 27.0179 54.1699 27.0977 53.7207 27.0977C53.2747 27.0977 52.8662 27.0179 52.4951 26.8584C52.1273 26.6989 51.8083 26.4694 51.5381 26.1699C51.2679 25.8672 51.0579 25.501 50.9082 25.0713C50.7617 24.6416 50.6885 24.1566 50.6885 23.6162V23.2793C50.6885 22.7357 50.7617 22.2507 50.9082 21.8242C51.0547 21.3945 51.2614 21.0283 51.5283 20.7256C51.7985 20.4229 52.1175 20.1917 52.4854 20.0322C52.8564 19.8727 53.265 19.793 53.7109 19.793C54.1602 19.793 54.5687 19.8727 54.9365 20.0322C55.3076 20.1917 55.6266 20.4229 55.8936 20.7256C56.1637 21.0283 56.3721 21.3945 56.5186 21.8242C56.6683 22.2507 56.7432 22.7357 56.7432 23.2793ZM55.2637 23.6162V23.2695C55.2637 22.8919 55.2295 22.5599 55.1611 22.2734C55.0928 21.987 54.9919 21.7461 54.8584 21.5508C54.7249 21.3555 54.5622 21.209 54.3701 21.1113C54.1781 21.0104 53.9583 20.96 53.7109 20.96C53.4635 20.96 53.2438 21.0104 53.0518 21.1113C52.863 21.209 52.7018 21.3555 52.5684 21.5508C52.4382 21.7461 52.3389 21.987 52.2705 22.2734C52.2021 22.5599 52.168 22.8919 52.168 23.2695V23.6162C52.168 23.9906 52.2021 24.3226 52.2705 24.6123C52.3389 24.8988 52.4398 25.1413 52.5732 25.3398C52.7067 25.5352 52.8695 25.6833 53.0615 25.7842C53.2536 25.8851 53.4733 25.9355 53.7207 25.9355C53.9681 25.9355 54.1878 25.8851 54.3799 25.7842C54.5719 25.6833 54.7331 25.5352 54.8633 25.3398C54.9935 25.1413 55.0928 24.8988 55.1611 24.6123C55.2295 24.3226 55.2637 23.9906 55.2637 23.6162ZM60.6445 19.8906V27H59.1846V19.8906H60.6445ZM62.832 19.8906V21.0381H57.0312V19.8906H62.832ZM48.125 36.6416H49.585C49.5557 37.1201 49.4238 37.5449 49.1895 37.916C48.9583 38.2871 48.6344 38.5768 48.2178 38.7852C47.8044 38.9935 47.3063 39.0977 46.7236 39.0977C46.2679 39.0977 45.8594 39.0195 45.498 38.8633C45.1367 38.7038 44.8275 38.4759 44.5703 38.1797C44.3164 37.8835 44.1227 37.5254 43.9893 37.1055C43.8558 36.6855 43.7891 36.2152 43.7891 35.6943V35.2012C43.7891 34.6803 43.8574 34.21 43.9941 33.79C44.1341 33.3669 44.3327 33.0072 44.5898 32.7109C44.8503 32.4147 45.1611 32.1868 45.5225 32.0273C45.8838 31.8678 46.2874 31.7881 46.7334 31.7881C47.3258 31.7881 47.8255 31.8955 48.2324 32.1104C48.6426 32.3252 48.96 32.6214 49.1846 32.999C49.4124 33.3766 49.5492 33.8063 49.5947 34.2881H48.1299C48.1136 34.0016 48.0566 33.7591 47.959 33.5605C47.8613 33.3587 47.7132 33.2074 47.5146 33.1064C47.3193 33.0023 47.0589 32.9502 46.7334 32.9502C46.4893 32.9502 46.276 32.9958 46.0938 33.0869C45.9115 33.1781 45.7585 33.3164 45.6348 33.502C45.5111 33.6875 45.4183 33.9219 45.3564 34.2051C45.2979 34.485 45.2686 34.8138 45.2686 35.1914V35.6943C45.2686 36.0622 45.2962 36.3861 45.3516 36.666C45.4069 36.9427 45.4915 37.1771 45.6055 37.3691C45.7227 37.5579 45.8724 37.7012 46.0547 37.7988C46.2402 37.8932 46.4632 37.9404 46.7236 37.9404C47.0296 37.9404 47.2819 37.8916 47.4805 37.7939C47.679 37.6963 47.8304 37.5514 47.9346 37.3594C48.042 37.1673 48.1055 36.9281 48.125 36.6416ZM53.4375 33.1064L51.5039 39H49.9463L52.5879 31.8906H53.5791L53.4375 33.1064ZM55.0439 39L53.1055 33.1064L52.9492 31.8906H53.9502L56.6064 39H55.0439ZM54.9561 36.3535V37.501H51.2012V36.3535H54.9561Z" fill="#343536"/>
<path d="M144.17 19.8906V27H142.71V19.8906H144.17ZM151.328 19.8906V27H149.863L147.007 22.2344V27H145.542V19.8906H147.007L149.868 24.6611V19.8906H151.328ZM155.635 19.8906V27H154.175V19.8906H155.635ZM157.822 19.8906V21.0381H152.021V19.8906H157.822ZM148.125 36.6416H149.585C149.556 37.1201 149.424 37.5449 149.189 37.916C148.958 38.2871 148.634 38.5768 148.218 38.7852C147.804 38.9935 147.306 39.0977 146.724 39.0977C146.268 39.0977 145.859 39.0195 145.498 38.8633C145.137 38.7038 144.827 38.4759 144.57 38.1797C144.316 37.8835 144.123 37.5254 143.989 37.1055C143.856 36.6855 143.789 36.2152 143.789 35.6943V35.2012C143.789 34.6803 143.857 34.21 143.994 33.79C144.134 33.3669 144.333 33.0072 144.59 32.7109C144.85 32.4147 145.161 32.1868 145.522 32.0273C145.884 31.8678 146.287 31.7881 146.733 31.7881C147.326 31.7881 147.826 31.8955 148.232 32.1104C148.643 32.3252 148.96 32.6214 149.185 32.999C149.412 33.3766 149.549 33.8063 149.595 34.2881H148.13C148.114 34.0016 148.057 33.7591 147.959 33.5605C147.861 33.3587 147.713 33.2074 147.515 33.1064C147.319 33.0023 147.059 32.9502 146.733 32.9502C146.489 32.9502 146.276 32.9958 146.094 33.0869C145.911 33.1781 145.758 33.3164 145.635 33.502C145.511 33.6875 145.418 33.9219 145.356 34.2051C145.298 34.485 145.269 34.8138 145.269 35.1914V35.6943C145.269 36.0622 145.296 36.3861 145.352 36.666C145.407 36.9427 145.492 37.1771 145.605 37.3691C145.723 37.5579 145.872 37.7012 146.055 37.7988C146.24 37.8932 146.463 37.9404 146.724 37.9404C147.03 37.9404 147.282 37.8916 147.48 37.7939C147.679 37.6963 147.83 37.5514 147.935 37.3594C148.042 37.1673 148.105 36.9281 148.125 36.6416ZM153.438 33.1064L151.504 39H149.946L152.588 31.8906H153.579L153.438 33.1064ZM155.044 39L153.105 33.1064L152.949 31.8906H153.95L156.606 39H155.044ZM154.956 36.3535V37.501H151.201V36.3535H154.956Z" fill="#343536"/>
<path d="M231.968 19.8906V27H230.508V19.8906H231.968ZM234.155 19.8906V21.0381H228.354V19.8906H234.155ZM234.99 19.8906H237.642C238.185 19.8906 238.652 19.972 239.043 20.1348C239.437 20.2975 239.74 20.5384 239.951 20.8574C240.163 21.1764 240.269 21.5687 240.269 22.0342C240.269 22.415 240.203 22.7422 240.073 23.0156C239.946 23.2858 239.766 23.512 239.531 23.6943C239.3 23.8734 239.028 24.0166 238.716 24.124L238.252 24.3682H235.947L235.938 23.2256H237.651C237.909 23.2256 238.122 23.18 238.291 23.0889C238.46 22.9977 238.587 22.8708 238.672 22.708C238.76 22.5452 238.804 22.3564 238.804 22.1416C238.804 21.9137 238.761 21.7168 238.677 21.5508C238.592 21.3848 238.464 21.2578 238.291 21.1699C238.118 21.082 237.902 21.0381 237.642 21.0381H236.455V27H234.99V19.8906ZM238.965 27L237.344 23.8311L238.892 23.8213L240.532 26.9316V27H238.965ZM245.322 19.8906H246.782V24.5879C246.782 25.1348 246.665 25.5954 246.431 25.9697C246.2 26.3441 245.879 26.6257 245.469 26.8145C245.062 27.0033 244.593 27.0977 244.062 27.0977C243.532 27.0977 243.06 27.0033 242.646 26.8145C242.236 26.6257 241.914 26.3441 241.68 25.9697C241.449 25.5954 241.333 25.1348 241.333 24.5879V19.8906H242.798V24.5879C242.798 24.9069 242.848 25.1673 242.949 25.3691C243.05 25.571 243.195 25.7191 243.384 25.8135C243.576 25.9079 243.802 25.9551 244.062 25.9551C244.329 25.9551 244.556 25.9079 244.741 25.8135C244.93 25.7191 245.073 25.571 245.171 25.3691C245.272 25.1673 245.322 24.9069 245.322 24.5879V19.8906ZM251.689 25.1396C251.689 25.0127 251.67 24.8988 251.631 24.7979C251.595 24.6937 251.527 24.5993 251.426 24.5146C251.325 24.4268 251.183 24.3405 251.001 24.2559C250.819 24.1712 250.583 24.0833 250.293 23.9922C249.971 23.888 249.665 23.7708 249.375 23.6406C249.089 23.5104 248.835 23.359 248.613 23.1865C248.395 23.0107 248.223 22.8073 248.096 22.5762C247.972 22.3451 247.91 22.0765 247.91 21.7705C247.91 21.4743 247.975 21.2057 248.105 20.9648C248.236 20.7207 248.418 20.5124 248.652 20.3398C248.887 20.1641 249.163 20.029 249.482 19.9346C249.805 19.8402 250.158 19.793 250.542 19.793C251.066 19.793 251.523 19.8874 251.914 20.0762C252.305 20.265 252.607 20.5238 252.822 20.8525C253.04 21.1813 253.149 21.5573 253.149 21.9805H251.694C251.694 21.7721 251.65 21.5898 251.562 21.4336C251.478 21.2741 251.348 21.1488 251.172 21.0576C250.999 20.9665 250.781 20.9209 250.518 20.9209C250.264 20.9209 250.052 20.96 249.883 21.0381C249.714 21.113 249.587 21.2155 249.502 21.3457C249.417 21.4727 249.375 21.6159 249.375 21.7754C249.375 21.8958 249.404 22.0049 249.463 22.1025C249.525 22.2002 249.616 22.2913 249.736 22.376C249.857 22.4606 250.005 22.5404 250.181 22.6152C250.356 22.6901 250.56 22.7633 250.791 22.835C251.178 22.9521 251.519 23.084 251.812 23.2305C252.108 23.377 252.355 23.5413 252.554 23.7236C252.752 23.9059 252.902 24.1126 253.003 24.3438C253.104 24.5749 253.154 24.8369 253.154 25.1299C253.154 25.4391 253.094 25.7158 252.974 25.96C252.853 26.2041 252.679 26.4108 252.451 26.5801C252.223 26.7493 251.951 26.8779 251.636 26.9658C251.32 27.0537 250.967 27.0977 250.576 27.0977C250.225 27.0977 249.878 27.0521 249.536 26.9609C249.194 26.8665 248.883 26.7249 248.604 26.5361C248.327 26.3473 248.105 26.1064 247.939 25.8135C247.773 25.5205 247.69 25.1738 247.69 24.7734H249.16C249.16 24.9948 249.194 25.182 249.263 25.335C249.331 25.488 249.427 25.6117 249.551 25.7061C249.678 25.8005 249.827 25.8688 250 25.9111C250.176 25.9535 250.368 25.9746 250.576 25.9746C250.83 25.9746 251.038 25.9388 251.201 25.8672C251.367 25.7956 251.489 25.6963 251.567 25.5693C251.649 25.4424 251.689 25.2992 251.689 25.1396ZM257.329 19.8906V27H255.869V19.8906H257.329ZM259.517 19.8906V21.0381H253.716V19.8906H259.517ZM265.122 25.8574V27H261.338V25.8574H265.122ZM261.816 19.8906V27H260.352V19.8906H261.816ZM264.629 22.7861V23.8994H261.338V22.7861H264.629ZM265.117 19.8906V21.0381H261.338V19.8906H265.117ZM268.159 27H266.611L266.621 25.8574H268.159C268.543 25.8574 268.867 25.7712 269.131 25.5986C269.395 25.4229 269.593 25.1673 269.727 24.832C269.863 24.4967 269.932 24.0915 269.932 23.6162V23.2695C269.932 22.9049 269.893 22.5843 269.814 22.3076C269.74 22.0309 269.627 21.7982 269.478 21.6094C269.328 21.4206 269.144 21.279 268.926 21.1846C268.708 21.0869 268.457 21.0381 268.174 21.0381H266.582V19.8906H268.174C268.649 19.8906 269.084 19.972 269.478 20.1348C269.875 20.2943 270.218 20.5238 270.508 20.8232C270.798 21.1227 271.021 21.4808 271.177 21.8975C271.336 22.3109 271.416 22.7715 271.416 23.2793V23.6162C271.416 24.1208 271.336 24.5814 271.177 24.998C271.021 25.4147 270.798 25.7728 270.508 26.0723C270.221 26.3685 269.878 26.598 269.478 26.7607C269.08 26.9202 268.641 27 268.159 27ZM267.441 19.8906V27H265.977V19.8906H267.441ZM238.408 37.8574V39H234.624V37.8574H238.408ZM235.103 31.8906V39H233.638V31.8906H235.103ZM237.915 34.7861V35.8994H234.624V34.7861H237.915ZM238.403 31.8906V33.0381H234.624V31.8906H238.403ZM245.049 31.8906V39H243.584L240.728 34.2344V39H239.263V31.8906H240.728L243.589 36.6611V31.8906H245.049ZM249.355 31.8906V39H247.896V31.8906H249.355ZM251.543 31.8906V33.0381H245.742V31.8906H251.543ZM253.936 31.8906V39H252.476V31.8906H253.936ZM258.34 31.8906V39H256.88V31.8906H258.34ZM260.527 31.8906V33.0381H254.727V31.8906H260.527ZM262.417 31.8906L263.901 35.1328L265.386 31.8906H266.982L264.644 36.4121V39H263.159V36.4121L260.815 31.8906H262.417Z" fill="#343536"/>
<path d="M345.469 25.1396C345.469 25.0127 345.449 24.8988 345.41 24.7979C345.374 24.6937 345.306 24.5993 345.205 24.5146C345.104 24.4268 344.963 24.3405 344.78 24.2559C344.598 24.1712 344.362 24.0833 344.072 23.9922C343.75 23.888 343.444 23.7708 343.154 23.6406C342.868 23.5104 342.614 23.359 342.393 23.1865C342.174 23.0107 342.002 22.8073 341.875 22.5762C341.751 22.3451 341.689 22.0765 341.689 21.7705C341.689 21.4743 341.755 21.2057 341.885 20.9648C342.015 20.7207 342.197 20.5124 342.432 20.3398C342.666 20.1641 342.943 20.029 343.262 19.9346C343.584 19.8402 343.937 19.793 344.321 19.793C344.845 19.793 345.303 19.8874 345.693 20.0762C346.084 20.265 346.387 20.5238 346.602 20.8525C346.82 21.1813 346.929 21.5573 346.929 21.9805H345.474C345.474 21.7721 345.43 21.5898 345.342 21.4336C345.257 21.2741 345.127 21.1488 344.951 21.0576C344.779 20.9665 344.561 20.9209 344.297 20.9209C344.043 20.9209 343.831 20.96 343.662 21.0381C343.493 21.113 343.366 21.2155 343.281 21.3457C343.197 21.4727 343.154 21.6159 343.154 21.7754C343.154 21.8958 343.184 22.0049 343.242 22.1025C343.304 22.2002 343.395 22.2913 343.516 22.376C343.636 22.4606 343.784 22.5404 343.96 22.6152C344.136 22.6901 344.339 22.7633 344.57 22.835C344.958 22.9521 345.298 23.084 345.591 23.2305C345.887 23.377 346.134 23.5413 346.333 23.7236C346.532 23.9059 346.681 24.1126 346.782 24.3438C346.883 24.5749 346.934 24.8369 346.934 25.1299C346.934 25.4391 346.873 25.7158 346.753 25.96C346.632 26.2041 346.458 26.4108 346.23 26.5801C346.003 26.7493 345.731 26.8779 345.415 26.9658C345.099 27.0537 344.746 27.0977 344.355 27.0977C344.004 27.0977 343.657 27.0521 343.315 26.9609C342.974 26.8665 342.663 26.7249 342.383 26.5361C342.106 26.3473 341.885 26.1064 341.719 25.8135C341.553 25.5205 341.47 25.1738 341.47 24.7734H342.939C342.939 24.9948 342.974 25.182 343.042 25.335C343.11 25.488 343.206 25.6117 343.33 25.7061C343.457 25.8005 343.607 25.8688 343.779 25.9111C343.955 25.9535 344.147 25.9746 344.355 25.9746C344.609 25.9746 344.818 25.9388 344.98 25.8672C345.146 25.7956 345.269 25.6963 345.347 25.5693C345.428 25.4424 345.469 25.2992 345.469 25.1396ZM351.631 25.1396C351.631 25.0127 351.611 24.8988 351.572 24.7979C351.536 24.6937 351.468 24.5993 351.367 24.5146C351.266 24.4268 351.125 24.3405 350.942 24.2559C350.76 24.1712 350.524 24.0833 350.234 23.9922C349.912 23.888 349.606 23.7708 349.316 23.6406C349.03 23.5104 348.776 23.359 348.555 23.1865C348.337 23.0107 348.164 22.8073 348.037 22.5762C347.913 22.3451 347.852 22.0765 347.852 21.7705C347.852 21.4743 347.917 21.2057 348.047 20.9648C348.177 20.7207 348.359 20.5124 348.594 20.3398C348.828 20.1641 349.105 20.029 349.424 19.9346C349.746 19.8402 350.099 19.793 350.483 19.793C351.007 19.793 351.465 19.8874 351.855 20.0762C352.246 20.265 352.549 20.5238 352.764 20.8525C352.982 21.1813 353.091 21.5573 353.091 21.9805H351.636C351.636 21.7721 351.592 21.5898 351.504 21.4336C351.419 21.2741 351.289 21.1488 351.113 21.0576C350.941 20.9665 350.723 20.9209 350.459 20.9209C350.205 20.9209 349.993 20.96 349.824 21.0381C349.655 21.113 349.528 21.2155 349.443 21.3457C349.359 21.4727 349.316 21.6159 349.316 21.7754C349.316 21.8958 349.346 22.0049 349.404 22.1025C349.466 22.2002 349.557 22.2913 349.678 22.376C349.798 22.4606 349.946 22.5404 350.122 22.6152C350.298 22.6901 350.501 22.7633 350.732 22.835C351.12 22.9521 351.46 23.084 351.753 23.2305C352.049 23.377 352.297 23.5413 352.495 23.7236C352.694 23.9059 352.843 24.1126 352.944 24.3438C353.045 24.5749 353.096 24.8369 353.096 25.1299C353.096 25.4391 353.035 25.7158 352.915 25.96C352.795 26.2041 352.62 26.4108 352.393 26.5801C352.165 26.7493 351.893 26.8779 351.577 26.9658C351.261 27.0537 350.908 27.0977 350.518 27.0977C350.166 27.0977 349.819 27.0521 349.478 26.9609C349.136 26.8665 348.825 26.7249 348.545 26.5361C348.268 26.3473 348.047 26.1064 347.881 25.8135C347.715 25.5205 347.632 25.1738 347.632 24.7734H349.102C349.102 24.9948 349.136 25.182 349.204 25.335C349.272 25.488 349.368 25.6117 349.492 25.7061C349.619 25.8005 349.769 25.8688 349.941 25.9111C350.117 25.9535 350.309 25.9746 350.518 25.9746C350.771 25.9746 350.98 25.9388 351.143 25.8672C351.309 25.7956 351.431 25.6963 351.509 25.5693C351.59 25.4424 351.631 25.2992 351.631 25.1396ZM358.662 25.8574V27H355.083V25.8574H358.662ZM355.557 19.8906V27H354.092V19.8906H355.557ZM336.006 37.1396C336.006 37.0127 335.986 36.8988 335.947 36.7979C335.911 36.6937 335.843 36.5993 335.742 36.5146C335.641 36.4268 335.5 36.3405 335.317 36.2559C335.135 36.1712 334.899 36.0833 334.609 35.9922C334.287 35.888 333.981 35.7708 333.691 35.6406C333.405 35.5104 333.151 35.359 332.93 35.1865C332.712 35.0107 332.539 34.8073 332.412 34.5762C332.288 34.3451 332.227 34.0765 332.227 33.7705C332.227 33.4743 332.292 33.2057 332.422 32.9648C332.552 32.7207 332.734 32.5124 332.969 32.3398C333.203 32.1641 333.48 32.029 333.799 31.9346C334.121 31.8402 334.474 31.793 334.858 31.793C335.382 31.793 335.84 31.8874 336.23 32.0762C336.621 32.265 336.924 32.5238 337.139 32.8525C337.357 33.1813 337.466 33.5573 337.466 33.9805H336.011C336.011 33.7721 335.967 33.5898 335.879 33.4336C335.794 33.2741 335.664 33.1488 335.488 33.0576C335.316 32.9665 335.098 32.9209 334.834 32.9209C334.58 32.9209 334.368 32.96 334.199 33.0381C334.03 33.113 333.903 33.2155 333.818 33.3457C333.734 33.4727 333.691 33.6159 333.691 33.7754C333.691 33.8958 333.721 34.0049 333.779 34.1025C333.841 34.2002 333.932 34.2913 334.053 34.376C334.173 34.4606 334.321 34.5404 334.497 34.6152C334.673 34.6901 334.876 34.7633 335.107 34.835C335.495 34.9521 335.835 35.084 336.128 35.2305C336.424 35.377 336.672 35.5413 336.87 35.7236C337.069 35.9059 337.218 36.1126 337.319 36.3438C337.42 36.5749 337.471 36.8369 337.471 37.1299C337.471 37.4391 337.41 37.7158 337.29 37.96C337.17 38.2041 336.995 38.4108 336.768 38.5801C336.54 38.7493 336.268 38.8779 335.952 38.9658C335.636 39.0537 335.283 39.0977 334.893 39.0977C334.541 39.0977 334.194 39.0521 333.853 38.9609C333.511 38.8665 333.2 38.7249 332.92 38.5361C332.643 38.3473 332.422 38.1064 332.256 37.8135C332.09 37.5205 332.007 37.1738 332.007 36.7734H333.477C333.477 36.9948 333.511 37.182 333.579 37.335C333.647 37.488 333.743 37.6117 333.867 37.7061C333.994 37.8005 334.144 37.8688 334.316 37.9111C334.492 37.9535 334.684 37.9746 334.893 37.9746C335.146 37.9746 335.355 37.9388 335.518 37.8672C335.684 37.7956 335.806 37.6963 335.884 37.5693C335.965 37.4424 336.006 37.2992 336.006 37.1396ZM343.237 37.8574V39H339.453V37.8574H343.237ZM339.932 31.8906V39H338.467V31.8906H339.932ZM342.744 34.7861V35.8994H339.453V34.7861H342.744ZM343.232 31.8906V33.0381H339.453V31.8906H343.232ZM344.092 31.8906H346.743C347.287 31.8906 347.754 31.972 348.145 32.1348C348.538 32.2975 348.841 32.5384 349.053 32.8574C349.264 33.1764 349.37 33.5687 349.37 34.0342C349.37 34.415 349.305 34.7422 349.175 35.0156C349.048 35.2858 348.867 35.512 348.633 35.6943C348.402 35.8734 348.13 36.0166 347.817 36.124L347.354 36.3682H345.049L345.039 35.2256H346.753C347.01 35.2256 347.223 35.18 347.393 35.0889C347.562 34.9977 347.689 34.8708 347.773 34.708C347.861 34.5452 347.905 34.3564 347.905 34.1416C347.905 33.9137 347.863 33.7168 347.778 33.5508C347.694 33.3848 347.565 33.2578 347.393 33.1699C347.22 33.082 347.004 33.0381 346.743 33.0381H345.557V39H344.092V31.8906ZM348.066 39L346.445 35.8311L347.993 35.8213L349.634 38.9316V39H348.066ZM352.964 37.5156L354.639 31.8906H356.27L353.794 39H352.72L352.964 37.5156ZM351.421 31.8906L353.091 37.5156L353.345 39H352.261L349.8 31.8906H351.421ZM361.704 37.8574V39H357.92V37.8574H361.704ZM358.398 31.8906V39H356.934V31.8906H358.398ZM361.211 34.7861V35.8994H357.92V34.7861H361.211ZM361.699 31.8906V33.0381H357.92V31.8906H361.699ZM362.559 31.8906H365.21C365.754 31.8906 366.221 31.972 366.611 32.1348C367.005 32.2975 367.308 32.5384 367.52 32.8574C367.731 33.1764 367.837 33.5687 367.837 34.0342C367.837 34.415 367.772 34.7422 367.642 35.0156C367.515 35.2858 367.334 35.512 367.1 35.6943C366.868 35.8734 366.597 36.0166 366.284 36.124L365.82 36.3682H363.516L363.506 35.2256H365.22C365.477 35.2256 365.69 35.18 365.859 35.0889C366.029 34.9977 366.156 34.8708 366.24 34.708C366.328 34.5452 366.372 34.3564 366.372 34.1416C366.372 33.9137 366.33 33.7168 366.245 33.5508C366.16 33.3848 366.032 33.2578 365.859 33.1699C365.687 33.082 365.47 33.0381 365.21 33.0381H364.023V39H362.559V31.8906ZM366.533 39L364.912 35.8311L366.46 35.8213L368.101 38.9316V39H366.533Z" fill="#343536"/>
<path d="M445.469 25.1396C445.469 25.0127 445.449 24.8988 445.41 24.7979C445.374 24.6937 445.306 24.5993 445.205 24.5146C445.104 24.4268 444.963 24.3405 444.78 24.2559C444.598 24.1712 444.362 24.0833 444.072 23.9922C443.75 23.888 443.444 23.7708 443.154 23.6406C442.868 23.5104 442.614 23.359 442.393 23.1865C442.174 23.0107 442.002 22.8073 441.875 22.5762C441.751 22.3451 441.689 22.0765 441.689 21.7705C441.689 21.4743 441.755 21.2057 441.885 20.9648C442.015 20.7207 442.197 20.5124 442.432 20.3398C442.666 20.1641 442.943 20.029 443.262 19.9346C443.584 19.8402 443.937 19.793 444.321 19.793C444.845 19.793 445.303 19.8874 445.693 20.0762C446.084 20.265 446.387 20.5238 446.602 20.8525C446.82 21.1813 446.929 21.5573 446.929 21.9805H445.474C445.474 21.7721 445.43 21.5898 445.342 21.4336C445.257 21.2741 445.127 21.1488 444.951 21.0576C444.779 20.9665 444.561 20.9209 444.297 20.9209C444.043 20.9209 443.831 20.96 443.662 21.0381C443.493 21.113 443.366 21.2155 443.281 21.3457C443.197 21.4727 443.154 21.6159 443.154 21.7754C443.154 21.8958 443.184 22.0049 443.242 22.1025C443.304 22.2002 443.395 22.2913 443.516 22.376C443.636 22.4606 443.784 22.5404 443.96 22.6152C444.136 22.6901 444.339 22.7633 444.57 22.835C444.958 22.9521 445.298 23.084 445.591 23.2305C445.887 23.377 446.134 23.5413 446.333 23.7236C446.532 23.9059 446.681 24.1126 446.782 24.3438C446.883 24.5749 446.934 24.8369 446.934 25.1299C446.934 25.4391 446.873 25.7158 446.753 25.96C446.632 26.2041 446.458 26.4108 446.23 26.5801C446.003 26.7493 445.731 26.8779 445.415 26.9658C445.099 27.0537 444.746 27.0977 444.355 27.0977C444.004 27.0977 443.657 27.0521 443.315 26.9609C442.974 26.8665 442.663 26.7249 442.383 26.5361C442.106 26.3473 441.885 26.1064 441.719 25.8135C441.553 25.5205 441.47 25.1738 441.47 24.7734H442.939C442.939 24.9948 442.974 25.182 443.042 25.335C443.11 25.488 443.206 25.6117 443.33 25.7061C443.457 25.8005 443.607 25.8688 443.779 25.9111C443.955 25.9535 444.147 25.9746 444.355 25.9746C444.609 25.9746 444.818 25.9388 444.98 25.8672C445.146 25.7956 445.269 25.6963 445.347 25.5693C445.428 25.4424 445.469 25.2992 445.469 25.1396ZM451.631 25.1396C451.631 25.0127 451.611 24.8988 451.572 24.7979C451.536 24.6937 451.468 24.5993 451.367 24.5146C451.266 24.4268 451.125 24.3405 450.942 24.2559C450.76 24.1712 450.524 24.0833 450.234 23.9922C449.912 23.888 449.606 23.7708 449.316 23.6406C449.03 23.5104 448.776 23.359 448.555 23.1865C448.337 23.0107 448.164 22.8073 448.037 22.5762C447.913 22.3451 447.852 22.0765 447.852 21.7705C447.852 21.4743 447.917 21.2057 448.047 20.9648C448.177 20.7207 448.359 20.5124 448.594 20.3398C448.828 20.1641 449.105 20.029 449.424 19.9346C449.746 19.8402 450.099 19.793 450.483 19.793C451.007 19.793 451.465 19.8874 451.855 20.0762C452.246 20.265 452.549 20.5238 452.764 20.8525C452.982 21.1813 453.091 21.5573 453.091 21.9805H451.636C451.636 21.7721 451.592 21.5898 451.504 21.4336C451.419 21.2741 451.289 21.1488 451.113 21.0576C450.941 20.9665 450.723 20.9209 450.459 20.9209C450.205 20.9209 449.993 20.96 449.824 21.0381C449.655 21.113 449.528 21.2155 449.443 21.3457C449.359 21.4727 449.316 21.6159 449.316 21.7754C449.316 21.8958 449.346 22.0049 449.404 22.1025C449.466 22.2002 449.557 22.2913 449.678 22.376C449.798 22.4606 449.946 22.5404 450.122 22.6152C450.298 22.6901 450.501 22.7633 450.732 22.835C451.12 22.9521 451.46 23.084 451.753 23.2305C452.049 23.377 452.297 23.5413 452.495 23.7236C452.694 23.9059 452.843 24.1126 452.944 24.3438C453.045 24.5749 453.096 24.8369 453.096 25.1299C453.096 25.4391 453.035 25.7158 452.915 25.96C452.795 26.2041 452.62 26.4108 452.393 26.5801C452.165 26.7493 451.893 26.8779 451.577 26.9658C451.261 27.0537 450.908 27.0977 450.518 27.0977C450.166 27.0977 449.819 27.0521 449.478 26.9609C449.136 26.8665 448.825 26.7249 448.545 26.5361C448.268 26.3473 448.047 26.1064 447.881 25.8135C447.715 25.5205 447.632 25.1738 447.632 24.7734H449.102C449.102 24.9948 449.136 25.182 449.204 25.335C449.272 25.488 449.368 25.6117 449.492 25.7061C449.619 25.8005 449.769 25.8688 449.941 25.9111C450.117 25.9535 450.309 25.9746 450.518 25.9746C450.771 25.9746 450.98 25.9388 451.143 25.8672C451.309 25.7956 451.431 25.6963 451.509 25.5693C451.59 25.4424 451.631 25.2992 451.631 25.1396ZM458.662 25.8574V27H455.083V25.8574H458.662ZM455.557 19.8906V27H454.092V19.8906H455.557ZM437.944 36.6416H439.404C439.375 37.1201 439.243 37.5449 439.009 37.916C438.778 38.2871 438.454 38.5768 438.037 38.7852C437.624 38.9935 437.126 39.0977 436.543 39.0977C436.087 39.0977 435.679 39.0195 435.317 38.8633C434.956 38.7038 434.647 38.4759 434.39 38.1797C434.136 37.8835 433.942 37.5254 433.809 37.1055C433.675 36.6855 433.608 36.2152 433.608 35.6943V35.2012C433.608 34.6803 433.677 34.21 433.813 33.79C433.953 33.3669 434.152 33.0072 434.409 32.7109C434.67 32.4147 434.98 32.1868 435.342 32.0273C435.703 31.8678 436.107 31.7881 436.553 31.7881C437.145 31.7881 437.645 31.8955 438.052 32.1104C438.462 32.3252 438.779 32.6214 439.004 32.999C439.232 33.3766 439.368 33.8063 439.414 34.2881H437.949C437.933 34.0016 437.876 33.7591 437.778 33.5605C437.681 33.3587 437.533 33.2074 437.334 33.1064C437.139 33.0023 436.878 32.9502 436.553 32.9502C436.309 32.9502 436.095 32.9958 435.913 33.0869C435.731 33.1781 435.578 33.3164 435.454 33.502C435.33 33.6875 435.238 33.9219 435.176 34.2051C435.117 34.485 435.088 34.8138 435.088 35.1914V35.6943C435.088 36.0622 435.116 36.3861 435.171 36.666C435.226 36.9427 435.311 37.1771 435.425 37.3691C435.542 37.5579 435.692 37.7012 435.874 37.7988C436.06 37.8932 436.283 37.9404 436.543 37.9404C436.849 37.9404 437.101 37.8916 437.3 37.7939C437.498 37.6963 437.65 37.5514 437.754 37.3594C437.861 37.1673 437.925 36.9281 437.944 36.6416ZM444.937 37.8574V39H441.357V37.8574H444.937ZM441.831 31.8906V39H440.366V31.8906H441.831ZM447.334 31.8906V39H445.874V31.8906H447.334ZM453.477 37.8574V39H449.692V37.8574H453.477ZM450.171 31.8906V39H448.706V31.8906H450.171ZM452.983 34.7861V35.8994H449.692V34.7861H452.983ZM453.472 31.8906V33.0381H449.692V31.8906H453.472ZM460.117 31.8906V39H458.652L455.796 34.2344V39H454.331V31.8906H455.796L458.657 36.6611V31.8906H460.117ZM464.424 31.8906V39H462.964V31.8906H464.424ZM466.611 31.8906V33.0381H460.811V31.8906H466.611Z" fill="#343536"/>
<rect x="39" y="75" width="20" height="30" rx="2" fill="#FFB6A3"/>
<rect x="440" y="160" width="20" height="30" rx="2" fill="#FFB6A3"/>
<rect x="340" y="100" width="20" height="30" rx="2" fill="#FFB6A3"/>
<rect x="140" y="70" width="20" height="40" rx="2" fill="#FFB6A3"/>
<rect x="140" y="120" width="20" height="40" rx="2" fill="#FFB6A3"/>
<rect x="237" y="120" width="20" height="40" rx="2" fill="#FFB6A3"/>
<rect x="237" y="70" width="20" height="40" rx="2" fill="#FFB6A3"/>
<rect x="440" y="120" width="20" height="30" rx="2" fill="#FFB6A3"/>
<rect x="340" y="160" width="20" height="30" rx="2" fill="#FFB6A3"/>
<rect x="85" y="77" width="30" height="10" rx="2" fill="white"/>
<path d="M93.5664 83.3257C93.5664 83.2114 93.5488 83.1089 93.5137 83.0181C93.4814 82.9243 93.4199 82.8394 93.3291 82.7632C93.2383 82.6841 93.1108 82.6064 92.9468 82.5303C92.7827 82.4541 92.5703 82.375 92.3096 82.293C92.0195 82.1992 91.7441 82.0938 91.4834 81.9766C91.2256 81.8594 90.9971 81.7231 90.7979 81.5679C90.6016 81.4097 90.4463 81.2266 90.332 81.0186C90.2207 80.8105 90.165 80.5688 90.165 80.2935C90.165 80.0269 90.2236 79.7852 90.3408 79.5684C90.458 79.3486 90.6221 79.1611 90.833 79.0059C91.0439 78.8477 91.293 78.7261 91.5801 78.6411C91.8701 78.5562 92.188 78.5137 92.5337 78.5137C93.0054 78.5137 93.417 78.5986 93.7686 78.7686C94.1201 78.9385 94.3926 79.1714 94.5859 79.4673C94.7822 79.7632 94.8804 80.1016 94.8804 80.4824H93.5708C93.5708 80.2949 93.5312 80.1309 93.4521 79.9902C93.376 79.8467 93.2588 79.7339 93.1006 79.6519C92.9453 79.5698 92.749 79.5288 92.5117 79.5288C92.2832 79.5288 92.0928 79.564 91.9404 79.6343C91.7881 79.7017 91.6738 79.7939 91.5977 79.9111C91.5215 80.0254 91.4834 80.1543 91.4834 80.2979C91.4834 80.4062 91.5098 80.5044 91.5625 80.5923C91.6182 80.6802 91.7002 80.7622 91.8086 80.8384C91.917 80.9146 92.0503 80.9863 92.2085 81.0537C92.3667 81.1211 92.5498 81.187 92.7578 81.2515C93.1064 81.3569 93.4126 81.4756 93.6763 81.6074C93.9429 81.7393 94.1655 81.8872 94.3442 82.0513C94.5229 82.2153 94.6577 82.4014 94.7485 82.6094C94.8394 82.8174 94.8848 83.0532 94.8848 83.3169C94.8848 83.5952 94.8306 83.8442 94.7222 84.064C94.6138 84.2837 94.457 84.4697 94.252 84.6221C94.0469 84.7744 93.8022 84.8901 93.5181 84.9692C93.2339 85.0483 92.916 85.0879 92.5645 85.0879C92.248 85.0879 91.936 85.0469 91.6284 84.9648C91.3208 84.8799 91.041 84.7524 90.7891 84.5825C90.54 84.4126 90.3408 84.1958 90.1914 83.9321C90.042 83.6685 89.9673 83.3564 89.9673 82.9961H91.29C91.29 83.1953 91.3208 83.3638 91.3823 83.5015C91.4438 83.6392 91.5303 83.7505 91.6416 83.8354C91.7559 83.9204 91.8906 83.9819 92.0459 84.02C92.2041 84.0581 92.377 84.0771 92.5645 84.0771C92.793 84.0771 92.9805 84.0449 93.127 83.9805C93.2764 83.916 93.3862 83.8267 93.4565 83.7124C93.5298 83.5981 93.5664 83.4692 93.5664 83.3257ZM97.1831 78.6016V85H95.8691V78.6016H97.1831ZM103.489 81.6558V84.1914C103.39 84.3115 103.236 84.4419 103.028 84.5825C102.82 84.7202 102.552 84.8389 102.224 84.9385C101.896 85.0381 101.499 85.0879 101.033 85.0879C100.62 85.0879 100.243 85.0205 99.9033 84.8857C99.5635 84.748 99.2705 84.5474 99.0244 84.2837C98.7812 84.02 98.5938 83.6978 98.4619 83.3169C98.3301 82.9331 98.2642 82.4951 98.2642 82.0029V81.603C98.2642 81.1108 98.3271 80.6729 98.4531 80.2891C98.582 79.9053 98.7651 79.5815 99.0024 79.3179C99.2397 79.0542 99.5225 78.8535 99.8506 78.7158C100.179 78.5781 100.543 78.5093 100.945 78.5093C101.501 78.5093 101.958 78.6001 102.316 78.7817C102.673 78.9604 102.946 79.2095 103.133 79.5288C103.324 79.8452 103.441 80.2085 103.485 80.6187H102.206C102.174 80.4019 102.112 80.2129 102.021 80.0518C101.931 79.8906 101.8 79.7646 101.63 79.6738C101.463 79.583 101.247 79.5376 100.98 79.5376C100.76 79.5376 100.564 79.583 100.391 79.6738C100.221 79.7617 100.078 79.8921 99.9604 80.0649C99.8433 80.2378 99.7539 80.4517 99.6924 80.7065C99.6309 80.9614 99.6001 81.2573 99.6001 81.5942V82.0029C99.6001 82.3369 99.6323 82.6328 99.6968 82.8906C99.7612 83.1455 99.8564 83.3608 99.9824 83.5366C100.111 83.7095 100.27 83.8398 100.457 83.9277C100.645 84.0156 100.863 84.0596 101.112 84.0596C101.32 84.0596 101.493 84.042 101.63 84.0068C101.771 83.9717 101.884 83.9292 101.969 83.8794C102.057 83.8267 102.124 83.7769 102.171 83.73V82.5962H100.967V81.6558H103.489ZM109.76 78.6016V85H108.442L105.871 80.7109V85H104.553V78.6016H105.871L108.446 82.895V78.6016H109.76Z" fill="#343536"/>
<path d="M134 90L124 84.2265V95.7735L134 90ZM65 91H125V89H65V91Z" fill="#BFBFC0"/>
<rect x="165" y="78" width="55" height="10" rx="2" fill="white"/>
<path d="M170.687 80.6958L168.946 86H167.544L169.922 79.6016H170.814L170.687 80.6958ZM172.132 86L170.388 80.6958L170.247 79.6016H171.148L173.539 86H172.132ZM172.053 83.6182V84.6509H168.674V83.6182H172.053ZM177.586 79.6016H178.9V83.8291C178.9 84.3213 178.794 84.7358 178.583 85.0728C178.375 85.4097 178.087 85.6631 177.718 85.833C177.352 86.0029 176.93 86.0879 176.452 86.0879C175.975 86.0879 175.55 86.0029 175.178 85.833C174.809 85.6631 174.519 85.4097 174.308 85.0728C174.1 84.7358 173.996 84.3213 173.996 83.8291V79.6016H175.314V83.8291C175.314 84.1162 175.359 84.3506 175.45 84.5322C175.541 84.7139 175.671 84.8472 175.841 84.9321C176.014 85.0171 176.218 85.0596 176.452 85.0596C176.692 85.0596 176.896 85.0171 177.063 84.9321C177.233 84.8472 177.362 84.7139 177.45 84.5322C177.541 84.3506 177.586 84.1162 177.586 83.8291V79.6016ZM182.846 79.6016V86H181.532V79.6016H182.846ZM184.815 79.6016V80.6343H179.594V79.6016H184.815ZM189.833 82.2075V83.2358H186.494V82.2075H189.833ZM186.885 79.6016V86H185.566V79.6016H186.885ZM190.774 79.6016V86H189.46V79.6016H190.774ZM197.177 82.6514V82.9546C197.177 83.4409 197.111 83.8774 196.979 84.2642C196.847 84.6509 196.661 84.9805 196.421 85.2529C196.181 85.5225 195.894 85.729 195.56 85.8726C195.229 86.0161 194.861 86.0879 194.457 86.0879C194.055 86.0879 193.688 86.0161 193.354 85.8726C193.022 85.729 192.735 85.5225 192.492 85.2529C192.249 84.9805 192.06 84.6509 191.925 84.2642C191.793 83.8774 191.728 83.4409 191.728 82.9546V82.6514C191.728 82.1621 191.793 81.7256 191.925 81.3418C192.057 80.9551 192.243 80.6255 192.483 80.353C192.727 80.0806 193.014 79.8726 193.345 79.729C193.679 79.5854 194.046 79.5137 194.448 79.5137C194.852 79.5137 195.22 79.5854 195.551 79.729C195.885 79.8726 196.172 80.0806 196.412 80.353C196.655 80.6255 196.843 80.9551 196.975 81.3418C197.109 81.7256 197.177 82.1621 197.177 82.6514ZM195.845 82.9546V82.6426C195.845 82.3027 195.814 82.0039 195.753 81.7461C195.691 81.4883 195.601 81.2715 195.48 81.0957C195.36 80.9199 195.214 80.7881 195.041 80.7002C194.868 80.6094 194.67 80.564 194.448 80.564C194.225 80.564 194.027 80.6094 193.854 80.7002C193.685 80.7881 193.54 80.9199 193.419 81.0957C193.302 81.2715 193.213 81.4883 193.151 81.7461C193.09 82.0039 193.059 82.3027 193.059 82.6426V82.9546C193.059 83.2915 193.09 83.5903 193.151 83.8511C193.213 84.1089 193.304 84.3271 193.424 84.5059C193.544 84.6816 193.69 84.8149 193.863 84.9058C194.036 84.9966 194.234 85.042 194.457 85.042C194.679 85.042 194.877 84.9966 195.05 84.9058C195.223 84.8149 195.368 84.6816 195.485 84.5059C195.602 84.3271 195.691 84.1089 195.753 83.8511C195.814 83.5903 195.845 83.2915 195.845 82.9546ZM198.126 79.6016H200.512C201.001 79.6016 201.422 79.6748 201.773 79.8213C202.128 79.9678 202.4 80.1846 202.591 80.4717C202.781 80.7588 202.876 81.1118 202.876 81.5308C202.876 81.8735 202.818 82.168 202.701 82.4141C202.586 82.6572 202.424 82.8608 202.213 83.0249C202.005 83.186 201.76 83.3149 201.479 83.4116L201.062 83.6313H198.987L198.979 82.603H200.521C200.752 82.603 200.944 82.562 201.097 82.48C201.249 82.3979 201.363 82.2837 201.439 82.1372C201.519 81.9907 201.558 81.8208 201.558 81.6274C201.558 81.4224 201.52 81.2451 201.444 81.0957C201.368 80.9463 201.252 80.832 201.097 80.7529C200.941 80.6738 200.747 80.6343 200.512 80.6343H199.444V86H198.126V79.6016ZM201.703 86L200.244 83.1479L201.637 83.1392L203.114 85.9385V86H201.703ZM205.293 79.6016V86H203.979V79.6016H205.293ZM211.156 84.9717V86H206.621V84.9717H211.156ZM211.09 80.3354L207.205 86H206.278V85.2441L210.193 79.6016H211.09V80.3354ZM210.637 79.6016V80.6343H206.282V79.6016H210.637ZM216.289 84.9717V86H212.883V84.9717H216.289ZM213.313 79.6016V86H211.995V79.6016H213.313ZM215.845 82.2075V83.2095H212.883V82.2075H215.845ZM216.284 79.6016V80.6343H212.883V79.6016H216.284Z" fill="#343536"/>
<rect x="178" y="117" width="55" height="10" rx="2" fill="white"/>
<path d="M186.494 118.602H188.88C189.369 118.602 189.79 118.675 190.141 118.821C190.496 118.968 190.768 119.185 190.958 119.472C191.149 119.759 191.244 120.112 191.244 120.531C191.244 120.874 191.186 121.168 191.068 121.414C190.954 121.657 190.792 121.861 190.581 122.025C190.373 122.186 190.128 122.315 189.847 122.412L189.429 122.631H187.355L187.346 121.603H188.889C189.12 121.603 189.312 121.562 189.464 121.48C189.617 121.398 189.731 121.284 189.807 121.137C189.886 120.991 189.926 120.821 189.926 120.627C189.926 120.422 189.888 120.245 189.812 120.096C189.735 119.946 189.62 119.832 189.464 119.753C189.309 119.674 189.114 119.634 188.88 119.634H187.812V125H186.494V118.602ZM190.071 125L188.612 122.148L190.005 122.139L191.481 124.938V125H190.071ZM196.553 123.972V125H193.147V123.972H196.553ZM193.578 118.602V125H192.259V118.602H193.578ZM196.109 121.208V122.209H193.147V121.208H196.109ZM196.548 118.602V119.634H193.147V118.602H196.548ZM200.798 124.051L202.529 125.422L201.699 126.143L199.994 124.771L200.798 124.051ZM202.573 121.651V121.955C202.573 122.441 202.507 122.877 202.375 123.264C202.247 123.651 202.061 123.98 201.817 124.253C201.574 124.522 201.287 124.729 200.956 124.873C200.625 125.016 200.257 125.088 199.853 125.088C199.452 125.088 199.084 125.016 198.75 124.873C198.416 124.729 198.127 124.522 197.884 124.253C197.641 123.98 197.452 123.651 197.317 123.264C197.186 122.877 197.12 122.441 197.12 121.955V121.651C197.12 121.162 197.186 120.726 197.317 120.342C197.452 119.955 197.64 119.625 197.88 119.353C198.12 119.081 198.407 118.873 198.741 118.729C199.075 118.585 199.443 118.514 199.844 118.514C200.249 118.514 200.616 118.585 200.947 118.729C201.281 118.873 201.57 119.081 201.813 119.353C202.056 119.625 202.244 119.955 202.375 120.342C202.507 120.726 202.573 121.162 202.573 121.651ZM201.242 121.955V121.643C201.242 121.303 201.209 121.004 201.145 120.746C201.083 120.488 200.993 120.271 200.873 120.096C200.755 119.92 200.61 119.788 200.438 119.7C200.265 119.609 200.067 119.564 199.844 119.564C199.622 119.564 199.424 119.609 199.251 119.7C199.078 119.788 198.933 119.92 198.816 120.096C198.699 120.271 198.609 120.488 198.548 120.746C198.486 121.004 198.456 121.303 198.456 121.643V121.955C198.456 122.292 198.486 122.59 198.548 122.851C198.609 123.109 198.699 123.327 198.816 123.506C198.936 123.682 199.083 123.815 199.255 123.906C199.431 123.997 199.63 124.042 199.853 124.042C200.076 124.042 200.272 123.997 200.442 123.906C200.615 123.815 200.76 123.682 200.877 123.506C200.997 123.327 201.088 123.109 201.149 122.851C201.211 122.59 201.242 122.292 201.242 121.955ZM207.06 118.602H208.374V122.829C208.374 123.321 208.269 123.736 208.058 124.073C207.85 124.41 207.561 124.663 207.192 124.833C206.826 125.003 206.404 125.088 205.926 125.088C205.449 125.088 205.024 125.003 204.652 124.833C204.283 124.663 203.993 124.41 203.782 124.073C203.574 123.736 203.47 123.321 203.47 122.829V118.602H204.788V122.829C204.788 123.116 204.833 123.351 204.924 123.532C205.015 123.714 205.146 123.847 205.315 123.932C205.488 124.017 205.692 124.06 205.926 124.06C206.167 124.06 206.37 124.017 206.537 123.932C206.707 123.847 206.836 123.714 206.924 123.532C207.015 123.351 207.06 123.116 207.06 122.829V118.602ZM213.753 123.972V125H210.347V123.972H213.753ZM210.778 118.602V125H209.459V118.602H210.778ZM213.309 121.208V122.209H210.347V121.208H213.309ZM213.749 118.602V119.634H210.347V118.602H213.749ZM217.853 123.326C217.853 123.211 217.835 123.109 217.8 123.018C217.768 122.924 217.707 122.839 217.616 122.763C217.525 122.684 217.397 122.606 217.233 122.53C217.069 122.454 216.857 122.375 216.596 122.293C216.306 122.199 216.031 122.094 215.77 121.977C215.512 121.859 215.284 121.723 215.084 121.568C214.888 121.41 214.733 121.227 214.619 121.019C214.507 120.811 214.452 120.569 214.452 120.293C214.452 120.027 214.51 119.785 214.627 119.568C214.745 119.349 214.909 119.161 215.12 119.006C215.331 118.848 215.58 118.726 215.867 118.641C216.157 118.556 216.475 118.514 216.82 118.514C217.292 118.514 217.704 118.599 218.055 118.769C218.407 118.938 218.679 119.171 218.873 119.467C219.069 119.763 219.167 120.102 219.167 120.482H217.857C217.857 120.295 217.818 120.131 217.739 119.99C217.663 119.847 217.545 119.734 217.387 119.652C217.232 119.57 217.036 119.529 216.798 119.529C216.57 119.529 216.379 119.564 216.227 119.634C216.075 119.702 215.96 119.794 215.884 119.911C215.808 120.025 215.77 120.154 215.77 120.298C215.77 120.406 215.796 120.504 215.849 120.592C215.905 120.68 215.987 120.762 216.095 120.838C216.204 120.915 216.337 120.986 216.495 121.054C216.653 121.121 216.836 121.187 217.044 121.251C217.393 121.357 217.699 121.476 217.963 121.607C218.229 121.739 218.452 121.887 218.631 122.051C218.81 122.215 218.944 122.401 219.035 122.609C219.126 122.817 219.171 123.053 219.171 123.317C219.171 123.595 219.117 123.844 219.009 124.064C218.9 124.284 218.744 124.47 218.539 124.622C218.333 124.774 218.089 124.89 217.805 124.969C217.521 125.048 217.203 125.088 216.851 125.088C216.535 125.088 216.223 125.047 215.915 124.965C215.607 124.88 215.328 124.752 215.076 124.583C214.827 124.413 214.627 124.196 214.478 123.932C214.329 123.668 214.254 123.356 214.254 122.996H215.577C215.577 123.195 215.607 123.364 215.669 123.501C215.73 123.639 215.817 123.75 215.928 123.835C216.042 123.92 216.177 123.982 216.333 124.02C216.491 124.058 216.664 124.077 216.851 124.077C217.08 124.077 217.267 124.045 217.414 123.98C217.563 123.916 217.673 123.827 217.743 123.712C217.816 123.598 217.853 123.469 217.853 123.326ZM222.929 118.602V125H221.615V118.602H222.929ZM224.897 118.602V119.634H219.677V118.602H224.897Z" fill="#343536"/>
<rect x="166" y="153" width="55" height="10" rx="2" fill="white"/>
<path d="M170.474 154.602V161H169.16V154.602H170.474ZM175.04 159.326C175.04 159.211 175.022 159.109 174.987 159.018C174.955 158.924 174.893 158.839 174.802 158.763C174.711 158.684 174.584 158.606 174.42 158.53C174.256 158.454 174.043 158.375 173.783 158.293C173.493 158.199 173.217 158.094 172.957 157.977C172.699 157.859 172.47 157.723 172.271 157.568C172.075 157.41 171.919 157.227 171.805 157.019C171.694 156.811 171.638 156.569 171.638 156.293C171.638 156.027 171.697 155.785 171.814 155.568C171.931 155.349 172.095 155.161 172.306 155.006C172.517 154.848 172.766 154.726 173.053 154.641C173.343 154.556 173.661 154.514 174.007 154.514C174.479 154.514 174.89 154.599 175.242 154.769C175.593 154.938 175.866 155.171 176.059 155.467C176.255 155.763 176.354 156.102 176.354 156.482H175.044C175.044 156.295 175.004 156.131 174.925 155.99C174.849 155.847 174.732 155.734 174.574 155.652C174.418 155.57 174.222 155.529 173.985 155.529C173.756 155.529 173.566 155.564 173.414 155.634C173.261 155.702 173.147 155.794 173.071 155.911C172.995 156.025 172.957 156.154 172.957 156.298C172.957 156.406 172.983 156.504 173.036 156.592C173.091 156.68 173.173 156.762 173.282 156.838C173.39 156.915 173.523 156.986 173.682 157.054C173.84 157.121 174.023 157.187 174.231 157.251C174.58 157.357 174.886 157.476 175.149 157.607C175.416 157.739 175.639 157.887 175.817 158.051C175.996 158.215 176.131 158.401 176.222 158.609C176.312 158.817 176.358 159.053 176.358 159.317C176.358 159.595 176.304 159.844 176.195 160.064C176.087 160.284 175.93 160.47 175.725 160.622C175.52 160.774 175.275 160.89 174.991 160.969C174.707 161.048 174.389 161.088 174.038 161.088C173.721 161.088 173.409 161.047 173.102 160.965C172.794 160.88 172.514 160.752 172.262 160.583C172.013 160.413 171.814 160.196 171.665 159.932C171.515 159.668 171.44 159.356 171.44 158.996H172.763C172.763 159.195 172.794 159.364 172.855 159.501C172.917 159.639 173.003 159.75 173.115 159.835C173.229 159.92 173.364 159.982 173.519 160.02C173.677 160.058 173.85 160.077 174.038 160.077C174.266 160.077 174.454 160.045 174.6 159.98C174.75 159.916 174.859 159.827 174.93 159.712C175.003 159.598 175.04 159.469 175.04 159.326ZM180.585 159.326C180.585 159.211 180.568 159.109 180.533 159.018C180.5 158.924 180.439 158.839 180.348 158.763C180.257 158.684 180.13 158.606 179.966 158.53C179.802 158.454 179.589 158.375 179.329 158.293C179.039 158.199 178.763 158.094 178.502 157.977C178.245 157.859 178.016 157.723 177.817 157.568C177.621 157.41 177.465 157.227 177.351 157.019C177.24 156.811 177.184 156.569 177.184 156.293C177.184 156.027 177.243 155.785 177.36 155.568C177.477 155.349 177.641 155.161 177.852 155.006C178.063 154.848 178.312 154.726 178.599 154.641C178.889 154.556 179.207 154.514 179.553 154.514C180.024 154.514 180.436 154.599 180.788 154.769C181.139 154.938 181.412 155.171 181.605 155.467C181.801 155.763 181.899 156.102 181.899 156.482H180.59C180.59 156.295 180.55 156.131 180.471 155.99C180.395 155.847 180.278 155.734 180.12 155.652C179.964 155.57 179.768 155.529 179.531 155.529C179.302 155.529 179.112 155.564 178.959 155.634C178.807 155.702 178.693 155.794 178.617 155.911C178.541 156.025 178.502 156.154 178.502 156.298C178.502 156.406 178.529 156.504 178.582 156.592C178.637 156.68 178.719 156.762 178.828 156.838C178.936 156.915 179.069 156.986 179.228 157.054C179.386 157.121 179.569 157.187 179.777 157.251C180.125 157.357 180.432 157.476 180.695 157.607C180.962 157.739 181.185 157.887 181.363 158.051C181.542 158.215 181.677 158.401 181.768 158.609C181.858 158.817 181.904 159.053 181.904 159.317C181.904 159.595 181.85 159.844 181.741 160.064C181.633 160.284 181.476 160.47 181.271 160.622C181.066 160.774 180.821 160.89 180.537 160.969C180.253 161.048 179.935 161.088 179.583 161.088C179.267 161.088 178.955 161.047 178.647 160.965C178.34 160.88 178.06 160.752 177.808 160.583C177.559 160.413 177.36 160.196 177.21 159.932C177.061 159.668 176.986 159.356 176.986 158.996H178.309C178.309 159.195 178.34 159.364 178.401 159.501C178.463 159.639 178.549 159.75 178.661 159.835C178.775 159.92 178.91 159.982 179.065 160.02C179.223 160.058 179.396 160.077 179.583 160.077C179.812 160.077 180 160.045 180.146 159.98C180.295 159.916 180.405 159.827 180.476 159.712C180.549 159.598 180.585 159.469 180.585 159.326ZM186.333 154.602H187.647V158.829C187.647 159.321 187.542 159.736 187.331 160.073C187.123 160.41 186.834 160.663 186.465 160.833C186.099 161.003 185.677 161.088 185.2 161.088C184.722 161.088 184.297 161.003 183.925 160.833C183.556 160.663 183.266 160.41 183.055 160.073C182.847 159.736 182.743 159.321 182.743 158.829V154.602H184.062V158.829C184.062 159.116 184.107 159.351 184.198 159.532C184.289 159.714 184.419 159.847 184.589 159.932C184.762 160.017 184.965 160.06 185.2 160.06C185.44 160.06 185.644 160.017 185.811 159.932C185.98 159.847 186.109 159.714 186.197 159.532C186.288 159.351 186.333 159.116 186.333 158.829V154.602ZM193.026 159.972V161H189.621V159.972H193.026ZM190.051 154.602V161H188.733V154.602H190.051ZM192.583 157.208V158.209H189.621V157.208H192.583ZM193.022 154.602V155.634H189.621V154.602H193.022ZM199.746 158.877H201.06C201.033 159.308 200.915 159.69 200.704 160.024C200.496 160.358 200.204 160.619 199.829 160.807C199.457 160.994 199.009 161.088 198.484 161.088C198.074 161.088 197.707 161.018 197.381 160.877C197.056 160.733 196.778 160.528 196.546 160.262C196.318 159.995 196.144 159.673 196.023 159.295C195.903 158.917 195.843 158.494 195.843 158.025V157.581C195.843 157.112 195.905 156.689 196.028 156.311C196.154 155.93 196.333 155.606 196.564 155.34C196.798 155.073 197.078 154.868 197.403 154.725C197.729 154.581 198.092 154.509 198.493 154.509C199.026 154.509 199.476 154.606 199.842 154.799C200.211 154.993 200.497 155.259 200.699 155.599C200.904 155.939 201.027 156.326 201.068 156.759H199.75C199.735 156.501 199.684 156.283 199.596 156.104C199.508 155.923 199.375 155.787 199.196 155.696C199.021 155.602 198.786 155.555 198.493 155.555C198.273 155.555 198.082 155.596 197.917 155.678C197.753 155.76 197.616 155.885 197.504 156.052C197.393 156.219 197.31 156.43 197.254 156.685C197.201 156.937 197.175 157.232 197.175 157.572V158.025C197.175 158.356 197.2 158.647 197.25 158.899C197.299 159.148 197.375 159.359 197.478 159.532C197.583 159.702 197.718 159.831 197.882 159.919C198.049 160.004 198.25 160.046 198.484 160.046C198.76 160.046 198.987 160.002 199.166 159.915C199.344 159.827 199.48 159.696 199.574 159.523C199.671 159.351 199.728 159.135 199.746 158.877ZM206.219 159.972V161H202.813V159.972H206.219ZM203.244 154.602V161H201.925V154.602H203.244ZM205.775 157.208V158.209H202.813V157.208H205.775ZM206.214 154.602V155.634H202.813V154.602H206.214ZM206.988 154.602H209.374C209.863 154.602 210.284 154.675 210.635 154.821C210.99 154.968 211.262 155.185 211.453 155.472C211.643 155.759 211.738 156.112 211.738 156.531C211.738 156.874 211.68 157.168 211.562 157.414C211.448 157.657 211.286 157.861 211.075 158.025C210.867 158.186 210.622 158.315 210.341 158.412L209.923 158.631H207.849L207.84 157.603H209.383C209.614 157.603 209.806 157.562 209.958 157.48C210.111 157.398 210.225 157.284 210.301 157.137C210.38 156.991 210.42 156.821 210.42 156.627C210.42 156.422 210.382 156.245 210.306 156.096C210.229 155.946 210.114 155.832 209.958 155.753C209.803 155.674 209.608 155.634 209.374 155.634H208.306V161H206.988V154.602ZM210.565 161L209.106 158.148L210.499 158.139L211.976 160.938V161H210.565ZM215.351 154.602V161H214.037V154.602H215.351ZM217.319 154.602V155.634H212.099V154.602H217.319Z" fill="#343536"/>
<path d="M233 91L223 85.2265V96.7735L233 91ZM164 92H224V90H164V92Z" fill="#BFBFC0"/>
<rect x="264" y="135" width="59" height="10" rx="2" fill="white"/>
<path d="M268.403 137.696L266.663 143H265.261L267.638 136.602H268.53L268.403 137.696ZM269.849 143L268.104 137.696L267.963 136.602H268.864L271.255 143H269.849ZM269.77 140.618V141.651H266.39V140.618H269.77ZM275.179 141.326C275.179 141.211 275.162 141.109 275.126 141.018C275.094 140.924 275.033 140.839 274.942 140.763C274.851 140.684 274.724 140.606 274.56 140.53C274.396 140.454 274.183 140.375 273.922 140.293C273.632 140.199 273.357 140.094 273.096 139.977C272.838 139.859 272.61 139.723 272.411 139.568C272.214 139.41 272.059 139.227 271.945 139.019C271.833 138.811 271.778 138.569 271.778 138.293C271.778 138.027 271.836 137.785 271.954 137.568C272.071 137.349 272.235 137.161 272.446 137.006C272.657 136.848 272.906 136.726 273.193 136.641C273.483 136.556 273.801 136.514 274.146 136.514C274.618 136.514 275.03 136.599 275.381 136.769C275.733 136.938 276.005 137.171 276.199 137.467C276.395 137.763 276.493 138.102 276.493 138.482H275.184C275.184 138.295 275.144 138.131 275.065 137.99C274.989 137.847 274.872 137.734 274.713 137.652C274.558 137.57 274.362 137.529 274.125 137.529C273.896 137.529 273.706 137.564 273.553 137.634C273.401 137.702 273.287 137.794 273.21 137.911C273.134 138.025 273.096 138.154 273.096 138.298C273.096 138.406 273.123 138.504 273.175 138.592C273.231 138.68 273.313 138.762 273.421 138.838C273.53 138.915 273.663 138.986 273.821 139.054C273.979 139.121 274.163 139.187 274.371 139.251C274.719 139.357 275.025 139.476 275.289 139.607C275.556 139.739 275.778 139.887 275.957 140.051C276.136 140.215 276.271 140.401 276.361 140.609C276.452 140.817 276.498 141.053 276.498 141.317C276.498 141.595 276.443 141.844 276.335 142.064C276.227 142.284 276.07 142.47 275.865 142.622C275.66 142.774 275.415 142.89 275.131 142.969C274.847 143.048 274.529 143.088 274.177 143.088C273.861 143.088 273.549 143.047 273.241 142.965C272.934 142.88 272.654 142.752 272.402 142.583C272.153 142.413 271.954 142.196 271.804 141.932C271.655 141.668 271.58 141.356 271.58 140.996H272.903C272.903 141.195 272.934 141.364 272.995 141.501C273.057 141.639 273.143 141.75 273.254 141.835C273.369 141.92 273.503 141.982 273.659 142.02C273.817 142.058 273.99 142.077 274.177 142.077C274.406 142.077 274.593 142.045 274.74 141.98C274.889 141.916 274.999 141.827 275.069 141.712C275.143 141.598 275.179 141.469 275.179 141.326ZM280.725 141.326C280.725 141.211 280.708 141.109 280.672 141.018C280.64 140.924 280.579 140.839 280.488 140.763C280.397 140.684 280.27 140.606 280.105 140.53C279.941 140.454 279.729 140.375 279.468 140.293C279.178 140.199 278.903 140.094 278.642 139.977C278.384 139.859 278.156 139.723 277.957 139.568C277.76 139.41 277.605 139.227 277.491 139.019C277.379 138.811 277.324 138.569 277.324 138.293C277.324 138.027 277.382 137.785 277.5 137.568C277.617 137.349 277.781 137.161 277.992 137.006C278.203 136.848 278.452 136.726 278.739 136.641C279.029 136.556 279.347 136.514 279.692 136.514C280.164 136.514 280.576 136.599 280.927 136.769C281.279 136.938 281.551 137.171 281.745 137.467C281.941 137.763 282.039 138.102 282.039 138.482H280.729C280.729 138.295 280.69 138.131 280.611 137.99C280.535 137.847 280.417 137.734 280.259 137.652C280.104 137.57 279.908 137.529 279.67 137.529C279.442 137.529 279.251 137.564 279.099 137.634C278.947 137.702 278.833 137.794 278.756 137.911C278.68 138.025 278.642 138.154 278.642 138.298C278.642 138.406 278.668 138.504 278.721 138.592C278.777 138.68 278.859 138.762 278.967 138.838C279.076 138.915 279.209 138.986 279.367 139.054C279.525 139.121 279.708 139.187 279.917 139.251C280.265 139.357 280.571 139.476 280.835 139.607C281.102 139.739 281.324 139.887 281.503 140.051C281.682 140.215 281.816 140.401 281.907 140.609C281.998 140.817 282.043 141.053 282.043 141.317C282.043 141.595 281.989 141.844 281.881 142.064C281.772 142.284 281.616 142.47 281.411 142.622C281.206 142.774 280.961 142.89 280.677 142.969C280.393 143.048 280.075 143.088 279.723 143.088C279.407 143.088 279.095 143.047 278.787 142.965C278.479 142.88 278.2 142.752 277.948 142.583C277.699 142.413 277.5 142.196 277.35 141.932C277.201 141.668 277.126 141.356 277.126 140.996H278.449C278.449 141.195 278.479 141.364 278.541 141.501C278.603 141.639 278.689 141.75 278.8 141.835C278.915 141.92 279.049 141.982 279.205 142.02C279.363 142.058 279.536 142.077 279.723 142.077C279.952 142.077 280.139 142.045 280.286 141.98C280.435 141.916 280.545 141.827 280.615 141.712C280.688 141.598 280.725 141.469 280.725 141.326ZM284.342 136.602V143H283.028V136.602H284.342ZM290.648 139.656V142.191C290.548 142.312 290.395 142.442 290.187 142.583C289.979 142.72 289.71 142.839 289.382 142.938C289.054 143.038 288.657 143.088 288.191 143.088C287.778 143.088 287.402 143.021 287.062 142.886C286.722 142.748 286.429 142.547 286.183 142.284C285.94 142.02 285.752 141.698 285.621 141.317C285.489 140.933 285.423 140.495 285.423 140.003V139.603C285.423 139.111 285.486 138.673 285.612 138.289C285.741 137.905 285.924 137.582 286.161 137.318C286.398 137.054 286.681 136.854 287.009 136.716C287.337 136.578 287.702 136.509 288.104 136.509C288.66 136.509 289.117 136.6 289.475 136.782C289.832 136.96 290.104 137.209 290.292 137.529C290.482 137.845 290.6 138.208 290.644 138.619H289.365C289.333 138.402 289.271 138.213 289.18 138.052C289.089 137.891 288.959 137.765 288.789 137.674C288.622 137.583 288.405 137.538 288.139 137.538C287.919 137.538 287.723 137.583 287.55 137.674C287.38 137.762 287.236 137.892 287.119 138.065C287.002 138.238 286.913 138.452 286.851 138.707C286.79 138.961 286.759 139.257 286.759 139.594V140.003C286.759 140.337 286.791 140.633 286.855 140.891C286.92 141.146 287.015 141.361 287.141 141.537C287.27 141.709 287.428 141.84 287.616 141.928C287.803 142.016 288.021 142.06 288.271 142.06C288.479 142.06 288.651 142.042 288.789 142.007C288.93 141.972 289.042 141.929 289.127 141.879C289.215 141.827 289.283 141.777 289.33 141.73V140.596H288.125V139.656H290.648ZM296.919 136.602V143H295.601L293.03 138.711V143H291.711V136.602H293.03L295.605 140.895V136.602H296.919ZM304.016 140.877H305.33C305.304 141.308 305.185 141.69 304.974 142.024C304.766 142.358 304.475 142.619 304.1 142.807C303.728 142.994 303.279 143.088 302.755 143.088C302.345 143.088 301.977 143.018 301.652 142.877C301.327 142.733 301.048 142.528 300.817 142.262C300.588 141.995 300.414 141.673 300.294 141.295C300.174 140.917 300.114 140.494 300.114 140.025V139.581C300.114 139.112 300.175 138.689 300.298 138.311C300.424 137.93 300.603 137.606 300.834 137.34C301.069 137.073 301.349 136.868 301.674 136.725C301.999 136.581 302.362 136.509 302.764 136.509C303.297 136.509 303.747 136.606 304.113 136.799C304.482 136.993 304.768 137.259 304.97 137.599C305.175 137.939 305.298 138.326 305.339 138.759H304.021C304.006 138.501 303.955 138.283 303.867 138.104C303.779 137.923 303.646 137.787 303.467 137.696C303.291 137.602 303.057 137.555 302.764 137.555C302.544 137.555 302.352 137.596 302.188 137.678C302.024 137.76 301.886 137.885 301.775 138.052C301.664 138.219 301.58 138.43 301.524 138.685C301.472 138.937 301.445 139.232 301.445 139.572V140.025C301.445 140.356 301.47 140.647 301.52 140.899C301.57 141.148 301.646 141.359 301.749 141.532C301.854 141.702 301.989 141.831 302.153 141.919C302.32 142.004 302.521 142.046 302.755 142.046C303.03 142.046 303.257 142.002 303.436 141.915C303.615 141.827 303.751 141.696 303.845 141.523C303.941 141.351 303.999 141.135 304.016 140.877ZM310.489 141.972V143H307.083V141.972H310.489ZM307.514 136.602V143H306.196V136.602H307.514ZM310.045 139.208V140.209H307.083V139.208H310.045ZM310.485 136.602V137.634H307.083V136.602H310.485ZM311.258 136.602H313.645C314.134 136.602 314.554 136.675 314.906 136.821C315.26 136.968 315.533 137.185 315.723 137.472C315.914 137.759 316.009 138.112 316.009 138.531C316.009 138.874 315.95 139.168 315.833 139.414C315.719 139.657 315.556 139.861 315.345 140.025C315.137 140.186 314.893 140.315 314.611 140.412L314.194 140.631H312.12L312.111 139.603H313.653C313.885 139.603 314.077 139.562 314.229 139.48C314.381 139.398 314.496 139.284 314.572 139.137C314.651 138.991 314.69 138.821 314.69 138.627C314.69 138.422 314.652 138.245 314.576 138.096C314.5 137.946 314.384 137.832 314.229 137.753C314.074 137.674 313.879 137.634 313.645 137.634H312.577V143H311.258V136.602ZM314.835 143L313.376 140.148L314.77 140.139L316.246 142.938V143H314.835ZM319.621 136.602V143H318.307V136.602H319.621ZM321.59 136.602V137.634H316.369V136.602H321.59Z" fill="#343536"/>
<rect x="385" y="170" width="25" height="10" rx="2" fill="white"/>
<path d="M390.06 171.602V178H388.746V171.602H390.06ZM392.029 171.602V172.634H386.808V171.602H392.029ZM394.907 172.696L393.167 178H391.765L394.143 171.602H395.035L394.907 172.696ZM396.353 178L394.608 172.696L394.468 171.602H395.369L397.759 178H396.353ZM396.274 175.618V176.651H392.895V175.618H396.274ZM402.466 176.972V178H399.245V176.972H402.466ZM399.671 171.602V178H398.353V171.602H399.671ZM404.54 171.602V178H403.222V171.602H404.54ZM408.372 171.602L405.836 174.761L404.373 176.334L404.136 175.086L405.125 173.733L406.755 171.602H408.372ZM406.874 178L404.988 175.042L405.964 174.225L408.434 178H406.874Z" fill="#343536"/>
<path d="M234 150L224 144.226V155.774L234 150ZM165 151H225V149H165V151Z" fill="#BFBFC0"/>
<path d="M434 184L424 178.226V189.774L434 184ZM365 185H425V183H365V185Z" fill="#BFBFC0"/>
<path d="M365 166L375 171.774V160.226L365 166ZM374 167H434V165H374V167Z" fill="#BFBFC0"/>
<path d="M437 150L427 144.226V155.774L437 150ZM264 151H428V149H264V151Z" fill="#BFBFC0"/>
<path d="M165 130L175 135.774V124.226L165 130ZM172.393 131H177.321V129H172.393V131ZM182.25 131H187.179V129H182.25V131ZM192.107 131H197.036V129H192.107V131ZM201.964 131H206.893V129H201.964V131ZM211.821 131H216.75V129H211.821V131ZM221.679 131H226.607V129H221.679V131ZM231.536 131H234V129H231.536V131Z" fill="#BFBFC0"/>
<path d="M333 130L323 124.226V135.774L333 130ZM264 131H324V129H264V131Z" fill="#BFBFC0"/>
<path d="M261 120L271.968 123.61L269.611 112.306L261 120ZM261 90.5C260.971 91.4996 260.971 91.4996 260.971 91.4996C260.971 91.4996 260.971 91.4996 260.971 91.4996C260.971 91.4996 260.971 91.4996 260.971 91.4996C260.972 91.4996 260.974 91.4997 260.978 91.4998C260.984 91.5 260.994 91.5004 261.008 91.501C261.037 91.5022 261.081 91.5043 261.14 91.5076C261.259 91.5142 261.436 91.526 261.665 91.546C262.121 91.586 262.779 91.6592 263.57 91.7911C265.157 92.0556 267.258 92.5525 269.345 93.4768C271.434 94.4017 273.469 95.7369 274.98 97.6573C276.478 99.5624 277.5 102.093 277.5 105.5H279.5C279.5 101.657 278.335 98.6876 276.552 96.4209C274.781 94.1694 272.441 92.6608 270.155 91.6482C267.867 90.635 265.593 90.1006 263.899 89.8183C263.049 89.6767 262.34 89.5975 261.839 89.5536C261.589 89.5317 261.391 89.5185 261.253 89.5107C261.184 89.5069 261.13 89.5043 261.092 89.5028C261.073 89.502 261.058 89.5014 261.048 89.501C261.042 89.5008 261.038 89.5007 261.035 89.5006C261.033 89.5006 261.032 89.5005 261.031 89.5005C261.03 89.5005 261.03 89.5004 261.03 89.5004C261.029 89.5004 261.029 89.5004 261 90.5ZM277.5 105.5C277.5 108.891 276.488 111.379 275.007 113.23C273.514 115.097 271.5 116.372 269.424 117.24L270.196 119.085C272.476 118.132 274.806 116.684 276.569 114.479C278.345 112.259 279.5 109.326 279.5 105.5H277.5Z" fill="#BFBFC0"/>
<defs>
<linearGradient id="paint0_linear_56_443" x1="50" y1="146.35" x2="50" y2="191" gradientUnits="userSpaceOnUse">
<stop stop-color="#BFBFC0"/>
<stop offset="1" stop-color="#BFBFC0" stop-opacity="0"/>
</linearGradient>
<linearGradient id="paint1_linear_56_443" x1="150" y1="146.35" x2="150" y2="191" gradientUnits="userSpaceOnUse">
<stop stop-color="#BFBFC0"/>
<stop offset="1" stop-color="#BFBFC0" stop-opacity="0"/>
</linearGradient>
<linearGradient id="paint2_linear_56_443" x1="250" y1="146.35" x2="250" y2="191" gradientUnits="userSpaceOnUse">
<stop stop-color="#BFBFC0"/>
<stop offset="1" stop-color="#BFBFC0" stop-opacity="0"/>
</linearGradient>
<linearGradient id="paint3_linear_56_443" x1="350" y1="146.35" x2="350" y2="191" gradientUnits="userSpaceOnUse">
<stop stop-color="#BFBFC0"/>
<stop offset="1" stop-color="#BFBFC0" stop-opacity="0"/>
</linearGradient>
<linearGradient id="paint4_linear_56_443" x1="450" y1="146.35" x2="450" y2="191" gradientUnits="userSpaceOnUse">
<stop stop-color="#BFBFC0"/>
<stop offset="1" stop-color="#BFBFC0" stop-opacity="0"/>
</linearGradient>
</defs>
</svg>
