<svg id="ezVthFcuL7C1"
    xmlns="http://www.w3.org/2000/svg"
    xmlns:xlink="http://www.w3.org/1999/xlink" viewBox="0 0 500 200" shape-rendering="geometricPrecision" text-rendering="geometricPrecision">
    <defs>
        <linearGradient id="ezVthFcuL7C10-stroke" x1="50" y1="146.35" x2="50" y2="191" spreadMethod="pad" gradientUnits="userSpaceOnUse" gradientTransform="translate(0 0)">
            <stop id="ezVthFcuL7C10-stroke-0" offset="0%" stop-color="#bfbfc0"/>
            <stop id="ezVthFcuL7C10-stroke-1" offset="100%" stop-color="rgba(191,191,192,0)"/>
        </linearGradient>
        <linearGradient id="ezVthFcuL7C14-stroke" x1="150" y1="146.35" x2="150" y2="191" spreadMethod="pad" gradientUnits="userSpaceOnUse" gradientTransform="translate(0 0)">
            <stop id="ezVthFcuL7C14-stroke-0" offset="0%" stop-color="#bfbfc0"/>
            <stop id="ezVthFcuL7C14-stroke-1" offset="100%" stop-color="rgba(191,191,192,0)"/>
        </linearGradient>
        <linearGradient id="ezVthFcuL7C18-stroke" x1="350" y1="146.35" x2="350" y2="191" spreadMethod="pad" gradientUnits="userSpaceOnUse" gradientTransform="translate(0 0)">
            <stop id="ezVthFcuL7C18-stroke-0" offset="0%" stop-color="#bfbfc0"/>
            <stop id="ezVthFcuL7C18-stroke-1" offset="100%" stop-color="rgba(191,191,192,0)"/>
        </linearGradient>
        <linearGradient id="ezVthFcuL7C25-stroke" x1="450" y1="146.35" x2="450" y2="191" spreadMethod="pad" gradientUnits="userSpaceOnUse" gradientTransform="translate(0 0)">
            <stop id="ezVthFcuL7C25-stroke-0" offset="0%" stop-color="#bfbfc0"/>
            <stop id="ezVthFcuL7C25-stroke-1" offset="100%" stop-color="rgba(191,191,192,0)"/>
        </linearGradient>
        <linearGradient id="ezVthFcuL7C29-stroke" x1="250" y1="146.35" x2="250" y2="191" spreadMethod="pad" gradientUnits="userSpaceOnUse" gradientTransform="translate(0 0)">
            <stop id="ezVthFcuL7C29-stroke-0" offset="0%" stop-color="#bfbfc0"/>
            <stop id="ezVthFcuL7C29-stroke-1" offset="100%" stop-color="rgba(191,191,192,0)"/>
        </linearGradient>
    </defs>
    <g id="ezVthFcuL7C2" opacity="0">
        <rect width="25" height="10" rx="2" ry="2" transform="translate(385 170)" fill="#fff"/>
        <path d="M390.06,171.602v6.398h-1.314v-6.398h1.314Zm1.969,0v1.032h-5.221v-1.032h5.221Zm2.878,1.094L393.167,178h-1.402l2.378-6.398h.892l-.128,1.094ZM396.353,178l-1.745-5.304-.14-1.094h.901l2.39,6.398h-1.406Zm-.079-2.382v1.033h-3.379v-1.033h3.379Zm6.192,1.354v1.028h-3.221v-1.028h3.221Zm-2.795-5.37v6.398h-1.318v-6.398h1.318Zm4.869,0v6.398h-1.318v-6.398h1.318Zm3.832,0l-2.536,3.159-1.463,1.573-.237-1.248.989-1.353l1.63-2.131h1.617ZM406.874,178l-1.886-2.958.976-.817l2.47,3.775h-1.56Z" fill="#343536"/>
        <path d="M434,184l-10-5.774v11.548L434,184Zm-69,1h60v-2h-60v2Z" fill="#bfbfc0"/>
        <path d="M365,166l10,5.774v-11.548L365,166Zm9,1h60v-2h-60v2Z" fill="#bfbfc0"/>
    </g>
    <g id="ezVthFcuL7C7" opacity="0">
        <rect width="60" height="40" rx="2" ry="2" transform="translate(20 10)" fill="#c4c4c4"/>
        <path d="M37.6025,19.8906h2.6514c.5436,0,1.0107.0814,1.4014.2442.3939.1627.6966.4036.9082.7226s.3174.7113.3174,1.1768c0,.3808-.0651.708-.1954.9814-.1269.2702-.3076.4964-.5419.6787-.2312.1791-.503.3223-.8155.4297l-.4638.2442h-2.3047l-.0098-1.1426h1.7139c.2571,0,.4703-.0456.6396-.1367s.2962-.2181.3809-.3809c.0879-.1628.1318-.3516.1318-.5664c0-.2279-.0423-.4248-.1269-.5908s-.2133-.293-.3858-.3809-.389-.1318-.6494-.1318h-1.1865v5.9619h-1.4649v-7.1094ZM41.5771,27l-1.621-3.1689l1.5478-.0098l1.6406,3.1103v.0684h-1.5674Zm8.2715-3.7207v.3369c0,.5404-.0732,1.0254-.2197,1.4551s-.3532.7959-.6201,1.0986c-.2669.2995-.5859.529-.957.6885-.3679.1595-.7764.2393-1.2256.2393-.446,0-.8545-.0798-1.2256-.2393-.3679-.1595-.6869-.389-.957-.6885-.2702-.3027-.4802-.6689-.6299-1.0986-.1465-.4297-.2198-.9147-.2198-1.4551v-.3369c0-.5436.0733-1.0286.2198-1.4551.1465-.4297.3532-.7959.6201-1.0986.2702-.3027.5892-.5339.957-.6934.3711-.1595.7796-.2392,1.2256-.2392.4492,0,.8578.0797,1.2256.2392.3711.1595.6901.3907.957.6934.2702.3027.4785.6689.625,1.0986.1498.4265.2246.9115.2246,1.4551Zm-1.4795.3369v-.3467c0-.3776-.0341-.7096-.1025-.9961s-.1693-.5273-.3027-.7226c-.1335-.1953-.2963-.3418-.4883-.4395-.1921-.1009-.4118-.1513-.6592-.1513s-.4671.0504-.6592.1513c-.1888.0977-.3499.2442-.4834.4395-.1302.1953-.2295.4362-.2978.7226s-.1026.6185-.1026.9961v.3467c0,.3744.0342.7064.1026.9961.0683.2865.1692.529.3027.7275.1335.1954.2962.3435.4883.4444.192.1009.4118.1513.6592.1513s.4671-.0504.6592-.1513.3531-.249.4834-.4444c.1302-.1985.2294-.441.2978-.7275.0684-.2897.1025-.6217.1025-.9961Zm8.3741-.3369v.3369c0,.5404-.0733,1.0254-.2198,1.4551s-.3532.7959-.6201,1.0986c-.2669.2995-.5859.529-.957.6885-.3678.1595-.7764.2393-1.2256.2393-.446,0-.8545-.0798-1.2256-.2393-.3678-.1595-.6868-.389-.957-.6885-.2702-.3027-.4802-.6689-.6299-1.0986-.1465-.4297-.2197-.9147-.2197-1.4551v-.3369c0-.5436.0732-1.0286.2197-1.4551.1465-.4297.3532-.7959.6201-1.0986.2702-.3027.5892-.5339.9571-.6934.371-.1595.7796-.2392,1.2255-.2392.4493,0,.8578.0797,1.2256.2392.3711.1595.6901.3907.9571.6934.2701.3027.4785.6689.625,1.0986.1497.4265.2246.9115.2246,1.4551Zm-1.4795.3369v-.3467c0-.3776-.0342-.7096-.1026-.9961-.0683-.2864-.1692-.5273-.3027-.7226s-.2962-.3418-.4883-.4395c-.192-.1009-.4118-.1513-.6592-.1513s-.4671.0504-.6591.1513c-.1888.0977-.35.2442-.4834.4395-.1302.1953-.2295.4362-.2979.7226s-.1025.6185-.1025.9961v.3467c0,.3744.0341.7064.1025.9961.0684.2865.1693.529.3027.7275.1335.1954.2963.3435.4883.4444s.4118.1513.6592.1513.4671-.0504.6592-.1513.3532-.249.4834-.4444c.1302-.1985.2295-.441.2978-.7275.0684-.2897.1026-.6217.1026-.9961Zm5.3808-3.7256v7.1094h-1.4599v-7.1094h1.4599Zm2.1875,0v1.1475h-5.8008v-1.1475h5.8008ZM48.125,36.6416h1.46c-.0293.4785-.1612.9033-.3955,1.2744-.2312.3711-.5551.6608-.9717.8692-.4134.2083-.9115.3125-1.4942.3125-.4557,0-.8642-.0782-1.2256-.2344-.3613-.1595-.6705-.3874-.9277-.6836-.2539-.2962-.4476-.6543-.581-1.0742-.1335-.42-.2002-.8903-.2002-1.4112v-.4931c0-.5209.0683-.9912.205-1.4112.14-.4231.3386-.7828.5957-1.0791.2605-.2962.5713-.5241.9327-.6836.3613-.1595.7649-.2392,1.2109-.2392.5924,0,1.0921.1074,1.499.3223.4102.2148.7276.511.9522.8886.2278.3776.3646.8073.4101,1.2891h-1.4648c-.0163-.2865-.0733-.529-.1709-.7276-.0977-.2018-.2458-.3531-.4444-.4541-.1953-.1041-.4557-.1562-.7812-.1562-.2441,0-.4574.0456-.6396.1367-.1823.0912-.3353.2295-.459.4151-.1237.1855-.2165.4199-.2784.7031-.0585.2799-.0878.6087-.0878.9863v.5029c0,.3679.0276.6918.083.9717.0553.2767.1399.5111.2539.7031.1172.1888.2669.3321.4492.4297.1855.0944.4085.1416.6689.1416.306,0,.5583-.0488.7569-.1465s.3499-.2425.4541-.4345c.1074-.1921.1709-.4313.1904-.7178Zm5.3125-3.5352L51.5039,39h-1.5576l2.6416-7.1094h.9912l-.1416,1.2158ZM55.0439,39l-1.9384-5.8936-.1563-1.2158h1.001L56.6064,39h-1.5625Zm-.0878-2.6465v1.1475h-3.7549v-1.1475h3.7549Z" fill="#343536"/>
        <line x1="49" y1="191" x2="49" y2="50" transform="translate(1 0)" fill="none" stroke="url(#ezVthFcuL7C10-stroke)" stroke-width="2" stroke-dasharray="5,5"/>
    </g>
    <g id="ezVthFcuL7C11" opacity="0">
        <rect width="60" height="40" rx="2" ry="2" transform="translate(120 10)" fill="#bfbfc0"/>
        <path d="M144.17,19.8906v7.1094h-1.46v-7.1094h1.46Zm7.158,0v7.1094h-1.465l-2.856-4.7656v4.7656h-1.465v-7.1094h1.465l2.861,4.7705v-4.7705h1.46Zm4.307,0v7.1094h-1.46v-7.1094h1.46Zm2.187,0v1.1475h-5.801v-1.1475h5.801Zm-9.697,16.751h1.46c-.029.4785-.161.9033-.396,1.2744-.231.3711-.555.6608-.971.8692-.414.2083-.912.3125-1.494.3125-.456,0-.865-.0782-1.226-.2344-.361-.1595-.671-.3874-.928-.6836-.254-.2962-.447-.6543-.581-1.0742-.133-.42-.2-.8903-.2-1.4112v-.4931c0-.5209.068-.9912.205-1.4112.14-.4231.339-.7828.596-1.0791.26-.2962.571-.5241.932-.6836.362-.1595.765-.2392,1.211-.2392.593,0,1.093.1074,1.499.3223.411.2148.728.511.953.8886.227.3776.364.8073.41,1.2891h-1.465c-.016-.2865-.073-.529-.171-.7276-.098-.2018-.246-.3531-.444-.4541-.196-.1041-.456-.1562-.782-.1562-.244,0-.457.0456-.639.1367-.183.0912-.336.2295-.459.4151-.124.1855-.217.4199-.279.7031-.058.2799-.087.6087-.087.9863v.5029c0,.3679.027.6918.083.9717.055.2767.14.5111.253.7031.118.1888.267.3321.45.4297.185.0944.408.1416.669.1416.306,0,.558-.0488.756-.1465.199-.0976.35-.2425.455-.4345.107-.1921.17-.4313.19-.7178Zm5.313-3.5352L151.504,39h-1.558l2.642-7.1094h.991l-.141,1.2158ZM155.044,39l-1.939-5.8936-.156-1.2158h1.001L156.606,39h-1.562Zm-.088-2.6465v1.1475h-3.755v-1.1475h3.755Z" fill="#343536"/>
        <line x1="149" y1="191" x2="149" y2="50" transform="translate(1 0)" fill="none" stroke="url(#ezVthFcuL7C14-stroke)" stroke-width="2" stroke-dasharray="5,5"/>
    </g>
    <g id="ezVthFcuL7C15" opacity="0">
        <rect width="60" height="40" rx="2" ry="2" transform="translate(320 10)" fill="#bfbfc0"/>
        <path d="M345.469,25.1396c0-.1269-.02-.2408-.059-.3417-.036-.1042-.104-.1986-.205-.2833-.101-.0878-.242-.1741-.425-.2587-.182-.0847-.418-.1726-.708-.2637-.322-.1042-.628-.2214-.918-.3516-.286-.1302-.54-.2816-.761-.4541-.219-.1758-.391-.3792-.518-.6103-.124-.2311-.186-.4997-.186-.8057c0-.2962.066-.5648.196-.8057.13-.2441.312-.4524.547-.625.234-.1757.511-.3108.83-.4052.322-.0944.675-.1416,1.059-.1416.524,0,.982.0944,1.372.2832.391.1888.694.4476.909.7763.218.3288.327.7048.327,1.128h-1.455c0-.2084-.044-.3907-.132-.5469-.085-.1595-.215-.2848-.391-.376-.172-.0911-.39-.1367-.654-.1367-.254,0-.466.0391-.635.1172-.169.0749-.296.1774-.381.3076-.084.127-.127.2702-.127.4297c0,.1204.03.2295.088.3271.062.0977.153.1888.274.2735.12.0846.268.1644.444.2392s.379.1481.61.2198c.388.1171.728.249,1.021.3955.296.1465.543.3108.742.4931s.348.389.449.6202c.101.2311.152.4931.152.7861c0,.3092-.061.5859-.181.8301-.121.2441-.295.4508-.523.6201-.227.1692-.499.2978-.815.3857s-.669.1319-1.06.1319c-.351,0-.698-.0456-1.04-.1368-.341-.0944-.652-.236-.932-.4248-.277-.1888-.498-.4297-.664-.7226-.166-.293-.249-.6397-.249-1.0401h1.469c0,.2214.035.4086.103.5616s.164.2767.288.3711c.127.0944.277.1627.449.205.176.0424.368.0635.576.0635.254,0,.463-.0358.625-.1074.166-.0716.289-.1709.367-.2979.081-.1269.122-.2701.122-.4297Zm6.162,0c0-.1269-.02-.2408-.059-.3417-.036-.1042-.104-.1986-.205-.2833-.101-.0878-.242-.1741-.425-.2587-.182-.0847-.418-.1726-.708-.2637-.322-.1042-.628-.2214-.918-.3516-.286-.1302-.54-.2816-.761-.4541-.218-.1758-.391-.3792-.518-.6103-.124-.2311-.185-.4997-.185-.8057c0-.2962.065-.5648.195-.8057.13-.2441.312-.4524.547-.625.234-.1757.511-.3108.83-.4052.322-.0944.675-.1416,1.059-.1416.524,0,.982.0944,1.372.2832.391.1888.694.4476.909.7763.218.3288.327.7048.327,1.128h-1.455c0-.2084-.044-.3907-.132-.5469-.085-.1595-.215-.2848-.391-.376-.172-.0911-.39-.1367-.654-.1367-.254,0-.466.0391-.635.1172-.169.0749-.296.1774-.381.3076-.084.127-.127.2702-.127.4297c0,.1204.03.2295.088.3271.062.0977.153.1888.274.2735.12.0846.268.1644.444.2392s.379.1481.61.2198c.388.1171.728.249,1.021.3955.296.1465.544.3108.742.4931.199.1823.348.389.449.6202.101.2311.152.4931.152.7861c0,.3092-.061.5859-.181.8301s-.295.4508-.522.6201c-.228.1692-.5.2978-.816.3857s-.669.1319-1.059.1319c-.352,0-.699-.0456-1.04-.1368-.342-.0944-.653-.236-.933-.4248-.277-.1888-.498-.4297-.664-.7226-.166-.293-.249-.6397-.249-1.0401h1.47c0,.2214.034.4086.102.5616s.164.2767.288.3711c.127.0944.277.1627.449.205.176.0424.368.0635.577.0635.253,0,.462-.0358.625-.1074.166-.0716.288-.1709.366-.2979.081-.1269.122-.2701.122-.4297Zm7.031.7178v1.1426h-3.579v-1.1426h3.579Zm-3.105-5.9668v7.1094h-1.465v-7.1094h1.465Zm-19.551,17.249c0-.1269-.02-.2408-.059-.3417-.036-.1042-.104-.1986-.205-.2833-.101-.0878-.242-.1741-.425-.2587-.182-.0847-.418-.1726-.708-.2637-.322-.1042-.628-.2214-.918-.3516-.286-.1302-.54-.2816-.761-.4541-.218-.1758-.391-.3792-.518-.6103-.124-.2311-.185-.4997-.185-.8057c0-.2962.065-.5648.195-.8057.13-.2441.312-.4524.547-.625.234-.1757.511-.3108.83-.4052.322-.0944.675-.1416,1.059-.1416.524,0,.982.0944,1.372.2832.391.1888.694.4476.909.7763.218.3288.327.7048.327,1.128h-1.455c0-.2084-.044-.3907-.132-.5469-.085-.1595-.215-.2848-.391-.376-.172-.0911-.39-.1367-.654-.1367-.254,0-.466.0391-.635.1172-.169.0749-.296.1774-.381.3076-.084.127-.127.2702-.127.4297c0,.1204.03.2295.088.3271.062.0977.153.1888.274.2735.12.0846.268.1644.444.2392s.379.1481.61.2198c.388.1171.728.249,1.021.3955.296.1465.544.3108.742.4931.199.1823.348.389.449.6202.101.2311.152.4931.152.7861c0,.3092-.061.5859-.181.8301-.12.2441-.295.4508-.522.6201-.228.1692-.5.2978-.816.3857s-.669.1319-1.059.1319c-.352,0-.699-.0456-1.04-.1368-.342-.0944-.653-.236-.933-.4248-.277-.1888-.498-.4297-.664-.7226s-.249-.6397-.249-1.0401h1.47c0,.2214.034.4086.102.5616s.164.2767.288.3711c.127.0944.277.1627.449.205.176.0424.368.0635.577.0635.253,0,.462-.0358.625-.1074.166-.0716.288-.1709.366-.2979.081-.1269.122-.2701.122-.4297Zm7.231.7178v1.1426h-3.784v-1.1426h3.784Zm-3.305-5.9668v7.1094h-1.465v-7.1094h1.465Zm2.812,2.8955v1.1133h-3.291v-1.1133h3.291Zm.488-2.8955v1.1475h-3.779v-1.1475h3.779Zm.86,0h2.651c.544,0,1.011.0814,1.402.2442.393.1627.696.4036.908.7226.211.319.317.7113.317,1.1768c0,.3808-.065.708-.195.9814-.127.2702-.308.4964-.542.6787-.231.1791-.503.3223-.816.4297l-.463.2442h-2.305l-.01-1.1426h1.714c.257,0,.47-.0456.64-.1367.169-.0912.296-.2181.38-.3809.088-.1628.132-.3516.132-.5664c0-.2279-.042-.4248-.127-.5908-.084-.166-.213-.293-.385-.3809-.173-.0879-.389-.1318-.65-.1318h-1.186v5.9619h-1.465v-7.1094ZM348.066,39l-1.621-3.1689l1.548-.0098l1.641,3.1103v.0684h-1.568Zm4.898-1.4844l1.675-5.625h1.631L353.794,39h-1.074l.244-1.4844Zm-1.543-5.625l1.67,5.625L353.345,39h-1.084L349.8,31.8906h1.621Zm10.283,5.9668v1.1426h-3.784v-1.1426h3.784Zm-3.306-5.9668v7.1094h-1.464v-7.1094h1.464Zm2.813,2.8955v1.1133h-3.291v-1.1133h3.291Zm.488-2.8955v1.1475h-3.779v-1.1475h3.779Zm.86,0h2.651c.544,0,1.011.0814,1.401.2442.394.1627.697.4036.909.7226.211.319.317.7113.317,1.1768c0,.3808-.065.708-.195.9814-.127.2702-.308.4964-.542.6787-.232.1791-.503.3223-.816.4297l-.464.2442h-2.304l-.01-1.1426h1.714c.257,0,.47-.0456.639-.1367.17-.0912.297-.2181.381-.3809.088-.1628.132-.3516.132-.5664c0-.2279-.042-.4248-.127-.5908s-.213-.293-.386-.3809c-.172-.0879-.389-.1318-.649-.1318h-1.187v5.9619h-1.464v-7.1094ZM366.533,39l-1.621-3.1689l1.548-.0098l1.641,3.1103v.0684h-1.568Z" fill="#343536"/>
        <line x1="349" y1="191" x2="349" y2="50" transform="translate(1 0)" fill="none" stroke="url(#ezVthFcuL7C18-stroke)" stroke-width="2" stroke-dasharray="5,5"/>
    </g>
    <g id="ezVthFcuL7C19" opacity="0">
        <rect width="20" height="30" rx="2" ry="2" transform="translate(340 100)" fill="#ffb6a3"/>
        <rect width="20" height="30" rx="2" ry="2" transform="translate(440 120)" fill="#ffb6a3"/>
    </g>
    <g id="ezVthFcuL7C22" opacity="0">
        <rect width="60" height="40" rx="2" ry="2" transform="translate(420 10)" fill="#bfbfc0"/>
        <path d="M445.469,25.1396c0-.1269-.02-.2408-.059-.3417-.036-.1042-.104-.1986-.205-.2833-.101-.0878-.242-.1741-.425-.2587-.182-.0847-.418-.1726-.708-.2637-.322-.1042-.628-.2214-.918-.3516-.286-.1302-.54-.2816-.761-.4541-.219-.1758-.391-.3792-.518-.6103-.124-.2311-.186-.4997-.186-.8057c0-.2962.066-.5648.196-.8057.13-.2441.312-.4524.547-.625.234-.1757.511-.3108.83-.4052.322-.0944.675-.1416,1.059-.1416.524,0,.982.0944,1.372.2832.391.1888.694.4476.909.7763.218.3288.327.7048.327,1.128h-1.455c0-.2084-.044-.3907-.132-.5469-.085-.1595-.215-.2848-.391-.376-.172-.0911-.39-.1367-.654-.1367-.254,0-.466.0391-.635.1172-.169.0749-.296.1774-.381.3076-.084.127-.127.2702-.127.4297c0,.1204.03.2295.088.3271.062.0977.153.1888.274.2735.12.0846.268.1644.444.2392s.379.1481.61.2198c.388.1171.728.249,1.021.3955.296.1465.543.3108.742.4931s.348.389.449.6202c.101.2311.152.4931.152.7861c0,.3092-.061.5859-.181.8301-.121.2441-.295.4508-.523.6201-.227.1692-.499.2978-.815.3857s-.669.1319-1.06.1319c-.351,0-.698-.0456-1.04-.1368-.341-.0944-.652-.236-.932-.4248-.277-.1888-.498-.4297-.664-.7226-.166-.293-.249-.6397-.249-1.0401h1.469c0,.2214.035.4086.103.5616s.164.2767.288.3711c.127.0944.277.1627.449.205.176.0424.368.0635.576.0635.254,0,.463-.0358.625-.1074.166-.0716.289-.1709.367-.2979.081-.1269.122-.2701.122-.4297Zm6.162,0c0-.1269-.02-.2408-.059-.3417-.036-.1042-.104-.1986-.205-.2833-.101-.0878-.242-.1741-.425-.2587-.182-.0847-.418-.1726-.708-.2637-.322-.1042-.628-.2214-.918-.3516-.286-.1302-.54-.2816-.761-.4541-.218-.1758-.391-.3792-.518-.6103-.124-.2311-.185-.4997-.185-.8057c0-.2962.065-.5648.195-.8057.13-.2441.312-.4524.547-.625.234-.1757.511-.3108.83-.4052.322-.0944.675-.1416,1.059-.1416.524,0,.982.0944,1.372.2832.391.1888.694.4476.909.7763.218.3288.327.7048.327,1.128h-1.455c0-.2084-.044-.3907-.132-.5469-.085-.1595-.215-.2848-.391-.376-.172-.0911-.39-.1367-.654-.1367-.254,0-.466.0391-.635.1172-.169.0749-.296.1774-.381.3076-.084.127-.127.2702-.127.4297c0,.1204.03.2295.088.3271.062.0977.153.1888.274.2735.12.0846.268.1644.444.2392s.379.1481.61.2198c.388.1171.728.249,1.021.3955.296.1465.544.3108.742.4931.199.1823.348.389.449.6202.101.2311.152.4931.152.7861c0,.3092-.061.5859-.181.8301s-.295.4508-.522.6201c-.228.1692-.5.2978-.816.3857s-.669.1319-1.059.1319c-.352,0-.699-.0456-1.04-.1368-.342-.0944-.653-.236-.933-.4248-.277-.1888-.498-.4297-.664-.7226-.166-.293-.249-.6397-.249-1.0401h1.47c0,.2214.034.4086.102.5616s.164.2767.288.3711c.127.0944.277.1627.449.205.176.0424.368.0635.577.0635.253,0,.462-.0358.625-.1074.166-.0716.288-.1709.366-.2979.081-.1269.122-.2701.122-.4297Zm7.031.7178v1.1426h-3.579v-1.1426h3.579Zm-3.105-5.9668v7.1094h-1.465v-7.1094h1.465Zm-17.613,16.751h1.46c-.029.4785-.161.9033-.395,1.2744-.231.3711-.555.6608-.972.8692-.413.2083-.911.3125-1.494.3125-.456,0-.864-.0782-1.226-.2344-.361-.1595-.67-.3874-.927-.6836-.254-.2962-.448-.6543-.581-1.0742-.134-.42-.201-.8903-.201-1.4112v-.4931c0-.5209.069-.9912.205-1.4112.14-.4231.339-.7828.596-1.0791.261-.2962.571-.5241.933-.6836.361-.1595.765-.2392,1.211-.2392.592,0,1.092.1074,1.499.3223.41.2148.727.511.952.8886.228.3776.364.8073.41,1.2891h-1.465c-.016-.2865-.073-.529-.171-.7276-.097-.2018-.245-.3531-.444-.4541-.195-.1041-.456-.1562-.781-.1562-.244,0-.458.0456-.64.1367-.182.0912-.335.2295-.459.4151-.124.1855-.216.4199-.278.7031-.059.2799-.088.6087-.088.9863v.5029c0,.3679.028.6918.083.9717.055.2767.14.5111.254.7031.117.1888.267.3321.449.4297.186.0944.409.1416.669.1416.306,0,.558-.0488.757-.1465.198-.0976.35-.2425.454-.4345.107-.1921.171-.4313.19-.7178Zm6.993,1.2158v1.1426h-3.58v-1.1426h3.58Zm-3.106-5.9668v7.1094h-1.465v-7.1094h1.465Zm5.503,0v7.1094h-1.46v-7.1094h1.46Zm6.143,5.9668v1.1426h-3.785v-1.1426h3.785Zm-3.306-5.9668v7.1094h-1.465v-7.1094h1.465Zm2.812,2.8955v1.1133h-3.291v-1.1133h3.291Zm.489-2.8955v1.1475h-3.78v-1.1475h3.78Zm6.645,0v7.1094h-1.465l-2.856-4.7656v4.7656h-1.465v-7.1094h1.465l2.861,4.7705v-4.7705h1.46Zm4.307,0v7.1094h-1.46v-7.1094h1.46Zm2.187,0v1.1475h-5.8v-1.1475h5.8Z" fill="#343536"/>
        <line x1="449" y1="191" x2="449" y2="50" transform="translate(1 0)" fill="none" stroke="url(#ezVthFcuL7C25-stroke)" stroke-width="2" stroke-dasharray="5,5"/>
    </g>
    <g id="ezVthFcuL7C26" opacity="0">
        <rect width="60" height="40" rx="2" ry="2" transform="translate(220 10)" fill="#bfbfc0"/>
        <path d="M231.968,19.8906v7.1094h-1.46v-7.1094h1.46Zm2.187,0v1.1475h-5.801v-1.1475h5.801Zm.835,0h2.652c.543,0,1.01.0814,1.401.2442.394.1627.697.4036.908.7226.212.319.318.7113.318,1.1768c0,.3808-.066.708-.196.9814-.127.2702-.307.4964-.542.6787-.231.1791-.503.3223-.815.4297l-.464.2442h-2.305l-.009-1.1426h1.713c.258,0,.471-.0456.64-.1367s.296-.2181.381-.3809c.088-.1628.132-.3516.132-.5664c0-.2279-.043-.4248-.127-.5908-.085-.166-.213-.293-.386-.3809s-.389-.1318-.649-.1318h-1.187v5.9619h-1.465v-7.1094ZM238.965,27l-1.621-3.1689l1.548-.0098l1.64,3.1103v.0684h-1.567Zm6.357-7.1094h1.46v4.6973c0,.5469-.117,1.0075-.351,1.3818-.231.3744-.552.656-.962.8448-.407.1888-.876.2832-1.407.2832-.53,0-1.002-.0944-1.416-.2832-.41-.1888-.732-.4704-.966-.8448-.231-.3743-.347-.8349-.347-1.3818v-4.6973h1.465v4.6973c0,.319.05.5794.151.7812.101.2019.246.35.435.4444.192.0944.418.1416.678.1416.267,0,.494-.0472.679-.1416.189-.0944.332-.2425.43-.4444.101-.2018.151-.4622.151-.7812v-4.6973Zm6.367,5.249c0-.1269-.019-.2408-.058-.3417-.036-.1042-.104-.1986-.205-.2833-.101-.0878-.243-.1741-.425-.2587-.182-.0847-.418-.1726-.708-.2637-.322-.1042-.628-.2214-.918-.3516-.286-.1302-.54-.2816-.762-.4541-.218-.1758-.39-.3792-.517-.6103-.124-.2311-.186-.4997-.186-.8057c0-.2962.065-.5648.195-.8057.131-.2441.313-.4524.547-.625.235-.1757.511-.3108.83-.4052.323-.0944.676-.1416,1.06-.1416.524,0,.981.0944,1.372.2832s.693.4476.908.7763c.218.3288.327.7048.327,1.128h-1.455c0-.2084-.044-.3907-.132-.5469-.084-.1595-.214-.2848-.39-.376-.173-.0911-.391-.1367-.654-.1367-.254,0-.466.0391-.635.1172-.169.0749-.296.1774-.381.3076-.085.127-.127.2702-.127.4297c0,.1204.029.2295.088.3271.062.0977.153.1888.273.2735.121.0846.269.1644.445.2392.175.0749.379.1481.61.2198.387.1171.728.249,1.021.3955.296.1465.543.3108.742.4931.198.1823.348.389.449.6202.101.2311.151.4931.151.7861c0,.3092-.06.5859-.18.8301-.121.2441-.295.4508-.523.6201-.228.1692-.5.2978-.815.3857-.316.0879-.669.1319-1.06.1319-.351,0-.698-.0456-1.04-.1368-.342-.0944-.653-.236-.932-.4248-.277-.1888-.499-.4297-.665-.7226-.166-.293-.249-.6397-.249-1.0401h1.47c0,.2214.034.4086.103.5616.068.153.164.2767.288.3711.127.0944.276.1627.449.205.176.0424.368.0635.576.0635.254,0,.462-.0358.625-.1074.166-.0716.288-.1709.366-.2979.082-.1269.122-.2701.122-.4297Zm5.64-5.249v7.1094h-1.46v-7.1094h1.46Zm2.188,0v1.1475h-5.801v-1.1475h5.801Zm5.605,5.9668v1.1426h-3.784v-1.1426h3.784Zm-3.306-5.9668v7.1094h-1.464v-7.1094h1.464Zm2.813,2.8955v1.1133h-3.291v-1.1133h3.291Zm.488-2.8955v1.1475h-3.779v-1.1475h3.779ZM268.159,27h-1.548l.01-1.1426h1.538c.384,0,.708-.0862.972-.2588.264-.1757.462-.4313.596-.7666.136-.3353.205-.7405.205-1.2158v-.3467c0-.3646-.039-.6852-.118-.9619-.074-.2767-.187-.5094-.336-.6982-.15-.1888-.334-.3304-.552-.4248-.218-.0977-.469-.1465-.752-.1465h-1.592v-1.1475h1.592c.475,0,.91.0814,1.304.2442.397.1595.74.389,1.03.6884s.513.6576.669,1.0743c.159.4134.239.874.239,1.3818v.3369c0,.5046-.08.9652-.239,1.3818-.156.4167-.379.7748-.669,1.0743-.287.2962-.63.5257-1.03.6884-.398.1595-.837.2393-1.319.2393Zm-.718-7.1094v7.1094h-1.464v-7.1094h1.464ZM238.408,37.8574v1.1426h-3.784v-1.1426h3.784Zm-3.305-5.9668v7.1094h-1.465v-7.1094h1.465Zm2.812,2.8955v1.1133h-3.291v-1.1133h3.291Zm.488-2.8955v1.1475h-3.779v-1.1475h3.779Zm6.646,0v7.1094h-1.465l-2.856-4.7656v4.7656h-1.465v-7.1094h1.465l2.861,4.7705v-4.7705h1.46Zm4.306,0v7.1094h-1.459v-7.1094h1.459Zm2.188,0v1.1475h-5.801v-1.1475h5.801Zm2.393,0v7.1094h-1.46v-7.1094h1.46Zm4.404,0v7.1094h-1.46v-7.1094h1.46Zm2.187,0v1.1475h-5.8v-1.1475h5.8Zm1.89,0l1.484,3.2422l1.485-3.2422h1.596l-2.338,4.5215v2.5879h-1.485v-2.5879l-2.344-4.5215h1.602Z" fill="#343536"/>
        <line x1="249" y1="191" x2="249" y2="50" transform="translate(1 0)" fill="none" stroke="url(#ezVthFcuL7C29-stroke)" stroke-width="2" stroke-dasharray="5,5"/>
    </g>
    <g id="ezVthFcuL7C30" opacity="0">
        <rect width="20" height="40" rx="2" ry="2" transform="translate(240 70)" fill="#ffb6a3"/>
    </g>
    <g id="ezVthFcuL7C32" opacity="0">
        <rect width="20" height="30" rx="2" ry="2" transform="translate(440 160)" fill="#ffb6a3"/>
        <rect width="20" height="30" rx="2" ry="2" transform="translate(340 160)" fill="#ffb6a3"/>
    </g>
    <g id="ezVthFcuL7C35" opacity="0">
        <rect width="20" height="40" rx="2" ry="2" transform="translate(240 120)" fill="#ffb6a3"/>
        <path d="M261,120l10.968,3.61-2.357-11.304L261,120Zm0-29.5c-.029.9996-.029.9996-.029.9996s0,0,0,0s0,0,0,0c.001,0,.003.0001.007.0002.006.0002.016.0006.03.0012.029.0012.073.0033.132.0066.119.0066.296.0184.525.0384.456.04,1.114.1132,1.905.2451c1.587.2645,3.688.7614,5.775,1.6857c2.089.9249,4.124,2.2601,5.635,4.1805c1.498,1.9051,2.52,4.4357,2.52,7.8427h2c0-3.843-1.165-6.8124-2.948-9.0791-1.771-2.2515-4.111-3.7601-6.397-4.7727-2.288-1.0132-4.562-1.5476-6.256-1.8299-.85-.1416-1.559-.2208-2.06-.2647-.25-.0219-.448-.0351-.586-.0429-.069-.0038-.123-.0064-.161-.0079-.019-.0008-.034-.0014-.044-.0018-.006-.0002-.01-.0003-.013-.0004-.002,0-.003-.0001-.004-.0001s-.001-.0001-.001-.0001c-.001,0-.001,0-.03.9996Zm16.5,15c0,3.391-1.012,5.879-2.493,7.73-1.493,1.867-3.507,3.142-5.583,4.01l.772,1.845c2.28-.953,4.61-2.401,6.373-4.606c1.776-2.22,2.931-5.153,2.931-8.979h-2Z" fill="#bfbfc0"/>
        <rect width="20" height="40" rx="2" ry="2" transform="translate(140 120)" fill="#ffb6a3"/>
    </g>
    <g id="ezVthFcuL7C39" transform="translate(0 0.000001)" opacity="0">
        <rect width="30" height="10" rx="2" ry="2" transform="translate(85 77)" fill="#fff"/>
        <path d="M93.5664,83.3257c0-.1143-.0176-.2168-.0527-.3076-.0323-.0938-.0938-.1787-.1846-.2549-.0908-.0791-.2183-.1568-.3823-.2329-.1641-.0762-.3765-.1553-.6372-.2373-.2901-.0938-.5655-.1992-.8262-.3164-.2578-.1172-.4863-.2535-.6855-.4087-.1963-.1582-.3516-.3413-.4659-.5493-.1113-.2081-.167-.4498-.167-.7251c0-.2666.0586-.5083.1758-.7251.1172-.2198.2813-.4073.4922-.5625.2109-.1582.46-.2798.7471-.3648.29-.0849.6079-.1274.9536-.1274.4717,0,.8833.0849,1.2349.2549.3515.1699.624.4028.8173.6987.1963.2959.2945.6343.2945,1.0151h-1.3096c0-.1875-.0396-.3515-.1187-.4922-.0761-.1435-.1933-.2563-.3515-.3383-.1553-.0821-.3516-.1231-.5889-.1231-.2285,0-.4189.0352-.5713.1055-.1523.0674-.2666.1596-.3427.2768-.0762.1143-.1143.2432-.1143.3868c0,.1083.0264.2065.0791.2944.0557.0879.1377.1699.2461.2461s.2417.1479.3999.2153.3413.1333.5493.1978c.3486.1054.6548.2241.9185.3559.2666.1319.4892.2798.6679.4439s.3135.3501.4043.5581.1363.4438.1363.7075c0,.2783-.0542.5273-.1626.7471s-.2652.4057-.4702.5581c-.2051.1523-.4498.268-.7339.3471-.2842.0791-.6021.1187-.9536.1187-.3165,0-.6285-.041-.9361-.1231-.3076-.0849-.5874-.2124-.8393-.3823-.2491-.1699-.4483-.3867-.5977-.6504s-.2241-.5757-.2241-.936h1.3227c0,.1992.0308.3677.0923.5054s.148.249.2593.3339c.1143.085.249.1465.4043.1846.1582.0381.3311.0571.5186.0571.2285,0,.416-.0322.5625-.0966.1494-.0645.2592-.1538.3295-.2681.0733-.1143.1099-.2432.1099-.3867Zm3.6167-4.7241v6.3984h-1.314v-6.3984h1.314Zm6.3059,3.0542v2.5356c-.099.1201-.253.2505-.461.3911-.208.1377-.476.2564-.804.356s-.725.1494-1.191.1494c-.413,0-.79-.0674-1.1297-.2022-.3398-.1377-.6328-.3383-.8789-.602-.2432-.2637-.4306-.5859-.5625-.9668-.1318-.3838-.1977-.8218-.1977-1.314v-.3999c0-.4922.0629-.9301.1889-1.3139.1289-.3838.312-.7076.5493-.9712s.5201-.4644.8482-.6021c.3284-.1377.6924-.2065,1.0944-.2065.556,0,1.013.0908,1.371.2724.357.1787.63.4278.817.7471.191.3164.308.6797.352,1.0899h-1.279c-.032-.2168-.094-.4058-.185-.5669-.09-.1612-.221-.2872-.391-.378-.167-.0908-.383-.1362-.65-.1362-.22,0-.416.0454-.589.1362-.17.0879-.313.2183-.4306.3911-.1171.1729-.2065.3868-.268.6416s-.0923.5508-.0923.8877v.4087c0,.334.0322.6299.0967.8877.0644.2549.1596.4702.2856.646.1286.1729.2876.3032.4746.3911.188.0879.406.1319.655.1319.208,0,.381-.0176.518-.0528.141-.0351.254-.0776.339-.1274.088-.0527.155-.1025.202-.1494v-1.1338h-1.204v-.9404h2.522Zm6.271-3.0542v6.3984h-1.318l-2.571-4.2891v4.2891h-1.318v-6.3984h1.318l2.575,4.2934v-4.2934h1.314Z" fill="#343536"/>
        <path d="M134,90l-10-5.7735v11.547L134,90ZM65,91h60v-2h-60v2Z" fill="#bfbfc0"/>
    </g>
    <g id="ezVthFcuL7C43" opacity="0">
        <rect width="55" height="10" rx="2" ry="2" transform="translate(165 78)" fill="#fff"/>
        <path d="M170.687,80.6958L168.946,86h-1.402l2.378-6.3984h.892l-.127,1.0942ZM172.132,86l-1.744-5.3042-.141-1.0942h.901L173.539,86h-1.407Zm-.079-2.3818v1.0327h-3.379v-1.0327h3.379Zm5.533-4.0166h1.314v4.2275c0,.4922-.106.9067-.317,1.2437-.208.3369-.496.5903-.865.7602-.366.1699-.788.2549-1.266.2549-.477,0-.902-.085-1.274-.2549-.369-.1699-.659-.4233-.87-.7602-.208-.337-.312-.7515-.312-1.2437v-4.2275h1.318v4.2275c0,.2871.045.5215.136.7031s.221.315.391.3999c.173.085.377.1275.611.1275.24,0,.444-.0425.611-.1275.17-.0849.299-.2182.387-.3999.091-.1816.136-.416.136-.7031v-4.2275Zm5.26,0v6.3984h-1.314v-6.3984h1.314Zm1.969,0v1.0327h-5.221v-1.0327h5.221Zm5.018,2.6059v1.0283h-3.339v-1.0283h3.339Zm-2.948-2.6059v6.3984h-1.319v-6.3984h1.319Zm3.889,0v6.3984h-1.314v-6.3984h1.314Zm6.403,3.0498v.3032c0,.4863-.066.9228-.198,1.3096-.132.3867-.318.7163-.558.9887-.24.2696-.527.4761-.861.6197-.331.1435-.699.2153-1.103.2153-.402,0-.769-.0718-1.103-.2153-.332-.1436-.619-.3501-.862-.6197-.243-.2724-.432-.602-.567-.9887-.132-.3868-.197-.8233-.197-1.3096v-.3032c0-.4893.065-.9258.197-1.3096.132-.3867.318-.7163.558-.9888.244-.2724.531-.4804.862-.624.334-.1436.701-.2153,1.103-.2153.404,0,.772.0717,1.103.2153.334.1436.621.3516.861.624.243.2725.431.6021.563.9888.134.3838.202.8203.202,1.3096Zm-1.332.3032v-.312c0-.3399-.031-.6387-.092-.8965-.062-.2578-.152-.4746-.273-.6504-.12-.1758-.266-.3076-.439-.3955-.173-.0908-.371-.1362-.593-.1362-.223,0-.421.0454-.594.1362-.169.0879-.314.2197-.435.3955-.117.1758-.206.3926-.268.6504-.061.2578-.092.5566-.092.8965v.312c0,.3369.031.6357.092.8965.062.2578.153.476.273.6548.12.1757.266.309.439.3999.173.0908.371.1362.594.1362.222,0,.42-.0454.593-.1362.173-.0909.318-.2242.435-.3999.117-.1788.206-.397.268-.6548.061-.2608.092-.5596.092-.8965Zm2.281-3.353h2.386c.489,0,.91.0732,1.261.2197.355.1465.627.3633.818.6504.19.2871.285.6401.285,1.0591c0,.3427-.058.6372-.175.8833-.115.2431-.277.4467-.488.6108-.208.1611-.453.29-.734.3867l-.417.2197h-2.075l-.008-1.0283h1.542c.231,0,.423-.041.576-.123.152-.0821.266-.1963.342-.3428.08-.1465.119-.3164.119-.5098c0-.205-.038-.3823-.114-.5317s-.192-.2637-.347-.3428c-.156-.0791-.35-.1186-.585-.1186h-1.068v5.3657h-1.318v-6.3984ZM201.703,86l-1.459-2.8521l1.393-.0087l1.477,2.7993v.0615h-1.411Zm3.59-6.3984v6.3984h-1.314v-6.3984h1.314Zm5.863,5.3701v1.0283h-4.535v-1.0283h4.535Zm-.066-4.6363L207.205,86h-.927v-.7559l3.915-5.6425h.897v.7338Zm-.453-.7338v1.0327h-4.355v-1.0327h4.355Zm5.652,5.3701v1.0283h-3.406v-1.0283h3.406Zm-2.976-5.3701v6.3984h-1.318v-6.3984h1.318Zm2.532,2.6059v1.002h-2.962v-1.002h2.962Zm.439-2.6059v1.0327h-3.401v-1.0327h3.401Z" fill="#343536"/>
        <path d="M233,91l-10-5.7735v11.547L233,91Zm-69,1h60v-2h-60v2Z" fill="#bfbfc0"/>
    </g>
    <g id="ezVthFcuL7C47" opacity="0">
        <rect width="55" height="10" rx="2" ry="2" transform="translate(178 117)" fill="#fff"/>
        <path d="M165,130l10,5.774v-11.548L165,130Zm7.393,1h4.928v-2h-4.928v2Zm9.857,0h4.929v-2h-4.929v2Zm9.857,0h4.929v-2h-4.929v2Zm9.857,0h4.929v-2h-4.929v2Zm9.857,0h4.929v-2h-4.929v2Zm9.858,0h4.928v-2h-4.928v2Zm9.857,0h2.464v-2h-2.464v2Z" fill="#bfbfc0"/>
        <path d="M186.494,118.602h2.386c.489,0,.91.073,1.261.219.355.147.627.364.817.651.191.287.286.64.286,1.059c0,.343-.058.637-.176.883-.114.243-.276.447-.487.611-.208.161-.453.29-.734.387l-.418.219h-2.074l-.009-1.028h1.543c.231,0,.423-.041.575-.123.153-.082.267-.196.343-.343.079-.146.119-.316.119-.51c0-.205-.038-.382-.114-.531-.077-.15-.192-.264-.348-.343-.155-.079-.35-.119-.584-.119h-1.068v5.366h-1.318v-6.398ZM190.071,125l-1.459-2.852l1.393-.009l1.476,2.799v.062h-1.41Zm6.482-1.028v1.028h-3.406v-1.028h3.406Zm-2.975-5.37v6.398h-1.319v-6.398h1.319Zm2.531,2.606v1.001h-2.962v-1.001h2.962Zm.439-2.606v1.032h-3.401v-1.032h3.401Zm4.25,5.449l1.731,1.371-.83.721-1.705-1.372.804-.72Zm1.775-2.4v.304c0,.486-.066.922-.198,1.309-.128.387-.314.716-.558.989-.243.269-.53.476-.861.62-.331.143-.699.215-1.103.215-.401,0-.769-.072-1.103-.215-.334-.144-.623-.351-.866-.62-.243-.273-.432-.602-.567-.989-.131-.387-.197-.823-.197-1.309v-.304c0-.489.066-.925.197-1.309.135-.387.323-.717.563-.989s.527-.48.861-.624.702-.215,1.103-.215c.405,0,.772.071,1.103.215.334.144.623.352.866.624s.431.602.562.989c.132.384.198.82.198,1.309Zm-1.331.304v-.312c0-.34-.033-.639-.097-.897-.062-.258-.152-.475-.272-.65-.118-.176-.263-.308-.435-.396-.173-.091-.371-.136-.594-.136-.222,0-.42.045-.593.136-.173.088-.318.22-.435.396-.117.175-.207.392-.268.65-.062.258-.092.557-.092.897v.312c0,.337.03.635.092.896.061.258.151.476.268.655.12.176.267.309.439.4.176.091.375.136.598.136s.419-.045.589-.136c.173-.091.318-.224.435-.4.12-.179.211-.397.272-.655.062-.261.093-.559.093-.896Zm5.818-3.353h1.314v4.227c0,.492-.105.907-.316,1.244-.208.337-.497.59-.866.76-.366.17-.788.255-1.266.255-.477,0-.902-.085-1.274-.255-.369-.17-.659-.423-.87-.76-.208-.337-.312-.752-.312-1.244v-4.227h1.318v4.227c0,.287.045.522.136.703.091.182.222.315.391.4.173.085.377.128.611.128.241,0,.444-.043.611-.128.17-.085.299-.218.387-.4.091-.181.136-.416.136-.703v-4.227Zm6.693,5.37v1.028h-3.406v-1.028h3.406Zm-2.975-5.37v6.398h-1.319v-6.398h1.319Zm2.531,2.606v1.001h-2.962v-1.001h2.962Zm.44-2.606v1.032h-3.402v-1.032h3.402Zm4.104,4.724c0-.115-.018-.217-.053-.308-.032-.094-.093-.179-.184-.255-.091-.079-.219-.157-.383-.233s-.376-.155-.637-.237c-.29-.094-.565-.199-.826-.316-.258-.118-.486-.254-.686-.409-.196-.158-.351-.341-.465-.549-.112-.208-.167-.45-.167-.726c0-.266.058-.508.175-.725.118-.219.282-.407.493-.562.211-.158.46-.28.747-.365.29-.085.608-.127.953-.127.472,0,.884.085,1.235.255.352.169.624.402.818.698.196.296.294.635.294,1.015h-1.31c0-.187-.039-.351-.118-.492-.076-.143-.194-.256-.352-.338-.155-.082-.351-.123-.589-.123-.228,0-.419.035-.571.105-.152.068-.267.16-.343.277-.076.114-.114.243-.114.387c0,.108.026.206.079.294.056.088.138.17.246.246.109.077.242.148.4.216.158.067.341.133.549.197.349.106.655.225.919.356.266.132.489.28.668.444s.313.35.404.558.136.444.136.708c0,.278-.054.527-.162.747-.109.22-.265.406-.47.558-.206.152-.45.268-.734.347s-.602.119-.954.119c-.316,0-.628-.041-.936-.123-.308-.085-.587-.213-.839-.382-.249-.17-.449-.387-.598-.651s-.224-.576-.224-.936h1.323c0,.199.03.368.092.505.061.138.148.249.259.334.114.085.249.147.405.185.158.038.331.057.518.057.229,0,.416-.032.563-.097.149-.064.259-.153.329-.268.073-.114.11-.243.11-.386Zm5.076-4.724v6.398h-1.314v-6.398h1.314Zm1.968,0v1.032h-5.22v-1.032h5.22Z" fill="#343536"/>
    </g>
    <g id="ezVthFcuL7C51" opacity="0">
        <rect width="55" height="10" rx="2" ry="2" transform="translate(166 153)" fill="#fff"/>
        <path d="M234,150l-10-5.774v11.548L234,150Zm-69,1h60v-2h-60v2Z" fill="#bfbfc0"/>
        <path d="M170.474,154.602v6.398h-1.314v-6.398h1.314Zm4.566,4.724c0-.115-.018-.217-.053-.308-.032-.094-.094-.179-.185-.255-.091-.079-.218-.157-.382-.233s-.377-.155-.637-.237c-.29-.094-.566-.199-.826-.316-.258-.118-.487-.254-.686-.409-.196-.158-.352-.341-.466-.549-.111-.208-.167-.45-.167-.726c0-.266.059-.508.176-.725.117-.219.281-.407.492-.562.211-.158.46-.28.747-.365.29-.085.608-.127.954-.127.472,0,.883.085,1.235.255.351.169.624.402.817.698.196.296.295.635.295,1.015h-1.31c0-.187-.04-.351-.119-.492-.076-.143-.193-.256-.351-.338-.156-.082-.352-.123-.589-.123-.229,0-.419.035-.571.105-.153.068-.267.16-.343.277-.076.114-.114.243-.114.387c0,.108.026.206.079.294.055.088.137.17.246.246.108.077.241.148.4.216.158.067.341.133.549.197.349.106.655.225.918.356.267.132.49.28.668.444.179.164.314.35.405.558.09.208.136.444.136.708c0,.278-.054.527-.163.747-.108.22-.265.406-.47.558s-.45.268-.734.347-.602.119-.953.119c-.317,0-.629-.041-.936-.123-.308-.085-.588-.213-.84-.382-.249-.17-.448-.387-.597-.651-.15-.264-.225-.576-.225-.936h1.323c0,.199.031.368.092.505.062.138.148.249.26.334.114.085.249.147.404.185.158.038.331.057.519.057.228,0,.416-.032.562-.097.15-.064.259-.153.33-.268.073-.114.11-.243.11-.386Zm5.545,0c0-.115-.017-.217-.052-.308-.033-.094-.094-.179-.185-.255-.091-.079-.218-.157-.382-.233s-.377-.155-.637-.237c-.29-.094-.566-.199-.827-.316-.257-.118-.486-.254-.685-.409-.196-.158-.352-.341-.466-.549-.111-.208-.167-.45-.167-.726c0-.266.059-.508.176-.725.117-.219.281-.407.492-.562.211-.158.46-.28.747-.365.29-.085.608-.127.954-.127.471,0,.883.085,1.235.255.351.169.624.402.817.698.196.296.294.635.294,1.015h-1.309c0-.187-.04-.351-.119-.492-.076-.143-.193-.256-.351-.338-.156-.082-.352-.123-.589-.123-.229,0-.419.035-.572.105-.152.068-.266.16-.342.277-.076.114-.115.243-.115.387c0,.108.027.206.08.294.055.088.137.17.246.246.108.077.241.148.4.216.158.067.341.133.549.197.348.106.655.225.918.356.267.132.49.28.668.444.179.164.314.35.405.558.09.208.136.444.136.708c0,.278-.054.527-.163.747-.108.22-.265.406-.47.558s-.45.268-.734.347-.602.119-.954.119c-.316,0-.628-.041-.936-.123-.307-.085-.587-.213-.839-.382-.249-.17-.448-.387-.598-.651-.149-.264-.224-.576-.224-.936h1.323c0,.199.031.368.092.505.062.138.148.249.26.334.114.085.249.147.404.185.158.038.331.057.518.057.229,0,.417-.032.563-.097.149-.064.259-.153.33-.268.073-.114.109-.243.109-.386Zm5.748-4.724h1.314v4.227c0,.492-.105.907-.316,1.244-.208.337-.497.59-.866.76-.366.17-.788.255-1.265.255-.478,0-.903-.085-1.275-.255-.369-.17-.659-.423-.87-.76-.208-.337-.312-.752-.312-1.244v-4.227h1.319v4.227c0,.287.045.522.136.703.091.182.221.315.391.4.173.085.376.128.611.128.24,0,.444-.043.611-.128.169-.085.298-.218.386-.4.091-.181.136-.416.136-.703v-4.227Zm6.693,5.37v1.028h-3.405v-1.028h3.405Zm-2.975-5.37v6.398h-1.318v-6.398h1.318Zm2.532,2.606v1.001h-2.962v-1.001h2.962Zm.439-2.606v1.032h-3.401v-1.032h3.401Zm6.724,4.275h1.314c-.027.431-.145.813-.356,1.147-.208.334-.5.595-.875.783-.372.187-.82.281-1.345.281-.41,0-.777-.07-1.103-.211-.325-.144-.603-.349-.835-.615-.228-.267-.402-.589-.523-.967-.12-.378-.18-.801-.18-1.27v-.444c0-.469.062-.892.185-1.27.126-.381.305-.705.536-.971.234-.267.514-.472.839-.615.326-.144.689-.216,1.09-.216.533,0,.983.097,1.349.29.369.194.655.46.857.8.205.34.328.727.369,1.16h-1.318c-.015-.258-.066-.476-.154-.655-.088-.181-.221-.317-.4-.408-.175-.094-.41-.141-.703-.141-.22,0-.411.041-.576.123-.164.082-.301.207-.413.374-.111.167-.194.378-.25.633-.053.252-.079.547-.079.887v.453c0,.331.025.622.075.874.049.249.125.46.228.633.105.17.24.299.404.387.167.085.368.127.602.127.276,0,.503-.044.682-.131.178-.088.314-.219.408-.392.097-.172.154-.388.172-.646Zm6.473,1.095v1.028h-3.406v-1.028h3.406Zm-2.975-5.37v6.398h-1.319v-6.398h1.319Zm2.531,2.606v1.001h-2.962v-1.001h2.962Zm.439-2.606v1.032h-3.401v-1.032h3.401Zm.774,0h2.386c.489,0,.91.073,1.261.219.355.147.627.364.818.651.19.287.285.64.285,1.059c0,.343-.058.637-.176.883-.114.243-.276.447-.487.611-.208.161-.453.29-.734.387l-.418.219h-2.074l-.009-1.028h1.543c.231,0,.423-.041.575-.123.153-.082.267-.196.343-.343.079-.146.119-.316.119-.51c0-.205-.038-.382-.114-.531-.077-.15-.192-.264-.348-.343-.155-.079-.35-.119-.584-.119h-1.068v5.366h-1.318v-6.398ZM210.565,161l-1.459-2.852l1.393-.009l1.477,2.799v.062h-1.411Zm4.786-6.398v6.398h-1.314v-6.398h1.314Zm1.968,0v1.032h-5.22v-1.032h5.22Z" fill="#343536"/>
    </g>
    <g id="ezVthFcuL7C55" opacity="0">
        <rect width="59" height="10" rx="2" ry="2" transform="translate(264 135)" fill="#fff"/>
        <path d="M268.403,137.696L266.663,143h-1.402l2.377-6.398h.892l-.127,1.094ZM269.849,143l-1.745-5.304-.141-1.094h.901L271.255,143h-1.406Zm-.079-2.382v1.033h-3.38v-1.033h3.38Zm5.409.708c0-.115-.017-.217-.053-.308-.032-.094-.093-.179-.184-.255-.091-.079-.218-.157-.382-.233s-.377-.155-.638-.237c-.29-.094-.565-.199-.826-.316-.258-.118-.486-.254-.685-.409-.197-.158-.352-.341-.466-.549-.112-.208-.167-.45-.167-.726c0-.266.058-.508.176-.725.117-.219.281-.407.492-.562.211-.158.46-.28.747-.365.29-.085.608-.127.953-.127.472,0,.884.085,1.235.255.352.169.624.402.818.698.196.296.294.635.294,1.015h-1.309c0-.187-.04-.351-.119-.492-.076-.143-.193-.256-.352-.338-.155-.082-.351-.123-.588-.123-.229,0-.419.035-.572.105-.152.068-.266.16-.343.277-.076.114-.114.243-.114.387c0,.108.027.206.079.294.056.088.138.17.246.246.109.077.242.148.4.216.158.067.342.133.55.197.348.106.654.225.918.356.267.132.489.28.668.444s.314.35.404.558c.091.208.137.444.137.708c0,.278-.055.527-.163.747s-.265.406-.47.558-.45.268-.734.347-.602.119-.954.119c-.316,0-.628-.041-.936-.123-.307-.085-.587-.213-.839-.382-.249-.17-.448-.387-.598-.651-.149-.264-.224-.576-.224-.936h1.323c0,.199.031.368.092.505.062.138.148.249.259.334.115.085.249.147.405.185.158.038.331.057.518.057.229,0,.416-.032.563-.097.149-.064.259-.153.329-.268.074-.114.11-.243.11-.386Zm5.546,0c0-.115-.017-.217-.053-.308-.032-.094-.093-.179-.184-.255-.091-.079-.218-.157-.383-.233-.164-.076-.376-.155-.637-.237-.29-.094-.565-.199-.826-.316-.258-.118-.486-.254-.685-.409-.197-.158-.352-.341-.466-.549-.112-.208-.167-.45-.167-.726c0-.266.058-.508.176-.725.117-.219.281-.407.492-.562.211-.158.46-.28.747-.365.29-.085.608-.127.953-.127.472,0,.884.085,1.235.255.352.169.624.402.818.698.196.296.294.635.294,1.015h-1.31c0-.187-.039-.351-.118-.492-.076-.143-.194-.256-.352-.338-.155-.082-.351-.123-.589-.123-.228,0-.419.035-.571.105-.152.068-.266.16-.343.277-.076.114-.114.243-.114.387c0,.108.026.206.079.294.056.088.138.17.246.246.109.077.242.148.4.216.158.067.341.133.55.197.348.106.654.225.918.356.267.132.489.28.668.444s.313.35.404.558.136.444.136.708c0,.278-.054.527-.162.747-.109.22-.265.406-.47.558s-.45.268-.734.347-.602.119-.954.119c-.316,0-.628-.041-.936-.123-.308-.085-.587-.213-.839-.382-.249-.17-.448-.387-.598-.651-.149-.264-.224-.576-.224-.936h1.323c0,.199.03.368.092.505.062.138.148.249.259.334.115.085.249.147.405.185.158.038.331.057.518.057.229,0,.416-.032.563-.097.149-.064.259-.153.329-.268.073-.114.11-.243.11-.386Zm3.617-4.724v6.398h-1.314v-6.398h1.314Zm6.306,3.054v2.535c-.1.121-.253.251-.461.392-.208.137-.477.256-.805.355-.328.1-.725.15-1.191.15-.413,0-.789-.067-1.129-.202-.34-.138-.633-.339-.879-.602-.243-.264-.431-.586-.562-.967-.132-.384-.198-.822-.198-1.314v-.4c0-.492.063-.93.189-1.314.129-.384.312-.707.549-.971s.52-.464.848-.602.693-.207,1.095-.207c.556,0,1.013.091,1.371.273.357.178.629.427.817.747.19.316.308.679.352,1.09h-1.279c-.032-.217-.094-.406-.185-.567s-.221-.287-.391-.378c-.167-.091-.384-.136-.65-.136-.22,0-.416.045-.589.136-.17.088-.314.218-.431.391s-.206.387-.268.642c-.061.254-.092.55-.092.887v.409c0,.334.032.63.096.888.065.255.16.47.286.646.129.172.287.303.475.391.187.088.405.132.655.132.208,0,.38-.018.518-.053.141-.035.253-.078.338-.128.088-.052.156-.102.203-.149v-1.134h-1.205v-.94h2.523Zm6.271-3.054v6.398h-1.318l-2.571-4.289v4.289h-1.319v-6.398h1.319l2.575,4.293v-4.293h1.314Zm7.097,4.275h1.314c-.026.431-.145.813-.356,1.147-.208.334-.499.595-.874.783-.372.187-.821.281-1.345.281-.41,0-.778-.07-1.103-.211-.325-.144-.604-.349-.835-.615-.229-.267-.403-.589-.523-.967s-.18-.801-.18-1.27v-.444c0-.469.061-.892.184-1.27.126-.381.305-.705.536-.971.235-.267.515-.472.84-.615.325-.144.688-.216,1.09-.216.533,0,.983.097,1.349.29.369.194.655.46.857.8.205.34.328.727.369,1.16h-1.318c-.015-.258-.066-.476-.154-.655-.088-.181-.221-.317-.4-.408-.176-.094-.41-.141-.703-.141-.22,0-.412.041-.576.123s-.302.207-.413.374-.195.378-.251.633c-.052.252-.079.547-.079.887v.453c0,.331.025.622.075.874.05.249.126.46.229.633.105.17.24.299.404.387.167.085.368.127.602.127.275,0,.502-.044.681-.131.179-.088.315-.219.409-.392.096-.172.154-.388.171-.646Zm6.473,1.095v1.028h-3.406v-1.028h3.406Zm-2.975-5.37v6.398h-1.318v-6.398h1.318Zm2.531,2.606v1.001h-2.962v-1.001h2.962Zm.44-2.606v1.032h-3.402v-1.032h3.402Zm.773,0h2.387c.489,0,.909.073,1.261.219.354.147.627.364.817.651.191.287.286.64.286,1.059c0,.343-.059.637-.176.883-.114.243-.277.447-.488.611-.208.161-.452.29-.734.387l-.417.219h-2.074l-.009-1.028h1.542c.232,0,.424-.041.576-.123s.267-.196.343-.343c.079-.146.118-.316.118-.51c0-.205-.038-.382-.114-.531-.076-.15-.192-.264-.347-.343s-.35-.119-.584-.119h-1.068v5.366h-1.319v-6.398ZM314.835,143l-1.459-2.852l1.394-.009l1.476,2.799v.062h-1.411Zm4.786-6.398v6.398h-1.314v-6.398h1.314Zm1.969,0v1.032h-5.221v-1.032h5.221Z" fill="#343536"/>
        <path d="M333,130l-10-5.774v11.548L333,130Zm-69,1h60v-2h-60v2Z" fill="#bfbfc0"/>
        <path d="M437,150l-10-5.774v11.548L437,150Zm-173,1h164v-2h-164v2Z" fill="#bfbfc0"/>
    </g>
    <g id="ezVthFcuL7C60" opacity="0">
        <rect width="20" height="30" rx="2" ry="2" transform="translate(40 75)" fill="#ffb6a3"/>
        <rect width="20" height="40" rx="2" ry="2" transform="translate(140 70)" fill="#ffb6a3"/>
    </g>
    <g id="ezVthFcuL7C63" opacity="0">
        <rect width="500" height="200" rx="0" ry="0" fill="#fff"/>
    </g>
    <script><![CDATA[(function(s,i,u,o,c,w,d,t,n,x,e,p,a,b){w[o]=w[o]||{};w[o][s]=w[o][s]||[];w[o][s].push(i);e=d.createElementNS(n,t);e.async=true;e.setAttributeNS(x,'href',[u,s,'.','j','s','?','v','=',c].join(''));e.setAttributeNS(null,'src',[u,s,'.','j','s'].join(''));p=d.getElementsByTagName(t)[0];p.parentNode.insertBefore(e,p);})('5c7f360c',{"root":"ezVthFcuL7C1","animations":[{"elements":{"ezVthFcuL7C2":{"opacity":[{"t":8000,"v":0},{"t":8500,"v":1}]},"ezVthFcuL7C7":{"opacity":[{"t":0,"v":0},{"t":1000,"v":1}]},"ezVthFcuL7C11":{"opacity":[{"t":500,"v":0},{"t":1500,"v":1}]},"ezVthFcuL7C15":{"opacity":[{"t":4500,"v":0},{"t":5000,"v":1}]},"ezVthFcuL7C19":{"opacity":[{"t":6500,"v":0},{"t":7000,"v":1}]},"ezVthFcuL7C22":{"opacity":[{"t":4500,"v":0},{"t":5000,"v":1}]},"ezVthFcuL7C26":{"opacity":[{"t":3000,"v":0},{"t":3500,"v":1}]},"ezVthFcuL7C30":{"opacity":[{"t":3500,"v":0},{"t":4000,"v":1}]},"ezVthFcuL7C32":{"opacity":[{"t":7500,"v":0},{"t":8000,"v":1}]},"ezVthFcuL7C35":{"opacity":[{"t":5000,"v":0},{"t":5500,"v":1}]},"ezVthFcuL7C39":{"opacity":[{"t":2500,"v":0},{"t":3000,"v":1}]},"ezVthFcuL7C43":{"opacity":[{"t":4000,"v":0},{"t":4500,"v":1}]},"ezVthFcuL7C47":{"opacity":[{"t":5500,"v":0},{"t":6000,"v":1}]},"ezVthFcuL7C51":{"opacity":[{"t":6000,"v":0},{"t":6500,"v":1}]},"ezVthFcuL7C55":{"opacity":[{"t":7000,"v":0},{"t":7500,"v":1}]},"ezVthFcuL7C60":{"opacity":[{"t":2000,"v":0},{"t":2500,"v":1}]},"ezVthFcuL7C63":{"opacity":[{"t":9800,"v":0},{"t":10000,"v":1}]}},"s":"MBDA1NERhMFc0Nzg5OWUE5Nzg2OTk4ZTk0QzkEzNDc1ZjU2QTU1NTU1NNTU1NTFYNDc4OUk4ZKTk3OGFHODhCOTk4ZTSk0RjkzNDc1ZjU2UDUKxNDc4ZTk5OGE5Nzg2SOTk4ZTk0OTM5ODQ3NNWY1NUI1MUE0NzhiOGTU5MTkxNDc1ZjU2NTEW0Nzg2OTE5OThhOTdUCOTM4Njk5OGE0NzVmOAGI4NjkxOTg4YTUxRjNQ3OThOOTU4YThhVjgN5NDc1ZjU2YTI/"}],"options":"MIDAxMDg4MmY4MDgxNmWU3ZjgxMmZTNDdLMmZKLNzk3YzZlNzEyZjhhL"},'https://cdn.svgator.com/ply/','__SVGATOR_PLAYER__','2022-03-14',window,document,'script','http://www.w3.org/2000/svg','http://www.w3.org/1999/xlink')]]></script>
</svg>
