<?xml version="1.0" encoding="UTF-8" standalone="no"?><!DOCTYPE svg PUBLIC "-//W3C//DTD SVG 1.1//EN" "http://www.w3.org/Graphics/SVG/1.1/DTD/svg11.dtd"><svg width="100%" height="100%" viewBox="0 0 2084 834" version="1.1" xmlns="http://www.w3.org/2000/svg" xmlns:xlink="http://www.w3.org/1999/xlink" xml:space="preserve" xmlns:serif="http://www.serif.com/" style="fill-rule:evenodd;clip-rule:evenodd;"><path d="M333.333,50c0,-4.599 -3.734,-8.333 -8.333,-8.333l-233.333,-0c-4.6,-0 -8.334,3.734 -8.334,8.333l0,150c0,4.599 3.734,8.333 8.334,8.333l233.333,0c4.599,0 8.333,-3.734 8.333,-8.333l0,-150Z" style="fill:#c4c4c4;"/><path d="M750,50c0,-4.599 -3.734,-8.333 -8.333,-8.333l-233.334,-0c-4.599,-0 -8.333,3.734 -8.333,8.333l0,150c0,4.599 3.734,8.333 8.333,8.333l233.334,0c4.599,0 8.333,-3.734 8.333,-8.333l0,-150Z" style="fill:#bfbfc0;"/><path d="M1583.33,50c0,-4.599 -3.734,-8.333 -8.333,-8.333l-233.333,-0c-4.6,-0 -8.334,3.734 -8.334,8.333l0,150c0,4.599 3.734,8.333 8.334,8.333l233.333,0c4.599,0 8.333,-3.734 8.333,-8.333l0,-150Z" style="fill:#bfbfc0;"/><path d="M2000,50c0,-4.599 -3.734,-8.333 -8.333,-8.333l-233.334,-0c-4.599,-0 -8.333,3.734 -8.333,8.333l0,150c0,4.599 3.734,8.333 8.333,8.333l233.334,0c4.599,0 8.333,-3.734 8.333,-8.333l0,-150Z" style="fill:#bfbfc0;"/><path d="M1166.67,50c-0,-4.599 -3.734,-8.333 -8.334,-8.333l-233.333,-0c-4.599,-0 -8.333,3.734 -8.333,8.333l-0,150c-0,4.599 3.734,8.333 8.333,8.333l233.333,0c4.6,0 8.334,-3.734 8.334,-8.333l-0,-150Z" style="fill:#bfbfc0;"/><path d="M204.167,795.833l-0,-587.5" style="fill:none;fill-rule:nonzero;stroke:url(#_Linear1);stroke-width:8.33px;stroke-dasharray:20.83,20.83;"/><path d="M620.833,795.833l0,-587.5" style="fill:none;fill-rule:nonzero;stroke:url(#_Linear2);stroke-width:8.33px;stroke-dasharray:20.83,20.83;"/><path d="M1037.5,795.833l0,-587.5" style="fill:none;fill-rule:nonzero;stroke:url(#_Linear3);stroke-width:8.33px;stroke-dasharray:20.83,20.83;"/><path d="M1454.17,795.833l-0,-587.5" style="fill:none;fill-rule:nonzero;stroke:url(#_Linear4);stroke-width:8.33px;stroke-dasharray:20.83,20.83;"/><path d="M1870.83,795.833l0,-587.5" style="fill:none;fill-rule:nonzero;stroke:url(#_Linear5);stroke-width:8.33px;stroke-dasharray:20.83,20.83;"/><path d="M156.677,82.878l11.048,-0.001c2.265,0.001 4.211,0.34 5.839,1.018c1.641,0.678 2.902,1.682 3.784,3.011c0.882,1.329 1.322,2.964 1.322,4.903c0,1.587 -0.271,2.95 -0.814,4.089c-0.528,1.126 -1.281,2.069 -2.258,2.828c-0.963,0.747 -2.095,1.343 -3.398,1.791l-1.932,1.017l-9.603,0l-0.041,-4.761l7.141,0c1.072,0 1.96,-0.19 2.665,-0.569c0.706,-0.38 1.235,-0.909 1.588,-1.587c0.366,-0.679 0.549,-1.465 0.549,-2.36c-0,-0.95 -0.177,-1.77 -0.529,-2.462c-0.353,-0.692 -0.889,-1.221 -1.608,-1.587c-0.718,-0.366 -1.62,-0.549 -2.705,-0.549l-4.944,-0l-0,24.841l-6.104,0l0,-29.622Zm16.561,29.622l-6.754,-13.204l6.449,-0.041l6.836,12.96l-0,0.285l-6.531,0Zm34.465,-15.503l-0,1.404c-0,2.252 -0.305,4.272 -0.916,6.063c-0.61,1.79 -1.472,3.316 -2.584,4.577c-1.112,1.248 -2.441,2.204 -3.987,2.869c-1.533,0.665 -3.235,0.997 -5.107,0.997c-1.858,0 -3.56,-0.332 -5.106,-0.997c-1.533,-0.665 -2.863,-1.621 -3.988,-2.869c-1.126,-1.261 -2.001,-2.787 -2.625,-4.577c-0.61,-1.791 -0.915,-3.811 -0.915,-6.063l-0,-1.404c-0,-2.265 0.305,-4.286 0.915,-6.063c0.611,-1.79 1.472,-3.316 2.584,-4.577c1.126,-1.262 2.455,-2.225 3.988,-2.889c1.546,-0.665 3.248,-0.997 5.106,-0.997c1.872,-0 3.575,0.332 5.107,0.997c1.546,0.664 2.875,1.627 3.988,2.889c1.125,1.261 1.993,2.787 2.604,4.577c0.624,1.777 0.935,3.798 0.935,6.063Zm-6.164,1.404l-0,-1.445c-0,-1.573 -0.142,-2.956 -0.427,-4.15c-0.285,-1.193 -0.706,-2.197 -1.261,-3.011c-0.557,-0.814 -1.235,-1.424 -2.035,-1.831c-0.8,-0.421 -1.716,-0.631 -2.747,-0.631c-1.031,0 -1.946,0.21 -2.746,0.631c-0.787,0.407 -1.458,1.017 -2.015,1.831c-0.542,0.814 -0.956,1.818 -1.24,3.011c-0.285,1.194 -0.428,2.577 -0.428,4.15l0,1.445c0,1.56 0.143,2.943 0.428,4.15c0.284,1.194 0.705,2.204 1.261,3.032c0.556,0.814 1.234,1.431 2.034,1.851c0.8,0.421 1.716,0.631 2.747,0.631c1.031,-0 1.946,-0.21 2.747,-0.631c0.8,-0.42 1.471,-1.037 2.014,-1.851c0.542,-0.828 0.956,-1.838 1.241,-3.032c0.285,-1.207 0.427,-2.59 0.427,-4.15Zm34.892,-1.404l-0,1.404c-0,2.252 -0.305,4.272 -0.916,6.063c-0.61,1.79 -1.472,3.316 -2.584,4.577c-1.112,1.248 -2.441,2.204 -3.987,2.869c-1.533,0.665 -3.235,0.997 -5.107,0.997c-1.858,0 -3.56,-0.332 -5.106,-0.997c-1.533,-0.665 -2.862,-1.621 -3.988,-2.869c-1.126,-1.261 -2.001,-2.787 -2.625,-4.577c-0.61,-1.791 -0.915,-3.811 -0.915,-6.063l0,-1.404c0,-2.265 0.305,-4.286 0.915,-6.063c0.611,-1.79 1.472,-3.316 2.584,-4.577c1.126,-1.262 2.455,-2.225 3.988,-2.889c1.546,-0.665 3.248,-0.997 5.106,-0.997c1.872,-0 3.575,0.332 5.107,0.997c1.546,0.664 2.875,1.627 3.988,2.889c1.125,1.261 1.994,2.787 2.604,4.577c0.624,1.777 0.936,3.798 0.936,6.063Zm-6.165,1.404l0,-1.445c0,-1.573 -0.142,-2.956 -0.427,-4.15c-0.285,-1.193 -0.705,-2.197 -1.261,-3.011c-0.557,-0.814 -1.235,-1.424 -2.035,-1.831c-0.8,-0.421 -1.716,-0.631 -2.747,-0.631c-1.03,0 -1.946,0.21 -2.746,0.631c-0.787,0.407 -1.458,1.017 -2.014,1.831c-0.543,0.814 -0.956,1.818 -1.241,3.011c-0.285,1.194 -0.427,2.577 -0.427,4.15l-0,1.445c-0,1.56 0.142,2.943 0.427,4.15c0.285,1.194 0.705,2.204 1.261,3.032c0.556,0.814 1.235,1.431 2.035,1.851c0.8,0.421 1.715,0.631 2.746,0.631c1.031,-0 1.946,-0.21 2.747,-0.631c0.8,-0.42 1.472,-1.037 2.014,-1.851c0.543,-0.828 0.956,-1.838 1.241,-3.032c0.285,-1.207 0.427,-2.59 0.427,-4.15Zm22.42,-15.523l0,29.622l-6.083,0l0,-29.622l6.083,-0Zm9.115,-0l-0,4.781l-24.17,-0l-0,-4.781l24.17,-0Zm-61.279,69.795l6.083,0c-0.122,1.994 -0.672,3.764 -1.648,5.31c-0.963,1.547 -2.313,2.754 -4.049,3.622c-1.722,0.868 -3.797,1.302 -6.225,1.302c-1.899,0 -3.601,-0.326 -5.107,-0.977c-1.505,-0.664 -2.794,-1.614 -3.865,-2.848c-1.058,-1.234 -1.865,-2.726 -2.421,-4.476c-0.557,-1.75 -0.834,-3.709 -0.834,-5.88l-0,-2.054c-0,-2.171 0.284,-4.13 0.854,-5.88c0.583,-1.763 1.411,-3.262 2.482,-4.497c1.085,-1.234 2.38,-2.183 3.886,-2.848c1.505,-0.664 3.187,-0.997 5.045,-0.997c2.469,0 4.551,0.448 6.246,1.343c1.709,0.895 3.032,2.13 3.968,3.703c0.949,1.573 1.519,3.364 1.709,5.371l-6.104,0c-0.068,-1.194 -0.305,-2.204 -0.712,-3.032c-0.407,-0.84 -1.024,-1.471 -1.852,-1.892c-0.813,-0.433 -1.898,-0.65 -3.255,-0.65c-1.017,-0 -1.905,0.19 -2.665,0.569c-0.759,0.38 -1.397,0.956 -1.912,1.73c-0.515,0.773 -0.902,1.749 -1.16,2.929c-0.244,1.167 -0.366,2.537 -0.366,4.11l0,2.095c0,1.533 0.115,2.883 0.346,4.049c0.23,1.153 0.583,2.13 1.058,2.93c0.488,0.786 1.112,1.383 1.872,1.79c0.772,0.393 1.702,0.59 2.787,0.59c1.275,0 2.326,-0.203 3.153,-0.61c0.827,-0.407 1.458,-1.011 1.892,-1.811c0.448,-0.8 0.713,-1.797 0.794,-2.991Zm22.135,-14.73l-8.056,24.557l-6.49,0l11.006,-29.622l4.13,-0l-0.59,5.065Zm6.694,24.557l-8.077,-24.557l-0.651,-5.065l4.17,-0l11.068,29.622l-6.51,0Zm-0.366,-11.027l-0,4.781l-15.646,0l0,-4.781l15.646,-0Z" style="fill:#343536;fill-rule:nonzero;"/><path d="M600.708,82.878l0,29.622l-6.083,0l0,-29.623l6.083,0.001Zm29.825,-0.001l0,29.623l-6.104,0l-11.9,-19.857l0,19.857l-6.104,0l0,-29.623l6.104,0.001l11.921,19.877l0,-19.877l6.083,-0.001Zm17.946,0.001l0,29.622l-6.083,0l-0,-29.623l6.083,0.001Zm9.113,-0.001l-0,4.782l-24.171,-0l-0,-4.781l24.171,-0Zm-40.405,69.795l6.084,0c-0.121,1.994 -0.671,3.764 -1.65,5.31c-0.963,1.547 -2.313,2.754 -4.046,3.622c-1.725,0.868 -3.8,1.302 -6.225,1.302c-1.9,0 -3.604,-0.326 -5.108,-0.977c-1.505,-0.664 -2.796,-1.614 -3.867,-2.848c-1.058,-1.234 -1.863,-2.726 -2.421,-4.476c-0.554,-1.75 -0.833,-3.709 -0.833,-5.88l-0,-2.054c-0,-2.171 0.283,-4.13 0.854,-5.88c0.583,-1.763 1.412,-3.262 2.483,-4.497c1.084,-1.234 2.38,-2.183 3.884,-2.848c1.508,-0.665 3.187,-0.997 5.045,-0.997c2.471,0 4.555,0.448 6.246,1.343c1.713,0.895 3.034,2.13 3.971,3.703c0.946,1.573 1.517,3.364 1.708,5.371l-6.104,0c-0.066,-1.194 -0.304,-2.204 -0.712,-3.032c-0.409,-0.84 -1.025,-1.471 -1.85,-1.892c-0.817,-0.433 -1.9,-0.65 -3.258,-0.65c-1.017,-0 -1.905,0.19 -2.663,0.569c-0.762,0.38 -1.4,0.956 -1.912,1.73c-0.517,0.773 -0.905,1.749 -1.163,2.929c-0.242,1.167 -0.362,2.537 -0.362,4.11l-0,2.095c-0,1.533 0.112,2.883 0.345,4.049c0.23,1.153 0.584,2.13 1.055,2.93c0.491,0.786 1.112,1.383 1.875,1.79c0.77,0.393 1.7,0.59 2.787,0.59c1.275,0 2.325,-0.203 3.15,-0.61c0.829,-0.407 1.458,-1.011 1.896,-1.811c0.446,-0.8 0.708,-1.797 0.792,-2.991Zm22.137,-14.73l-8.058,24.557l-6.492,0l11.008,-29.622l4.13,-0l-0.588,5.065Zm6.692,24.557l-8.079,-24.557l-0.65,-5.065l4.17,-0l11.067,29.622l-6.508,0Zm-0.367,-11.027l0,4.781l-15.646,0l0,-4.781l15.646,-0Z" style="fill:#343536;fill-rule:nonzero;"/><path d="M966.533,82.878l0,29.622l-6.083,0l0,-29.623l6.083,0.001Zm9.113,-0.001l-0,4.782l-24.171,-0l0,-4.781l24.171,-0Zm3.479,-0l11.05,-0c2.263,-0 4.208,0.339 5.838,1.017c1.641,0.678 2.904,1.682 3.783,3.011c0.883,1.329 1.325,2.964 1.325,4.903c-0,1.587 -0.275,2.95 -0.817,4.089c-0.529,1.126 -1.279,2.069 -2.258,2.828c-0.963,0.747 -2.096,1.343 -3.396,1.791l-1.933,1.017l-9.604,0l-0.038,-4.761l7.138,0c1.075,0 1.962,-0.19 2.666,-0.569c0.704,-0.38 1.234,-0.909 1.588,-1.587c0.366,-0.679 0.55,-1.465 0.55,-2.36c-0,-0.95 -0.179,-1.77 -0.529,-2.462c-0.355,-0.692 -0.888,-1.221 -1.609,-1.587c-0.721,-0.366 -1.621,-0.549 -2.704,-0.549l-4.946,-0l0,24.841l-6.104,0l0,-29.622Zm16.563,29.622l-6.755,-13.204l6.45,-0.041l6.834,12.96l-0,0.285l-6.529,0Zm26.487,-29.622l6.083,-0l0,19.572c0,2.278 -0.487,4.198 -1.462,5.757c-0.963,1.56 -2.3,2.733 -4.008,3.52c-1.696,0.787 -3.65,1.18 -5.863,1.18c-2.208,0 -4.175,-0.393 -5.9,-1.18c-1.708,-0.787 -3.05,-1.96 -4.025,-3.52c-0.962,-1.559 -1.446,-3.479 -1.446,-5.757l0,-19.572l6.104,-0l0,19.572c0,1.329 0.209,2.414 0.63,3.255c0.42,0.841 1.025,1.458 1.812,1.851c0.8,0.394 1.742,0.59 2.825,0.59c1.113,0 2.058,-0.196 2.829,-0.59c0.788,-0.393 1.384,-1.01 1.792,-1.851c0.421,-0.841 0.629,-1.926 0.629,-3.255l0,-19.572Zm26.529,21.87c0,-0.528 -0.079,-1.003 -0.241,-1.423c-0.15,-0.435 -0.434,-0.828 -0.855,-1.181c-0.42,-0.366 -1.012,-0.725 -1.77,-1.078c-0.759,-0.353 -1.742,-0.719 -2.95,-1.098c-1.342,-0.435 -2.617,-0.923 -3.825,-1.465c-1.192,-0.543 -2.25,-1.174 -3.175,-1.893c-0.909,-0.732 -1.625,-1.58 -2.155,-2.542c-0.516,-0.963 -0.775,-2.083 -0.775,-3.358c0,-1.234 0.271,-2.353 0.813,-3.357c0.546,-1.017 1.304,-1.885 2.279,-2.604c0.979,-0.732 2.129,-1.295 3.458,-1.688c1.346,-0.393 2.817,-0.59 4.417,-0.59c2.183,-0 4.088,0.393 5.717,1.18c1.629,0.787 2.887,1.865 3.783,3.234c0.908,1.37 1.363,2.937 1.363,4.7l-6.063,0c0,-0.868 -0.183,-1.627 -0.55,-2.278c-0.35,-0.665 -0.892,-1.187 -1.625,-1.567c-0.721,-0.38 -1.629,-0.57 -2.725,-0.57c-1.058,0 -1.942,0.163 -2.646,0.489c-0.704,0.312 -1.233,0.739 -1.587,1.281c-0.354,0.53 -0.53,1.126 -0.53,1.791c0,0.502 0.121,0.956 0.367,1.363c0.258,0.407 0.638,0.786 1.138,1.139c0.504,0.353 1.12,0.685 1.854,0.997c0.729,0.312 1.579,0.617 2.542,0.916c1.612,0.488 3.033,1.037 4.254,1.648c1.233,0.61 2.262,1.295 3.091,2.054c0.825,0.76 1.45,1.621 1.871,2.585c0.421,0.962 0.629,2.054 0.629,3.275c0,1.288 -0.25,2.441 -0.75,3.459c-0.504,1.017 -1.229,1.878 -2.179,2.583c-0.95,0.705 -2.083,1.241 -3.396,1.608c-1.316,0.366 -2.787,0.549 -4.416,0.549c-1.463,0 -2.909,-0.19 -4.334,-0.57c-1.425,-0.393 -2.72,-0.983 -3.883,-1.77c-1.154,-0.787 -2.079,-1.79 -2.771,-3.011c-0.691,-1.221 -1.037,-2.665 -1.037,-4.334l6.125,0.001c-0,0.922 0.141,1.702 0.429,2.34c0.283,0.637 0.683,1.152 1.2,1.546c0.529,0.393 1.15,0.678 1.871,0.854c0.733,0.177 1.533,0.264 2.4,0.264c1.058,0.001 1.925,-0.149 2.604,-0.447c0.691,-0.298 1.2,-0.712 1.525,-1.241c0.341,-0.529 0.508,-1.126 0.508,-1.791Zm23.5,-21.871l0,29.623l-6.083,0l-0,-29.623l6.083,0Zm9.117,0l-0,4.782l-24.171,-0l0,-4.782l24.171,0Zm23.354,24.862l0,4.761l-15.767,0l0,-4.761l15.767,0Zm-13.775,-24.862l-0,29.623l-6.1,0l-0,-29.623l6.1,0Zm11.721,12.065l-0,4.639l-13.713,-0l0,-4.639l13.713,0Zm2.033,-12.065l0,4.782l-15.746,-0l0,-4.782l15.746,0Zm12.675,29.623l-6.45,0l0.042,-4.761l6.408,0c1.6,0 2.95,-0.359 4.05,-1.078c1.1,-0.732 1.925,-1.797 2.484,-3.194c0.566,-1.397 0.854,-3.086 0.854,-5.066l-0,-1.445c-0,-1.519 -0.163,-2.855 -0.492,-4.008c-0.308,-1.153 -0.779,-2.122 -1.4,-2.909c-0.625,-0.787 -1.392,-1.377 -2.3,-1.77c-0.908,-0.407 -1.954,-0.61 -3.133,-0.61l-6.634,-0l0,-4.782l6.634,0c1.979,0 3.791,0.34 5.433,1.018c1.654,0.665 3.083,1.621 4.292,2.868c1.208,1.248 2.137,2.74 2.787,4.477c0.663,1.722 0.996,3.641 0.996,5.757l0,1.404c0,2.102 -0.333,4.021 -0.996,5.757c-0.65,1.737 -1.579,3.229 -2.787,4.477c-1.196,1.234 -2.625,2.19 -4.292,2.868c-1.658,0.664 -3.487,0.997 -5.496,0.997Zm-2.991,-29.623l-0,29.623l-6.1,-0l-0,-29.623l6.1,0Zm-120.971,74.862l-0,4.761l-15.767,-0l0,-4.761l15.767,0Zm-13.771,-24.862l-0,29.623l-6.104,-0l-0,-29.623l6.104,0Zm11.717,12.065l-0,4.639l-13.713,-0l0,-4.639l13.713,0Zm2.033,-12.065l-0,4.782l-15.746,-0l0,-4.782l15.746,0Zm27.692,0l-0,29.623l-6.105,-0l-11.9,-19.857l0,19.857l-6.104,-0l0,-29.623l6.104,0l11.921,19.878l0,-19.878l6.084,0Zm17.941,0l0,29.623l-6.079,-0l0,-29.623l6.079,0Zm9.117,0l-0,4.782l-24.171,-0l0,-4.782l24.171,0Zm9.971,0l-0,29.623l-6.084,-0l0,-29.623l6.084,0Zm18.35,0l-0,29.623l-6.084,-0l0,-29.623l6.084,0Zm9.112,0l0,4.782l-24.166,-0l-0,-4.782l24.166,0Zm7.875,0l6.184,13.51l6.187,-13.51l6.65,0l-9.742,18.84l0,10.783l-6.187,-0l-0,-10.783l-9.767,-18.84l6.675,0Z" style="fill:#343536;fill-rule:nonzero;"/><path d="M1439.45,104.748c0,-0.528 -0.083,-1.003 -0.246,-1.423c-0.15,-0.435 -0.433,-0.828 -0.854,-1.181c-0.421,-0.366 -1.008,-0.725 -1.771,-1.078c-0.758,-0.353 -1.741,-0.719 -2.95,-1.098c-1.341,-0.435 -2.616,-0.923 -3.825,-1.466c-1.191,-0.542 -2.25,-1.173 -3.17,-1.892c-0.913,-0.732 -1.63,-1.58 -2.159,-2.543c-0.516,-0.962 -0.775,-2.082 -0.775,-3.357c0,-1.234 0.275,-2.353 0.817,-3.357c0.542,-1.017 1.3,-1.885 2.279,-2.604c0.975,-0.732 2.129,-1.295 3.458,-1.688c1.342,-0.394 2.813,-0.59 4.413,-0.59c2.183,-0 4.092,0.393 5.717,1.18c1.629,0.787 2.891,1.865 3.787,3.234c0.908,1.37 1.363,2.937 1.363,4.7l-6.063,0c0,-0.868 -0.183,-1.627 -0.55,-2.278c-0.354,-0.665 -0.896,-1.187 -1.629,-1.567c-0.717,-0.38 -1.625,-0.57 -2.725,-0.57c-1.058,0 -1.942,0.163 -2.646,0.489c-0.704,0.312 -1.233,0.739 -1.587,1.281c-0.35,0.53 -0.53,1.126 -0.53,1.791c0,0.501 0.125,0.956 0.367,1.363c0.258,0.407 0.638,0.786 1.142,1.139c0.5,0.353 1.116,0.685 1.85,0.997c0.733,0.312 1.579,0.617 2.541,0.916c1.617,0.488 3.034,1.037 4.255,1.648c1.233,0.61 2.262,1.295 3.091,2.054c0.829,0.76 1.45,1.621 1.871,2.585c0.421,0.962 0.633,2.054 0.633,3.275c0,1.288 -0.254,2.441 -0.754,3.459c-0.504,1.017 -1.229,1.878 -2.179,2.583c-0.946,0.705 -2.079,1.241 -3.396,1.608c-1.316,0.366 -2.787,0.549 -4.416,0.549c-1.463,0 -2.909,-0.19 -4.334,-0.57c-1.421,-0.393 -2.716,-0.983 -3.883,-1.77c-1.154,-0.787 -2.075,-1.79 -2.767,-3.011c-0.691,-1.221 -1.037,-2.665 -1.037,-4.334l6.121,0c-0,0.923 0.145,1.703 0.429,2.34c0.283,0.638 0.683,1.153 1.2,1.547c0.529,0.393 1.154,0.678 1.87,0.854c0.734,0.177 1.534,0.264 2.401,0.264c1.058,0 1.929,-0.149 2.604,-0.447c0.691,-0.298 1.204,-0.712 1.529,-1.241c0.337,-0.529 0.508,-1.126 0.508,-1.791Zm25.675,0c0,-0.528 -0.083,-1.003 -0.246,-1.423c-0.15,-0.435 -0.433,-0.828 -0.854,-1.181c-0.421,-0.366 -1.008,-0.725 -1.771,-1.078c-0.758,-0.353 -1.741,-0.719 -2.95,-1.099c-1.341,-0.434 -2.616,-0.922 -3.825,-1.465c-1.191,-0.542 -2.25,-1.173 -3.17,-1.892c-0.909,-0.732 -1.63,-1.58 -2.159,-2.543c-0.516,-0.962 -0.771,-2.082 -0.771,-3.357c0,-1.234 0.271,-2.353 0.813,-3.357c0.542,-1.017 1.3,-1.885 2.279,-2.604c0.975,-0.732 2.129,-1.295 3.458,-1.688c1.342,-0.394 2.813,-0.59 4.413,-0.59c2.183,-0 4.091,0.393 5.717,1.18c1.629,0.786 2.891,1.865 3.787,3.234c0.908,1.37 1.362,2.937 1.362,4.7l-6.062,0c-0,-0.868 -0.183,-1.628 -0.55,-2.278c-0.354,-0.665 -0.896,-1.187 -1.629,-1.567c-0.717,-0.38 -1.625,-0.57 -2.725,-0.57c-1.059,0 -1.942,0.163 -2.646,0.489c-0.704,0.312 -1.233,0.739 -1.588,1.281c-0.35,0.53 -0.529,1.126 -0.529,1.791c0,0.501 0.125,0.956 0.367,1.363c0.258,0.407 0.637,0.786 1.142,1.139c0.5,0.353 1.116,0.685 1.85,0.997c0.733,0.312 1.579,0.617 2.541,0.916c1.617,0.488 3.034,1.037 4.254,1.648c1.234,0.61 2.267,1.295 3.092,2.054c0.829,0.76 1.45,1.621 1.871,2.584c0.421,0.963 0.633,2.055 0.633,3.276c0,1.288 -0.254,2.441 -0.754,3.459c-0.5,1.017 -1.229,1.878 -2.175,2.583c-0.95,0.705 -2.083,1.241 -3.4,1.607c-1.317,0.367 -2.787,0.55 -4.412,0.55c-1.467,0 -2.913,-0.19 -4.334,-0.57c-1.425,-0.393 -2.721,-0.983 -3.887,-1.77c-1.154,-0.787 -2.075,-1.79 -2.767,-3.011c-0.692,-1.221 -1.037,-2.665 -1.037,-4.334l6.125,0c-0,0.923 0.141,1.703 0.425,2.34c0.283,0.638 0.683,1.153 1.2,1.547c0.529,0.393 1.154,0.678 1.87,0.854c0.734,0.177 1.534,0.264 2.405,0.264c1.054,0 1.925,-0.149 2.604,-0.447c0.691,-0.298 1.2,-0.712 1.525,-1.241c0.337,-0.529 0.508,-1.126 0.508,-1.791Zm29.296,2.991l-0,4.761l-14.913,-0l0,-4.761l14.913,0Zm-12.938,-24.862l0,29.623l-6.104,-0l0,-29.623l6.104,0Zm-81.462,71.871c-0,-0.528 -0.083,-1.003 -0.246,-1.423c-0.15,-0.435 -0.433,-0.828 -0.854,-1.181c-0.421,-0.366 -1.008,-0.725 -1.771,-1.078c-0.758,-0.353 -1.742,-0.719 -2.95,-1.099c-1.342,-0.434 -2.617,-0.922 -3.825,-1.465c-1.192,-0.542 -2.25,-1.173 -3.171,-1.892c-0.908,-0.732 -1.629,-1.58 -2.158,-2.543c-0.517,-0.962 -0.771,-2.082 -0.771,-3.357c0,-1.234 0.271,-2.353 0.813,-3.357c0.541,-1.017 1.3,-1.885 2.279,-2.604c0.975,-0.732 2.129,-1.295 3.458,-1.688c1.342,-0.394 2.813,-0.59 4.413,-0.59c2.183,-0 4.091,0.393 5.716,1.18c1.629,0.786 2.892,1.865 3.788,3.234c0.908,1.37 1.362,2.937 1.362,4.7l-6.062,0c-0,-0.868 -0.184,-1.628 -0.55,-2.278c-0.354,-0.665 -0.896,-1.187 -1.629,-1.567c-0.717,-0.38 -1.625,-0.57 -2.725,-0.57c-1.059,0 -1.942,0.163 -2.646,0.489c-0.704,0.312 -1.234,0.739 -1.588,1.281c-0.35,0.53 -0.529,1.126 -0.529,1.791c0,0.501 0.125,0.956 0.367,1.363c0.258,0.407 0.637,0.786 1.141,1.139c0.5,0.353 1.117,0.685 1.85,0.997c0.734,0.312 1.58,0.617 2.542,0.916c1.617,0.488 3.033,1.037 4.254,1.648c1.234,0.61 2.267,1.295 3.092,2.054c0.829,0.76 1.45,1.621 1.871,2.584c0.421,0.963 0.633,2.055 0.633,3.276c0,1.288 -0.254,2.441 -0.754,3.459c-0.5,1.017 -1.229,1.878 -2.175,2.583c-0.95,0.705 -2.083,1.241 -3.4,1.607c-1.317,0.367 -2.788,0.55 -4.413,0.55c-1.466,0 -2.912,-0.19 -4.333,-0.57c-1.425,-0.393 -2.721,-0.983 -3.887,-1.77c-1.155,-0.787 -2.075,-1.79 -2.767,-3.011c-0.692,-1.221 -1.038,-2.665 -1.038,-4.334l6.125,0c0,0.923 0.142,1.703 0.425,2.34c0.284,0.638 0.684,1.153 1.2,1.547c0.53,0.393 1.155,0.678 1.871,0.854c0.734,0.177 1.534,0.264 2.404,0.264c1.055,0 1.925,-0.149 2.605,-0.447c0.691,-0.298 1.2,-0.712 1.525,-1.241c0.337,-0.529 0.508,-1.126 0.508,-1.791Zm30.129,2.991l0,4.761l-15.767,-0l0,-4.761l15.767,0Zm-13.771,-24.862l0,29.623l-6.104,-0l0,-29.623l6.104,0Zm11.717,12.065l-0,4.639l-13.713,-0l0,-4.639l13.713,0Zm2.033,-12.065l0,4.782l-15.746,-0l0,-4.782l15.746,0Zm3.584,0l11.045,0c2.267,0 4.213,0.34 5.842,1.018c1.638,0.678 2.9,1.682 3.783,3.011c0.88,1.329 1.321,2.964 1.321,4.903c0,1.587 -0.271,2.95 -0.812,4.089c-0.529,1.126 -1.284,2.069 -2.259,2.828c-0.962,0.746 -2.095,1.343 -3.4,1.791l-1.929,1.017l-9.604,0l-0.042,-4.761l7.142,0c1.071,0 1.958,-0.19 2.667,-0.569c0.704,-0.38 1.233,-0.909 1.583,-1.587c0.367,-0.679 0.55,-1.465 0.55,-2.36c0,-0.95 -0.175,-1.77 -0.529,-2.462c-0.35,-0.692 -0.888,-1.221 -1.604,-1.587c-0.721,-0.366 -1.621,-0.549 -2.709,-0.549l-4.941,-0l-0,24.841l-6.104,-0l-0,-29.623Zm16.558,29.623l-6.754,-13.204l6.45,-0.041l6.837,12.96l0,0.285l-6.533,-0Zm20.408,-6.185l6.979,-23.438l6.796,0l-10.316,29.623l-4.475,-0l1.016,-6.185Zm-6.429,-23.438l6.958,23.438l1.059,6.185l-4.517,-0l-10.254,-29.623l6.754,0Zm42.846,24.862l-0,4.761l-15.767,-0l0,-4.761l15.767,0Zm-13.775,-24.862l-0,29.623l-6.1,-0l-0,-29.623l6.1,0Zm11.721,12.065l-0,4.639l-13.713,-0l0,-4.639l13.713,0Zm2.033,-12.065l0,4.782l-15.746,-0l0,-4.782l15.746,0Zm3.583,0l11.046,0c2.267,0 4.213,0.34 5.838,1.018c1.641,0.678 2.904,1.682 3.787,3.011c0.879,1.329 1.321,2.964 1.321,4.903c0,1.587 -0.271,2.95 -0.812,4.089c-0.53,1.126 -1.284,2.069 -2.259,2.828c-0.966,0.746 -2.096,1.343 -3.4,1.791l-1.933,1.017l-9.6,0l-0.042,-4.761l7.142,0c1.071,0 1.958,-0.19 2.662,-0.569c0.709,-0.38 1.238,-0.909 1.588,-1.587c0.367,-0.679 0.55,-1.465 0.55,-2.36c-0,-0.95 -0.175,-1.77 -0.529,-2.462c-0.354,-0.692 -0.888,-1.221 -1.609,-1.587c-0.716,-0.366 -1.62,-0.549 -2.704,-0.549l-4.946,-0l0,24.841l-6.1,-0l0,-29.623Zm16.559,29.623l-6.754,-13.204l6.45,-0.041l6.837,12.96l0,0.285l-6.533,-0Z" style="fill:#343536;fill-rule:nonzero;"/><path d="M1856.12,104.748c-0,-0.528 -0.083,-1.003 -0.246,-1.423c-0.15,-0.435 -0.433,-0.828 -0.854,-1.181c-0.421,-0.366 -1.008,-0.725 -1.771,-1.078c-0.758,-0.353 -1.742,-0.719 -2.95,-1.098c-1.342,-0.435 -2.617,-0.923 -3.825,-1.466c-1.192,-0.542 -2.25,-1.173 -3.171,-1.892c-0.912,-0.732 -1.629,-1.58 -2.158,-2.543c-0.517,-0.962 -0.775,-2.082 -0.775,-3.357c-0,-1.234 0.275,-2.353 0.817,-3.357c0.541,-1.017 1.3,-1.885 2.279,-2.604c0.975,-0.732 2.129,-1.295 3.458,-1.688c1.342,-0.394 2.813,-0.59 4.413,-0.59c2.183,-0 4.091,0.393 5.716,1.18c1.629,0.787 2.892,1.865 3.788,3.234c0.908,1.37 1.362,2.937 1.362,4.7l-6.062,0c-0,-0.868 -0.184,-1.627 -0.55,-2.278c-0.354,-0.665 -0.896,-1.187 -1.629,-1.567c-0.717,-0.38 -1.626,-0.57 -2.726,-0.57c-1.058,0 -1.941,0.163 -2.645,0.489c-0.705,0.312 -1.234,0.739 -1.588,1.281c-0.35,0.53 -0.529,1.126 -0.529,1.791c0,0.501 0.125,0.956 0.367,1.363c0.258,0.407 0.637,0.786 1.141,1.139c0.5,0.353 1.117,0.685 1.85,0.997c0.734,0.312 1.58,0.617 2.542,0.916c1.617,0.488 3.033,1.037 4.254,1.648c1.234,0.61 2.263,1.295 3.092,2.054c0.829,0.76 1.45,1.621 1.871,2.585c0.42,0.962 0.633,2.054 0.633,3.275c0,1.288 -0.254,2.441 -0.754,3.459c-0.504,1.017 -1.229,1.878 -2.179,2.583c-0.946,0.705 -2.08,1.241 -3.396,1.608c-1.317,0.366 -2.788,0.549 -4.417,0.549c-1.462,0 -2.908,-0.19 -4.333,-0.57c-1.421,-0.393 -2.717,-0.983 -3.884,-1.77c-1.154,-0.787 -2.075,-1.79 -2.766,-3.011c-0.692,-1.221 -1.038,-2.665 -1.038,-4.334l6.121,0c0,0.923 0.146,1.703 0.429,2.34c0.284,0.638 0.684,1.153 1.2,1.547c0.529,0.393 1.154,0.678 1.871,0.854c0.733,0.177 1.533,0.264 2.4,0.264c1.058,0 1.929,-0.149 2.604,-0.447c0.692,-0.298 1.204,-0.712 1.529,-1.241c0.338,-0.529 0.509,-1.126 0.509,-1.791Zm25.675,0c-0,-0.528 -0.084,-1.003 -0.246,-1.423c-0.15,-0.435 -0.433,-0.828 -0.854,-1.181c-0.421,-0.366 -1.009,-0.725 -1.771,-1.078c-0.758,-0.353 -1.742,-0.719 -2.95,-1.099c-1.342,-0.434 -2.617,-0.922 -3.825,-1.465c-1.192,-0.542 -2.25,-1.173 -3.171,-1.892c-0.908,-0.732 -1.629,-1.58 -2.158,-2.543c-0.517,-0.962 -0.771,-2.082 -0.771,-3.357c-0,-1.234 0.271,-2.353 0.812,-3.357c0.542,-1.017 1.3,-1.885 2.28,-2.604c0.975,-0.732 2.129,-1.295 3.458,-1.688c1.342,-0.394 2.812,-0.59 4.412,-0.59c2.184,-0 4.092,0.393 5.717,1.18c1.629,0.786 2.892,1.865 3.788,3.234c0.908,1.37 1.362,2.937 1.362,4.7l-6.062,0c-0,-0.868 -0.184,-1.628 -0.55,-2.278c-0.355,-0.665 -0.896,-1.187 -1.63,-1.567c-0.716,-0.38 -1.625,-0.57 -2.725,-0.57c-1.058,0 -1.941,0.163 -2.645,0.489c-0.705,0.312 -1.234,0.739 -1.588,1.281c-0.35,0.53 -0.529,1.126 -0.529,1.791c-0,0.501 0.125,0.956 0.367,1.363c0.258,0.407 0.637,0.786 1.141,1.139c0.5,0.353 1.117,0.685 1.85,0.997c0.734,0.312 1.579,0.617 2.542,0.916c1.617,0.488 3.033,1.037 4.254,1.648c1.233,0.61 2.267,1.295 3.092,2.054c0.829,0.76 1.45,1.621 1.871,2.584c0.42,0.963 0.633,2.055 0.633,3.276c-0,1.288 -0.254,2.441 -0.754,3.459c-0.5,1.017 -1.229,1.878 -2.175,2.583c-0.95,0.705 -2.084,1.241 -3.4,1.607c-1.317,0.367 -2.788,0.55 -4.413,0.55c-1.466,0 -2.912,-0.19 -4.333,-0.57c-1.425,-0.393 -2.721,-0.983 -3.888,-1.77c-1.154,-0.787 -2.075,-1.79 -2.766,-3.011c-0.692,-1.221 -1.038,-2.665 -1.038,-4.334l6.125,0c0,0.923 0.142,1.703 0.425,2.34c0.284,0.638 0.684,1.153 1.2,1.547c0.529,0.393 1.154,0.678 1.871,0.854c0.733,0.177 1.533,0.264 2.404,0.264c1.054,0 1.925,-0.149 2.604,-0.447c0.692,-0.298 1.2,-0.712 1.525,-1.241c0.338,-0.529 0.509,-1.126 0.509,-1.791Zm29.296,2.991l-0,4.761l-14.913,-0l0,-4.761l14.913,0Zm-12.938,-24.862l0,29.623l-6.104,-0l-0,-29.623l6.104,0Zm-73.387,69.796l6.083,0c-0.121,1.994 -0.671,3.764 -1.646,5.31c-0.962,1.547 -2.312,2.754 -4.05,3.622c-1.721,0.868 -3.796,1.302 -6.225,1.302c-1.9,0 -3.6,-0.326 -5.108,-0.977c-1.504,-0.664 -2.792,-1.614 -3.863,-2.848c-1.058,-1.234 -1.866,-2.726 -2.421,-4.476c-0.558,-1.75 -0.837,-3.709 -0.837,-5.88l-0,-2.054c-0,-2.171 0.287,-4.13 0.854,-5.88c0.583,-1.763 1.413,-3.262 2.483,-4.497c1.088,-1.234 2.38,-2.183 3.888,-2.848c1.504,-0.665 3.187,-0.997 5.046,-0.997c2.466,0 4.55,0.448 6.246,1.343c1.708,0.895 3.029,2.129 3.966,3.703c0.95,1.573 1.517,3.364 1.709,5.371l-6.105,0c-0.066,-1.194 -0.304,-2.204 -0.712,-3.032c-0.404,-0.84 -1.021,-1.471 -1.85,-1.892c-0.813,-0.433 -1.9,-0.651 -3.254,-0.651c-1.017,0 -1.909,0.19 -2.667,0.57c-0.758,0.38 -1.396,0.956 -1.912,1.73c-0.517,0.773 -0.9,1.749 -1.159,2.929c-0.246,1.166 -0.366,2.536 -0.366,4.11l-0,2.095c-0,1.533 0.116,2.883 0.345,4.049c0.23,1.153 0.584,2.13 1.059,2.93c0.487,0.786 1.112,1.383 1.871,1.79c0.775,0.393 1.704,0.59 2.787,0.59c1.275,-0 2.325,-0.203 3.154,-0.61c0.825,-0.407 1.459,-1.011 1.892,-1.811c0.446,-0.8 0.712,-1.797 0.792,-2.991Zm29.137,5.066l0,4.761l-14.917,0l0,-4.761l14.917,0Zm-12.942,-24.862l0,29.623l-6.104,0l0,-29.623l6.104,0Zm22.93,0l-0,29.623l-6.084,0l0,-29.623l6.084,0Zm25.595,24.862l0,4.761l-15.77,0l-0,-4.761l15.77,0Zm-13.775,-24.862l0,29.623l-6.104,0l0,-29.623l6.104,0Zm11.717,12.065l0,4.639l-13.712,-0l-0,-4.639l13.712,0Zm2.038,-12.065l-0,4.782l-15.75,-0l-0,-4.782l15.75,0Zm27.687,0l0,29.623l-6.104,0l-11.9,-19.857l-0,19.857l-6.104,0l-0,-29.623l6.104,0l11.921,19.878l-0,-19.877l6.083,-0Zm17.946,-0l-0,29.622l-6.083,0l-0,-29.623l6.083,0Zm9.112,0l0,4.782l-24.166,-0l-0,-4.782l24.166,0Z" style="fill:#343536;fill-rule:nonzero;"/><path d="M245.833,320.833c0,-4.599 -3.734,-8.333 -8.333,-8.333l-66.667,0c-4.599,0 -8.333,3.734 -8.333,8.333l0,108.334c0,4.599 3.734,8.333 8.333,8.333l66.667,0c4.599,0 8.333,-3.734 8.333,-8.333l0,-108.334Z" style="fill:#ffb6a3;"/><path d="M1916.67,675c-0,-4.599 -3.734,-8.333 -8.334,-8.333l-66.666,-0c-4.6,-0 -8.334,3.734 -8.334,8.333l0,108.333c0,4.6 3.734,8.334 8.334,8.334l66.666,-0c4.6,-0 8.334,-3.734 8.334,-8.334l-0,-108.333Z" style="fill:#ffb6a3;"/><path d="M1500,425c0,-4.599 -3.734,-8.333 -8.333,-8.333l-66.667,-0c-4.599,-0 -8.333,3.734 -8.333,8.333l-0,108.333c-0,4.6 3.734,8.334 8.333,8.334l66.667,-0c4.599,-0 8.333,-3.734 8.333,-8.334l0,-108.333Z" style="fill:#ffb6a3;"/><path d="M666.667,300c-0,-4.599 -3.734,-8.333 -8.334,-8.333l-66.666,-0c-4.6,-0 -8.334,3.734 -8.334,8.333l0,150c0,4.599 3.734,8.333 8.334,8.333l66.666,0c4.6,0 8.334,-3.734 8.334,-8.333l-0,-150Z" style="fill:#ffb6a3;"/><path d="M666.667,508.333c-0,-4.599 -3.734,-8.333 -8.334,-8.333l-66.666,0c-4.6,0 -8.334,3.734 -8.334,8.333l0,150c0,4.6 3.734,8.334 8.334,8.334l66.666,-0c4.6,-0 8.334,-3.734 8.334,-8.334l-0,-150Z" style="fill:#ffb6a3;"/><path d="M1070.83,508.333c0,-4.599 -3.734,-8.333 -8.333,-8.333l-66.667,0c-4.599,0 -8.333,3.734 -8.333,8.333l0,150c0,4.6 3.734,8.334 8.333,8.334l66.667,-0c4.599,-0 8.333,-3.734 8.333,-8.334l0,-150Z" style="fill:#ffb6a3;"/><path d="M1070.83,300c0,-4.599 -3.734,-8.333 -8.333,-8.333l-66.667,-0c-4.599,-0 -8.333,3.734 -8.333,8.333l0,150c0,4.599 3.734,8.333 8.333,8.333l66.667,0c4.599,0 8.333,-3.734 8.333,-8.333l0,-150Z" style="fill:#ffb6a3;"/><path d="M1916.67,508.333c-0,-4.599 -3.734,-8.333 -8.334,-8.333l-66.666,0c-4.6,0 -8.334,3.734 -8.334,8.333l0,108.334c0,4.599 3.734,8.333 8.334,8.333l66.666,0c4.6,0 8.334,-3.734 8.334,-8.333l-0,-108.334Z" style="fill:#ffb6a3;"/><path d="M1500,675c0,-4.599 -3.734,-8.333 -8.333,-8.333l-66.667,-0c-4.599,-0 -8.333,3.734 -8.333,8.333l-0,108.333c-0,4.6 3.734,8.334 8.333,8.334l66.667,-0c4.599,-0 8.333,-3.734 8.333,-8.334l0,-108.333Z" style="fill:#ffb6a3;"/><path d="M479.167,329.167c-0,-4.6 -3.734,-8.334 -8.334,-8.334l-108.333,0c-4.599,0 -8.333,3.734 -8.333,8.334l-0,25c-0,4.599 3.734,8.333 8.333,8.333l108.333,-0c4.6,-0 8.334,-3.734 8.334,-8.333l-0,-25Z" style="fill:#fff;"/><path d="M389.86,347.19c0,-0.476 -0.073,-0.903 -0.22,-1.281c-0.134,-0.391 -0.39,-0.745 -0.769,-1.062c-0.378,-0.33 -0.909,-0.654 -1.593,-0.971c-0.683,-0.317 -1.568,-0.647 -2.655,-0.988c-1.208,-0.391 -2.356,-0.83 -3.442,-1.319c-1.074,-0.488 -2.026,-1.056 -2.856,-1.703c-0.818,-0.659 -1.465,-1.422 -1.942,-2.288c-0.463,-0.868 -0.695,-1.875 -0.695,-3.022c-0,-1.111 0.244,-2.118 0.732,-3.021c0.488,-0.916 1.172,-1.697 2.051,-2.344c0.879,-0.659 1.917,-1.166 3.113,-1.52c1.208,-0.353 2.533,-0.531 3.973,-0.531c1.965,0 3.68,0.354 5.146,1.063c1.464,0.707 2.599,1.678 3.405,2.911c0.818,1.233 1.227,2.643 1.227,4.229l-5.457,0c0,-0.781 -0.165,-1.464 -0.494,-2.05c-0.317,-0.598 -0.806,-1.068 -1.465,-1.41c-0.647,-0.342 -1.465,-0.513 -2.454,-0.513c-0.952,0 -1.745,0.147 -2.38,0.44c-0.635,0.28 -1.111,0.665 -1.428,1.153c-0.317,0.476 -0.476,1.013 -0.476,1.612c-0,0.451 0.11,0.86 0.329,1.226c0.233,0.367 0.574,0.708 1.026,1.026c0.452,0.317 1.007,0.616 1.666,0.897c0.659,0.281 1.422,0.555 2.289,0.824c1.452,0.439 2.728,0.934 3.827,1.483c1.111,0.549 2.038,1.166 2.783,1.849c0.744,0.684 1.306,1.459 1.684,2.326c0.379,0.867 0.568,1.849 0.568,2.948c0,1.159 -0.225,2.197 -0.677,3.113c-0.452,0.915 -1.105,1.69 -1.959,2.325c-0.855,0.635 -1.874,1.117 -3.058,1.446c-1.184,0.33 -2.509,0.495 -3.974,0.495c-1.318,-0 -2.618,-0.171 -3.9,-0.513c-1.282,-0.354 -2.447,-0.885 -3.497,-1.593c-1.038,-0.708 -1.868,-1.611 -2.49,-2.71c-0.623,-1.098 -0.934,-2.399 -0.934,-3.9l5.511,0c0,0.83 0.128,1.532 0.385,2.106c0.256,0.574 0.616,1.037 1.08,1.391c0.476,0.354 1.038,0.611 1.685,0.769c0.659,0.159 1.379,0.238 2.16,0.238c0.953,0 1.734,-0.134 2.344,-0.402c0.623,-0.269 1.08,-0.641 1.373,-1.117c0.305,-0.477 0.458,-1.014 0.458,-1.612Zm15.07,-19.683l-0,26.66l-5.475,-0l-0,-26.66l5.475,-0Zm26.274,12.725l0,10.565c-0.412,0.501 -1.054,1.044 -1.921,1.63c-0.866,0.574 -1.983,1.068 -3.35,1.483c-1.366,0.415 -3.02,0.623 -4.962,0.623c-1.721,-0 -3.292,-0.281 -4.707,-0.843c-1.416,-0.573 -2.637,-1.409 -3.662,-2.508c-1.014,-1.099 -1.794,-2.441 -2.344,-4.028c-0.549,-1.599 -0.824,-3.424 -0.824,-5.475l0,-1.667c0,-2.05 0.262,-3.875 0.787,-5.474c0.537,-1.599 1.3,-2.948 2.289,-4.047c0.989,-1.099 2.167,-1.935 3.534,-2.509c1.369,-0.573 2.885,-0.86 4.56,-0.86c2.317,0 4.221,0.378 5.713,1.135c1.487,0.745 2.625,1.783 3.404,3.113c0.796,1.318 1.283,2.832 1.466,4.541l-5.329,0c-0.133,-0.903 -0.391,-1.691 -0.77,-2.362c-0.375,-0.671 -0.921,-1.196 -1.63,-1.575c-0.696,-0.378 -1.596,-0.567 -2.708,-0.567c-0.917,-0 -1.733,0.189 -2.454,0.567c-0.708,0.366 -1.304,0.91 -1.794,1.63c-0.488,0.72 -0.861,1.611 -1.117,2.673c-0.256,1.062 -0.385,2.295 -0.385,3.699l0,1.703c0,1.391 0.135,2.624 0.403,3.699c0.269,1.062 0.665,1.959 1.19,2.691c0.536,0.721 1.199,1.264 1.978,1.63c0.783,0.366 1.692,0.549 2.729,0.549c0.867,0 1.587,-0.073 2.158,-0.22c0.588,-0.146 1.059,-0.323 1.413,-0.53c0.366,-0.22 0.646,-0.428 0.841,-0.623l0,-4.724l-5.016,-0l-0,-3.918l10.508,-0Zm26.129,-12.726l0,26.66l-5.491,-0l-10.713,-17.872l0,17.872l-5.491,-0l-0,-26.66l5.491,-0l10.729,17.889l0,-17.889l5.475,-0Z" style="fill:#343536;fill-rule:nonzero;"/><path d="M558.333,375l-41.666,-24.056l-0,48.112l41.666,-24.056Zm-287.5,4.167l250,-0l0,-8.334l-250,0l0,8.334Z" style="fill:#bfbfc0;fill-rule:nonzero;"/><path d="M916.667,333.333c-0,-4.599 -3.734,-8.333 -8.334,-8.333l-212.5,0c-4.599,0 -8.333,3.734 -8.333,8.333l-0,25c-0,4.6 3.734,8.334 8.333,8.334l212.5,-0c4.6,-0 8.334,-3.734 8.334,-8.334l-0,-25Z" style="fill:#fff;"/><path d="M711.196,336.233l-7.254,22.1l-5.842,0l9.908,-26.66l3.717,0l-0.529,4.56Zm6.021,22.1l-7.267,-22.1l-0.587,-4.56l3.754,0l9.962,26.66l-5.862,0Zm-0.329,-9.924l-0,4.303l-14.08,0l0,-4.303l14.08,0Zm23.054,-16.736l5.475,0l-0,17.615c-0,2.051 -0.442,3.778 -1.321,5.182c-0.867,1.404 -2.067,2.46 -3.604,3.167c-1.525,0.708 -3.284,1.063 -5.275,1.063c-1.988,-0 -3.759,-0.355 -5.309,-1.063c-1.537,-0.707 -2.745,-1.763 -3.625,-3.167c-0.866,-1.404 -1.3,-3.131 -1.3,-5.182l0,-17.615l5.492,0l0,17.615c0,1.196 0.188,2.173 0.567,2.929c0.379,0.758 0.92,1.313 1.629,1.667c0.721,0.354 1.571,0.531 2.546,0.531c1,0 1.85,-0.177 2.545,-0.531c0.709,-0.354 1.246,-0.909 1.613,-1.666c0.379,-0.757 0.567,-1.734 0.567,-2.93l-0,-17.615Zm21.916,0l0,26.66l-5.475,0l0,-26.66l5.475,0Zm8.204,0l0,4.303l-21.754,0l0,-4.303l21.754,0Zm20.909,10.858l-0,4.285l-13.913,-0l0,-4.285l13.913,0Zm-12.284,-10.858l0,26.66l-5.495,0l-0,-26.66l5.495,0Zm16.205,0l-0,26.66l-5.475,0l-0,-26.66l5.475,0Zm26.679,12.708l-0,1.263c-0,2.026 -0.275,3.845 -0.825,5.457c-0.55,1.611 -1.325,2.984 -2.325,4.119c-1,1.124 -2.196,1.984 -3.588,2.583c-1.379,0.597 -2.912,0.897 -4.596,0.897c-1.674,-0 -3.204,-0.3 -4.595,-0.897c-1.384,-0.599 -2.579,-1.459 -3.592,-2.583c-1.013,-1.135 -1.8,-2.508 -2.362,-4.119c-0.551,-1.612 -0.821,-3.431 -0.821,-5.457l-0,-1.263c-0,-2.039 0.27,-3.858 0.821,-5.457c0.549,-1.611 1.324,-2.984 2.324,-4.12c1.017,-1.135 2.213,-2.001 3.592,-2.6c1.392,-0.598 2.921,-0.897 4.596,-0.897c1.683,0 3.217,0.299 4.596,0.897c1.391,0.599 2.587,1.465 3.587,2.6c1.013,1.136 1.796,2.509 2.346,4.12c0.559,1.599 0.842,3.418 0.842,5.457Zm-5.55,1.263l-0,-1.3c-0,-1.416 -0.129,-2.661 -0.384,-3.735c-0.258,-1.074 -0.633,-1.978 -1.137,-2.71c-0.5,-0.733 -1.108,-1.282 -1.829,-1.648c-0.721,-0.378 -1.546,-0.568 -2.471,-0.568c-0.929,0 -1.754,0.19 -2.475,0.568c-0.704,0.366 -1.308,0.915 -1.813,1.648c-0.487,0.732 -0.858,1.636 -1.116,2.71c-0.254,1.074 -0.384,2.319 -0.384,3.735l0,1.3c0,1.404 0.13,2.649 0.384,3.736c0.258,1.074 0.637,1.983 1.137,2.728c0.5,0.732 1.109,1.287 1.829,1.666c0.721,0.379 1.546,0.568 2.476,0.568c0.924,-0 1.75,-0.189 2.47,-0.568c0.721,-0.379 1.325,-0.934 1.813,-1.666c0.487,-0.745 0.858,-1.654 1.116,-2.728c0.255,-1.087 0.384,-2.332 0.384,-3.736Zm9.504,-13.971l9.942,0c2.037,0 3.791,0.305 5.254,0.916c1.479,0.61 2.612,1.514 3.408,2.71c0.792,1.196 1.188,2.667 1.188,4.413c-0,1.428 -0.242,2.655 -0.73,3.68c-0.479,1.013 -1.154,1.861 -2.033,2.545c-0.867,0.671 -1.887,1.208 -3.058,1.611l-1.738,0.916l-8.645,-0l-0.034,-4.285l6.425,0c0.963,0 1.763,-0.171 2.4,-0.512c0.634,-0.342 1.109,-0.818 1.425,-1.429c0.334,-0.61 0.496,-1.318 0.496,-2.124c0,-0.854 -0.158,-1.593 -0.475,-2.215c-0.317,-0.623 -0.8,-1.099 -1.446,-1.429c-0.65,-0.329 -1.458,-0.494 -2.437,-0.494l-4.45,0l-0,22.357l-5.492,0l0,-26.66Zm14.904,26.66l-6.079,-11.883l5.804,-0.037l6.154,11.664l0,0.256l-5.879,0Zm14.959,-26.66l-0,26.66l-5.475,0l-0,-26.66l5.475,0Zm24.429,22.376l-0,4.284l-18.896,0l-0,-4.284l18.896,-0Zm-0.275,-19.318l-16.188,23.602l-3.862,0l-0,-3.149l16.312,-23.511l3.738,0l-0,3.058Zm-1.888,-3.058l0,4.303l-18.146,0l0,-4.303l18.146,0Zm23.55,22.376l0,4.284l-14.191,0l-0,-4.284l14.191,-0Zm-12.4,-22.376l0,26.66l-5.491,0l-0,-26.66l5.491,0Zm10.55,10.858l0,4.175l-12.341,0l-0,-4.175l12.341,0Zm1.829,-10.858l0,4.303l-14.17,0l-0,-4.303l14.17,0Z" style="fill:#343536;fill-rule:nonzero;"/><path d="M970.833,495.833c0,-4.599 -3.734,-8.333 -8.333,-8.333l-212.5,0c-4.599,0 -8.333,3.734 -8.333,8.333l-0,25c-0,4.6 3.734,8.334 8.333,8.334l212.5,-0c4.599,-0 8.333,-3.734 8.333,-8.334l0,-25Z" style="fill:#fff;"/><path d="M777.058,494.175l9.942,0c2.038,0 3.792,0.304 5.254,0.913c1.479,0.612 2.613,1.516 3.404,2.712c0.796,1.196 1.192,2.667 1.192,4.413c0,1.429 -0.242,2.654 -0.733,3.679c-0.475,1.012 -1.15,1.862 -2.03,2.546c-0.866,0.67 -1.887,1.208 -3.058,1.612l-1.742,0.913l-8.641,-0l-0.038,-4.284l6.429,0c0.963,0 1.763,-0.171 2.396,-0.512c0.638,-0.342 1.113,-0.817 1.429,-1.43c0.33,-0.608 0.496,-1.316 0.496,-2.125c0,-0.854 -0.158,-1.591 -0.475,-2.212c-0.32,-0.625 -0.8,-1.1 -1.45,-1.429c-0.645,-0.329 -1.458,-0.496 -2.433,-0.496l-4.45,-0l0,22.358l-5.492,0l0,-26.658Zm14.905,26.658l-6.08,-11.883l5.805,-0.038l6.15,11.663l-0,0.258l-5.875,0Zm27.008,-4.283l-0,4.283l-14.192,0l0,-4.283l14.192,0Zm-12.396,-22.375l0,26.658l-5.496,0l0,-26.658l5.496,0Zm10.546,10.858l-0,4.171l-12.342,0l0,-4.171l12.342,0Zm1.829,-10.858l0,4.3l-14.171,-0l0,-4.3l14.171,0Zm17.708,22.704l7.213,5.713l-3.458,3.004l-7.105,-5.717l3.35,-3Zm7.396,-10l0,1.267c0,2.025 -0.275,3.841 -0.825,5.454c-0.533,1.612 -1.308,2.983 -2.325,4.121c-1.012,1.121 -2.208,1.983 -3.587,2.583c-1.379,0.596 -2.913,0.896 -4.596,0.896c-1.671,0 -3.204,-0.3 -4.596,-0.896c-1.392,-0.6 -2.596,-1.462 -3.608,-2.583c-1.013,-1.138 -1.8,-2.509 -2.363,-4.121c-0.546,-1.613 -0.821,-3.429 -0.821,-5.454l0,-1.267c0,-2.037 0.275,-3.854 0.821,-5.454c0.563,-1.613 1.346,-2.987 2.346,-4.121c1,-1.133 2.196,-2 3.588,-2.6c1.391,-0.6 2.925,-0.896 4.595,-0.896c1.688,0 3.217,0.296 4.596,0.896c1.392,0.6 2.596,1.467 3.609,2.6c1.012,1.134 1.795,2.508 2.341,4.121c0.55,1.6 0.825,3.417 0.825,5.454Zm-5.546,1.267l0,-1.3c0,-1.417 -0.137,-2.663 -0.404,-3.738c-0.258,-1.075 -0.633,-1.979 -1.133,-2.708c-0.492,-0.733 -1.096,-1.283 -1.813,-1.65c-0.72,-0.379 -1.545,-0.567 -2.475,-0.567c-0.925,0 -1.75,0.188 -2.47,0.567c-0.721,0.367 -1.325,0.917 -1.813,1.65c-0.487,0.729 -0.862,1.633 -1.117,2.708c-0.258,1.075 -0.383,2.321 -0.383,3.738l0,1.3c0,1.404 0.125,2.646 0.383,3.733c0.255,1.075 0.63,1.984 1.117,2.729c0.5,0.734 1.113,1.288 1.829,1.667c0.734,0.379 1.563,0.567 2.492,0.567c0.929,-0 1.746,-0.188 2.454,-0.567c0.721,-0.379 1.325,-0.933 1.813,-1.667c0.5,-0.745 0.879,-1.654 1.133,-2.729c0.258,-1.087 0.387,-2.329 0.387,-3.733Zm24.242,-13.971l5.475,0l0,17.612c0,2.05 -0.437,3.78 -1.317,5.184c-0.866,1.404 -2.07,2.458 -3.608,3.166c-1.525,0.709 -3.283,1.063 -5.275,1.063c-1.987,-0 -3.758,-0.354 -5.308,-1.063c-1.538,-0.708 -2.746,-1.762 -3.625,-3.166c-0.867,-1.404 -1.3,-3.134 -1.3,-5.184l-0,-17.612l5.491,0l0,17.612c0,1.196 0.188,2.175 0.567,2.93c0.379,0.758 0.925,1.312 1.629,1.666c0.721,0.354 1.571,0.534 2.546,0.534c1.004,-0 1.85,-0.18 2.546,-0.534c0.708,-0.354 1.246,-0.908 1.612,-1.666c0.38,-0.755 0.567,-1.734 0.567,-2.93l0,-17.612Zm27.888,22.375l-0,4.283l-14.192,0l-0,-4.283l14.192,0Zm-12.396,-22.375l-0,26.658l-5.496,0l-0,-26.658l5.496,0Zm10.546,10.858l-0,4.171l-12.342,0l-0,-4.171l12.342,0Zm1.833,-10.858l-0,4.3l-14.175,-0l-0,-4.3l14.175,0Zm17.1,19.683c-0,-0.479 -0.075,-0.904 -0.221,-1.283c-0.133,-0.392 -0.387,-0.746 -0.767,-1.063c-0.379,-0.329 -0.912,-0.654 -1.595,-0.97c-0.684,-0.317 -1.567,-0.646 -2.655,-0.988c-1.208,-0.392 -2.354,-0.829 -3.441,-1.316c-1.075,-0.492 -2.025,-1.059 -2.859,-1.705c-0.816,-0.658 -1.462,-1.421 -1.937,-2.287c-0.467,-0.867 -0.696,-1.875 -0.696,-3.025c0,-1.109 0.242,-2.117 0.729,-3.021c0.492,-0.913 1.175,-1.696 2.054,-2.342c0.88,-0.658 1.917,-1.166 3.113,-1.521c1.208,-0.354 2.533,-0.529 3.971,-0.529c1.966,0 3.683,0.354 5.146,1.063c1.466,0.704 2.6,1.675 3.408,2.908c0.817,1.233 1.225,2.646 1.225,4.229l-5.458,0c-0,-0.779 -0.163,-1.462 -0.492,-2.05c-0.317,-0.596 -0.808,-1.066 -1.467,-1.408c-0.646,-0.342 -1.462,-0.513 -2.454,-0.513c-0.95,0 -1.746,0.146 -2.379,0.438c-0.633,0.283 -1.113,0.667 -1.429,1.154c-0.317,0.475 -0.475,1.013 -0.475,1.613c-0,0.45 0.108,0.858 0.329,1.225c0.233,0.366 0.575,0.708 1.025,1.025c0.454,0.32 1.008,0.616 1.667,0.9c0.658,0.279 1.42,0.554 2.287,0.82c1.454,0.442 2.729,0.938 3.829,1.484c1.109,0.55 2.038,1.166 2.784,1.85c0.745,0.683 1.304,1.458 1.683,2.325c0.379,0.866 0.567,1.85 0.567,2.95c-0,1.158 -0.225,2.196 -0.675,3.112c-0.455,0.917 -1.105,1.692 -1.959,2.325c-0.858,0.634 -1.875,1.117 -3.058,1.446c-1.183,0.329 -2.508,0.496 -3.975,0.496c-1.317,0 -2.617,-0.171 -3.9,-0.513c-1.283,-0.354 -2.446,-0.887 -3.496,-1.591c-1.037,-0.708 -1.871,-1.613 -2.492,-2.713c-0.62,-1.1 -0.933,-2.4 -0.933,-3.9l5.513,0c-0,0.829 0.125,1.534 0.383,2.105c0.254,0.574 0.616,1.037 1.079,1.391c0.475,0.354 1.038,0.613 1.688,0.771c0.658,0.158 1.379,0.238 2.158,0.238c0.954,-0 1.733,-0.134 2.346,-0.405c0.62,-0.266 1.079,-0.637 1.37,-1.116c0.305,-0.475 0.459,-1.013 0.459,-1.609Zm21.15,-19.683l-0,26.658l-5.475,0l-0,-26.658l5.475,0Zm8.2,0l-0,4.3l-21.75,-0l-0,-4.3l21.75,0Z" style="fill:#343536;fill-rule:nonzero;"/><path d="M920.833,645.833c0,-4.599 -3.734,-8.333 -8.333,-8.333l-212.5,0c-4.599,0 -8.333,3.734 -8.333,8.333l-0,25c-0,4.6 3.734,8.334 8.333,8.334l212.5,-0c4.599,-0 8.333,-3.734 8.333,-8.334l0,-25Z" style="fill:#fff;"/><path d="M710.308,644.175l0,26.658l-5.475,0l0,-26.658l5.475,0Zm19.025,19.683c0,-0.479 -0.075,-0.904 -0.22,-1.283c-0.134,-0.392 -0.392,-0.746 -0.771,-1.063c-0.379,-0.329 -0.909,-0.654 -1.592,-0.97c-0.683,-0.317 -1.571,-0.646 -2.654,-0.988c-1.208,-0.391 -2.358,-0.829 -3.442,-1.316c-1.075,-0.492 -2.029,-1.059 -2.858,-1.705c-0.817,-0.658 -1.467,-1.42 -1.942,-2.287c-0.462,-0.867 -0.696,-1.875 -0.696,-3.025c0,-1.108 0.246,-2.117 0.734,-3.021c0.487,-0.912 1.17,-1.696 2.05,-2.342c0.879,-0.658 1.916,-1.166 3.112,-1.52c1.209,-0.355 2.534,-0.53 3.975,-0.53c1.967,0 3.679,0.355 5.146,1.063c1.463,0.704 2.6,1.675 3.404,2.908c0.817,1.234 1.229,2.646 1.229,4.229l-5.458,0c0,-0.779 -0.167,-1.462 -0.496,-2.05c-0.317,-0.596 -0.804,-1.066 -1.462,-1.408c-0.65,-0.342 -1.467,-0.513 -2.454,-0.513c-0.955,0 -1.746,0.146 -2.38,0.438c-0.637,0.283 -1.112,0.667 -1.429,1.154c-0.317,0.475 -0.475,1.013 -0.475,1.613c0,0.45 0.108,0.858 0.329,1.225c0.23,0.366 0.571,0.708 1.025,1.025c0.45,0.32 1.005,0.616 1.667,0.9c0.658,0.279 1.421,0.554 2.287,0.821c1.455,0.441 2.73,0.937 3.825,1.483c1.113,0.55 2.042,1.167 2.784,1.85c0.746,0.683 1.308,1.458 1.687,2.325c0.375,0.866 0.567,1.85 0.567,2.95c-0,1.158 -0.225,2.196 -0.679,3.112c-0.45,0.917 -1.104,1.692 -1.959,2.325c-0.854,0.634 -1.875,1.117 -3.058,1.446c-1.183,0.329 -2.508,0.496 -3.971,0.496c-1.321,-0 -2.621,-0.171 -3.9,-0.513c-1.283,-0.354 -2.45,-0.887 -3.5,-1.591c-1.037,-0.709 -1.866,-1.613 -2.487,-2.713c-0.625,-1.1 -0.938,-2.4 -0.938,-3.9l5.513,0c-0,0.829 0.129,1.534 0.383,2.104c0.258,0.575 0.617,1.038 1.083,1.392c0.475,0.354 1.038,0.613 1.684,0.771c0.658,0.158 1.379,0.237 2.162,0.237c0.95,0 1.734,-0.133 2.342,-0.404c0.625,-0.266 1.079,-0.637 1.375,-1.116c0.304,-0.475 0.458,-1.013 0.458,-1.609Zm23.104,0c0,-0.479 -0.07,-0.904 -0.216,-1.283c-0.138,-0.392 -0.392,-0.746 -0.771,-1.063c-0.379,-0.329 -0.908,-0.654 -1.592,-0.97c-0.683,-0.317 -1.571,-0.646 -2.654,-0.988c-1.208,-0.391 -2.358,-0.829 -3.446,-1.317c-1.071,-0.491 -2.025,-1.058 -2.854,-1.704c-0.817,-0.658 -1.467,-1.421 -1.942,-2.287c-0.462,-0.867 -0.695,-1.875 -0.695,-3.025c-0,-1.109 0.245,-2.117 0.733,-3.021c0.487,-0.913 1.171,-1.696 2.05,-2.342c0.879,-0.658 1.917,-1.166 3.112,-1.521c1.209,-0.354 2.534,-0.529 3.975,-0.529c1.963,0 3.68,0.354 5.146,1.063c1.463,0.704 2.6,1.675 3.404,2.908c0.817,1.233 1.225,2.646 1.225,4.229l-5.454,0c0,-0.779 -0.166,-1.462 -0.496,-2.05c-0.316,-0.596 -0.804,-1.066 -1.462,-1.408c-0.65,-0.342 -1.467,-0.513 -2.454,-0.513c-0.954,0 -1.746,0.146 -2.384,0.438c-0.633,0.283 -1.108,0.667 -1.425,1.154c-0.316,0.475 -0.479,1.013 -0.479,1.613c0,0.45 0.113,0.858 0.334,1.225c0.229,0.366 0.57,0.708 1.025,1.025c0.45,0.32 1.004,0.616 1.666,0.9c0.659,0.279 1.421,0.554 2.288,0.82c1.45,0.442 2.729,0.938 3.825,1.484c1.112,0.55 2.041,1.166 2.783,1.85c0.746,0.683 1.308,1.458 1.688,2.325c0.375,0.866 0.566,1.85 0.566,2.95c0,1.158 -0.225,2.196 -0.679,3.112c-0.45,0.917 -1.104,1.692 -1.958,2.325c-0.854,0.634 -1.875,1.117 -3.059,1.446c-1.183,0.329 -2.508,0.496 -3.975,0.496c-1.316,-0 -2.616,-0.171 -3.9,-0.513c-1.279,-0.354 -2.445,-0.887 -3.495,-1.591c-1.038,-0.709 -1.867,-1.613 -2.492,-2.713c-0.621,-1.1 -0.933,-2.4 -0.933,-3.9l5.512,0c0,0.829 0.129,1.534 0.383,2.104c0.259,0.575 0.617,1.038 1.084,1.392c0.475,0.354 1.037,0.613 1.683,0.771c0.658,0.158 1.379,0.237 2.158,0.237c0.955,0 1.738,-0.133 2.346,-0.404c0.621,-0.266 1.079,-0.637 1.375,-1.116c0.304,-0.475 0.454,-1.013 0.454,-1.609Zm23.95,-19.683l5.475,-0l0,17.612c0,2.05 -0.437,3.78 -1.316,5.184c-0.867,1.404 -2.071,2.458 -3.609,3.166c-1.525,0.709 -3.283,1.063 -5.27,1.063c-1.992,-0 -3.763,-0.354 -5.313,-1.063c-1.537,-0.708 -2.746,-1.762 -3.625,-3.166c-0.867,-1.404 -1.3,-3.134 -1.3,-5.184l0,-17.612l5.496,-0l-0,17.612c-0,1.196 0.187,2.175 0.567,2.93c0.379,0.758 0.92,1.312 1.629,1.666c0.721,0.354 1.566,0.534 2.546,0.534c1,-0 1.85,-0.18 2.545,-0.534c0.705,-0.354 1.242,-0.908 1.609,-1.666c0.379,-0.755 0.566,-1.734 0.566,-2.93l0,-17.612Zm27.888,22.375l-0,4.283l-14.188,0l0,-4.283l14.188,-0Zm-12.396,-22.375l0,26.658l-5.492,0l0,-26.658l5.492,-0Zm10.55,10.858l0,4.171l-12.342,0l0,-4.171l12.342,0Zm1.829,-10.858l0,4.3l-14.171,-0l0,-4.3l14.171,-0Zm28.017,17.812l5.475,0c-0.113,1.796 -0.604,3.388 -1.483,4.78c-0.867,1.391 -2.084,2.479 -3.646,3.262c-1.55,0.779 -3.417,1.171 -5.604,1.171c-1.709,-0 -3.238,-0.292 -4.596,-0.879c-1.354,-0.6 -2.513,-1.454 -3.479,-2.563c-0.95,-1.112 -1.675,-2.454 -2.18,-4.029c-0.5,-1.575 -0.75,-3.337 -0.75,-5.292l0,-1.85c0,-1.954 0.259,-3.716 0.771,-5.291c0.525,-1.588 1.271,-2.938 2.234,-4.046c0.975,-1.113 2.141,-1.967 3.495,-2.563c1.359,-0.6 2.871,-0.9 4.542,-0.9c2.221,0 4.096,0.405 5.621,1.209c1.537,0.808 2.729,1.916 3.571,3.333c0.854,1.417 1.366,3.029 1.537,4.833l-5.491,0c-0.063,-1.075 -0.275,-1.983 -0.642,-2.729c-0.367,-0.754 -0.921,-1.321 -1.667,-1.7c-0.729,-0.391 -1.708,-0.587 -2.929,-0.587c-0.917,-0 -1.712,0.171 -2.4,0.512c-0.683,0.342 -1.254,0.863 -1.721,1.559c-0.462,0.695 -0.808,1.575 -1.041,2.637c-0.221,1.05 -0.33,2.279 -0.33,3.696l0,1.888c0,1.379 0.105,2.591 0.313,3.641c0.204,1.038 0.521,1.917 0.95,2.638c0.437,0.708 1,1.245 1.683,1.612c0.696,0.354 1.534,0.529 2.509,0.529c1.15,0 2.095,-0.183 2.841,-0.546c0.742,-0.366 1.309,-0.912 1.7,-1.633c0.404,-0.716 0.642,-1.616 0.717,-2.691Zm26.971,4.562l-0,4.283l-14.192,0l0,-4.283l14.192,0Zm-12.396,-22.375l-0,26.658l-5.496,0l0,-26.658l5.496,0Zm10.546,10.858l-0,4.171l-12.342,0l0,-4.171l12.342,0Zm1.829,-10.858l-0,4.3l-14.171,0l0,-4.3l14.171,0Zm3.225,0l9.942,0c2.037,0 3.791,0.304 5.254,0.913c1.479,0.612 2.612,1.516 3.408,2.712c0.792,1.196 1.188,2.667 1.188,4.413c-0,1.429 -0.242,2.654 -0.734,3.679c-0.475,1.012 -1.15,1.862 -2.029,2.546c-0.867,0.67 -1.887,1.208 -3.058,1.612l-1.742,0.913l-8.642,-0l-0.037,-4.284l6.429,0c0.963,0 1.763,-0.171 2.396,-0.512c0.637,-0.342 1.112,-0.817 1.429,-1.429c0.329,-0.609 0.496,-1.317 0.496,-2.125c-0,-0.855 -0.158,-1.592 -0.475,-2.213c-0.321,-0.625 -0.8,-1.1 -1.45,-1.429c-0.646,-0.329 -1.458,-0.496 -2.433,-0.496l-4.45,-0l-0,22.358l-5.492,0l-0,-26.658Zm14.904,26.658l-6.079,-11.883l5.804,-0.037l6.154,11.662l0,0.258l-5.879,0Zm19.942,-26.658l-0,26.658l-5.475,0l-0,-26.658l5.475,0Zm8.2,0l-0,4.3l-21.75,0l-0,-4.3l21.75,0Z" style="fill:#343536;fill-rule:nonzero;"/><path d="M970.833,379.167l-41.666,-24.057l-0,48.113l41.666,-24.056Zm-287.5,4.166l250,0l0,-8.333l-250,0l0,8.333Z" style="fill:#bfbfc0;fill-rule:nonzero;"/><path d="M1345.83,570.833c0,-4.599 -3.734,-8.333 -8.333,-8.333l-229.167,0c-4.599,0 -8.333,3.734 -8.333,8.333l0,25c0,4.6 3.734,8.334 8.333,8.334l229.167,-0c4.599,-0 8.333,-3.734 8.333,-8.334l0,-25Z" style="fill:#fff;"/><path d="M1118.35,573.733l-7.25,22.1l-5.842,0l9.904,-26.658l3.717,0l-0.529,4.558Zm6.025,22.1l-7.271,-22.1l-0.587,-4.558l3.754,0l9.962,26.658l-5.858,0Zm-0.329,-9.925l-0,4.304l-14.084,0l0,-4.304l14.084,0Zm22.537,2.95c0,-0.479 -0.071,-0.904 -0.221,-1.283c-0.133,-0.392 -0.387,-0.746 -0.766,-1.063c-0.38,-0.329 -0.909,-0.654 -1.592,-0.97c-0.683,-0.317 -1.571,-0.646 -2.658,-0.988c-1.209,-0.391 -2.354,-0.829 -3.442,-1.317c-1.075,-0.491 -2.025,-1.058 -2.854,-1.704c-0.821,-0.658 -1.467,-1.421 -1.942,-2.287c-0.466,-0.867 -0.696,-1.875 -0.696,-3.025c0,-1.109 0.242,-2.117 0.734,-3.021c0.487,-0.913 1.171,-1.696 2.05,-2.342c0.879,-0.658 1.916,-1.166 3.112,-1.521c1.208,-0.354 2.534,-0.529 3.971,-0.529c1.967,0 3.683,0.354 5.146,1.063c1.466,0.704 2.6,1.675 3.408,2.908c0.817,1.233 1.225,2.646 1.225,4.229l-5.454,0c0,-0.779 -0.167,-1.462 -0.496,-2.05c-0.316,-0.596 -0.804,-1.066 -1.466,-1.408c-0.646,-0.342 -1.463,-0.513 -2.45,-0.513c-0.955,0 -1.746,0.146 -2.384,0.438c-0.633,0.283 -1.108,0.667 -1.429,1.154c-0.317,0.475 -0.475,1.013 -0.475,1.613c0,0.45 0.113,0.858 0.329,1.225c0.234,0.366 0.575,0.708 1.025,1.025c0.454,0.32 1.009,0.616 1.667,0.9c0.658,0.279 1.425,0.554 2.292,0.82c1.45,0.442 2.725,0.938 3.825,1.484c1.112,0.55 2.037,1.166 2.783,1.85c0.746,0.683 1.308,1.458 1.683,2.325c0.379,0.866 0.571,1.85 0.571,2.95c0,1.158 -0.229,2.196 -0.679,3.112c-0.45,0.917 -1.104,1.692 -1.958,2.325c-0.855,0.634 -1.875,1.117 -3.059,1.446c-1.183,0.329 -2.508,0.496 -3.975,0.496c-1.316,-0 -2.616,-0.171 -3.9,-0.513c-1.279,-0.354 -2.446,-0.887 -3.496,-1.591c-1.037,-0.709 -1.866,-1.613 -2.491,-2.713c-0.621,-1.1 -0.934,-2.4 -0.934,-3.9l5.513,0c-0,0.829 0.129,1.534 0.383,2.104c0.259,0.575 0.617,1.038 1.079,1.392c0.48,0.354 1.038,0.613 1.688,0.771c0.658,0.158 1.379,0.237 2.158,0.237c0.954,0 1.734,-0.133 2.346,-0.404c0.621,-0.266 1.079,-0.637 1.371,-1.116c0.308,-0.475 0.458,-1.013 0.458,-1.609Zm23.109,0c-0,-0.479 -0.071,-0.904 -0.221,-1.283c-0.134,-0.392 -0.388,-0.746 -0.767,-1.063c-0.379,-0.329 -0.908,-0.654 -1.596,-0.97c-0.683,-0.317 -1.566,-0.646 -2.654,-0.988c-1.208,-0.392 -2.354,-0.829 -3.442,-1.317c-1.075,-0.491 -2.025,-1.058 -2.854,-1.704c-0.821,-0.658 -1.466,-1.421 -1.941,-2.287c-0.467,-0.867 -0.696,-1.875 -0.696,-3.025c-0,-1.109 0.241,-2.117 0.733,-3.021c0.488,-0.913 1.171,-1.696 2.05,-2.342c0.879,-0.658 1.917,-1.166 3.113,-1.521c1.208,-0.354 2.533,-0.529 3.97,-0.529c1.967,0 3.684,0.354 5.146,1.063c1.467,0.704 2.6,1.675 3.409,2.908c0.816,1.233 1.225,2.646 1.225,4.229l-5.459,0c0,-0.779 -0.162,-1.462 -0.491,-2.05c-0.317,-0.596 -0.809,-1.066 -1.467,-1.408c-0.646,-0.342 -1.463,-0.513 -2.454,-0.513c-0.95,0 -1.746,0.146 -2.379,0.438c-0.634,0.283 -1.109,0.667 -1.43,1.154c-0.316,0.475 -0.475,1.013 -0.475,1.613c0,0.45 0.109,0.858 0.33,1.225c0.233,0.366 0.575,0.708 1.025,1.025c0.454,0.32 1.008,0.616 1.666,0.9c0.659,0.279 1.421,0.554 2.292,0.82c1.45,0.442 2.725,0.938 3.825,1.484c1.112,0.55 2.037,1.166 2.783,1.85c0.746,0.683 1.304,1.458 1.684,2.325c0.379,0.866 0.566,1.85 0.566,2.95c0,1.158 -0.225,2.196 -0.675,3.112c-0.454,0.917 -1.104,1.692 -1.958,2.325c-0.854,0.634 -1.875,1.117 -3.058,1.446c-1.184,0.329 -2.509,0.496 -3.975,0.496c-1.317,-0 -2.617,-0.171 -3.9,-0.513c-1.284,-0.354 -2.446,-0.887 -3.496,-1.591c-1.038,-0.709 -1.867,-1.613 -2.492,-2.713c-0.621,-1.1 -0.933,-2.4 -0.933,-3.9l5.512,0c0,0.829 0.125,1.534 0.384,2.104c0.258,0.575 0.616,1.038 1.079,1.392c0.479,0.354 1.037,0.613 1.687,0.771c0.659,0.158 1.379,0.237 2.159,0.237c0.954,0 1.733,-0.133 2.345,-0.404c0.621,-0.266 1.08,-0.637 1.371,-1.116c0.304,-0.475 0.459,-1.013 0.459,-1.609Zm15.07,-19.683l0,26.658l-5.475,0l0,-26.658l5.475,-0Zm26.275,12.725l0,10.562c-0.416,0.505 -1.054,1.046 -1.92,1.634c-0.867,0.571 -1.988,1.066 -3.355,1.479c-1.366,0.417 -3.02,0.625 -4.962,0.625c-1.721,-0 -3.288,-0.279 -4.704,-0.842c-1.417,-0.575 -2.638,-1.412 -3.663,-2.508c-1.012,-1.1 -1.796,-2.442 -2.341,-4.029c-0.55,-1.6 -0.825,-3.425 -0.825,-5.475l-0,-1.667c-0,-2.05 0.262,-3.875 0.787,-5.475c0.538,-1.6 1.3,-2.946 2.288,-4.046c0.987,-1.1 2.166,-1.933 3.533,-2.508c1.367,-0.575 2.887,-0.863 4.562,-0.863c2.317,0 4.221,0.38 5.713,1.138c1.487,0.742 2.621,1.779 3.404,3.112c0.792,1.317 1.283,2.83 1.467,4.542l-5.329,0c-0.134,-0.904 -0.392,-1.692 -0.771,-2.362c-0.379,-0.671 -0.921,-1.196 -1.629,-1.575c-0.696,-0.38 -1.6,-0.567 -2.709,-0.567c-0.916,-0 -1.733,0.187 -2.454,0.567c-0.708,0.366 -1.308,0.908 -1.796,1.629c-0.487,0.721 -0.858,1.612 -1.116,2.675c-0.255,1.058 -0.384,2.291 -0.384,3.696l0,1.704c0,1.391 0.134,2.625 0.4,3.7c0.271,1.062 0.667,1.958 1.192,2.691c0.537,0.717 1.196,1.263 1.979,1.63c0.779,0.366 1.688,0.55 2.729,0.55c0.867,-0 1.584,-0.075 2.159,-0.221c0.587,-0.146 1.054,-0.325 1.408,-0.534c0.367,-0.216 0.65,-0.425 0.846,-0.62l-0,-4.725l-5.021,-0l-0,-3.917l10.512,-0Zm26.13,-12.725l-0,26.658l-5.492,0l-10.713,-17.871l0,17.871l-5.495,0l-0,-26.658l5.495,-0l10.73,17.887l-0,-17.887l5.475,-0Zm29.57,17.812l5.475,0c-0.108,1.796 -0.604,3.388 -1.483,4.78c-0.867,1.391 -2.079,2.479 -3.642,3.262c-1.55,0.779 -3.42,1.171 -5.604,1.171c-1.708,-0 -3.241,-0.292 -4.596,-0.879c-1.354,-0.6 -2.516,-1.454 -3.479,-2.563c-0.954,-1.112 -1.679,-2.454 -2.179,-4.029c-0.5,-1.575 -0.75,-3.337 -0.75,-5.292l0,-1.85c0,-1.954 0.254,-3.716 0.767,-5.291c0.525,-1.588 1.271,-2.938 2.233,-4.046c0.979,-1.113 2.146,-1.967 3.5,-2.563c1.354,-0.6 2.867,-0.9 4.542,-0.9c2.221,0 4.096,0.405 5.621,1.209c1.537,0.808 2.729,1.916 3.57,3.333c0.855,1.417 1.367,3.029 1.538,4.833l-5.492,0c-0.062,-1.075 -0.275,-1.983 -0.641,-2.729c-0.367,-0.754 -0.921,-1.321 -1.667,-1.7c-0.733,-0.391 -1.708,-0.587 -2.929,-0.587c-0.917,-0 -1.717,0.171 -2.4,0.512c-0.684,0.342 -1.259,0.863 -1.721,1.559c-0.463,0.695 -0.813,1.575 -1.046,2.637c-0.217,1.05 -0.329,2.279 -0.329,3.696l-0,1.887c-0,1.38 0.104,2.592 0.312,3.642c0.209,1.038 0.525,1.917 0.955,2.638c0.437,0.708 1,1.245 1.683,1.612c0.696,0.354 1.533,0.529 2.508,0.529c1.146,0 2.092,-0.183 2.838,-0.546c0.746,-0.366 1.312,-0.912 1.704,-1.633c0.4,-0.716 0.642,-1.617 0.712,-2.692Zm26.971,4.563l0,4.283l-14.191,0l-0,-4.283l14.191,0Zm-12.396,-22.375l0,26.658l-5.491,0l-0,-26.658l5.491,0Zm10.546,10.858l0,4.171l-12.341,0l-0,-4.171l12.341,0Zm1.834,-10.858l-0,4.3l-14.175,0l-0,-4.3l14.175,0Zm3.22,0l9.946,0c2.038,0 3.788,0.304 5.254,0.912c1.475,0.613 2.613,1.517 3.405,2.713c0.795,1.196 1.191,2.667 1.191,4.413c0,1.429 -0.246,2.654 -0.733,3.679c-0.475,1.012 -1.154,1.862 -2.033,2.546c-0.867,0.67 -1.884,1.208 -3.059,1.612l-1.737,0.913l-8.642,-0l-0.037,-4.284l6.425,0c0.966,0 1.766,-0.171 2.4,-0.512c0.633,-0.342 1.112,-0.817 1.429,-1.43c0.329,-0.608 0.491,-1.316 0.491,-2.125c0,-0.854 -0.158,-1.591 -0.475,-2.212c-0.316,-0.625 -0.8,-1.1 -1.445,-1.429c-0.646,-0.329 -1.459,-0.496 -2.434,-0.496l-4.45,-0l0,22.358l-5.496,0l0,-26.658Zm14.905,26.658l-6.08,-11.883l5.809,-0.038l6.15,11.663l-0,0.258l-5.879,0Zm19.941,-26.658l0,26.658l-5.475,0l0,-26.658l5.475,-0Zm8.204,-0l0,4.3l-21.754,-0l0,-4.3l21.754,-0Z" style="fill:#343536;fill-rule:nonzero;"/><path d="M1708.33,716.667c0,-4.6 -3.734,-8.334 -8.333,-8.334l-87.5,0c-4.599,0 -8.333,3.734 -8.333,8.334l-0,25c-0,4.599 3.734,8.333 8.333,8.333l87.5,0c4.599,0 8.333,-3.734 8.333,-8.333l0,-25Z" style="fill:#fff;"/><path d="M1625.25,715.008l0,26.659l-5.475,-0l0,-26.659l5.475,0Zm8.204,0l0,4.3l-21.754,0l0,-4.3l21.754,0Zm11.992,4.559l-7.25,22.1l-5.842,-0l9.909,-26.659l3.716,0l-0.533,4.559Zm6.025,22.1l-7.271,-22.1l-0.583,-4.559l3.754,0l9.958,26.659l-5.858,-0Zm-0.329,-9.925l-0,4.304l-14.08,-0l0,-4.304l14.08,-0Zm25.8,5.641l-0,4.284l-13.421,-0l-0,-4.284l13.421,0Zm-11.646,-22.375l-0,26.659l-5.492,-0l0,-26.659l5.492,0Zm20.287,0l0,26.659l-5.491,-0l-0,-26.659l5.491,0Zm15.967,0l-10.567,13.163l-6.096,6.554l-0.987,-5.2l4.121,-5.637l6.791,-8.88l6.738,0Zm-6.242,26.659l-7.858,-12.325l4.067,-3.404l10.291,15.729l-6.5,-0Z" style="fill:#343536;fill-rule:nonzero;"/><path d="M975,625l-41.667,-24.058l0,48.116l41.667,-24.058Zm-287.5,4.167l250,-0l0,-8.334l-250,0l0,8.334Z" style="fill:#bfbfc0;fill-rule:nonzero;"/><path d="M1808.33,766.667l-41.666,-24.059l-0,48.117l41.666,-24.058Zm-287.5,4.166l250,0l0,-8.333l-250,-0l0,8.333Z" style="fill:#bfbfc0;fill-rule:nonzero;"/><path d="M1520.83,691.667l41.667,24.058l0,-48.117l-41.667,24.059Zm37.5,4.166l250,0l0,-8.333l-250,-0l0,8.333Z" style="fill:#bfbfc0;fill-rule:nonzero;"/><path d="M1820.83,625l-41.666,-24.058l-0,48.116l41.666,-24.058Zm-720.833,4.167l683.333,-0l0,-8.334l-683.333,0l0,8.334Z" style="fill:#bfbfc0;fill-rule:nonzero;"/><path d="M687.5,541.667l41.667,24.058l-0,-48.117l-41.667,24.059Zm30.804,4.166l20.534,0l-0,-8.333l-20.534,-0l0,8.333Zm41.071,0l20.538,0l-0,-8.333l-20.538,-0l0,8.333Zm41.071,0l20.537,0l0,-8.333l-20.537,-0l-0,8.333Zm41.071,0l20.537,0l0,-8.333l-20.537,-0l-0,8.333Zm41.071,0l20.537,0l0,-8.333l-20.538,-0l0,8.333Zm41.075,0l20.534,0l-0,-8.333l-20.534,-0l0,8.333Zm41.071,0l10.267,0l-0,-8.333l-10.267,-0l0,8.333Z" style="fill:#bfbfc0;fill-rule:nonzero;"/><path d="M1387.5,541.667l-41.667,-24.059l0,48.117l41.667,-24.058Zm-287.5,4.166l250,0l0,-8.333l-250,-0l0,8.333Z" style="fill:#bfbfc0;fill-rule:nonzero;"/><path d="M1087.5,500l45.7,15.042l-9.821,-47.1l-35.879,32.058Zm-0,-122.917l-0.121,4.165c0.004,0 0.013,0.001 0.029,0.001c0.025,0.001 0.067,0.003 0.125,0.005c0.121,0.005 0.304,0.014 0.55,0.028c0.496,0.027 1.234,0.076 2.188,0.16c1.9,0.166 4.641,0.471 7.937,1.021c6.613,1.102 15.367,3.172 24.063,7.024c8.704,3.853 17.183,9.417 23.479,17.418c6.242,7.938 10.5,18.483 10.5,32.678l8.333,0c0,-16.012 -4.854,-28.385 -12.283,-37.829c-7.379,-9.382 -17.129,-15.667 -26.654,-19.886c-9.534,-4.222 -19.009,-6.449 -26.067,-7.625c-3.542,-0.59 -6.496,-0.92 -8.583,-1.103c-1.042,-0.091 -1.867,-0.146 -2.442,-0.179c-0.287,-0.016 -0.512,-0.026 -0.671,-0.033c-0.079,-0.003 -0.141,-0.005 -0.183,-0.007l-0.071,-0.002c-0.004,-0 -0.004,-0.001 -0.004,-0.001c-0.004,0 -0.004,0 -0.125,4.165Zm68.75,62.5c-0,14.13 -4.217,24.496 -10.388,32.209c-6.22,7.779 -14.612,13.091 -23.262,16.708l3.217,7.687c9.5,-3.97 19.208,-10.004 26.554,-19.191c7.4,-9.25 12.212,-21.471 12.212,-37.413l-8.333,0Z" style="fill:#bfbfc0;fill-rule:nonzero;"/><defs><linearGradient id="_Linear1" x1="0" y1="0" x2="1" y2="0" gradientUnits="userSpaceOnUse" gradientTransform="matrix(1.13918e-14,186.042,-186.042,1.13918e-14,208.333,609.792)"><stop offset="0" style="stop-color:#bfbfc0;stop-opacity:1"/><stop offset="1" style="stop-color:#bfbfc0;stop-opacity:0"/></linearGradient><linearGradient id="_Linear2" x1="0" y1="0" x2="1" y2="0" gradientUnits="userSpaceOnUse" gradientTransform="matrix(1.13918e-14,186.042,-186.042,1.13918e-14,625,609.792)"><stop offset="0" style="stop-color:#bfbfc0;stop-opacity:1"/><stop offset="1" style="stop-color:#bfbfc0;stop-opacity:0"/></linearGradient><linearGradient id="_Linear3" x1="0" y1="0" x2="1" y2="0" gradientUnits="userSpaceOnUse" gradientTransform="matrix(1.13918e-14,186.042,-186.042,1.13918e-14,1041.67,609.792)"><stop offset="0" style="stop-color:#bfbfc0;stop-opacity:1"/><stop offset="1" style="stop-color:#bfbfc0;stop-opacity:0"/></linearGradient><linearGradient id="_Linear4" x1="0" y1="0" x2="1" y2="0" gradientUnits="userSpaceOnUse" gradientTransform="matrix(1.13918e-14,186.042,-186.042,1.13918e-14,1458.33,609.792)"><stop offset="0" style="stop-color:#bfbfc0;stop-opacity:1"/><stop offset="1" style="stop-color:#bfbfc0;stop-opacity:0"/></linearGradient><linearGradient id="_Linear5" x1="0" y1="0" x2="1" y2="0" gradientUnits="userSpaceOnUse" gradientTransform="matrix(1.13918e-14,186.042,-186.042,1.13918e-14,1875,609.792)"><stop offset="0" style="stop-color:#bfbfc0;stop-opacity:1"/><stop offset="1" style="stop-color:#bfbfc0;stop-opacity:0"/></linearGradient></defs></svg>