<?xml version="1.0" encoding="UTF-8" standalone="no"?><!DOCTYPE svg PUBLIC "-//W3C//DTD SVG 1.1//EN" "http://www.w3.org/Graphics/SVG/1.1/DTD/svg11.dtd"><svg width="100%" height="100%" viewBox="0 0 4167 4167" version="1.1" xmlns="http://www.w3.org/2000/svg" xmlns:xlink="http://www.w3.org/1999/xlink" xml:space="preserve" xmlns:serif="http://www.serif.com/" style="fill-rule:evenodd;clip-rule:evenodd;stroke-linejoin:round;stroke-miterlimit:2;"><path d="M0,0l2073.94,4163.34l2089.41,-4163.34l-4163.34,0Zm2318.69,837.302l241.531,0l-0,239.594l-241.532,-0l0.001,-239.594Zm-480.48,966.125l-238.958,0l0,-243.469l240.885,0l-1.927,243.469Zm0,-361.969l-238.958,0l0,-243.468l240.885,-0l-1.927,243.468Zm0,-361.979l-238.958,0l0,-243.458l240.885,-0l-1.927,243.458Zm361.969,1086.57l-238.958,0l-0,-244.114l240.885,-0l-1.927,244.114Zm0,-362.625l-238.958,0l-0,-243.469l240.885,0l-1.927,243.469Zm0,-361.969l-238.958,0l-0,-243.468l240.885,-0l-1.927,243.468Zm0,-361.979l-238.958,0l-0,-243.458l240.885,-0l-1.927,243.458Zm118.51,118.511l241.532,-0l-0,240.885l-241.532,0l0,-240.885Zm0,602.864l0,-240.896l240.886,0l-0,240.896l-240.886,0Z" style="fill-rule:nonzero;"/></svg>