<?xml version="1.0" encoding="UTF-8" standalone="no"?><!DOCTYPE svg PUBLIC "-//W3C//DTD SVG 1.1//EN" "http://www.w3.org/Graphics/SVG/1.1/DTD/svg11.dtd"><svg width="100%" height="100%" viewBox="0 0 10417 10417" version="1.1" xmlns="http://www.w3.org/2000/svg" xmlns:xlink="http://www.w3.org/1999/xlink" xml:space="preserve" xmlns:serif="http://www.serif.com/" style="fill-rule:evenodd;clip-rule:evenodd;stroke-linejoin:round;stroke-miterlimit:2;"><g id="ca_root"><g id="Rectangle"><path id="path-1" d="M597.996,347.221l4012.34,-0c138.5,-0 250.775,111.042 250.775,248.017l-0,2728.18l-4513.88,-0.001l-0,-2728.18c-0,-136.975 112.275,-248.016 250.775,-248.016l-0.017,-0Z" style="fill:#fff;stroke:#979797;stroke-width:20.83px;"/><path id="path-11" serif:id="path-1" d="M597.996,347.221l4012.34,-0c138.5,-0 250.775,111.042 250.775,248.017l-0,2728.18l-4513.88,-0.001l-0,-2728.18c-0,-136.975 112.275,-248.016 250.775,-248.016l-0.017,-0Z" style="fill:#fff;stroke:#979797;stroke-width:20.83px;"/><path id="path-12" serif:id="path-1" d="M597.996,347.221l4012.34,-0c138.5,-0 250.775,111.042 250.775,248.017l-0,2728.18l-4513.88,-0.001l-0,-2728.18c-0,-136.975 112.275,-248.016 250.775,-248.016l-0.017,-0Z" style="fill:#fff;stroke:#979797;stroke-width:20.83px;"/><path d="M4610.33,353.421c67.521,-0 128.646,27.067 172.892,70.829c44.246,43.758 71.612,104.212 71.612,170.988l0,2721.97l-4501.33,-0l0,-2721.97c0,-66.775 27.367,-127.23 71.613,-170.988c44.245,-43.762 105.37,-70.829 172.891,-70.829l4012.34,-0l-0.017,-0Z" style="fill:#fff;stroke:#979797;stroke-width:20.83px;stroke-linejoin:miter;stroke-miterlimit:4;"/></g><g id="Rectangle1" serif:id="Rectangle"><path id="path-4" d="M748.458,496.033l3711.42,0c138.5,0 250.775,111.038 250.775,248.013l0,2430.56l-4212.96,0l-0,-2430.56c-0,-136.975 112.275,-248.013 250.775,-248.013l-0.009,0Z" style="fill:#fff;stroke:#979797;stroke-width:16.67px;"/><path id="path-41" serif:id="path-4" d="M748.458,496.033l3711.42,0c138.5,0 250.775,111.038 250.775,248.013l0,2430.56l-4212.96,0l-0,-2430.56c-0,-136.975 112.275,-248.013 250.775,-248.013l-0.009,0Z" style="fill:#fff;stroke:#979797;stroke-width:16.67px;"/><path id="path-42" serif:id="path-4" d="M748.458,496.033l3711.42,0c138.5,0 250.775,111.038 250.775,248.013l0,2430.56l-4212.96,0l-0,-2430.56c-0,-136.975 112.275,-248.013 250.775,-248.013l-0.009,0Z" style="fill:#fff;stroke:#979797;stroke-width:16.67px;"/><path d="M4459.88,502.233c67.521,0 128.646,27.067 172.892,70.825c44.245,43.759 71.612,104.213 71.612,170.988l0,2424.36l-4200.42,0l0,-2424.36c0,-66.775 27.367,-127.229 71.613,-170.988c44.246,-43.758 105.371,-70.825 172.892,-70.825l3711.42,0l-0.008,0Z" style="fill:#fff;stroke:#979797;stroke-width:16.67px;stroke-linejoin:miter;stroke-miterlimit:4;"/></g><rect id="Rectangle2" serif:id="Rectangle" x="648.15" y="1240.08" width="300.925" height="744.046" style="fill:#63d0ff;stroke:#dbdbdc;stroke-width:12.46px;stroke-linejoin:miter;stroke-miterlimit:4;"/><rect id="Rectangle3" serif:id="Rectangle" x="648.15" y="2132.94" width="300.925" height="744.046" style="fill:#60dea9;stroke:#dbdbdc;stroke-width:12.46px;stroke-linejoin:miter;stroke-miterlimit:4;"/><g id="ROOT"><g><g><g transform="matrix(1,0,0,0.989011,4.54747e-13,10.8699)"><text x="2320.36px" y="989.163px" style="font-family:'Gilmer-Bold', 'Gilmer';font-weight:700;font-size:225.696px;fill:#343536;">R</text></g><g transform="matrix(1,0,0,0.989011,0,10.8699)"><text x="2474.88px" y="989.163px" style="font-family:'Gilmer-Bold', 'Gilmer';font-weight:700;font-size:225.696px;fill:#343536;">OO<tspan x="2827.87px " y="989.163px ">T</tspan></text></g></g></g></g><g id="PUBLIC-KEY"><g><g><g transform="matrix(1,0,0,0.989011,2.27374e-13,28.8578)"><text x="1982.95px" y="2626.07px" style="font-family:'Gilmer-Medium', 'Gilmer';font-weight:600;font-size:225.696px;fill:#343536;">PUBLIC</text></g><g transform="matrix(1,0,0,0.989011,4.54747e-13,28.8578)"><text x="2807.38px" y="2626.07px" style="font-family:'Gilmer-Medium', 'Gilmer';font-weight:600;font-size:225.696px;fill:#343536;">KEY</text></g></g></g></g><g id="PRIVATE-KEY"><g><g><g transform="matrix(1,0,0,0.989011,0,19.0462)"><text x="1935.1px" y="1733.21px" style="font-family:'Gilmer-Medium', 'Gilmer';font-weight:600;font-size:225.696px;fill:#343536;">PRIV</text></g><g transform="matrix(1,0,0,0.989011,4.54747e-13,19.0462)"><text x="2431.53px" y="1733.21px" style="font-family:'Gilmer-Medium', 'Gilmer';font-weight:600;font-size:225.696px;fill:#343536;">A<tspan x="2572.36px " y="1733.21px ">T</tspan>E KEY</text></g></g></g></g><g id="Rectangle4" serif:id="Rectangle"><rect id="path-7" x="648.15" y="1240.08" width="3912.04" height="744.046" style="fill:none;stroke:#979797;stroke-width:8.33px;"/></g><g id="Rectangle5" serif:id="Rectangle"><rect id="path-10" x="648.15" y="2132.94" width="3912.04" height="744.046" style="fill:none;stroke:#979797;stroke-width:8.33px;"/></g></g><g id="ca_int"><g id="Rectangle6" serif:id="Rectangle"><path id="path-13" d="M3202.16,3720.24l4012.34,-0.001c138.5,0.001 250.775,111.042 250.775,248.017l0,2728.18l-4513.88,0l0,-2728.18c0,-136.975 112.275,-248.016 250.775,-248.016l-0.016,-0Z" style="fill:#fff;stroke:#979797;stroke-width:20.83px;"/><path id="path-131" serif:id="path-13" d="M3202.16,3720.24l4012.34,-0.001c138.5,0.001 250.775,111.042 250.775,248.017l0,2728.18l-4513.88,0l0,-2728.18c0,-136.975 112.275,-248.016 250.775,-248.016l-0.016,-0Z" style="fill:#fff;stroke:#979797;stroke-width:20.83px;"/><path id="path-132" serif:id="path-13" d="M3202.16,3720.24l4012.34,-0.001c138.5,0.001 250.775,111.042 250.775,248.017l0,2728.18l-4513.88,0l0,-2728.18c0,-136.975 112.275,-248.016 250.775,-248.016l-0.016,-0Z" style="fill:#fff;stroke:#979797;stroke-width:20.83px;"/><path d="M7214.5,3726.44c67.521,-0 128.646,27.066 172.892,70.829c44.245,43.758 71.612,104.212 71.612,170.987l0,2721.97l-4501.33,0l-0,-2721.97c-0,-66.775 27.367,-127.229 71.612,-170.987c44.246,-43.763 105.371,-70.829 172.892,-70.829l4012.34,-0l-0.017,-0Z" style="fill:#fff;stroke:#979797;stroke-width:20.83px;stroke-linejoin:miter;stroke-miterlimit:4;"/></g><g id="Rectangle7" serif:id="Rectangle"><path id="path-16" d="M3352.62,3869.05l3711.42,-0c138.5,-0 250.775,111.041 250.775,248.016l-0,2430.56l-4212.96,-0l0,-2430.56c0,-136.975 112.275,-248.017 250.775,-248.017l-0.008,-0Z" style="fill:#fff;stroke:#979797;stroke-width:20.83px;"/><path id="path-161" serif:id="path-16" d="M3352.62,3869.05l3711.42,-0c138.5,-0 250.775,111.041 250.775,248.016l-0,2430.56l-4212.96,-0l0,-2430.56c0,-136.975 112.275,-248.017 250.775,-248.017l-0.008,-0Z" style="fill:#fff;stroke:#979797;stroke-width:20.83px;"/><path id="path-162" serif:id="path-16" d="M3352.62,3869.05l3711.42,-0c138.5,-0 250.775,111.041 250.775,248.016l-0,2430.56l-4212.96,-0l0,-2430.56c0,-136.975 112.275,-248.017 250.775,-248.017l-0.008,-0Z" style="fill:#fff;stroke:#979797;stroke-width:20.83px;"/><path d="M7064.04,3875.25c67.52,0 128.645,27.063 172.891,70.825c44.246,43.758 71.613,104.213 71.613,170.988l-0,2424.35l-4200.42,-0l0,-2424.36c0,-66.774 27.367,-127.229 71.613,-170.987c44.245,-43.762 105.37,-70.825 172.891,-70.825l3711.42,0l-0.008,0Z" style="fill:#fff;stroke:#979797;stroke-width:20.83px;stroke-linejoin:miter;stroke-miterlimit:4;"/></g><g id="Rectangle8" serif:id="Rectangle"><rect id="path-19" x="3252.32" y="4613.08" width="3912.04" height="744.046" style="fill:#fff;stroke:#979797;stroke-width:4.17px;"/><rect id="path-191" serif:id="path-19" x="3252.32" y="4613.08" width="3912.04" height="744.046" style="fill:#fff;stroke:#979797;stroke-width:4.17px;"/><rect id="path-192" serif:id="path-19" x="3252.32" y="4613.08" width="3912.04" height="744.046" style="fill:#fff;stroke:#979797;stroke-width:4.17px;"/><rect x="3258.58" y="4619.29" width="3899.5" height="731.646" style="fill:#fff;stroke:#dbdbdc;stroke-width:4.17px;stroke-linejoin:miter;stroke-miterlimit:4;"/></g><g id="Rectangle9" serif:id="Rectangle"><rect id="path-22" x="3252.32" y="5505.96" width="3912.04" height="744.046" style="fill:#fff;stroke:#979797;stroke-width:4.17px;"/><rect id="path-221" serif:id="path-22" x="3252.32" y="5505.96" width="3912.04" height="744.046" style="fill:#fff;stroke:#979797;stroke-width:4.17px;"/><rect id="path-222" serif:id="path-22" x="3252.32" y="5505.96" width="3912.04" height="744.046" style="fill:#fff;stroke:#979797;stroke-width:4.17px;"/><rect x="3258.58" y="5512.17" width="3899.5" height="731.646" style="fill:#fff;stroke:#dbdbdc;stroke-width:4.17px;stroke-linejoin:miter;stroke-miterlimit:4;"/></g><rect id="Rectangle10" serif:id="Rectangle" x="3252.32" y="5505.96" width="300.925" height="744.046" style="fill:#63d0ff;stroke:#dbdbdc;stroke-width:12.46px;stroke-linejoin:miter;stroke-miterlimit:4;"/><rect id="Rectangle11" serif:id="Rectangle" x="3252.32" y="4613.08" width="300.925" height="744.046" style="fill:#844fba;fill-opacity:0.5;stroke:#dbdbdc;stroke-width:12.46px;stroke-linejoin:miter;stroke-miterlimit:4;"/><rect id="Rectangle12" serif:id="Rectangle" x="3553.24" y="5505.96" width="300.925" height="744.046" style="fill:#844fba;fill-opacity:0.5;stroke:#dbdbdc;stroke-width:12.46px;stroke-linejoin:miter;stroke-miterlimit:4;"/><g id="CERTIFICATE-SIGNING"><g><g><g transform="matrix(1,0,0,0.989011,4.54747e-13,55.8717)"><text x="3579.31px" y="5084.33px" style="font-family:'Gilmer-Medium', 'Gilmer';font-weight:600;font-size:225.696px;fill:#343536;">C</text></g><g transform="matrix(1,0,0,0.989011,0,55.8717)"><text x="3753.69px" y="5084.33px" style="font-family:'Gilmer-Medium', 'Gilmer';font-weight:600;font-size:225.696px;fill:#343536;">ERTIFI</text></g><g transform="matrix(1,0,0,0.989011,9.09495e-13,55.8717)"><text x="4436.38px" y="5084.33px" style="font-family:'Gilmer-Medium', 'Gilmer';font-weight:600;font-size:225.696px;fill:#343536;">C<tspan x="4606.32px 4747.16px " y="5084.33px 5084.33px ">AT</tspan>E SIG</text></g><g transform="matrix(1,0,0,0.989011,9.09495e-13,55.8717)"><text x="5473.92px" y="5084.33px" style="font-family:'Gilmer-Medium', 'Gilmer';font-weight:600;font-size:225.696px;fill:#343536;">NING R</text></g><g transform="matrix(1,0,0,0.989011,9.09495e-13,55.8717)"><text x="6250.71px" y="5084.33px" style="font-family:'Gilmer-Medium', 'Gilmer';font-weight:600;font-size:225.696px;fill:#343536;">E<tspan x="6388.16px " y="5084.33px ">Q</tspan>UE</text></g><g transform="matrix(1,0,0,0.989011,9.09495e-13,55.8717)"><text x="6866.54px" y="5084.33px" style="font-family:'Gilmer-Medium', 'Gilmer';font-weight:600;font-size:225.696px;fill:#343536;">S<tspan x="7005.8px " y="5084.33px ">T</tspan></text></g></g></g></g><g id="INTERMEDIATE"><g><g><g transform="matrix(1,0,0,0.989011,0,47.6955)"><text x="4382.29px" y="4340.29px" style="font-family:'Gilmer-Bold', 'Gilmer';font-weight:700;font-size:225.696px;fill:#343536;">INTERM</text></g><g transform="matrix(1,0,0,0.989011,0,47.6955)"><text x="5241.46px" y="4340.29px" style="font-family:'Gilmer-Bold', 'Gilmer';font-weight:700;font-size:225.696px;fill:#343536;">EDIA</text></g><g transform="matrix(1,0,0,0.989011,9.09495e-13,47.6955)"><text x="5753.92px" y="4340.29px" style="font-family:'Gilmer-Bold', 'Gilmer';font-weight:700;font-size:225.696px;fill:#343536;">TE</text></g></g></g></g><g id="SIGNED-CA-CERTIFICAT"><g><g><g transform="matrix(1,0,0,0.989011,4.54747e-13,65.6831)"><text x="4061.92px" y="5977.17px" style="font-family:'Gilmer-Medium', 'Gilmer';font-weight:600;font-size:225.696px;fill:#343536;">SIGNED C<tspan x="5151.12px " y="5977.17px ">E</tspan>RTIFIC<tspan x="6004.26px 6145.09px " y="5977.17px 5977.17px ">AT</tspan>E</text></g></g></g></g></g><g id="cn_identity"><g id="Rectangle13" serif:id="Rectangle"><path id="path-25" d="M5806.33,6944.46l4012.34,0c138.5,0 250.775,111.038 250.775,248.013l0,2728.18l-4513.88,-0l0,-2728.18c0,-136.975 112.275,-248.013 250.775,-248.013l-0.017,0Z" style="fill:#fff;stroke:#979797;stroke-width:20.83px;"/><path id="path-251" serif:id="path-25" d="M5806.33,6944.46l4012.34,0c138.5,0 250.775,111.038 250.775,248.013l0,2728.18l-4513.88,-0l0,-2728.18c0,-136.975 112.275,-248.013 250.775,-248.013l-0.017,0Z" style="fill:#fff;stroke:#979797;stroke-width:20.83px;"/><path id="path-252" serif:id="path-25" d="M5806.33,6944.46l4012.34,0c138.5,0 250.775,111.038 250.775,248.013l0,2728.18l-4513.88,-0l0,-2728.18c0,-136.975 112.275,-248.013 250.775,-248.013l-0.017,0Z" style="fill:#fff;stroke:#979797;stroke-width:20.83px;"/><path d="M9818.67,6950.62c67.521,0 128.646,27.067 172.891,70.825c44.246,43.758 71.613,104.213 71.613,170.988l-0,2721.97l-4501.33,-0l-0,-2721.97c-0,-66.775 27.366,-127.23 71.612,-170.988c44.246,-43.758 105.371,-70.825 172.892,-70.825l4012.34,0l-0.016,0Z" style="fill:#fff;stroke:#979797;stroke-width:20.83px;stroke-linejoin:miter;stroke-miterlimit:4;"/></g><g id="Rectangle14" serif:id="Rectangle"><path id="path-28" d="M5956.79,7093.25l3711.42,0c138.5,0 250.775,111.042 250.775,248.017l0,2430.55l-4212.96,-0l0,-2430.55c0,-136.975 112.275,-248.017 250.775,-248.017l-0.008,0Z" style="fill:#fff;stroke:#979797;stroke-width:20.83px;"/><path id="path-281" serif:id="path-28" d="M5956.79,7093.25l3711.42,0c138.5,0 250.775,111.042 250.775,248.017l0,2430.55l-4212.96,-0l0,-2430.55c0,-136.975 112.275,-248.017 250.775,-248.017l-0.008,0Z" style="fill:#fff;stroke:#979797;stroke-width:20.83px;"/><path id="path-282" serif:id="path-28" d="M5956.79,7093.25l3711.42,0c138.5,0 250.775,111.042 250.775,248.017l0,2430.55l-4212.96,-0l0,-2430.55c0,-136.975 112.275,-248.017 250.775,-248.017l-0.008,0Z" style="fill:#fff;stroke:#979797;stroke-width:20.83px;"/><path d="M9668.21,7099.46c67.521,0 128.646,27.067 172.892,70.825c44.246,43.763 71.612,104.217 71.612,170.992l0.001,2424.35l-4200.42,0l-0,-2424.35c-0,-66.775 27.367,-127.229 71.612,-170.992c44.246,-43.758 105.371,-70.825 172.892,-70.825l3711.42,0l-0.009,0Z" style="fill:#fff;stroke:#979797;stroke-width:20.83px;stroke-linejoin:miter;stroke-miterlimit:4;"/></g><g id="Rectangle15" serif:id="Rectangle"><rect id="path-31" x="5856.5" y="7837.29" width="3912.04" height="755.496" style="fill:#fff;stroke:#979797;stroke-width:4.17px;"/><rect id="path-311" serif:id="path-31" x="5856.5" y="7837.29" width="3912.04" height="755.496" style="fill:#fff;stroke:#979797;stroke-width:4.17px;"/><rect id="path-312" serif:id="path-31" x="5856.5" y="7837.29" width="3912.04" height="755.496" style="fill:#fff;stroke:#979797;stroke-width:4.17px;"/><rect x="5862.75" y="7843.5" width="3899.5" height="743.092" style="fill:#fff;stroke:#dbdbdc;stroke-width:4.17px;stroke-linejoin:miter;stroke-miterlimit:4;"/></g><g id="Rectangle16" serif:id="Rectangle"><rect id="path-34" x="5856.5" y="8718.71" width="3912.04" height="755.496" style="fill:#fff;stroke:#979797;stroke-width:4.17px;"/><rect id="path-341" serif:id="path-34" x="5856.5" y="8718.71" width="3912.04" height="755.496" style="fill:#fff;stroke:#979797;stroke-width:4.17px;"/><rect id="path-342" serif:id="path-34" x="5856.5" y="8718.71" width="3912.04" height="755.496" style="fill:#fff;stroke:#979797;stroke-width:4.17px;"/><rect x="5862.75" y="8724.92" width="3899.5" height="743.092" style="fill:#fff;stroke:#dbdbdc;stroke-width:4.17px;stroke-linejoin:miter;stroke-miterlimit:4;"/></g><rect id="Rectangle17" serif:id="Rectangle" x="5856.5" y="8718.71" width="300.925" height="755.496" style="fill:#63d0ff;stroke:#dbdbdc;stroke-width:12.46px;stroke-linejoin:miter;stroke-miterlimit:4;"/><rect id="Rectangle18" serif:id="Rectangle" x="5856.5" y="7837.29" width="300.925" height="755.496" style="fill:#ec585d;fill-opacity:0.5;stroke:#dbdbdc;stroke-width:12.46px;stroke-linejoin:miter;stroke-miterlimit:4;"/><rect id="Rectangle19" serif:id="Rectangle" x="6458.33" y="8718.71" width="300.925" height="755.496" style="fill:#ec585d;fill-opacity:0.5;stroke:#dbdbdc;stroke-width:12.46px;stroke-linejoin:miter;stroke-miterlimit:4;"/><rect id="Rectangle20" serif:id="Rectangle" x="6157.42" y="8718.71" width="300.925" height="755.496" style="fill:#844fba;fill-opacity:0.5;stroke:#dbdbdc;stroke-width:12.46px;stroke-linejoin:miter;stroke-miterlimit:4;"/><g id="SIGNED-CERTIFICATE"><g><g><g transform="matrix(1,0,0,0.989011,9.09495e-13,101.502)"><text x="7097.79px" y="9236.67px" style="font-family:'Gilmer-Medium', 'Gilmer';font-weight:600;font-size:225.696px;fill:#343536;">SIGNED</text></g><g transform="matrix(1,0,0,0.989011,0,101.566)"><text x="8074.53px" y="9242.49px" style="font-family:'Gilmer-Medium', 'Gilmer';font-weight:600;font-size:225.696px;fill:#343536;">C<tspan x="8248.99px " y="9242.49px ">E</tspan>RTIFIC<tspan x="9102.12px 9242.96px " y="9242.49px 9242.49px ">AT</tspan>E</text></g></g></g></g><g id="PUBLIC-KEY1" serif:id="PUBLIC-KEY"><g><g><g transform="matrix(1,0,0,0.989011,9.09495e-13,91.4386)"><text x="7607.21px" y="8320.92px" style="font-family:'Gilmer-Medium', 'Gilmer';font-weight:600;font-size:225.696px;fill:#343536;">PUBLIC</text></g><g transform="matrix(1,0,0,0.989011,0,91.4386)"><text x="8431.62px" y="8320.92px" style="font-family:'Gilmer-Medium', 'Gilmer';font-weight:600;font-size:225.696px;fill:#343536;">KEY</text></g></g></g></g><g id="IDENTITY"><g><g><g transform="matrix(1,0,0,0.989011,0,83.2623)"><text x="7288.12px" y="7576.88px" style="font-family:'Gilmer-Bold', 'Gilmer';font-weight:700;font-size:225.696px;fill:#343536;">IDENTI</text></g><g transform="matrix(1,0,0,0.989011,9.09495e-13,83.2623)"><text x="8026.33px" y="7576.88px" style="font-family:'Gilmer-Bold', 'Gilmer';font-weight:700;font-size:225.696px;fill:#343536;">TY</text></g></g></g></g></g><path d="M1736.11,3472.22l-0.001,1736.11l1041.67,0" style="fill:none;"/><path d="M2621.53,5091.17l156.25,117.187l-156.25,117.188l0,-234.375Z" style="fill:#63d0ff;"/><path d="M1736.11,3472.22l-0.001,1736.11l916.667,0" style="fill:none;stroke:#63d0ff;stroke-width:52.08px;stroke-linecap:round;stroke-miterlimit:1.5;"/><path d="M5056.58,8563.38l156.25,117.188l-156.25,117.187l0,-234.375Z" style="fill:#63d0ff;"/><path d="M4171.17,6944.46l-0,1736.11l916.666,-0" style="fill:none;stroke:#63d0ff;stroke-width:52.08px;stroke-linecap:round;stroke-miterlimit:1.5;"/></svg>