<?xml version="1.0" encoding="UTF-8" standalone="no"?><!DOCTYPE svg PUBLIC "-//W3C//DTD SVG 1.1//EN" "http://www.w3.org/Graphics/SVG/1.1/DTD/svg11.dtd"><svg width="100%" height="100%" viewBox="0 0 2500 2500" version="1.1" xmlns="http://www.w3.org/2000/svg" xmlns:xlink="http://www.w3.org/1999/xlink" xml:space="preserve" xmlns:serif="http://www.serif.com/" style="fill-rule:evenodd;clip-rule:evenodd;"><g id="ca_root"><g id="Rectangle"><path id="path-1" d="M143.519,83.333l962.962,0c33.24,0 60.186,26.65 60.186,59.524l-0,654.762l-1083.33,0l0,-654.762c0,-32.874 26.946,-59.524 60.186,-59.524Z" style="fill:#fff;"/><path id="path-11" serif:id="path-1" d="M143.519,83.333l962.962,0c33.24,0 60.186,26.65 60.186,59.524l-0,654.762l-1083.33,0l0,-654.762c0,-32.874 26.946,-59.524 60.186,-59.524Z" style="fill:#fff;"/><path id="path-12" serif:id="path-1" d="M143.519,83.333l962.962,0c33.24,0 60.186,26.65 60.186,59.524l-0,654.762l-1083.33,0l0,-654.762c0,-32.874 26.946,-59.524 60.186,-59.524Z" style="fill:#fff;"/><path d="M1106.48,84.821c16.205,0 30.875,6.496 41.494,16.999c10.619,10.502 17.187,25.011 17.187,41.037l0,653.274l-1080.32,-0l-0,-653.274c-0,-16.026 6.568,-30.535 17.187,-41.037c10.619,-10.503 25.289,-16.999 41.494,-16.999l962.962,0Z" style="fill:#fff;stroke:#dbdbdc;stroke-width:2.99px;"/></g><g id="Rectangle1" serif:id="Rectangle"><path id="path-4" d="M179.63,119.048l890.74,-0c33.24,-0 60.186,26.649 60.186,59.523l-0,583.334l-1011.11,-0l0,-583.334c0,-32.874 26.946,-59.523 60.186,-59.523Z" style="fill:#fff;"/><path id="path-41" serif:id="path-4" d="M179.63,119.048l890.74,-0c33.24,-0 60.186,26.649 60.186,59.523l-0,583.334l-1011.11,-0l0,-583.334c0,-32.874 26.946,-59.523 60.186,-59.523Z" style="fill:#fff;"/><path id="path-42" serif:id="path-4" d="M179.63,119.048l890.74,-0c33.24,-0 60.186,26.649 60.186,59.523l-0,583.334l-1011.11,-0l0,-583.334c0,-32.874 26.946,-59.523 60.186,-59.523Z" style="fill:#fff;"/><path d="M1070.37,120.536c16.205,-0 30.875,6.496 41.494,16.998c10.619,10.502 17.187,25.011 17.187,41.037l-0,581.846l-1008.1,-0l0,-581.846c0,-16.026 6.568,-30.535 17.187,-41.037c10.619,-10.502 25.289,-16.998 41.494,-16.998l890.74,-0Z" style="fill:#fff;stroke:#dbdbdc;stroke-width:2.99px;"/></g><g id="Rectangle2" serif:id="Rectangle"><rect id="path-7" x="155.556" y="297.619" width="938.889" height="178.571" style="fill:#fff;"/><rect id="path-71" serif:id="path-7" x="155.556" y="297.619" width="938.889" height="178.571" style="fill:#fff;"/><rect id="path-72" serif:id="path-7" x="155.556" y="297.619" width="938.889" height="178.571" style="fill:#fff;"/><rect x="157.06" y="299.107" width="935.88" height="175.595" style="fill:#fff;stroke:#dbdbdc;stroke-width:2.99px;"/></g><g id="Rectangle3" serif:id="Rectangle"><rect id="path-10" x="155.556" y="511.905" width="938.889" height="178.571" style="fill:#fff;"/><rect id="path-101" serif:id="path-10" x="155.556" y="511.905" width="938.889" height="178.571" style="fill:#fff;"/><rect id="path-102" serif:id="path-10" x="155.556" y="511.905" width="938.889" height="178.571" style="fill:#fff;"/><rect x="157.06" y="513.393" width="935.88" height="175.595" style="fill:#fff;stroke:#dbdbdc;stroke-width:2.99px;"/></g><rect id="Rectangle4" serif:id="Rectangle" x="155.556" y="297.619" width="72.222" height="178.571" style="fill:#63d0ff;stroke:#dbdbdc;stroke-width:2.99px;"/><rect id="Rectangle5" serif:id="Rectangle" x="155.556" y="511.905" width="72.222" height="178.571" style="fill:#60dea9;stroke:#dbdbdc;stroke-width:2.99px;"/><g id="ROOT"><g transform="matrix(1,0,0,0.989011,1.13687e-13,2.60878)"><text x="556.887px" y="237.399px" style="font-family:'Gilmer-Bold', 'Gilmer';font-weight:700;font-size:54.167px;fill:#343536;">R<tspan x="593.971px 637.664px 678.649px " y="237.399px 237.399px 237.399px ">OOT</tspan></text></g></g><g id="PUBLIC-KEY"><g transform="matrix(1,0,0,0.989011,5.68434e-14,6.92589)"><text x="475.907px" y="630.256px" style="font-family:'Gilmer-Medium', 'Gilmer';font-weight:600;font-size:54.167px;fill:#343536;">PUBLIC<tspan x="673.77px " y="630.256px "> </tspan>KEY</text></g></g><g id="PRIVATE-KEY"><g transform="matrix(1,0,0,0.989011,0,4.5711)"><text x="464.424px" y="415.97px" style="font-family:'Gilmer-Medium', 'Gilmer';font-weight:600;font-size:54.167px;fill:#343536;">PRIV<tspan x="583.567px 617.347px " y="415.97px 415.97px ">AT</tspan>E KEY</text></g></g></g><g id="ca_int"><g id="Rectangle6" serif:id="Rectangle"><path id="path-13" d="M768.519,892.857l962.962,0c33.24,0 60.186,26.65 60.186,59.524l-0,654.762l-1083.33,-0l0,-654.762c0,-32.874 26.946,-59.524 60.186,-59.524Z" style="fill:#fff;"/><path id="path-131" serif:id="path-13" d="M768.519,892.857l962.962,0c33.24,0 60.186,26.65 60.186,59.524l-0,654.762l-1083.33,-0l0,-654.762c0,-32.874 26.946,-59.524 60.186,-59.524Z" style="fill:#fff;"/><path id="path-132" serif:id="path-13" d="M768.519,892.857l962.962,0c33.24,0 60.186,26.65 60.186,59.524l-0,654.762l-1083.33,-0l0,-654.762c0,-32.874 26.946,-59.524 60.186,-59.524Z" style="fill:#fff;"/><path d="M1731.48,894.345c16.205,0 30.875,6.496 41.494,16.999c10.619,10.502 17.187,25.011 17.187,41.037l0,653.274l-1080.32,-0l-0,-653.274c-0,-16.026 6.568,-30.535 17.187,-41.037c10.619,-10.503 25.289,-16.999 41.494,-16.999l962.962,0Z" style="fill:#fff;stroke:#dbdbdc;stroke-width:2.99px;"/></g><g id="Rectangle7" serif:id="Rectangle"><path id="path-16" d="M804.63,928.571l890.74,0c33.24,0 60.186,26.65 60.186,59.524l-0,583.334l-1011.11,-0l0,-583.334c0,-32.874 26.946,-59.524 60.186,-59.524Z" style="fill:#fff;"/><path id="path-161" serif:id="path-16" d="M804.63,928.571l890.74,0c33.24,0 60.186,26.65 60.186,59.524l-0,583.334l-1011.11,-0l0,-583.334c0,-32.874 26.946,-59.524 60.186,-59.524Z" style="fill:#fff;"/><path id="path-162" serif:id="path-16" d="M804.63,928.571l890.74,0c33.24,0 60.186,26.65 60.186,59.524l-0,583.334l-1011.11,-0l0,-583.334c0,-32.874 26.946,-59.524 60.186,-59.524Z" style="fill:#fff;"/><path d="M1695.37,930.06c16.205,-0 30.875,6.495 41.494,16.998c10.619,10.502 17.187,25.011 17.187,41.037l-0,581.845l-1008.1,0l0,-581.845c0,-16.026 6.568,-30.535 17.187,-41.037c10.619,-10.503 25.289,-16.998 41.494,-16.998l890.74,-0Z" style="fill:#fff;stroke:#dbdbdc;stroke-width:2.99px;"/></g><g id="Rectangle8" serif:id="Rectangle"><rect id="path-19" x="780.556" y="1107.14" width="938.889" height="178.571" style="fill:#fff;"/><rect id="path-191" serif:id="path-19" x="780.556" y="1107.14" width="938.889" height="178.571" style="fill:#fff;"/><rect id="path-192" serif:id="path-19" x="780.556" y="1107.14" width="938.889" height="178.571" style="fill:#fff;"/><rect x="782.06" y="1108.63" width="935.88" height="175.595" style="fill:#fff;stroke:#dbdbdc;stroke-width:2.99px;"/></g><g id="Rectangle9" serif:id="Rectangle"><rect id="path-22" x="780.556" y="1321.43" width="938.889" height="178.571" style="fill:#fff;"/><rect id="path-221" serif:id="path-22" x="780.556" y="1321.43" width="938.889" height="178.571" style="fill:#fff;"/><rect id="path-222" serif:id="path-22" x="780.556" y="1321.43" width="938.889" height="178.571" style="fill:#fff;"/><rect x="782.06" y="1322.92" width="935.88" height="175.595" style="fill:#fff;stroke:#dbdbdc;stroke-width:2.99px;"/></g><rect id="Rectangle10" serif:id="Rectangle" x="780.556" y="1321.43" width="72.222" height="178.571" style="fill:#63d0ff;stroke:#dbdbdc;stroke-width:2.99px;"/><rect id="Rectangle11" serif:id="Rectangle" x="780.556" y="1107.14" width="72.222" height="178.571" style="fill:#844fba;fill-opacity:0.5;stroke:#dbdbdc;stroke-width:2.99px;"/><rect id="Rectangle12" serif:id="Rectangle" x="852.778" y="1321.43" width="72.222" height="178.571" style="fill:#844fba;fill-opacity:0.5;stroke:#dbdbdc;stroke-width:2.99px;"/><g id="CERTIFICATE-SIGNING"><g transform="matrix(1,0,0,0.989011,1.13687e-13,13.4092)"><text x="859.034px" y="1220.24px" style="font-family:'Gilmer-Medium', 'Gilmer';font-weight:600;font-size:54.167px;fill:#343536;">C<tspan x="900.885px " y="1220.24px ">E</tspan>RTIFI<tspan x="1064.73px 1105.5px 1139.28px " y="1220.24px 1220.24px 1220.24px ">CAT</tspan>E SIG<tspan x="1313.74px " y="1220.24px ">N</tspan>ING R<tspan x="1500.17px 1533.14px " y="1220.24px 1220.24px ">EQ</tspan>UE<tspan x="1647.97px 1681.37px " y="1220.24px 1220.24px ">ST</tspan></text></g></g><g id="INTERMEDIATE"><g transform="matrix(1,0,0,0.989011,0,11.4469)"><text x="1051.75px" y="1041.67px" style="font-family:'Gilmer-Bold', 'Gilmer';font-weight:700;font-size:54.167px;fill:#343536;">INTERM<tspan x="1257.95px " y="1041.67px ">E</tspan>DIA<tspan x="1380.94px " y="1041.67px ">T</tspan>E</text></g></g><g id="SIGNED-CA-CERTIFICAT"><g transform="matrix(1,0,0,0.989011,1.13687e-13,15.764)"><text x="974.86px" y="1434.52px" style="font-family:'Gilmer-Medium', 'Gilmer';font-weight:600;font-size:54.167px;fill:#343536;">SIGNED<tspan x="1180.58px 1194.26px 1235.03px " y="1434.52px 1434.52px 1434.52px "> CA</tspan> C<tspan x="1328.95px " y="1434.52px ">E</tspan>RTIFI<tspan x="1492.8px 1533.56px 1567.34px " y="1434.52px 1434.52px 1434.52px ">CAT</tspan>E</text></g></g></g><g id="cn_identity"><g id="Rectangle13" serif:id="Rectangle"><path id="path-25" d="M1393.52,1666.67l962.962,-0c33.24,-0 60.186,26.649 60.186,59.523l-0,654.762l-1083.33,0l0,-654.762c0,-32.874 26.946,-59.523 60.186,-59.523Z" style="fill:#fff;"/><path id="path-251" serif:id="path-25" d="M1393.52,1666.67l962.962,-0c33.24,-0 60.186,26.649 60.186,59.523l-0,654.762l-1083.33,0l0,-654.762c0,-32.874 26.946,-59.523 60.186,-59.523Z" style="fill:#fff;"/><path id="path-252" serif:id="path-25" d="M1393.52,1666.67l962.962,-0c33.24,-0 60.186,26.649 60.186,59.523l-0,654.762l-1083.33,0l0,-654.762c0,-32.874 26.946,-59.523 60.186,-59.523Z" style="fill:#fff;"/><path d="M2356.48,1668.15c16.205,-0 30.875,6.496 41.494,16.998c10.619,10.502 17.187,25.011 17.187,41.037l0,653.274l-1080.32,0l-0,-653.274c-0,-16.026 6.568,-30.535 17.187,-41.037c10.619,-10.502 25.289,-16.998 41.494,-16.998l962.962,-0Z" style="fill:#fff;stroke:#dbdbdc;stroke-width:2.99px;"/></g><g id="Rectangle14" serif:id="Rectangle"><path id="path-28" d="M1429.63,1702.38l890.74,-0c33.24,-0 60.186,26.65 60.186,59.524l-0,583.333l-1011.11,0l0,-583.333c0,-32.874 26.946,-59.524 60.186,-59.524Z" style="fill:#fff;"/><path id="path-281" serif:id="path-28" d="M1429.63,1702.38l890.74,-0c33.24,-0 60.186,26.65 60.186,59.524l-0,583.333l-1011.11,0l0,-583.333c0,-32.874 26.946,-59.524 60.186,-59.524Z" style="fill:#fff;"/><path id="path-282" serif:id="path-28" d="M1429.63,1702.38l890.74,-0c33.24,-0 60.186,26.65 60.186,59.524l-0,583.333l-1011.11,0l0,-583.333c0,-32.874 26.946,-59.524 60.186,-59.524Z" style="fill:#fff;"/><path d="M2320.37,1703.87c16.205,0 30.875,6.496 41.494,16.998c10.619,10.503 17.187,25.012 17.187,41.038l-0,581.845l-1008.1,0l0,-581.845c0,-16.026 6.568,-30.535 17.187,-41.038c10.619,-10.502 25.289,-16.998 41.494,-16.998l890.74,0Z" style="fill:#fff;stroke:#dbdbdc;stroke-width:2.99px;"/></g><g id="Rectangle15" serif:id="Rectangle"><rect id="path-31" x="1405.56" y="1880.95" width="938.889" height="181.319" style="fill:#fff;"/><rect id="path-311" serif:id="path-31" x="1405.56" y="1880.95" width="938.889" height="181.319" style="fill:#fff;"/><rect id="path-312" serif:id="path-31" x="1405.56" y="1880.95" width="938.889" height="181.319" style="fill:#fff;"/><rect x="1407.06" y="1882.44" width="935.88" height="178.342" style="fill:#fff;stroke:#dbdbdc;stroke-width:2.99px;"/></g><g id="Rectangle16" serif:id="Rectangle"><rect id="path-34" x="1405.56" y="2092.49" width="938.889" height="181.319" style="fill:#fff;"/><rect id="path-341" serif:id="path-34" x="1405.56" y="2092.49" width="938.889" height="181.319" style="fill:#fff;"/><rect id="path-342" serif:id="path-34" x="1405.56" y="2092.49" width="938.889" height="181.319" style="fill:#fff;"/><rect x="1407.06" y="2093.98" width="935.88" height="178.342" style="fill:#fff;stroke:#dbdbdc;stroke-width:2.99px;"/></g><rect id="Rectangle17" serif:id="Rectangle" x="1405.56" y="2092.49" width="72.222" height="181.319" style="fill:#63d0ff;stroke:#dbdbdc;stroke-width:2.99px;"/><rect id="Rectangle18" serif:id="Rectangle" x="1405.56" y="1880.95" width="72.222" height="181.319" style="fill:#ec585d;fill-opacity:0.5;stroke:#dbdbdc;stroke-width:2.99px;"/><rect id="Rectangle19" serif:id="Rectangle" x="1550" y="2092.49" width="72.222" height="181.319" style="fill:#ec585d;fill-opacity:0.5;stroke:#dbdbdc;stroke-width:2.99px;"/><rect id="Rectangle20" serif:id="Rectangle" x="1477.78" y="2092.49" width="72.222" height="181.319" style="fill:#844fba;fill-opacity:0.5;stroke:#dbdbdc;stroke-width:2.99px;"/><g id="SIGNED-CERTIFICATE"><g transform="matrix(1,0,0,0.989011,2.27374e-13,24.3605)"><text x="1703.47px" y="2216.8px" style="font-family:'Gilmer-Medium', 'Gilmer';font-weight:600;font-size:54.167px;fill:#343536;">SIGNED<tspan x="1909.19px 1922.87px 1964.73px " y="2216.8px 2216.8px 2216.8px "> CE</tspan>RTIFI<tspan x="2128.57px 2169.34px 2203.12px " y="2216.8px 2216.8px 2216.8px ">CAT</tspan>E</text></g></g><g id="PUBLIC-KEY1" serif:id="PUBLIC-KEY"><g transform="matrix(1,0,0,0.989011,0,21.9453)"><text x="1825.73px" y="1997.02px" style="font-family:'Gilmer-Medium', 'Gilmer';font-weight:600;font-size:54.167px;fill:#343536;">PUBLIC<tspan x="2023.59px " y="1997.02px "> </tspan>KEY</text></g></g><g id="IDENTITY"><g transform="matrix(1,0,0,0.989011,0,19.983)"><text x="1860.97px" y="1818.45px" style="font-family:'Gilmer-Bold', 'Gilmer';font-weight:700;font-size:54.167px;fill:#343536;">IDENTI<tspan x="2038.14px " y="1818.45px ">T</tspan>Y</text></g></g></g><path d="M416.667,833.333l-0,416.667l250,0" style="fill:none;"/><path d="M629.167,1221.88l37.5,28.125l-37.5,28.125l-0,-56.25Z" style="fill:#63d0ff;"/><path d="M416.667,833.333l-0,416.667l220,-0" style="fill:none;stroke:#63d0ff;stroke-width:12.5px;stroke-linecap:round;stroke-linejoin:round;stroke-miterlimit:1.5;"/><path d="M1213.58,2055.21l37.5,28.125l-37.5,28.125l0,-56.25Z" style="fill:#63d0ff;"/><path d="M1001.08,1666.67l0,416.666l220,0" style="fill:none;stroke:#63d0ff;stroke-width:12.5px;stroke-linecap:round;stroke-linejoin:round;stroke-miterlimit:1.5;"/></svg>