<?xml version="1.0" encoding="UTF-8" standalone="no"?><!DOCTYPE svg PUBLIC "-//W3C//DTD SVG 1.1//EN" "http://www.w3.org/Graphics/SVG/1.1/DTD/svg11.dtd"><svg width="100%" height="100%" viewBox="0 0 4167 4000" version="1.1" xmlns="http://www.w3.org/2000/svg" xmlns:xlink="http://www.w3.org/1999/xlink" xml:space="preserve" xmlns:serif="http://www.serif.com/" style="fill-rule:evenodd;clip-rule:evenodd;"><g id="entity"><path id="Rectangle" d="M1575,125c0,-22.996 -18.67,-41.667 -41.667,-41.667l-1408.33,0c-22.996,0 -41.667,18.671 -41.667,41.667l0,991.667c0,22.996 18.671,41.666 41.667,41.666l1408.33,0c22.997,0 41.667,-18.67 41.667,-41.666l0,-991.667Z" style="fill:#fff;stroke:#979797;stroke-width:8.33px;"/><g id="TITLE"><text x="657.042px" y="254.167px" style="font-family:'Gilmer-Bold', 'Gilmer';font-weight:700;font-size:75px;fill:#343536;">R<tspan x="708.39px 768.888px 825.636px " y="254.167px 254.167px 254.167px ">OOT</tspan> C<tspan x="948.03px " y="254.167px ">A</tspan></text></g><g id="entity---key_1" serif:id="entity-/-key_1"><g id="Rectangle1" serif:id="Rectangle"><path id="path-1" d="M279.167,479.167l1079.17,-0c11.506,-0 20.834,9.327 20.834,20.833l-0,158.333c-0,11.506 -9.328,20.834 -20.834,20.834l-1079.17,-0l-0,-200Z" style="fill:none;"/><path id="path-11" serif:id="path-1" d="M279.167,479.167l1079.17,-0c11.506,-0 20.834,9.327 20.834,20.833l-0,158.333c-0,11.506 -9.328,20.834 -20.834,20.834l-1079.17,-0l-0,-200Z" style="fill:none;"/><path id="path-12" serif:id="path-1" d="M279.167,479.167l1079.17,-0c11.506,-0 20.834,9.327 20.834,20.833l-0,158.333c-0,11.506 -9.328,20.834 -20.834,20.834l-1079.17,-0l-0,-200Z" style="fill:none;"/><path d="M1358.33,481.25c5.178,0 9.866,2.099 13.259,5.492c3.393,3.393 5.491,8.08 5.491,13.258l0,158.333c0,5.178 -2.098,9.866 -5.491,13.259c-3.393,3.393 -8.081,5.491 -13.259,5.491l-1077.08,0l0,-195.833l1077.08,0Z" style="fill:none;stroke:#979797;stroke-width:4.17px;"/></g><g id="label"><text x="629.642px" y="605.417px" style="font-family:'Gilmer-Medium', 'Gilmer';font-weight:600;font-size:75px;fill:#343536;">PRIM<tspan x="811.259px 864.407px 912.83px " y="605.417px 605.417px 605.417px ">ARY</tspan> KE<tspan x="1080.2px " y="605.417px ">Y</tspan></text></g><g id="Rectangle2" serif:id="Rectangle"><rect x="281.25" y="481.25" width="95.833" height="195.833" style="fill:#0d4d4d;stroke:#979797;stroke-width:4.17px;"/></g></g><g id="entity---key_11" serif:id="entity-/-key_1"><g id="Rectangle3" serif:id="Rectangle"><path id="path-4" d="M279.167,779.167l1079.17,-0c11.506,-0 20.834,9.327 20.834,20.833l-0,158.333c-0,11.506 -9.328,20.834 -20.834,20.834l-1079.17,-0l-0,-200Z" style="fill:none;"/><path id="path-41" serif:id="path-4" d="M279.167,779.167l1079.17,-0c11.506,-0 20.834,9.327 20.834,20.833l-0,158.333c-0,11.506 -9.328,20.834 -20.834,20.834l-1079.17,-0l-0,-200Z" style="fill:none;"/><path id="path-42" serif:id="path-4" d="M279.167,779.167l1079.17,-0c11.506,-0 20.834,9.327 20.834,20.833l-0,158.333c-0,11.506 -9.328,20.834 -20.834,20.834l-1079.17,-0l-0,-200Z" style="fill:none;"/><path d="M1358.33,781.25c5.178,0 9.866,2.099 13.259,5.492c3.393,3.393 5.491,8.08 5.491,13.258l0,158.333c0,5.178 -2.098,9.866 -5.491,13.259c-3.393,3.393 -8.081,5.491 -13.259,5.491l-1077.08,0l0,-195.833l1077.08,0Z" style="fill:none;stroke:#979797;stroke-width:4.17px;"/></g><g id="label1" serif:id="label"><text x="659.117px" y="905.417px" style="font-family:'Gilmer-Medium', 'Gilmer';font-weight:600;font-size:75px;fill:#343536;">PUBL<tspan x="856.034px " y="905.417px ">I</tspan>C K<tspan x="1003.83px " y="905.417px ">E</tspan>Y</text></g><g id="Rectangle4" serif:id="Rectangle"><rect x="281.25" y="781.25" width="95.833" height="195.833" style="fill:#801515;stroke:#979797;stroke-width:4.17px;"/></g></g></g><g id="entity1" serif:id="entity"><path id="Rectangle5" serif:id="Rectangle" d="M3916.67,2883.33c-0,-22.996 -18.671,-41.666 -41.667,-41.666l-1408.33,-0c-22.997,-0 -41.667,18.67 -41.667,41.666l0,991.667c0,22.996 18.67,41.667 41.667,41.667l1408.33,-0c22.996,-0 41.667,-18.671 41.667,-41.667l-0,-991.667Z" style="fill:#fff;stroke:#979797;stroke-width:8.33px;"/><g id="TITLE1" serif:id="TITLE"><text x="2999.38px" y="3012.5px" style="font-family:'Gilmer-Bold', 'Gilmer';font-weight:700;font-size:75px;fill:#343536;">IDEN<tspan x="3176.8px " y="3012.5px ">T</tspan>ITY</text></g><g id="entity---key_12" serif:id="entity-/-key_1"><g id="Rectangle6" serif:id="Rectangle"><path id="path-7" d="M2620.83,3237.5l1079.17,0c11.506,0 20.833,9.327 20.833,20.833l0,158.334c0,11.506 -9.327,20.833 -20.833,20.833l-1079.17,0l0,-200Z" style="fill:none;"/><path id="path-71" serif:id="path-7" d="M2620.83,3237.5l1079.17,0c11.506,0 20.833,9.327 20.833,20.833l0,158.334c0,11.506 -9.327,20.833 -20.833,20.833l-1079.17,0l0,-200Z" style="fill:none;"/><path id="path-72" serif:id="path-7" d="M2620.83,3237.5l1079.17,0c11.506,0 20.833,9.327 20.833,20.833l0,158.334c0,11.506 -9.327,20.833 -20.833,20.833l-1079.17,0l0,-200Z" style="fill:none;"/><path d="M3700,3239.58c5.178,0 9.865,2.099 13.258,5.492c3.393,3.393 5.492,8.081 5.492,13.258l0,158.334c0,5.177 -2.099,9.865 -5.492,13.258c-3.393,3.393 -8.08,5.492 -13.258,5.492l-1077.08,-0l-0,-195.834l1077.08,0Z" style="fill:none;stroke:#979797;stroke-width:4.17px;"/></g><g id="label2" serif:id="label"><text x="2833.42px" y="3363.75px" style="font-family:'Gilmer-Medium', 'Gilmer';font-weight:600;font-size:75px;fill:#343536;">SIGN<tspan x="3016.46px " y="3363.75px ">E</tspan>D P<tspan x="3185.93px " y="3363.75px ">R</tspan>IV<tspan x="3302.17px 3348.95px " y="3363.75px 3363.75px ">AT</tspan>E K<tspan x="3513.84px " y="3363.75px ">E</tspan>Y</text></g><g id="Rectangle7" serif:id="Rectangle"><rect x="2622.92" y="3239.58" width="95.833" height="195.833" style="fill:#5a5;stroke:#979797;stroke-width:4.17px;"/></g></g><g id="entity---key_13" serif:id="entity-/-key_1"><g id="Rectangle8" serif:id="Rectangle"><path id="path-10" d="M2620.83,3537.5l1079.17,0c11.506,0 20.833,9.327 20.833,20.833l0,158.334c0,11.506 -9.327,20.833 -20.833,20.833l-1079.17,0l0,-200Z" style="fill:none;"/><path id="path-101" serif:id="path-10" d="M2620.83,3537.5l1079.17,0c11.506,0 20.833,9.327 20.833,20.833l0,158.334c0,11.506 -9.327,20.833 -20.833,20.833l-1079.17,0l0,-200Z" style="fill:none;"/><path id="path-102" serif:id="path-10" d="M2620.83,3537.5l1079.17,0c11.506,0 20.833,9.327 20.833,20.833l0,158.334c0,11.506 -9.327,20.833 -20.833,20.833l-1079.17,0l0,-200Z" style="fill:none;"/><path d="M3700,3539.58c5.178,0 9.865,2.099 13.258,5.492c3.393,3.393 5.492,8.081 5.492,13.258l0,158.334c0,5.177 -2.099,9.865 -5.492,13.258c-3.393,3.393 -8.08,5.492 -13.258,5.492l-1077.08,-0l-0,-195.834l1077.08,0Z" style="fill:none;stroke:#979797;stroke-width:4.17px;"/></g><g id="label3" serif:id="label"><text x="3000.78px" y="3663.75px" style="font-family:'Gilmer-Medium', 'Gilmer';font-weight:600;font-size:75px;fill:#343536;">PUBL<tspan x="3197.7px " y="3663.75px ">I</tspan>C K<tspan x="3345.49px " y="3663.75px ">E</tspan>Y</text></g><g id="Rectangle9" serif:id="Rectangle"><rect x="2622.92" y="3539.58" width="95.833" height="195.833" style="fill:#d46a6a;stroke:#979797;stroke-width:4.17px;"/></g></g></g><g id="entity2" serif:id="entity"><path id="Rectangle10" serif:id="Rectangle" d="M2745.83,1504.17c0,-22.997 -18.67,-41.667 -41.666,-41.667l-1408.33,0c-22.996,0 -41.666,18.67 -41.666,41.667l-0,991.666c-0,22.997 18.67,41.667 41.666,41.667l1408.33,0c22.996,0 41.666,-18.67 41.666,-41.667l0,-991.666Z" style="fill:#fff;stroke:#979797;stroke-width:8.33px;"/><g id="TITLE2" serif:id="TITLE"><text x="1725.5px" y="1633.33px" style="font-family:'Gilmer-Bold', 'Gilmer';font-weight:700;font-size:75px;fill:#343536;">INTE<tspan x="1895.19px " y="1633.33px ">R</tspan>MED<tspan x="2113.41px 2133.56px 2181.3px " y="1633.33px 1633.33px 1633.33px ">IAT</tspan>E</text></g><g id="entity---key_14" serif:id="entity-/-key_1"><g id="Rectangle11" serif:id="Rectangle"><path id="path-13" d="M1450,1858.33l1079.17,0c11.506,0 20.833,9.328 20.833,20.834l0,158.333c0,11.506 -9.327,20.833 -20.833,20.833l-1079.17,0l0,-200Z" style="fill:none;"/><path id="path-131" serif:id="path-13" d="M1450,1858.33l1079.17,0c11.506,0 20.833,9.328 20.833,20.834l0,158.333c0,11.506 -9.327,20.833 -20.833,20.833l-1079.17,0l0,-200Z" style="fill:none;"/><path id="path-132" serif:id="path-13" d="M1450,1858.33l1079.17,0c11.506,0 20.833,9.328 20.833,20.834l0,158.333c0,11.506 -9.327,20.833 -20.833,20.833l-1079.17,0l0,-200Z" style="fill:none;"/><path d="M2529.17,1860.42c5.177,-0 9.865,2.098 13.258,5.491c3.393,3.393 5.492,8.081 5.492,13.259l-0,158.333c-0,5.178 -2.099,9.865 -5.492,13.258c-3.393,3.393 -8.081,5.492 -13.258,5.492l-1077.08,-0l0,-195.833l1077.08,-0Z" style="fill:none;stroke:#979797;stroke-width:4.17px;"/></g><g id="label4" serif:id="label"><text x="1662.59px" y="1984.58px" style="font-family:'Gilmer-Medium', 'Gilmer';font-weight:600;font-size:75px;fill:#343536;">SIGN<tspan x="1845.63px " y="1984.58px ">E</tspan>D P<tspan x="2015.1px " y="1984.58px ">R</tspan>IV<tspan x="2131.34px 2178.11px " y="1984.58px 1984.58px ">AT</tspan>E K<tspan x="2343.01px " y="1984.58px ">E</tspan>Y</text></g><g id="Rectangle12" serif:id="Rectangle"><rect x="1452.08" y="1860.42" width="95.833" height="195.833" style="fill:#801515;stroke:#979797;stroke-width:4.17px;"/></g></g><g id="entity---key_15" serif:id="entity-/-key_1"><g id="Rectangle13" serif:id="Rectangle"><path id="path-16" d="M1450,2158.33l1079.17,0c11.506,0 20.833,9.328 20.833,20.834l0,158.333c0,11.506 -9.327,20.833 -20.833,20.833l-1079.17,0l0,-200Z" style="fill:none;"/><path id="path-161" serif:id="path-16" d="M1450,2158.33l1079.17,0c11.506,0 20.833,9.328 20.833,20.834l0,158.333c0,11.506 -9.327,20.833 -20.833,20.833l-1079.17,0l0,-200Z" style="fill:none;"/><path id="path-162" serif:id="path-16" d="M1450,2158.33l1079.17,0c11.506,0 20.833,9.328 20.833,20.834l0,158.333c0,11.506 -9.327,20.833 -20.833,20.833l-1079.17,0l0,-200Z" style="fill:none;"/><path d="M2529.17,2160.42c5.177,-0 9.865,2.098 13.258,5.491c3.393,3.393 5.492,8.081 5.492,13.259l-0,158.333c-0,5.178 -2.099,9.865 -5.492,13.258c-3.393,3.393 -8.081,5.492 -13.258,5.492l-1077.08,0l0,-195.833l1077.08,-0Z" style="fill:none;stroke:#979797;stroke-width:4.17px;"/></g><g id="label5" serif:id="label"><text x="1829.95px" y="2284.58px" style="font-family:'Gilmer-Medium', 'Gilmer';font-weight:600;font-size:75px;fill:#343536;">PUBL<tspan x="2026.87px " y="2284.58px ">I</tspan>C K<tspan x="2174.66px " y="2284.58px ">E</tspan>Y</text></g><g id="Rectangle14" serif:id="Rectangle"><rect x="1452.08" y="2160.42" width="95.833" height="195.833" style="fill:#5a5;stroke:#979797;stroke-width:4.17px;"/></g></g></g><path d="M1110.47,1916.18l56.201,42.15l-56.201,42.151l0,-84.301Z" style="fill:#979797;"/><path d="M333.333,1250l0,708.333l788.373,0" style="fill:none;stroke:#979797;stroke-width:12.5px;stroke-linecap:round;stroke-miterlimit:3;"/><path d="M1722.87,621.317l-56.2,-42.15l56.2,-42.151l-0,84.301Z" style="fill:#5a5;"/><path d="M2835.82,2245.83l80.846,0l-0,-1666.67l-1205.04,-0" style="fill:none;stroke:#5a5;stroke-width:12.5px;stroke-linecap:round;stroke-miterlimit:1;stroke-dasharray:50,50,0,0;"/><path d="M2889.53,2000.48l-56.201,-42.151l56.201,-42.15l-0,84.301Z" style="fill:#d46a6a;"/><path d="M4002.49,3625l80.845,-0l0,-1666.67l-1205.04,0" style="fill:none;stroke:#d46a6a;stroke-width:12.5px;stroke-linecap:round;stroke-miterlimit:1;stroke-dasharray:50,50,0,0;"/><path d="M2277.13,3291.18l56.2,42.15l-56.2,42.151l0,-84.301Z" style="fill:#979797;"/><path d="M1500,2625l0,708.333l788.373,0" style="fill:none;stroke:#979797;stroke-width:12.5px;stroke-linecap:round;stroke-miterlimit:3;"/><text x="414.267px" y="1874.03px" style="font-family:'Gilmer-Medium', 'Gilmer';font-weight:600;font-size:75px;fill:#979797;">SIGN<tspan x="597.309px " y="1874.03px ">S</tspan></text><text x="1580.93px" y="3249.03px" style="font-family:'Gilmer-Medium', 'Gilmer';font-weight:600;font-size:75px;fill:#979797;">SIGN<tspan x="1763.98px " y="3249.03px ">S</tspan></text><text x="2510.12px" y="720.142px" style="font-family:'Gilmer-Medium', 'Gilmer';font-weight:600;font-size:75px;fill:#5a5;">VERI<tspan x="2679.14px " y="720.142px ">F</tspan>IE<tspan x="2786.76px " y="720.142px ">S</tspan></text><text x="3671.35px" y="2095.14px" style="font-family:'Gilmer-Medium', 'Gilmer';font-weight:600;font-size:75px;fill:#d46a6a;">VERI<tspan x="3840.37px " y="2095.14px ">F</tspan>IE<tspan x="3947.99px " y="2095.14px ">S</tspan></text></svg>