<?xml version="1.0" encoding="UTF-8" standalone="no"?><!DOCTYPE svg PUBLIC "-//W3C//DTD SVG 1.1//EN" "http://www.w3.org/Graphics/SVG/1.1/DTD/svg11.dtd"><svg width="100%" height="100%" viewBox="0 0 1100 1260" version="1.1" xmlns="http://www.w3.org/2000/svg" xmlns:xlink="http://www.w3.org/1999/xlink" xml:space="preserve" xmlns:serif="http://www.serif.com/" style="fill-rule:evenodd;clip-rule:evenodd;"><path id="Rectangle" d="M206,430c0,-5.519 -4.481,-10 -10,-10l-181,0c-5.519,0 -10,4.481 -10,10l0,380c0,5.519 4.481,10 10,10l181,0c5.519,0 10,-4.481 10,-10l0,-380Z" style="fill:#fff;stroke:#979797;stroke-width:4.17px;"/><path id="Rectangle1" serif:id="Rectangle" d="M640,71c-0,-5.519 -4.481,-10 -10,-10l-320,0c-5.519,0 -10,4.481 -10,10l-0,500c-0,5.519 4.481,10 10,10l320,-0c5.519,-0 10,-4.481 10,-10l-0,-500Z" style="fill:#fff;stroke:#979797;stroke-width:4.17px;"/><path id="Rectangle2" serif:id="Rectangle" d="M640,711c-0,-5.519 -4.481,-10 -10,-10l-320,0c-5.519,0 -10,4.481 -10,10l-0,380c-0,5.519 4.481,10 10,10l320,0c5.519,0 10,-4.481 10,-10l-0,-380Z" style="fill:#fff;stroke:#979797;stroke-width:4.17px;"/><path id="Rectangle3" serif:id="Rectangle" d="M1080,70c0,-5.519 -4.481,-10 -10,-10l-320,0c-5.519,0 -10,4.481 -10,10l0,500c0,5.519 4.481,10 10,10l320,0c5.519,0 10,-4.481 10,-10l0,-500Z" style="fill:#fff;stroke:#979797;stroke-width:4.17px;"/><path id="Rectangle4" serif:id="Rectangle" d="M1080,710c0,-5.519 -4.481,-10 -10,-10l-320,0c-5.519,0 -10,4.481 -10,10l0,500c0,5.519 4.481,10 10,10l320,0c5.519,0 10,-4.481 10,-10l0,-500Z" style="fill:#fff;stroke:#979797;stroke-width:4.17px;"/><path d="M179,531c0,-5.519 -4.481,-10 -10,-10l-137,0c-5.519,0 -10,4.481 -10,10l0,58c0,5.519 4.481,10 10,10l137,0c5.519,0 10,-4.481 10,-10l0,-58Z" style="fill:#fff;stroke:#262626;stroke-opacity:0.5;stroke-width:4.17px;"/><path d="M179,631c0,-5.519 -4.481,-10 -10,-10l-137,0c-5.519,0 -10,4.481 -10,10l0,58c0,5.519 4.481,10 10,10l137,0c5.519,0 10,-4.481 10,-10l0,-58Z" style="fill:#fff;stroke:#262626;stroke-opacity:0.5;stroke-width:4.17px;"/><path d="M179,731c0,-5.519 -4.481,-10 -10,-10l-137,0c-5.519,0 -10,4.481 -10,10l0,58c0,5.519 4.481,10 10,10l137,0c5.519,0 10,-4.481 10,-10l0,-58Z" style="fill:#fff;stroke:#262626;stroke-opacity:0.5;stroke-width:4.17px;"/><g id="Human"><text x="62.936px" y="568.396px" style="font-family:'Helvetica';font-size:24px;fill:#313c48;">Human</text></g><g id="Machine"><text x="55.311px" y="668.414px" style="font-family:'Helvetica';font-size:24px;fill:#313c48;">Machine</text></g><g id="Application"><text x="42.059px" y="766.105px" style="font-family:'Helvetica';font-size:24px;fill:#313c48;">Applicati<tspan x="132.67px " y="766.105px ">o</tspan>n</text></g><g id="CONSUMER"><text x="30.503px" y="478.801px" style="font-family:'Helvetica-Bold', 'Helvetica';font-weight:700;font-size:24px;fill:#313c48;">CONSUMER</text></g><g id="AUTHENTICATION"><text x="368.88px" y="122.52px" style="font-family:'Helvetica-Bold', 'Helvetica';font-weight:700;font-size:24px;fill:#313c48;">AUTHENTIC<tspan x="507.432px " y="122.52px ">A</tspan>TION</text></g><g id="ENCRYPTION"><text x="831.179px" y="117.801px" style="font-family:'Helvetica-Bold', 'Helvetica';font-weight:700;font-size:24px;fill:#313c48;">ENCRYPTIO<tspan x="971.091px " y="117.801px ">N</tspan></text></g><g id="SECRETS"><text x="853.281px" y="759.52px" style="font-family:'Helvetica-Bold', 'Helvetica';font-weight:700;font-size:24px;fill:#313c48;">SECRETS</text></g><g><path d="M438,313c-0,-5.519 -4.481,-10 -10,-10l-78,-0c-5.519,-0 -10,4.481 -10,10l-0,78c-0,5.519 4.481,10 10,10l78,-0c5.519,-0 10,-4.481 10,-10l-0,-78Z" style="fill:#fff;stroke:#262626;stroke-opacity:0.5;stroke-width:4.17px;"/><g id="Group"><g id="Group-5"><path id="Path" d="M399.591,338.622l2.288,-0l6.518,-6.52l0.319,-2.768c-12.132,-10.711 -30.649,-9.554 -41.36,2.579c-2.975,3.368 -5.132,7.378 -6.312,11.719c0.725,-0.297 1.531,-0.347 2.288,-0.135l13.037,-2.152c0,0 0.662,-1.098 1.009,-1.031c5.8,-6.37 15.561,-7.112 22.258,-1.693l-0.045,-0l0,0.001Z" style="fill:#ea4335;"/><path id="Path1" serif:id="Path" d="M417.685,343.632c-1.497,-5.518 -4.573,-10.478 -8.851,-14.272l-9.148,9.148c3.864,3.158 6.064,7.914 5.97,12.903l-0,1.626c4.497,0.001 8.142,3.647 8.144,8.144c-0.002,4.497 -3.647,8.142 -8.144,8.144l-16.287,-0l-1.626,1.648l0,9.769l1.626,1.625l16.288,0c11.696,0.09 21.253,-9.318 21.344,-21.015c0.057,-7.093 -3.44,-13.744 -9.315,-17.719l-0.001,-0.001Z" style="fill:#4285f4;"/><path id="Path2" serif:id="Path" d="M373.056,382.264l16.288,0l0,-13.037l-16.288,-0c-1.16,-0.002 -2.307,-0.252 -3.363,-0.735l-2.287,0.713l-6.564,6.519l-0.563,2.288c3.678,2.782 8.171,4.277 12.786,4.254l-0.009,-0.002Z" style="fill:#34a853;"/><path id="Path3" serif:id="Path" d="M373.056,339.972c-11.7,0.067 -21.124,9.607 -21.056,21.309c0.038,6.533 3.09,12.682 8.271,16.662l9.445,-9.445c-4.098,-1.853 -5.919,-6.675 -4.07,-10.774c1.853,-4.097 6.675,-5.919 10.774,-4.069c1.806,0.815 3.25,2.264 4.069,4.068l9.445,-9.445c-4.015,-5.258 -10.262,-8.332 -16.878,-8.306Z" style="fill:#fbbc05;"/></g></g></g><g><path d="M438,173c-0,-5.519 -4.481,-10 -10,-10l-78,-0c-5.519,-0 -10,4.481 -10,10l-0,78c-0,5.519 4.481,10 10,10l78,-0c5.519,-0 10,-4.481 10,-10l-0,-78Z" style="fill:#fff;stroke:#262626;stroke-opacity:0.5;stroke-width:4.17px;"/><path id="Shape" d="M388.363,248l-16.588,-5.971l0,-24.371l16.6,5.667l-0.012,24.675Zm3.025,-0l16.6,-5.971l-0,-24.371l-16.6,5.66l-0,24.682Zm-17.914,-32.185l16.751,-4.741l15.578,5.037l-15.578,5.302l-16.751,-5.598Zm-4.867,-1.866l-16.607,-5.989l-0,-24.43l16.6,5.668l0.007,24.751Zm3.04,0l16.6,-5.97l0,-24.449l-16.604,5.696l0.004,24.723Zm-17.902,-32.184l16.751,-4.765l15.578,5.038l-15.578,5.301l-16.751,-5.574Zm53.631,32.184l-16.6,-5.97l0,-24.449l16.6,5.668l-0,24.751Zm3.024,0l16.6,-5.97l-0,-24.449l-16.6,5.668l0,24.751Zm-17.914,-32.184l16.739,-4.742l15.579,5.038l-15.579,5.301l-16.739,-5.597Z" style="fill:#f90;"/></g><g><path d="M598,313c-0,-5.519 -4.481,-10 -10,-10l-78,-0c-5.519,-0 -10,4.481 -10,10l-0,78c-0,5.519 4.481,10 10,10l78,-0c5.519,-0 10,-4.481 10,-10l-0,-78Z" style="fill:#fff;stroke:#262626;stroke-opacity:0.5;stroke-width:4.17px;"/><path id="Shape1" serif:id="Shape" d="M557.942,331.742l-10.945,22.163l19.27,22.424l-35.767,4.09l55.5,0.581l-28.058,-49.258Zm-2.159,-8.742l-25.128,21.13l-18.655,31.625l15.88,-1.626l27.903,-51.129Z" style="fill:#035bda;"/></g><g><path d="M438,453c-0,-5.519 -4.481,-10 -10,-10l-78,-0c-5.519,-0 -10,4.481 -10,10l-0,78c-0,5.519 4.481,10 10,10l78,-0c5.519,-0 10,-4.481 10,-10l-0,-78Z" style="fill:#fff;stroke:#262626;stroke-opacity:0.5;stroke-width:4.17px;"/><g id="Group1" serif:id="Group"><path id="Path4" serif:id="Path" d="M388.272,459.145c-0.65,0.038 -1.286,0.207 -1.87,0.497l-25.341,12.104c-1.323,0.631 -2.285,1.835 -2.614,3.267l-6.186,27.24c-0.3,1.279 -0.053,2.625 0.681,3.712c0.087,0.132 0.178,0.26 0.273,0.383l17.5,21.841c0.925,1.139 2.314,1.796 3.777,1.788l28.069,0c1.468,0.003 2.859,-0.684 3.781,-1.809l17.491,-21.845c0.919,-1.14 1.25,-2.646 0.909,-4.074l-6.243,-27.241c-0.341,-1.432 -1.295,-2.623 -2.613,-3.266l-25.288,-12.098c-0.729,-0.361 -1.536,-0.532 -2.348,-0.499l0.022,-0Z" style="fill:#326ce5;"/><path id="Shape2" serif:id="Shape" d="M388.506,468.419c-0.872,0.061 -1.534,0.812 -1.489,1.688l0,0.429c0.042,0.485 0.114,0.967 0.21,1.444c0.139,0.913 0.189,1.836 0.15,2.76c-0.088,0.305 -0.26,0.578 -0.496,0.787l-0.034,0.644c-0.92,0.077 -1.834,0.219 -2.734,0.424c-3.788,0.857 -7.234,2.831 -9.896,5.669l-0.545,-0.388c-0.3,0.091 -0.623,0.057 -0.909,-0.091c-0.738,-0.548 -1.421,-1.167 -2.039,-1.848c-0.31,-0.372 -0.642,-0.727 -0.993,-1.061l-0.336,-0.269c-0.3,-0.241 -0.669,-0.381 -1.053,-0.399c-0.464,-0.025 -0.913,0.175 -1.206,0.538c-0.514,0.723 -0.347,1.727 0.372,2.243l0.314,0.228c0.403,0.269 0.823,0.515 1.255,0.737c0.81,0.449 1.57,0.985 2.268,1.597c0.18,0.258 0.285,0.561 0.302,0.876l0.495,0.456c-2.67,4.031 -3.765,8.91 -3.075,13.701l-0.636,0.182c-0.165,0.266 -0.387,0.49 -0.65,0.657c-0.886,0.24 -1.795,0.388 -2.714,0.45c-0.486,0.011 -0.972,0.048 -1.454,0.114l-0.402,0.091l-0.046,0c-0.569,0.08 -1.045,0.474 -1.231,1.02c-0.186,0.546 -0.05,1.15 0.352,1.563c0.405,0.41 1.007,0.556 1.554,0.376l0.03,-0l0.409,-0.046c0.462,-0.138 0.916,-0.304 1.359,-0.497c0.852,-0.342 1.736,-0.604 2.641,-0.776c0.312,0.019 0.613,0.126 0.868,0.308l0.682,-0.114c1.477,4.602 4.582,8.5 8.727,10.957l-0.277,0.57c0.127,0.267 0.175,0.564 0.136,0.858c-0.375,0.872 -0.834,1.707 -1.37,2.491c-0.295,0.39 -0.566,0.796 -0.814,1.216l-0.193,0.411c-0.286,0.498 -0.27,1.114 0.042,1.596c0.312,0.481 0.866,0.747 1.435,0.687c0.571,-0.064 1.057,-0.445 1.257,-0.985l0.189,-0.388c0.172,-0.456 0.318,-0.922 0.436,-1.369c0.402,-0.997 0.62,-2.066 1.17,-2.728c0.18,-0.17 0.407,-0.281 0.65,-0.319l0.341,-0.623c4.494,1.734 9.466,1.746 13.969,0.034l0.302,0.57c0.309,0.048 0.587,0.216 0.773,0.468c0.426,0.816 0.773,1.672 1.036,2.555c0.12,0.473 0.267,0.938 0.441,1.394l0.188,0.388c0.203,0.538 0.689,0.916 1.258,0.979c0.569,0.063 1.126,-0.2 1.44,-0.68c0.311,-0.484 0.325,-1.102 0.037,-1.6l-0.198,-0.41c-0.248,-0.419 -0.52,-0.824 -0.814,-1.212c-0.522,-0.763 -0.979,-1.569 -1.363,-2.411c-0.074,-0.313 -0.018,-0.642 0.154,-0.912c-0.097,-0.199 -0.182,-0.404 -0.252,-0.614c4.137,-2.477 7.228,-6.388 8.688,-10.996l0.646,0.114c0.231,-0.211 0.535,-0.324 0.848,-0.314c0.9,0.184 1.783,0.443 2.641,0.775c0.454,0.228 0.909,0.379 1.359,0.525c0.109,0.03 0.268,0.055 0.391,0.084l0.029,0c0.547,0.178 1.147,0.031 1.551,-0.38c0.404,-0.41 0.544,-1.014 0.36,-1.561c-0.187,-0.547 -0.665,-0.94 -1.236,-1.017l-0.441,-0.105c-0.482,-0.067 -0.968,-0.103 -1.454,-0.114c-0.918,-0.06 -1.827,-0.21 -2.714,-0.45c-0.274,-0.154 -0.501,-0.381 -0.655,-0.657l-0.613,-0.182c0.654,-4.791 -0.467,-9.656 -3.15,-13.672l0.536,-0.497c-0.023,-0.313 0.08,-0.623 0.282,-0.863c0.697,-0.6 1.451,-1.132 2.25,-1.587c0.432,-0.222 0.851,-0.468 1.255,-0.737l0.331,-0.269c0.499,-0.311 0.776,-0.881 0.711,-1.467c-0.064,-0.585 -0.458,-1.081 -1.012,-1.275c-0.554,-0.194 -1.17,-0.051 -1.583,0.367l-0.336,0.269c-0.351,0.334 -0.683,0.689 -0.993,1.061c-0.6,0.689 -1.264,1.316 -1.984,1.877c-0.291,0.119 -0.609,0.154 -0.919,0.101l-0.575,0.41c-3.318,-3.49 -7.788,-5.657 -12.579,-6.091c-0,-0.228 -0.03,-0.57 -0.034,-0.677c-0.258,-0.178 -0.436,-0.45 -0.496,-0.758c-0.031,-0.921 0.026,-1.843 0.173,-2.753c0.098,-0.456 0.166,-0.958 0.209,-1.444l0,-0.456c0.046,-0.876 -0.617,-1.627 -1.488,-1.688l-0.021,0.011Zm-1.895,11.785l-0.455,7.968l-0.034,0c-0.023,0.493 -0.311,0.913 -0.755,1.15c-0.443,0.237 -0.968,0.167 -1.363,-0.123l-6.512,-4.631c2.073,-2.043 4.673,-3.465 7.507,-4.104c0.532,-0.114 1.068,-0.201 1.607,-0.26l0.005,-0Zm3.791,-0c3.409,0.427 6.604,1.969 9.09,4.389l-6.45,4.601c-0.399,0.315 -0.942,0.376 -1.401,0.158c-0.459,-0.219 -0.756,-0.679 -0.767,-1.189l-0.472,-7.959Zm-15.273,7.362l5.954,5.333l0,0.034c0.367,0.327 0.527,0.828 0.417,1.307c-0.109,0.48 -0.47,0.861 -0.942,0.995l0,0.023l-7.641,2.207c-0.378,-3.455 0.401,-6.939 2.214,-9.901l-0.002,0.002Zm26.711,-0c1.81,2.953 2.609,6.419 2.277,9.871l-7.663,-2.213l-0,-0.03c-0.476,-0.127 -0.841,-0.51 -0.948,-0.992c-0.109,-0.482 0.053,-0.984 0.423,-1.31l5.909,-5.308l0.002,-0.018Zm-14.554,5.748l2.436,0l1.477,1.898l-0.541,2.373l-2.188,1.056l-2.193,-1.056l-0.516,-2.373l1.525,-1.898Zm7.804,6.474c0.114,-0.011 0.227,-0.011 0.307,0l7.88,1.335c-1.137,3.285 -3.38,6.091 -6.307,7.968l-3.046,-7.4c-0.17,-0.403 -0.134,-0.863 0.096,-1.235c0.23,-0.372 0.626,-0.608 1.061,-0.633l0.009,-0.035Zm-13.234,0.035c0.445,0.008 0.857,0.237 1.1,0.611c0.242,0.374 0.282,0.845 0.107,1.255l-0,0.029l-3.027,7.341c-2.897,-1.864 -5.101,-4.636 -6.269,-7.886l7.812,-1.33c0.087,-0.009 0.176,-0.009 0.263,0l0.014,-0.02Zm6.6,3.193c0.506,-0.016 0.979,0.256 1.221,0.703l0.029,0l3.85,6.974l-1.539,0.456c-2.832,0.65 -5.789,0.497 -8.54,-0.442l3.863,-6.974c0.235,-0.409 0.666,-0.664 1.137,-0.673l-0.021,-0.044Z" style="fill:#fff;stroke:#fff;stroke-width:0.11px;stroke-linecap:round;stroke-linejoin:round;"/><path id="Path5" serif:id="Path" d="M387.136,458.004c-0.651,0.038 -1.287,0.207 -1.871,0.497l-25.341,12.105c-1.322,0.631 -2.285,1.834 -2.613,3.266l-6.187,27.241c-0.299,1.278 -0.052,2.624 0.682,3.711c0.086,0.133 0.177,0.26 0.273,0.384l17.5,21.84c0.925,1.139 2.313,1.796 3.777,1.789l28.068,-0c1.468,0.002 2.859,-0.685 3.782,-1.809l17.491,-21.845c0.918,-1.141 1.25,-2.647 0.909,-4.075l-6.243,-27.24c-0.341,-1.433 -1.296,-2.624 -2.614,-3.267l-25.287,-12.097c-0.729,-0.361 -1.536,-0.533 -2.348,-0.5l0.022,-0Z" style="fill:#326ce5;"/><path id="Shape3" serif:id="Shape" d="M387.37,467.278c-0.872,0.061 -1.534,0.812 -1.489,1.689l0,0.428c0.042,0.485 0.114,0.968 0.209,1.444c0.14,0.913 0.19,1.837 0.15,2.761c-0.087,0.304 -0.259,0.577 -0.495,0.787l-0.034,0.643c-0.92,0.077 -1.834,0.219 -2.734,0.424c-3.788,0.857 -7.235,2.831 -9.896,5.669l-0.545,-0.388c-0.3,0.092 -0.623,0.058 -0.909,-0.091c-0.738,-0.548 -1.421,-1.167 -2.039,-1.848c-0.31,-0.371 -0.642,-0.726 -0.993,-1.06l-0.337,-0.27c-0.3,-0.241 -0.668,-0.381 -1.052,-0.399c-0.465,-0.025 -0.914,0.176 -1.207,0.539c-0.513,0.722 -0.347,1.726 0.373,2.242l0.314,0.228c0.403,0.269 0.822,0.516 1.254,0.737c0.81,0.449 1.571,0.986 2.268,1.597c0.181,0.258 0.285,0.561 0.303,0.876l0.495,0.456c-2.67,4.032 -3.765,8.91 -3.075,13.701l-0.636,0.183c-0.165,0.265 -0.387,0.489 -0.65,0.657c-0.887,0.239 -1.796,0.388 -2.714,0.449c-0.486,0.012 -0.973,0.048 -1.454,0.114l-0.403,0.092l-0.045,-0c-0.569,0.079 -1.046,0.473 -1.232,1.019c-0.186,0.546 -0.05,1.15 0.352,1.563c0.406,0.41 1.007,0.556 1.555,0.376l0.029,0l0.409,-0.045c0.463,-0.139 0.917,-0.305 1.36,-0.498c0.852,-0.342 1.736,-0.604 2.64,-0.775c0.313,0.018 0.614,0.125 0.869,0.308l0.681,-0.114c1.478,4.601 4.582,8.5 8.728,10.957l-0.278,0.57c0.128,0.267 0.175,0.563 0.137,0.858c-0.375,0.871 -0.834,1.706 -1.371,2.491c-0.294,0.389 -0.566,0.795 -0.813,1.216l-0.193,0.41c-0.286,0.498 -0.27,1.114 0.042,1.596c0.311,0.482 0.866,0.747 1.435,0.688c0.57,-0.065 1.056,-0.446 1.257,-0.986l0.188,-0.388c0.173,-0.456 0.318,-0.921 0.437,-1.368c0.402,-0.997 0.62,-2.067 1.17,-2.729c0.18,-0.169 0.406,-0.281 0.65,-0.319l0.341,-0.623c4.494,1.734 9.466,1.746 13.968,0.034l0.302,0.571c0.309,0.047 0.587,0.215 0.773,0.467c0.427,0.817 0.774,1.672 1.037,2.555c0.12,0.474 0.267,0.938 0.44,1.394l0.189,0.388c0.202,0.538 0.688,0.916 1.258,0.98c0.569,0.063 1.126,-0.2 1.44,-0.681c0.311,-0.484 0.325,-1.102 0.036,-1.599l-0.198,-0.411c-0.247,-0.418 -0.519,-0.823 -0.813,-1.211c-0.523,-0.763 -0.979,-1.57 -1.364,-2.412c-0.074,-0.312 -0.018,-0.641 0.155,-0.912c-0.097,-0.198 -0.182,-0.404 -0.253,-0.614c4.138,-2.476 7.228,-6.388 8.689,-10.995l0.646,0.114c0.231,-0.212 0.535,-0.325 0.847,-0.315c0.901,0.184 1.784,0.444 2.641,0.776c0.455,0.228 0.909,0.378 1.359,0.524c0.109,0.03 0.268,0.055 0.391,0.085l0.03,-0c0.547,0.177 1.147,0.03 1.551,-0.38c0.404,-0.411 0.543,-1.015 0.36,-1.562c-0.187,-0.546 -0.666,-0.94 -1.236,-1.017l-0.441,-0.105c-0.482,-0.066 -0.968,-0.103 -1.455,-0.114c-0.917,-0.059 -1.826,-0.21 -2.713,-0.45c-0.275,-0.154 -0.501,-0.381 -0.655,-0.657l-0.614,-0.182c0.655,-4.791 -0.466,-9.656 -3.15,-13.672l0.537,-0.497c-0.023,-0.312 0.079,-0.623 0.282,-0.862c0.697,-0.601 1.45,-1.133 2.25,-1.588c0.432,-0.221 0.85,-0.467 1.254,-0.737l0.332,-0.269c0.499,-0.31 0.775,-0.881 0.711,-1.466c-0.064,-0.586 -0.458,-1.082 -1.012,-1.276c-0.554,-0.194 -1.17,-0.051 -1.583,0.367l-0.336,0.269c-0.351,0.335 -0.683,0.689 -0.994,1.061c-0.6,0.689 -1.263,1.317 -1.984,1.878c-0.29,0.119 -0.609,0.153 -0.918,0.1l-0.575,0.411c-3.318,-3.491 -7.789,-5.658 -12.579,-6.091c-0,-0.228 -0.03,-0.571 -0.035,-0.678c-0.257,-0.177 -0.435,-0.449 -0.495,-0.757c-0.032,-0.922 0.026,-1.843 0.173,-2.754c0.097,-0.456 0.166,-0.958 0.209,-1.444l-0,-0.456c0.045,-0.876 -0.617,-1.627 -1.489,-1.688l-0.02,0.011Zm-1.896,11.785l-0.454,7.969l-0.034,-0c-0.023,0.492 -0.312,0.912 -0.755,1.149c-0.443,0.238 -0.968,0.167 -1.364,-0.123l-6.511,-4.631c2.073,-2.043 4.673,-3.464 7.507,-4.104c0.532,-0.114 1.068,-0.2 1.607,-0.26l0.004,0Zm3.791,0c3.409,0.427 6.605,1.969 9.091,4.389l-6.45,4.602c-0.4,0.315 -0.942,0.375 -1.402,0.157c-0.459,-0.218 -0.756,-0.678 -0.766,-1.188l-0.473,-7.96Zm-15.273,7.362l5.955,5.333l-0,0.035c0.366,0.326 0.526,0.827 0.417,1.307c-0.109,0.479 -0.471,0.861 -0.942,0.994l-0,0.023l-7.641,2.207c-0.378,-3.455 0.401,-6.938 2.214,-9.9l-0.003,0.001Zm26.712,-0c1.809,2.954 2.609,6.419 2.277,9.871l-7.664,-2.213l0,-0.03c-0.475,-0.127 -0.841,-0.509 -0.947,-0.992c-0.109,-0.481 0.053,-0.984 0.422,-1.309l5.91,-5.309l0.002,-0.018Zm-14.555,5.749l2.437,-0l1.477,1.898l-0.541,2.372l-2.189,1.056l-2.193,-1.056l-0.516,-2.372l1.525,-1.898Zm7.805,6.474c0.113,-0.012 0.227,-0.012 0.307,-0l7.879,1.334c-1.136,3.285 -3.379,6.091 -6.307,7.969l-3.045,-7.401c-0.17,-0.402 -0.134,-0.863 0.096,-1.235c0.23,-0.371 0.626,-0.607 1.061,-0.633l0.009,-0.034Zm-13.234,0.034c0.445,0.008 0.857,0.237 1.1,0.611c0.242,0.374 0.282,0.845 0.107,1.255l-0,0.03l-3.028,7.341c-2.897,-1.865 -5.1,-4.637 -6.268,-7.886l7.811,-1.33c0.088,-0.01 0.177,-0.01 0.264,-0l0.014,-0.021Zm6.6,3.194c0.506,-0.016 0.978,0.256 1.22,0.702l0.03,0l3.85,6.974l-1.539,0.456c-2.833,0.651 -5.79,0.497 -8.541,-0.442l3.864,-6.974c0.235,-0.409 0.666,-0.664 1.136,-0.673l-0.02,-0.043Z" style="fill:#fff;stroke:#fff;stroke-width:0.11px;stroke-linecap:round;stroke-linejoin:round;"/></g></g><g><path d="M598,175c-0,-5.519 -4.481,-10 -10,-10l-78,-0c-5.519,-0 -10,4.481 -10,10l-0,78c-0,5.519 4.481,10 10,10l78,-0c5.519,-0 10,-4.481 10,-10l-0,-78Z" style="fill:#fff;stroke:#262626;stroke-opacity:0.5;stroke-width:4.17px;"/><path id="Path6" serif:id="Path" d="M549,176c-20.71,-0 -37.5,17.444 -37.5,38.957c-0,17.216 10.744,31.817 25.646,36.966c1.875,0.358 2.56,-0.847 2.56,-1.874l-0.054,-7.253c-10.428,2.354 -12.632,-4.593 -12.632,-4.593c-1.707,-4.499 -4.163,-5.697 -4.163,-5.697c-3.409,-2.416 0.267,-2.369 0.267,-2.369c3.765,0.272 5.747,4.013 5.747,4.013c3.347,5.955 8.779,4.233 10.914,3.235c0.341,-2.512 1.313,-4.233 2.38,-5.203c-8.323,-0.984 -17.08,-4.327 -17.08,-19.256c0,-4.255 1.463,-7.727 3.857,-10.454c-0.382,-0.99 -1.673,-4.954 0.371,-10.315c0,-0 3.145,-1.046 10.312,3.994c2.99,-0.867 6.197,-1.297 9.375,-1.309c3.186,0.014 6.395,0.446 9.389,1.314c7.155,-5.046 10.303,-3.995 10.303,-3.995c2.051,5.367 0.759,9.325 0.375,10.311c2.404,2.727 3.855,6.198 3.855,10.454c-0,14.967 -8.771,18.263 -17.125,19.228c1.352,1.207 2.544,3.576 2.544,7.21l-0.05,10.69c0,1.037 0.683,2.249 2.582,1.877c14.891,-5.166 25.627,-19.765 25.627,-36.973c0,-21.515 -16.79,-38.958 -37.5,-38.958l-0,-0Z"/></g><g><path d="M598,454c-0,-5.519 -4.481,-10 -10,-10l-78,-0c-5.519,-0 -10,4.481 -10,10l-0,78c-0,5.519 4.481,10 10,10l78,-0c5.519,-0 10,-4.481 10,-10l-0,-78Z" style="fill:#fff;stroke:#262626;stroke-opacity:0.5;stroke-width:4.17px;"/><g id="okta-icon"><g id="A-link"><g id="Group-6"><path id="Shape4" serif:id="Shape" d="M550.068,457.705c-20.034,-0 -36.363,16.212 -36.363,36.363c-0,20.151 16.213,36.364 36.363,36.364c20.15,-0 36.364,-16.214 36.364,-36.364c-0,-20.15 -16.33,-36.363 -36.364,-36.363Zm0,54.545c-10.075,0 -18.182,-8.107 -18.182,-18.182c0,-10.075 8.107,-18.182 18.182,-18.182c10.075,0 18.182,8.107 18.182,18.182c0,10.075 -8.107,18.182 -18.182,18.182Z" style="fill:#007dc1;fill-rule:nonzero;"/><path id="Shape5" serif:id="Shape" d="M549.5,457.136c-20.034,0 -36.364,16.213 -36.364,36.364c0,20.151 16.214,36.364 36.364,36.364c20.15,-0 36.364,-16.214 36.364,-36.364c-0,-20.15 -16.33,-36.364 -36.364,-36.364Zm0,54.546c-10.075,-0 -18.182,-8.107 -18.182,-18.182c0,-10.075 8.107,-18.182 18.182,-18.182c10.075,0 18.182,8.107 18.182,18.182c-0,10.075 -8.107,18.182 -18.182,18.182Z" style="fill:#007dc1;fill-rule:nonzero;"/></g></g></g></g><g id="ACCESS-POLICIES"><text x="360.844px" y="760.52px" style="font-family:'Helvetica-Bold', 'Helvetica';font-weight:700;font-size:24px;fill:#313c48;">ACCESS PO<tspan x="502.104px " y="760.52px ">L</tspan>ICIES</text></g><g><path d="M438,811c0,-5.519 -4.481,-10 -10,-10l-78,0c-5.519,0 -10,4.481 -10,10l0,78c0,5.519 4.481,10 10,10l78,0c5.519,0 10,-4.481 10,-10l0,-78Z" style="fill:#fff;stroke:#262626;stroke-opacity:0.5;stroke-width:4.17px;"/><g id="eng"><text x="369.051px" y="853.762px" style="font-family:'Helvetica';font-size:24px;fill:#313c48;">eng</text></g></g><g><path d="M599,811c-0,-5.519 -4.481,-10 -10,-10l-78,-0c-5.519,-0 -10,4.481 -10,10l-0,78c-0,5.519 4.481,10 10,10l78,-0c5.519,-0 10,-4.481 10,-10l-0,-78Z" style="fill:#fff;stroke:#262626;stroke-opacity:0.5;stroke-width:4.17px;"/><g id="dev"><text x="530.724px" y="858.414px" style="font-family:'Helvetica';font-size:24px;fill:#313c48;">dev</text></g></g><g><path d="M598,971c-0,-5.519 -4.481,-10 -10,-10l-78,-0c-5.519,-0 -10,4.481 -10,10l-0,78c-0,5.519 4.481,10 10,10l78,0c5.519,0 10,-4.481 10,-10l-0,-78Z" style="fill:#fff;stroke:#262626;stroke-opacity:0.5;stroke-width:4.17px;"/><g id="web"><text x="527.349px" y="1018.41px" style="font-family:'Helvetica';font-size:24px;fill:#313c48;">web</text></g></g><g><path d="M440,973c-0,-5.519 -4.481,-10 -10,-10l-78,-0c-5.519,-0 -10,4.481 -10,10l-0,78c-0,5.519 4.481,10 10,10l78,-0c5.519,-0 10,-4.481 10,-10l-0,-78Z" style="fill:#fff;stroke:#262626;stroke-opacity:0.5;stroke-width:4.17px;"/><g id="prod"><text x="367.078px" y="1018.13px" style="font-family:'Helvetica';font-size:24px;fill:#313c48;">prod</text></g></g><g><path d="M879,812c-0,-5.519 -4.481,-10 -10,-10l-78,0c-5.519,0 -10,4.481 -10,10l-0,78c-0,5.519 4.481,10 10,10l78,0c5.519,0 10,-4.481 10,-10l-0,-78Z" style="fill:#fff;stroke:#262626;stroke-opacity:0.5;stroke-width:4.17px;"/><g id="Group2" serif:id="Group"><g id="Group-51" serif:id="Group-5"><path id="Path7" serif:id="Path" d="M839.591,837.622l2.288,-0l6.518,-6.52l0.319,-2.768c-12.132,-10.711 -30.649,-9.554 -41.36,2.579c-2.975,3.368 -5.132,7.378 -6.312,11.719c0.725,-0.297 1.531,-0.347 2.288,-0.135l13.037,-2.152c0,0 0.662,-1.098 1.009,-1.031c5.8,-6.37 15.561,-7.112 22.258,-1.693l-0.045,-0l0,0.001Z" style="fill:#ea4335;"/><path id="Path8" serif:id="Path" d="M857.685,842.632c-1.497,-5.518 -4.573,-10.478 -8.851,-14.272l-9.148,9.148c3.864,3.158 6.064,7.914 5.97,12.903l-0,1.626c4.497,0.001 8.142,3.647 8.144,8.144c-0.002,4.497 -3.647,8.142 -8.144,8.144l-16.287,-0l-1.626,1.648l0,9.769l1.626,1.625l16.288,0c11.696,0.09 21.253,-9.318 21.344,-21.015c0.057,-7.093 -3.44,-13.744 -9.315,-17.719l-0.001,-0.001Z" style="fill:#4285f4;"/><path id="Path9" serif:id="Path" d="M813.056,881.264l16.288,0l0,-13.037l-16.288,-0c-1.16,-0.002 -2.307,-0.252 -3.363,-0.735l-2.287,0.713l-6.564,6.519l-0.563,2.288c3.678,2.782 8.171,4.277 12.786,4.254l-0.009,-0.002Z" style="fill:#34a853;"/><path id="Path10" serif:id="Path" d="M813.056,838.972c-11.7,0.067 -21.124,9.607 -21.056,21.309c0.038,6.533 3.09,12.682 8.271,16.662l9.445,-9.445c-4.098,-1.853 -5.919,-6.675 -4.07,-10.774c1.853,-4.097 6.675,-5.919 10.774,-4.069c1.806,0.815 3.25,2.264 4.069,4.068l9.445,-9.445c-4.015,-5.258 -10.262,-8.332 -16.878,-8.306Z" style="fill:#fbbc05;"/></g></g></g><g><path d="M1038,810.231c0,-5.519 -4.481,-10 -10,-10l-78,0c-5.519,0 -10,4.481 -10,10l-0,78c-0,5.52 4.481,10 10,10l78,0c5.519,0 10,-4.48 10,-10l0,-78Z" style="fill:#fff;stroke:#262626;stroke-opacity:0.5;stroke-width:4.17px;"/><path id="Shape6" serif:id="Shape" d="M988.363,885.231l-16.588,-5.97l0,-24.372l16.6,5.668l-0.012,24.674Zm3.025,0l16.6,-5.97l-0,-24.372l-16.6,5.661l-0,24.681Zm-17.914,-32.184l16.751,-4.742l15.578,5.038l-15.578,5.301l-16.751,-5.597Zm-4.867,-1.866l-16.607,-5.989l-0,-24.43l16.6,5.667l0.007,24.752Zm3.04,-0l16.6,-5.971l0,-24.448l-16.604,5.695l0.004,24.724Zm-17.902,-32.185l16.751,-4.765l15.578,5.038l-15.578,5.301l-16.751,-5.574Zm53.631,32.185l-16.6,-5.971l0,-24.448l16.6,5.667l-0,24.752Zm3.024,-0l16.6,-5.971l0,-24.448l-16.6,5.667l0,24.752Zm-17.914,-32.185l16.739,-4.741l15.579,5.037l-15.579,5.302l-16.739,-5.598Z" style="fill:#f90;"/></g><g><path d="M878,952c-0,-5.519 -4.481,-10 -10,-10l-78,-0c-5.519,-0 -10,4.481 -10,10l-0,78c-0,5.519 4.481,10 10,10l78,0c5.519,0 10,-4.481 10,-10l-0,-78Z" style="fill:#fff;stroke:#262626;stroke-opacity:0.5;stroke-width:4.17px;"/><path id="Shape7" serif:id="Shape" d="M837.942,970.742l-10.945,22.163l19.27,22.424l-35.767,4.09l55.5,0.581l-28.058,-49.258Zm-2.159,-8.742l-25.128,21.13l-18.655,31.625l15.88,-1.626l27.903,-51.129Z" style="fill:#035bda;"/></g><g><path d="M1040,1090c0,-5.519 -4.481,-10 -10,-10l-78,0c-5.519,0 -10,4.481 -10,10l-0,78c-0,5.519 4.481,10 10,10l78,0c5.519,0 10,-4.481 10,-10l0,-78Z" style="fill:#fff;stroke:#262626;stroke-opacity:0.5;stroke-width:4.17px;"/><g id="Group3" serif:id="Group"><path id="Path11" serif:id="Path" d="M991.335,1094.16c-0.65,0.038 -1.286,0.207 -1.87,0.497l-25.341,12.104c-1.323,0.632 -2.285,1.835 -2.614,3.267l-6.186,27.241c-0.3,1.278 -0.052,2.624 0.682,3.711c0.086,0.133 0.177,0.26 0.272,0.383l17.5,21.841c0.925,1.139 2.314,1.796 3.778,1.789l28.068,-0c1.468,0.002 2.859,-0.685 3.782,-1.809l17.491,-21.846c0.918,-1.14 1.25,-2.646 0.909,-4.074l-6.243,-27.24c-0.341,-1.433 -1.296,-2.624 -2.614,-3.267l-25.288,-12.098c-0.728,-0.36 -1.535,-0.532 -2.347,-0.499l0.021,-0Z" style="fill:#326ce5;"/><path id="Shape8" serif:id="Shape" d="M991.569,1103.43c-0.871,0.061 -1.534,0.812 -1.488,1.688l-0,0.429c0.042,0.485 0.113,0.968 0.209,1.444c0.14,0.913 0.19,1.837 0.15,2.761c-0.087,0.304 -0.259,0.577 -0.496,0.787l-0.034,0.643c-0.92,0.077 -1.833,0.219 -2.734,0.424c-3.788,0.857 -7.234,2.831 -9.895,5.669l-0.546,-0.388c-0.3,0.092 -0.622,0.057 -0.909,-0.091c-0.738,-0.548 -1.42,-1.167 -2.038,-1.848c-0.311,-0.372 -0.643,-0.726 -0.994,-1.06l-0.336,-0.27c-0.3,-0.241 -0.668,-0.381 -1.052,-0.399c-0.465,-0.025 -0.914,0.175 -1.207,0.538c-0.514,0.723 -0.347,1.727 0.373,2.243l0.313,0.228c0.404,0.269 0.823,0.516 1.255,0.737c0.81,0.449 1.57,0.985 2.268,1.597c0.18,0.258 0.285,0.561 0.302,0.876l0.496,0.456c-2.671,4.031 -3.765,8.91 -3.075,13.701l-0.637,0.183c-0.165,0.265 -0.387,0.489 -0.65,0.657c-0.886,0.239 -1.795,0.388 -2.713,0.449c-0.487,0.012 -0.973,0.048 -1.455,0.114l-0.402,0.091l-0.046,0c-0.569,0.08 -1.045,0.474 -1.231,1.02c-0.186,0.546 -0.05,1.15 0.352,1.563c0.405,0.41 1.007,0.556 1.554,0.376l0.03,0l0.409,-0.045c0.463,-0.139 0.916,-0.305 1.359,-0.498c0.852,-0.342 1.737,-0.604 2.641,-0.775c0.313,0.018 0.614,0.125 0.868,0.308l0.682,-0.114c1.477,4.601 4.582,8.5 8.727,10.956l-0.277,0.571c0.127,0.267 0.175,0.563 0.136,0.857c-0.375,0.872 -0.834,1.707 -1.37,2.492c-0.294,0.389 -0.566,0.795 -0.814,1.216l-0.193,0.41c-0.286,0.498 -0.269,1.114 0.042,1.596c0.312,0.482 0.866,0.747 1.435,0.688c0.571,-0.065 1.057,-0.446 1.257,-0.986l0.189,-0.388c0.173,-0.456 0.318,-0.921 0.436,-1.368c0.403,-0.997 0.621,-2.067 1.171,-2.729c0.179,-0.169 0.406,-0.281 0.65,-0.319l0.341,-0.623c4.493,1.734 9.466,1.746 13.968,0.034l0.302,0.571c0.309,0.047 0.587,0.215 0.773,0.467c0.426,0.817 0.773,1.672 1.036,2.555c0.121,0.474 0.267,0.938 0.441,1.394l0.189,0.388c0.202,0.538 0.688,0.916 1.257,0.979c0.57,0.063 1.126,-0.2 1.44,-0.68c0.312,-0.484 0.326,-1.102 0.037,-1.599l-0.198,-0.411c-0.248,-0.419 -0.519,-0.824 -0.814,-1.211c-0.522,-0.763 -0.978,-1.57 -1.363,-2.412c-0.074,-0.312 -0.018,-0.642 0.154,-0.912c-0.096,-0.199 -0.181,-0.404 -0.252,-0.614c4.137,-2.477 7.228,-6.388 8.689,-10.995l0.645,0.114c0.231,-0.212 0.535,-0.325 0.848,-0.315c0.9,0.184 1.784,0.444 2.641,0.775c0.454,0.229 0.909,0.379 1.359,0.525c0.109,0.03 0.268,0.055 0.391,0.085l0.029,-0c0.547,0.177 1.147,0.03 1.551,-0.381c0.404,-0.41 0.544,-1.014 0.361,-1.561c-0.188,-0.546 -0.666,-0.94 -1.237,-1.017l-0.441,-0.105c-0.481,-0.066 -0.968,-0.103 -1.454,-0.114c-0.917,-0.059 -1.826,-0.21 -2.714,-0.45c-0.274,-0.154 -0.501,-0.381 -0.654,-0.657l-0.614,-0.182c0.654,-4.791 -0.467,-9.656 -3.15,-13.672l0.536,-0.497c-0.022,-0.313 0.08,-0.623 0.282,-0.862c0.698,-0.601 1.451,-1.133 2.25,-1.588c0.432,-0.221 0.851,-0.467 1.255,-0.737l0.332,-0.269c0.498,-0.311 0.775,-0.881 0.711,-1.466c-0.065,-0.586 -0.458,-1.082 -1.013,-1.276c-0.554,-0.194 -1.169,-0.051 -1.582,0.367l-0.337,0.269c-0.351,0.335 -0.682,0.689 -0.993,1.061c-0.6,0.689 -1.264,1.316 -1.984,1.878c-0.291,0.118 -0.609,0.153 -0.918,0.1l-0.575,0.411c-3.318,-3.491 -7.789,-5.658 -12.58,-6.091c0,-0.228 -0.029,-0.571 -0.034,-0.678c-0.258,-0.177 -0.435,-0.449 -0.495,-0.757c-0.032,-0.922 0.026,-1.844 0.172,-2.754c0.098,-0.456 0.166,-0.958 0.209,-1.444l0,-0.456c0.046,-0.876 -0.616,-1.627 -1.488,-1.688l-0.021,0.011Zm-1.895,11.785l-0.455,7.969l-0.034,-0c-0.022,0.492 -0.311,0.912 -0.754,1.149c-0.443,0.238 -0.968,0.167 -1.364,-0.123l-6.511,-4.631c2.072,-2.043 4.672,-3.464 7.507,-4.104c0.531,-0.114 1.068,-0.2 1.606,-0.26l0.005,0Zm3.791,0c3.409,0.427 6.604,1.969 9.091,4.389l-6.45,4.602c-0.4,0.314 -0.943,0.375 -1.402,0.157c-0.459,-0.218 -0.756,-0.679 -0.766,-1.189l-0.473,-7.959Zm-15.273,7.362l5.955,5.333l-0,0.035c0.366,0.326 0.526,0.827 0.417,1.307c-0.11,0.479 -0.471,0.86 -0.942,0.994l-0,0.023l-7.641,2.207c-0.378,-3.455 0.4,-6.939 2.213,-9.9l-0.002,0.001Zm26.711,-0c1.81,2.953 2.61,6.419 2.278,9.871l-7.664,-2.213l0,-0.03c-0.476,-0.127 -0.841,-0.51 -0.948,-0.992c-0.109,-0.481 0.054,-0.984 0.423,-1.309l5.909,-5.309l0.002,-0.018Zm-14.554,5.749l2.436,-0l1.478,1.898l-0.541,2.372l-2.189,1.056l-2.193,-1.056l-0.516,-2.372l1.525,-1.898Zm7.804,6.474c0.114,-0.012 0.228,-0.012 0.307,-0l7.88,1.334c-1.137,3.285 -3.38,6.091 -6.307,7.969l-3.045,-7.401c-0.17,-0.403 -0.135,-0.863 0.095,-1.235c0.231,-0.371 0.626,-0.608 1.061,-0.633l0.009,-0.034Zm-13.234,0.034c0.445,0.008 0.857,0.237 1.1,0.611c0.243,0.374 0.283,0.845 0.107,1.255l0,0.03l-3.027,7.341c-2.897,-1.865 -5.1,-4.637 -6.268,-7.887l7.811,-1.33c0.088,-0.009 0.176,-0.009 0.264,0l0.013,-0.02Zm6.6,3.194c0.507,-0.016 0.979,0.255 1.221,0.702l0.029,0l3.85,6.974l-1.538,0.456c-2.833,0.651 -5.79,0.497 -8.541,-0.442l3.863,-6.974c0.235,-0.409 0.667,-0.664 1.137,-0.673l-0.021,-0.043Z" style="fill:#fff;stroke:#fff;stroke-width:0.11px;stroke-linecap:round;stroke-linejoin:round;"/><path id="Path12" serif:id="Path" d="M990.199,1093.02c-0.65,0.039 -1.287,0.208 -1.871,0.498l-25.34,12.104c-1.323,0.631 -2.285,1.834 -2.614,3.267l-6.186,27.24c-0.3,1.278 -0.053,2.624 0.681,3.712c0.087,0.132 0.178,0.26 0.273,0.383l17.5,21.841c0.925,1.138 2.314,1.796 3.777,1.788l28.069,0c1.468,0.002 2.859,-0.684 3.781,-1.809l17.491,-21.845c0.918,-1.141 1.25,-2.647 0.909,-4.075l-6.243,-27.24c-0.341,-1.433 -1.295,-2.623 -2.613,-3.267l-25.288,-12.097c-0.729,-0.361 -1.536,-0.533 -2.348,-0.5l0.022,0Z" style="fill:#326ce5;"/><path id="Shape9" serif:id="Shape" d="M990.433,1102.29c-0.872,0.061 -1.534,0.812 -1.489,1.688l0,0.429c0.042,0.484 0.114,0.967 0.209,1.444c0.14,0.912 0.19,1.836 0.15,2.76c-0.087,0.304 -0.259,0.577 -0.495,0.787l-0.034,0.643c-0.92,0.078 -1.834,0.219 -2.734,0.425c-3.788,0.856 -7.234,2.831 -9.896,5.669l-0.545,-0.388c-0.3,0.091 -0.623,0.057 -0.909,-0.092c-0.738,-0.548 -1.421,-1.166 -2.039,-1.847c-0.31,-0.372 -0.642,-0.727 -0.993,-1.061l-0.336,-0.269c-0.3,-0.242 -0.669,-0.381 -1.053,-0.4c-0.465,-0.024 -0.913,0.176 -1.206,0.539c-0.514,0.722 -0.347,1.726 0.372,2.242l0.314,0.228c0.403,0.27 0.823,0.516 1.254,0.737c0.811,0.45 1.571,0.986 2.269,1.597c0.18,0.258 0.285,0.562 0.302,0.876l0.495,0.456c-2.67,4.032 -3.765,8.91 -3.075,13.702l-0.636,0.182c-0.165,0.265 -0.387,0.49 -0.65,0.657c-0.886,0.24 -1.795,0.388 -2.714,0.45c-0.486,0.011 -0.972,0.047 -1.454,0.114l-0.402,0.091l-0.046,-0c-0.569,0.079 -1.046,0.473 -1.231,1.019c-0.186,0.546 -0.05,1.151 0.352,1.563c0.405,0.411 1.007,0.556 1.554,0.377l0.03,-0l0.409,-0.046c0.462,-0.139 0.916,-0.305 1.359,-0.497c0.852,-0.343 1.736,-0.605 2.641,-0.776c0.312,0.018 0.613,0.125 0.868,0.308l0.682,-0.114c1.477,4.601 4.582,8.5 8.727,10.957l-0.277,0.57c0.127,0.267 0.175,0.564 0.136,0.858c-0.375,0.871 -0.834,1.706 -1.37,2.491c-0.295,0.389 -0.566,0.795 -0.814,1.216l-0.193,0.411c-0.286,0.497 -0.27,1.114 0.042,1.595c0.312,0.482 0.866,0.748 1.435,0.688c0.571,-0.064 1.057,-0.445 1.257,-0.985l0.189,-0.388c0.172,-0.457 0.318,-0.922 0.436,-1.369c0.402,-0.997 0.62,-2.067 1.17,-2.728c0.18,-0.17 0.407,-0.281 0.65,-0.32l0.341,-0.623c4.494,1.734 9.466,1.746 13.968,0.035l0.303,0.57c0.309,0.047 0.587,0.215 0.772,0.468c0.427,0.816 0.774,1.672 1.037,2.555c0.12,0.473 0.267,0.937 0.441,1.393l0.188,0.388c0.203,0.538 0.689,0.917 1.258,0.98c0.569,0.063 1.126,-0.2 1.44,-0.681c0.311,-0.484 0.325,-1.102 0.036,-1.599l-0.197,-0.411c-0.248,-0.418 -0.52,-0.823 -0.814,-1.211c-0.522,-0.763 -0.979,-1.57 -1.364,-2.411c-0.073,-0.313 -0.018,-0.642 0.155,-0.913c-0.097,-0.198 -0.182,-0.404 -0.252,-0.613c4.137,-2.477 7.228,-6.389 8.688,-10.996l0.646,0.114c0.231,-0.211 0.535,-0.324 0.848,-0.315c0.9,0.185 1.783,0.444 2.64,0.776c0.455,0.228 0.91,0.379 1.36,0.525c0.109,0.029 0.268,0.054 0.39,0.084l0.03,-0c0.547,0.177 1.147,0.03 1.551,-0.38c0.404,-0.411 0.543,-1.014 0.36,-1.561c-0.187,-0.547 -0.665,-0.941 -1.236,-1.018l-0.441,-0.105c-0.482,-0.066 -0.968,-0.102 -1.454,-0.114c-0.918,-0.059 -1.827,-0.21 -2.714,-0.449c-0.274,-0.154 -0.501,-0.382 -0.655,-0.657l-0.613,-0.183c0.654,-4.79 -0.467,-9.655 -3.15,-13.671l0.536,-0.498c-0.023,-0.312 0.08,-0.622 0.282,-0.862c0.697,-0.601 1.451,-1.132 2.25,-1.588c0.432,-0.221 0.851,-0.467 1.254,-0.737l0.332,-0.269c0.499,-0.31 0.776,-0.881 0.711,-1.466c-0.064,-0.586 -0.458,-1.082 -1.012,-1.276c-0.554,-0.194 -1.17,-0.051 -1.583,0.368l-0.336,0.269c-0.351,0.334 -0.683,0.688 -0.993,1.06c-0.6,0.689 -1.264,1.317 -1.984,1.878c-0.291,0.119 -0.609,0.154 -0.919,0.1l-0.575,0.411c-3.318,-3.49 -7.788,-5.658 -12.579,-6.091c-0,-0.228 -0.03,-0.57 -0.034,-0.678c-0.258,-0.177 -0.436,-0.449 -0.496,-0.757c-0.032,-0.922 0.026,-1.843 0.173,-2.753c0.098,-0.457 0.166,-0.958 0.209,-1.444l0,-0.457c0.046,-0.876 -0.617,-1.627 -1.489,-1.688l-0.02,0.012Zm-1.895,11.785l-0.455,7.968l-0.034,-0c-0.023,0.493 -0.311,0.912 -0.755,1.15c-0.443,0.237 -0.968,0.166 -1.363,-0.123l-6.512,-4.631c2.073,-2.044 4.673,-3.465 7.507,-4.104c0.532,-0.114 1.068,-0.201 1.607,-0.26l0.005,-0Zm3.79,-0c3.41,0.426 6.605,1.968 9.091,4.389l-6.45,4.601c-0.399,0.315 -0.942,0.376 -1.401,0.157c-0.46,-0.218 -0.756,-0.678 -0.767,-1.188l-0.473,-7.959Zm-15.272,7.361l5.954,5.334l0,0.034c0.367,0.326 0.527,0.828 0.417,1.307c-0.109,0.479 -0.47,0.861 -0.942,0.995l0,0.023l-7.641,2.207c-0.378,-3.456 0.401,-6.939 2.214,-9.901l-0.002,0.001Zm26.711,0c1.81,2.954 2.609,6.42 2.277,9.871l-7.663,-2.213l-0,-0.029c-0.476,-0.128 -0.842,-0.51 -0.948,-0.993c-0.109,-0.481 0.053,-0.983 0.423,-1.309l5.909,-5.309l0.002,-0.018Zm-14.554,5.749l2.436,-0l1.477,1.898l-0.541,2.372l-2.188,1.057l-2.194,-1.057l-0.515,-2.372l1.525,-1.898Zm7.804,6.474c0.114,-0.011 0.227,-0.011 0.307,0l7.879,1.335c-1.136,3.285 -3.379,6.091 -6.306,7.968l-3.046,-7.4c-0.17,-0.403 -0.134,-0.864 0.096,-1.235c0.23,-0.372 0.626,-0.608 1.061,-0.634l0.009,-0.034Zm-13.234,0.034c0.445,0.008 0.857,0.237 1.1,0.612c0.242,0.374 0.282,0.845 0.107,1.254l-0,0.03l-3.027,7.341c-2.898,-1.865 -5.101,-4.637 -6.269,-7.886l7.812,-1.33c0.087,-0.009 0.176,-0.009 0.263,-0l0.014,-0.021Zm6.6,3.194c0.506,-0.016 0.979,0.256 1.22,0.703l0.03,-0l3.85,6.973l-1.539,0.457c-2.832,0.65 -5.79,0.497 -8.541,-0.443l3.864,-6.974c0.235,-0.408 0.666,-0.664 1.136,-0.673l-0.02,-0.043Z" style="fill:#fff;stroke:#fff;stroke-width:0.11px;stroke-linecap:round;stroke-linejoin:round;"/></g></g><g><path d="M878,1090c-0,-5.519 -4.481,-10 -10,-10l-78,0c-5.519,0 -10,4.481 -10,10l-0,78c-0,5.519 4.481,10 10,10l78,0c5.519,0 10,-4.481 10,-10l-0,-78Z" style="fill:#fff;stroke:#262626;stroke-opacity:0.5;stroke-width:4.17px;"/><g id="active-directory-2"><g id="active-directory"><g id="A"><path id="Shape10" serif:id="Shape" d="M826.639,1120.48l-12.315,11.368c0.552,0.926 0.92,2.017 0.92,2.933c-0,0.55 -0,1.1 -0.184,1.65l12.683,7.701l-0,-22.185c-0.186,0 -0.92,-1.283 -1.112,-1.467l0.008,0Zm6.336,-0.185c-0.185,0.184 -2.206,1.65 -2.389,1.834l0,22.001l12.683,-8.048c-0.186,-0.55 -0.368,-0.926 -0.368,-1.283c-0,-0.733 0.183,-1.467 0.368,-2.2l-10.294,-12.294l0,-0.01Zm-3.651,-28.102l-37.13,44.005l36.945,30.07l37.13,-29.887l-36.945,-44.188Zm19.667,48.588c-1.655,0 -3.125,-0.733 -4.228,-1.833l-10.109,7.151c0.735,0.926 0.919,2.017 0.919,3.3c0,3.3 -2.757,5.868 -5.881,5.868c-3.309,-0 -5.882,-2.567 -5.882,-5.868c0,-1.467 0.552,-2.75 1.471,-3.852l-11.765,-6.224c-1.111,1.1 -2.574,1.65 -4.044,1.65c-3.308,0 -5.881,-2.567 -5.881,-5.868c-0,-3.3 2.756,-5.875 5.881,-5.875c0.919,0 1.838,0.184 2.758,0.734l12.314,-11.368c-0.918,-1.1 -1.296,-2.566 -1.296,-3.85c0,-3.666 2.941,-6.416 6.617,-6.416c3.676,-0 6.616,2.933 6.616,6.416c0,1.284 -0.367,2.384 -1.111,3.484l10.477,12.284c0.919,-0.734 2.206,-1.1 3.493,-1.1c3.308,-0 5.881,2.566 5.881,5.867c-0.367,2.75 -3.125,5.5 -6.25,5.5l0.02,0Z" style="fill:#0078d7;"/></g><g id="A1" serif:id="A"><path id="Shape11" serif:id="Shape" d="M826.176,1120.02l-12.315,11.367c0.552,0.926 0.92,2.017 0.92,2.933c-0,0.55 -0,1.1 -0.184,1.65l12.683,7.701l-0,-22.185c-0.186,0 -0.92,-1.283 -1.111,-1.466l0.007,-0Zm6.336,-0.186c-0.185,0.184 -2.206,1.65 -2.389,1.834l0,22.002l12.683,-8.049c-0.186,-0.55 -0.368,-0.926 -0.368,-1.283c-0,-0.733 0.183,-1.467 0.368,-2.2l-10.294,-12.294l0,-0.01Zm-3.651,-28.102l-37.13,44.005l36.945,30.07l37.13,-29.887l-36.945,-44.188Zm19.667,48.588c-1.655,0 -3.125,-0.733 -4.228,-1.833l-10.109,7.151c0.735,0.926 0.919,2.017 0.919,3.3c0,3.3 -2.757,5.868 -5.881,5.868c-3.309,-0 -5.882,-2.567 -5.882,-5.868c0,-1.467 0.552,-2.75 1.471,-3.852l-11.765,-6.224c-1.111,1.1 -2.574,1.65 -4.044,1.65c-3.308,0 -5.881,-2.567 -5.881,-5.867c-0,-3.301 2.756,-5.875 5.881,-5.875c0.919,-0 1.838,0.183 2.758,0.733l12.314,-11.368c-0.918,-1.1 -1.296,-2.566 -1.296,-3.85c0,-3.666 2.941,-6.416 6.617,-6.416c3.676,-0 6.617,2.933 6.617,6.416c-0,1.284 -0.368,2.384 -1.112,3.484l10.477,12.284c0.919,-0.733 2.206,-1.1 3.493,-1.1c3.308,-0 5.881,2.567 5.881,5.867c-0.367,2.75 -3.125,5.5 -6.25,5.5l0.02,0Z" style="fill:#0078d7;"/></g></g></g></g><g><path d="M1040,951.231c-0,-5.519 -4.481,-10 -10,-10l-78,0c-5.519,0 -10,4.481 -10,10l-0,78c-0,5.52 4.481,10 10,10l78,0c5.519,0 10,-4.48 10,-10l-0,-78Z" style="fill:#fff;stroke:#262626;stroke-opacity:0.5;stroke-width:4.17px;"/><g id="Group-7"><path id="Path13" serif:id="Path" d="M1012.4,1012.34c0.505,-4.24 0.354,-4.86 3.476,-4.175l0.798,0.072c2.411,0.108 5.564,-0.39 7.449,-1.257c3.987,-1.875 6.353,-4.975 2.42,-4.156c-9,1.875 -9.62,-1.197 -9.62,-1.197c9.475,-14.157 13.437,-32.125 10.015,-36.522c-9.31,-12 -25.464,-6.325 -25.734,-6.175l-0.087,0.015c-1.769,-0.375 -3.724,-0.625 -5.989,-0.625c-4.06,-0.062 -7.138,1.072 -9.478,2.857c-0,-0 -28.79,-11.944 -27.453,15.022c0.285,5.75 8.162,43.438 17.565,32.031c3.445,-4.168 6.766,-7.687 6.766,-7.687c1.644,1.104 3.622,1.666 5.691,1.462l0.162,-0.125c-0.05,0.54 -0.025,1.084 0.064,1.619c-2.42,2.725 -1.707,3.204 -6.517,4.206c-4.897,1.017 -2.017,2.825 -0.143,3.3c2.278,0.575 7.548,1.375 11.111,-3.631l-0.143,0.573c0.95,0.765 0.885,5.5 1.024,8.881c0.139,3.381 0.372,6.541 1.046,8.4c0.675,1.859 1.49,6.656 7.852,5.312c5.316,-1.146 9.383,-2.8 9.755,-18.125" style="stroke:#000;stroke-width:5.37px;stroke-linecap:round;stroke-linejoin:round;"/><path id="Path14" serif:id="Path" d="M1026.53,1002.85c-9,1.875 -9.621,-1.196 -9.621,-1.196c9.476,-14.157 13.438,-32.125 10.018,-36.522c-9.32,-11.97 -25.465,-6.32 -25.738,-6.175l-0.087,0.017c-1.972,-0.399 -3.976,-0.609 -5.986,-0.629c-4.06,-0.063 -7.138,1.072 -9.478,2.856c-0,0 -28.794,-11.944 -27.453,15.021c0.285,5.75 8.162,43.438 17.565,32.032c3.497,-4.194 6.787,-7.717 6.787,-7.717c1.645,1.104 3.622,1.667 5.692,1.463l0.161,-0.125c-0.047,0.54 -0.025,1.084 0.066,1.619c-2.421,2.725 -1.707,3.203 -6.518,4.206c-4.897,1.016 -2.017,2.825 -0.142,3.3c2.278,0.575 7.547,1.375 11.11,-3.631l-0.143,0.571c0.95,0.766 1.614,4.979 1.49,8.797c-0.124,3.819 -0.186,6.438 0.559,8.5c0.744,2.063 1.489,6.657 7.851,5.313c5.316,-1.146 8.069,-4.125 8.458,-9.081c0.273,-3.525 0.887,-3.007 0.931,-6.157l0.496,-1.493c0.568,-4.782 0.094,-6.322 3.367,-5.604l0.797,0.072c2.412,0.109 5.568,-0.39 7.448,-1.256c3.988,-1.875 6.354,-4.975 2.421,-4.156l-0.051,-0.025Z" style="fill:#336791;"/><path id="Shape12" serif:id="Shape" d="M993.256,1005.56c-0.249,8.894 0.062,17.85 0.924,20c0.863,2.15 2.717,6.407 9.081,5.038c5.316,-1.146 7.254,-3.369 8.09,-8.271l1.965,-15.678m-27.689,-45.676c0,-0 -28.8,-11.875 -27.471,15.104c0.285,5.75 8.162,43.437 17.565,32.031c3.433,-4.166 6.536,-7.425 6.536,-7.425m18.931,-41.875c-0.993,0.312 16.014,-6.265 25.703,6.181c3.414,4.396 -0.543,22.366 -10.018,36.521" style="fill:none;stroke:#fff;stroke-width:1.79px;stroke-linecap:round;stroke-linejoin:round;"/><path id="Shape13" serif:id="Shape" d="M1016.88,1001.51c-0,0 0.62,3.063 9.62,1.194c3.933,-0.819 1.564,2.294 -2.42,4.156c-3.271,1.563 -10.608,1.923 -10.728,-0.187c-0.311,-5.453 3.848,-3.798 3.559,-5.163c-0.273,-1.231 -2.173,-2.437 -3.371,-5.45c-1.076,-2.625 -14.772,-22.812 3.799,-19.791c0.683,-0.14 -4.841,-17.812 -22.221,-18.069c-17.379,-0.256 -16.799,21.528 -16.799,21.528m10.077,23.665c-2.421,2.725 -1.707,3.204 -6.517,4.206c-4.897,1.016 -2.017,2.825 -0.143,3.3c2.278,0.575 7.548,1.375 11.11,-3.635c1.087,-1.562 -0.006,-3.969 -1.495,-4.587c-0.72,-0.3 -1.682,-0.675 -2.918,0.718l-0.037,-0.002Z" style="fill:none;stroke:#fff;stroke-width:1.79px;stroke-linecap:round;stroke-linejoin:round;"/><path id="Path15" serif:id="Path" d="M988.234,1003.33c-0.248,-1.603 0.522,-3.506 1.345,-5.75c1.235,-3.344 4.096,-6.688 1.806,-17.304c-1.697,-7.906 -13.097,-1.646 -13.097,-0.575c0,1.071 0.515,5.438 -0.186,10.516c-0.921,6.632 4.19,12.25 10.074,11.667" style="fill:none;stroke:#fff;stroke-width:1.79px;stroke-linecap:round;stroke-linejoin:round;"/><path id="Path16" serif:id="Path" d="M985.519,979.556c-0.052,0.365 0.668,1.344 1.614,1.475c0.946,0.131 1.732,-0.631 1.785,-1c0.054,-0.369 -0.668,-0.769 -1.614,-0.9c-0.945,-0.131 -1.737,0.062 -1.783,0.425l-0.002,-0Z" style="fill:#fff;stroke:#fff;stroke-width:0.6px;stroke-linecap:round;stroke-linejoin:round;"/><path id="Path17" serif:id="Path" d="M1013.96,978.808c0.05,0.365 -0.668,1.344 -1.613,1.475c-0.946,0.132 -1.738,-0.631 -1.784,-1c-0.046,-0.368 0.668,-0.768 1.613,-0.9c0.946,-0.131 1.738,0.063 1.786,0.425l-0.002,0Z" style="fill:#fff;stroke:#fff;stroke-width:0.3px;stroke-linecap:round;stroke-linejoin:round;"/><path id="Path18" serif:id="Path" d="M1017.3,976.276c0.155,2.875 -0.614,4.829 -0.714,7.875c-0.142,4.444 2.104,9.531 -1.281,14.625" style="fill:none;stroke:#fff;stroke-width:1.79px;stroke-linecap:round;stroke-linejoin:round;"/><path id="Path19" serif:id="Path" d="M1011.29,1011.22c0.505,-4.24 0.354,-4.86 3.476,-4.175l0.798,0.071c2.411,0.109 5.564,-0.39 7.448,-1.256c3.988,-1.875 6.354,-4.975 2.421,-4.157c-9,1.875 -9.621,-1.197 -9.621,-1.197c9.476,-14.156 13.438,-32.125 10.016,-36.521c-9.31,-12 -25.464,-6.325 -25.734,-6.175l-0.087,0.015c-1.769,-0.375 -3.724,-0.625 -5.989,-0.625c-4.06,-0.063 -7.138,1.071 -9.478,2.856c-0,-0 -28.79,-11.944 -27.453,15.022c0.285,5.75 8.162,43.438 17.565,32.032c3.445,-4.169 6.766,-7.688 6.766,-7.688c1.644,1.104 3.622,1.666 5.691,1.463l0.162,-0.125c-0.05,0.54 -0.025,1.083 0.064,1.618c-2.42,2.725 -1.707,3.204 -6.517,4.207c-4.897,1.016 -2.017,2.825 -0.143,3.3c2.278,0.575 7.548,1.375 11.111,-3.632l-0.143,0.573c0.949,0.765 0.885,5.5 1.024,8.881c0.139,3.381 0.372,6.541 1.046,8.4c0.675,1.859 1.49,6.656 7.852,5.313c5.316,-1.147 9.383,-2.8 9.755,-18.125" style="stroke:#000;stroke-width:5.37px;stroke-linecap:round;stroke-linejoin:round;"/><path id="Path20" serif:id="Path" d="M1025.42,1001.73c-9,1.875 -9.621,-1.196 -9.621,-1.196c9.476,-14.156 13.438,-32.125 10.018,-36.521c-9.32,-11.97 -25.465,-6.32 -25.738,-6.175l-0.087,0.016c-1.972,-0.398 -3.976,-0.609 -5.986,-0.629c-4.06,-0.062 -7.138,1.073 -9.478,2.856c-0,0 -28.794,-11.943 -27.453,15.022c0.285,5.75 8.162,43.437 17.565,32.031c3.497,-4.194 6.787,-7.716 6.787,-7.716c1.645,1.103 3.622,1.666 5.692,1.462l0.161,-0.125c-0.047,0.54 -0.025,1.084 0.066,1.619c-2.421,2.725 -1.707,3.204 -6.518,4.206c-4.897,1.016 -2.017,2.825 -0.142,3.3c2.278,0.575 7.547,1.375 11.11,-3.631l-0.143,0.571c0.95,0.766 1.614,4.979 1.49,8.798c-0.124,3.818 -0.186,6.437 0.559,8.5c0.744,2.062 1.489,6.656 7.851,5.312c5.316,-1.146 8.069,-4.125 8.458,-9.081c0.273,-3.525 0.887,-3.006 0.931,-6.156l0.496,-1.494c0.568,-4.781 0.093,-6.321 3.367,-5.604l0.797,0.073c2.412,0.108 5.568,-0.39 7.448,-1.257c3.988,-1.875 6.354,-4.975 2.421,-4.156l-0.051,-0.025Z" style="fill:#336791;"/><path id="Shape14" serif:id="Shape" d="M992.145,1004.45c-0.249,8.893 0.062,17.85 0.924,20c0.863,2.15 2.717,6.406 9.081,5.037c5.316,-1.146 7.253,-3.369 8.09,-8.271l1.965,-15.678m-27.689,-45.676c0,0 -28.8,-11.875 -27.471,15.104c0.285,5.75 8.162,43.437 17.565,32.031c3.433,-4.166 6.536,-7.425 6.536,-7.425m18.931,-41.875c-0.993,0.313 16.014,-6.265 25.703,6.181c3.414,4.397 -0.543,22.367 -10.018,36.522" style="fill:none;stroke:#fff;stroke-width:1.79px;stroke-linecap:round;stroke-linejoin:round;"/><path id="Shape15" serif:id="Shape" d="M1015.77,1000.39c-0,-0 0.62,3.062 9.62,1.193c3.933,-0.818 1.564,2.294 -2.42,4.157c-3.271,1.562 -10.608,1.922 -10.728,-0.188c-0.311,-5.452 3.848,-3.797 3.559,-5.162c-0.274,-1.232 -2.173,-2.438 -3.371,-5.45c-1.076,-2.625 -14.772,-22.813 3.799,-19.792c0.683,-0.14 -4.842,-17.812 -22.221,-18.068c-17.379,-0.257 -16.799,21.527 -16.799,21.527m10.077,23.665c-2.421,2.725 -1.707,3.204 -6.517,4.206c-4.897,1.017 -2.017,2.825 -0.143,3.3c2.278,0.575 7.548,1.375 11.11,-3.635c1.087,-1.562 -0.006,-3.968 -1.495,-4.587c-0.72,-0.3 -1.682,-0.675 -2.918,0.719l-0.037,-0.003Z" style="fill:none;stroke:#fff;stroke-width:1.79px;stroke-linecap:round;stroke-linejoin:round;"/><path id="Path21" serif:id="Path" d="M987.123,1002.21c-0.248,-1.602 0.522,-3.506 1.345,-5.75c1.235,-3.344 4.096,-6.687 1.806,-17.304c-1.697,-7.906 -13.097,-1.646 -13.097,-0.575c0,1.072 0.515,5.438 -0.186,10.517c-0.921,6.631 4.19,12.25 10.074,11.666" style="fill:none;stroke:#fff;stroke-width:1.79px;stroke-linecap:round;stroke-linejoin:round;"/><path id="Path22" serif:id="Path" d="M984.408,978.437c-0.052,0.365 0.668,1.344 1.614,1.475c0.946,0.131 1.732,-0.631 1.785,-1c0.054,-0.369 -0.668,-0.769 -1.614,-0.9c-0.946,-0.131 -1.738,0.063 -1.783,0.425l-0.002,0Z" style="fill:#fff;stroke:#fff;stroke-width:0.6px;stroke-linecap:round;stroke-linejoin:round;"/><path id="Path23" serif:id="Path" d="M1012.85,977.69c0.05,0.365 -0.668,1.343 -1.613,1.475c-0.946,0.131 -1.738,-0.632 -1.784,-1c-0.046,-0.369 0.668,-0.769 1.613,-0.9c0.946,-0.132 1.738,0.062 1.786,0.425l-0.002,-0Z" style="fill:#fff;stroke:#fff;stroke-width:0.3px;stroke-linecap:round;stroke-linejoin:round;"/><path id="Path24" serif:id="Path" d="M1016.19,975.157c0.155,2.875 -0.614,4.829 -0.714,7.875c-0.142,4.444 2.104,9.531 -1.281,14.625" style="fill:none;stroke:#fff;stroke-width:1.79px;stroke-linecap:round;stroke-linejoin:round;"/></g></g><path id="Line-7" d="M98.03,387.566l-0.015,-21c-0.009,-12.029 8.682,-21.809 19.479,-22.012l0.327,-0.003l140.562,-0.104l-0.008,-10l21.634,11.984l-21.616,12.016l-0.007,-10l-140.562,0.104c-8.857,0.007 -16.051,7.893 -16.203,17.681l-0.002,0.331l0.016,21l-3.605,0.003Z" style="fill:#00acff;fill-rule:nonzero;"/><path id="Line-71" serif:id="Line-7" d="M475,675.686l-12,-17.561l10,0l-0,-42.439l4,0l-0,42.439l10,0l-12,17.561Z" style="fill:#00acff;fill-rule:nonzero;"/><path id="Line-72" serif:id="Line-7" d="M520,676.186l0,-46.723c0,-4.235 4.735,-7.68 10.632,-7.785l0.277,-0.003l187.273,0l-0,-6.489l21.818,7.787l-21.818,7.787l-0,-6.489l-187.273,0c-3.941,0 -7.149,2.238 -7.269,5.03l-0.004,0.162l0,46.723l-3.636,0Z" style="fill:#00acff;fill-rule:nonzero;"/><path id="Line-73" serif:id="Line-7" d="M276.374,893l3.626,-0l-0,24l-3.626,-0l0,-10l-161.165,-0c-10.864,-0 -19.707,-9.585 -19.938,-21.523l-0.005,-0.362l-0.075,-16.104l-9.066,0.051l10.765,-24.062l10.991,23.937l-9.064,0.053l0.075,16.104c0.046,9.793 7.175,17.726 16.015,17.903l0.302,0.003l161.165,-0l0,-10Z" style="fill:#00acff;fill-rule:nonzero;"/><g><path d="M878,172c0,-5.519 -4.481,-10 -10,-10l-78,0c-5.519,0 -10,4.481 -10,10l0,78c0,5.519 4.481,10 10,10l78,0c5.519,0 10,-4.481 10,-10l0,-78Z" style="fill:#fff;stroke:#262626;stroke-opacity:0.5;stroke-width:4.17px;"/><g id="PKI"><text x="809.73px" y="219.607px" style="font-family:'Helvetica';font-size:24px;fill:#313c48;">PKI</text></g></g><g><path d="M1040,310c0,-5.519 -4.481,-10 -10,-10l-78,0c-5.519,0 -10,4.481 -10,10l0,78c0,5.519 4.481,10 10,10l78,0c5.519,0 10,-4.481 10,-10l0,-78Z" style="fill:#fff;stroke:#262626;stroke-opacity:0.5;stroke-width:4.17px;"/><g id="TDE"><text x="967.072px" y="357.607px" style="font-family:'Helvetica';font-size:24px;fill:#313c48;">TDE</text></g></g><g><path d="M882.112,310c0,-5.519 -4.48,-10 -10,-10l-78,0c-5.519,0 -10,4.481 -10,10l0,78c0,5.519 4.481,10 10,10l78,0c5.52,0 10,-4.481 10,-10l0,-78Z" style="fill:#fff;stroke:#262626;stroke-opacity:0.5;stroke-width:4.17px;"/><g id="FPE"><text x="809.846px" y="357.607px" style="font-family:'Helvetica';font-size:24px;fill:#313c48;">FPE</text></g></g><g><path d="M1038,170c0,-5.519 -4.481,-10 -10,-10l-78,0c-5.519,0 -10,4.481 -10,10l0,78c0,5.519 4.481,10 10,10l78,0c5.519,0 10,-4.481 10,-10l0,-78Z" style="fill:#fff;stroke:#262626;stroke-opacity:0.5;stroke-width:4.17px;"/><g id="SSE"><text x="965.06px" y="217.572px" style="font-family:'Helvetica';font-size:24px;fill:#313c48;">SSE</text></g></g><g><path d="M882.112,452c0,-5.519 -4.48,-10 -10,-10l-78,0c-5.519,0 -10,4.481 -10,10l0,78c0,5.519 4.481,10 10,10l78,0c5.52,0 10,-4.481 10,-10l0,-78Z" style="fill:#fff;stroke:#262626;stroke-opacity:0.5;stroke-width:4.17px;"/><g id="DEK"><text x="808.511px" y="499.607px" style="font-family:'Helvetica';font-size:24px;fill:#313c48;">DEK</text></g></g><g><path d="M1038,452c0,-5.519 -4.481,-10 -10,-10l-78,0c-5.519,0 -10,4.481 -10,10l0,78c0,5.519 4.481,10 10,10l78,0c5.519,0 10,-4.481 10,-10l0,-78Z" style="fill:#fff;stroke:#262626;stroke-opacity:0.5;stroke-width:4.17px;"/><g id="EaaS"><text x="959.741px" y="499.572px" style="font-family:'Helvetica';font-size:24px;fill:#313c48;">EaaS</text></g></g></svg>